G75*
%MOIN*%
%OFA0B0*%
%FSLAX25Y25*%
%IPPOS*%
%LPD*%
%AMOC8*
5,1,8,0,0,1.08239X$1,22.5*
%
%ADD10R,0.00748X0.00118*%
%ADD11R,0.00118X0.00118*%
%ADD12R,0.00236X0.00118*%
%ADD13R,0.01260X0.00118*%
%ADD14R,0.01378X0.00118*%
%ADD15R,0.00787X0.00118*%
%ADD16R,0.01732X0.00118*%
%ADD17R,0.00906X0.00118*%
%ADD18R,0.00276X0.00118*%
%ADD19R,0.00866X0.00118*%
%ADD20R,0.01772X0.00118*%
%ADD21R,0.00630X0.00118*%
%ADD22R,0.01024X0.00118*%
%ADD23R,0.02402X0.00118*%
%ADD24R,0.01417X0.00118*%
%ADD25R,0.00984X0.00118*%
%ADD26R,0.02283X0.00118*%
%ADD27R,0.02008X0.00118*%
%ADD28R,0.01654X0.00118*%
%ADD29R,0.01890X0.00118*%
%ADD30R,0.01614X0.00118*%
%ADD31R,0.01496X0.00118*%
%ADD32R,0.02520X0.00118*%
%ADD33R,0.02008X0.00157*%
%ADD34R,0.00984X0.00157*%
%ADD35R,0.00906X0.00157*%
%ADD36R,0.01890X0.00157*%
%ADD37R,0.01654X0.00157*%
%ADD38R,0.02047X0.00157*%
%ADD39R,0.02402X0.00157*%
%ADD40R,0.01772X0.00157*%
%ADD41R,0.00866X0.00157*%
%ADD42R,0.01614X0.00157*%
%ADD43R,0.02520X0.00157*%
%ADD44R,0.02126X0.00118*%
%ADD45R,0.01142X0.00118*%
%ADD46R,0.01102X0.00118*%
%ADD47R,0.02047X0.00118*%
%ADD48R,0.02165X0.00118*%
%ADD49R,0.02362X0.00118*%
%ADD50R,0.00748X0.00157*%
%ADD51R,0.00787X0.00157*%
%ADD52R,0.01142X0.00157*%
%ADD53R,0.00630X0.00157*%
%ADD54R,0.01024X0.00157*%
%ADD55R,0.00394X0.00118*%
%ADD56R,0.00472X0.00118*%
%ADD57R,0.00354X0.00118*%
%ADD58R,0.00512X0.00118*%
%ADD59R,0.01535X0.00118*%
%ADD60R,0.02244X0.00118*%
%ADD61R,0.01260X0.00157*%
%ADD62R,0.01417X0.00157*%
%ADD63R,0.02165X0.00157*%
%ADD64R,0.01102X0.00157*%
%ADD65R,0.01378X0.00157*%
%ADD66R,0.00157X0.00118*%
%ADD67R,0.01535X0.00157*%
%ADD68R,0.02283X0.00157*%
%ADD69R,0.02126X0.00157*%
%ADD70R,0.02638X0.00157*%
%ADD71R,0.02638X0.00118*%
%ADD72R,0.02362X0.00157*%
%ADD73R,0.01496X0.00157*%
%ADD74R,0.02677X0.00118*%
%ADD75R,0.02677X0.00157*%
%ADD76R,0.01732X0.00157*%
%ADD77R,0.02244X0.00157*%
D10*
X0129849Y0100366D03*
X0129849Y0100484D03*
X0129849Y0100878D03*
X0131345Y0102768D03*
X0133865Y0102374D03*
X0133865Y0102256D03*
X0133865Y0101744D03*
X0133865Y0101626D03*
X0134770Y0103634D03*
X0136660Y0103516D03*
X0136896Y0106114D03*
X0136778Y0107768D03*
X0134377Y0107768D03*
X0134495Y0106114D03*
X0131345Y0108634D03*
X0141188Y0108634D03*
X0142054Y0107256D03*
X0142054Y0107138D03*
X0142054Y0106862D03*
X0142054Y0106744D03*
X0142054Y0106626D03*
X0143196Y0106626D03*
X0143196Y0106744D03*
X0143196Y0106862D03*
X0143196Y0107138D03*
X0143196Y0106508D03*
X0143196Y0106232D03*
X0143196Y0106114D03*
X0143196Y0105996D03*
X0143196Y0105878D03*
X0143196Y0105602D03*
X0143196Y0105484D03*
X0143196Y0105366D03*
X0149259Y0103516D03*
X0149259Y0103398D03*
X0149259Y0103122D03*
X0149259Y0103004D03*
X0149259Y0102886D03*
X0149259Y0102768D03*
X0149259Y0102492D03*
X0149259Y0102374D03*
X0149259Y0102256D03*
X0149259Y0102138D03*
X0149259Y0101114D03*
X0149259Y0100996D03*
X0149259Y0100878D03*
X0149259Y0100602D03*
X0149259Y0100484D03*
X0145479Y0102138D03*
X0145479Y0102256D03*
X0145479Y0102374D03*
X0145479Y0102492D03*
X0143825Y0102492D03*
X0142684Y0101232D03*
X0140046Y0101232D03*
X0150518Y0103398D03*
X0150518Y0103516D03*
X0153038Y0101232D03*
X0156306Y0103634D03*
X0157054Y0102768D03*
X0157054Y0102492D03*
X0158196Y0102138D03*
X0158196Y0101862D03*
X0158196Y0101744D03*
X0158196Y0101626D03*
X0158196Y0101508D03*
X0158196Y0101232D03*
X0158196Y0101114D03*
X0158196Y0100996D03*
X0158196Y0100878D03*
X0158196Y0100602D03*
X0158196Y0100484D03*
X0158196Y0100366D03*
X0160085Y0102768D03*
X0161463Y0102768D03*
X0162605Y0101232D03*
X0163471Y0103634D03*
X0165361Y0102374D03*
X0165361Y0102256D03*
X0165361Y0101744D03*
X0165361Y0101626D03*
X0166266Y0103634D03*
X0164613Y0106626D03*
X0164613Y0106744D03*
X0164613Y0106862D03*
X0164613Y0107138D03*
X0164613Y0107256D03*
X0163747Y0108634D03*
X0169140Y0108634D03*
X0172684Y0107256D03*
X0172684Y0107138D03*
X0172684Y0106862D03*
X0172684Y0106744D03*
X0172684Y0106626D03*
X0173825Y0106626D03*
X0173825Y0106744D03*
X0173825Y0106862D03*
X0173825Y0107138D03*
X0173825Y0106508D03*
X0173825Y0106232D03*
X0173825Y0106114D03*
X0173825Y0105996D03*
X0173825Y0105878D03*
X0173825Y0105602D03*
X0173825Y0105484D03*
X0173825Y0105366D03*
X0173432Y0103516D03*
X0174692Y0103398D03*
X0177329Y0102768D03*
X0177329Y0101626D03*
X0180361Y0103634D03*
X0181109Y0102768D03*
X0181109Y0102492D03*
X0184888Y0102492D03*
X0184888Y0102374D03*
X0184888Y0102256D03*
X0184888Y0102138D03*
X0184888Y0102768D03*
X0184888Y0102886D03*
X0184888Y0103004D03*
X0184888Y0103122D03*
X0184888Y0103398D03*
X0184888Y0103516D03*
X0186148Y0103516D03*
X0186148Y0103398D03*
X0188314Y0103634D03*
X0188944Y0106114D03*
X0186542Y0106626D03*
X0186542Y0106744D03*
X0186542Y0106862D03*
X0186542Y0107138D03*
X0186542Y0107256D03*
X0182999Y0108634D03*
X0182133Y0107492D03*
X0179849Y0106232D03*
X0175715Y0108516D03*
X0173825Y0108398D03*
X0171660Y0103634D03*
X0170912Y0102768D03*
X0158196Y0103398D03*
X0159337Y0108634D03*
X0152762Y0108634D03*
X0147723Y0108634D03*
X0143196Y0108398D03*
X0158818Y0120366D03*
X0158818Y0120484D03*
X0158818Y0120602D03*
X0160314Y0120602D03*
X0160314Y0120484D03*
X0160314Y0120366D03*
X0160314Y0120878D03*
X0160314Y0120996D03*
X0160314Y0121114D03*
X0160314Y0121232D03*
X0160314Y0121508D03*
X0160314Y0121626D03*
X0160314Y0121744D03*
X0160314Y0121862D03*
X0160314Y0122138D03*
X0160314Y0123398D03*
X0162951Y0123634D03*
X0165747Y0123634D03*
X0168503Y0123634D03*
X0171140Y0123634D03*
X0172164Y0125484D03*
X0172164Y0125602D03*
X0172164Y0125878D03*
X0172164Y0125996D03*
X0172164Y0126114D03*
X0172164Y0127138D03*
X0172164Y0127256D03*
X0172164Y0127374D03*
X0172164Y0127492D03*
X0172164Y0127768D03*
X0172164Y0127886D03*
X0172164Y0128004D03*
X0172164Y0128122D03*
X0172164Y0128398D03*
X0172164Y0128516D03*
X0173424Y0128516D03*
X0173424Y0128398D03*
X0174802Y0128516D03*
X0180235Y0128634D03*
X0184014Y0128634D03*
X0186770Y0125878D03*
X0186770Y0125484D03*
X0186770Y0125366D03*
X0187518Y0123634D03*
X0185629Y0122768D03*
X0185629Y0122492D03*
X0184881Y0123634D03*
X0182991Y0122768D03*
X0182991Y0121626D03*
X0189408Y0121232D03*
X0194723Y0121114D03*
X0194723Y0120996D03*
X0194723Y0120878D03*
X0194723Y0120602D03*
X0194723Y0120484D03*
X0194723Y0122138D03*
X0194723Y0122256D03*
X0194723Y0122374D03*
X0194723Y0122492D03*
X0194723Y0122768D03*
X0194723Y0122886D03*
X0194723Y0123004D03*
X0194723Y0123122D03*
X0194723Y0123398D03*
X0194723Y0123516D03*
X0195983Y0123516D03*
X0195983Y0123398D03*
X0198109Y0123634D03*
X0199999Y0121232D03*
X0203542Y0123634D03*
X0202636Y0125484D03*
X0202636Y0125602D03*
X0202636Y0125878D03*
X0202636Y0125996D03*
X0202636Y0126114D03*
X0202636Y0127138D03*
X0202636Y0127256D03*
X0202636Y0127374D03*
X0202636Y0127492D03*
X0202636Y0127768D03*
X0202636Y0127886D03*
X0202636Y0128004D03*
X0202636Y0128122D03*
X0202636Y0128398D03*
X0202636Y0128516D03*
X0203896Y0128516D03*
X0203896Y0128398D03*
X0200747Y0128634D03*
X0199881Y0127492D03*
X0197991Y0128516D03*
X0191692Y0128634D03*
X0206180Y0123634D03*
X0204692Y0108398D03*
X0203432Y0108516D03*
X0201542Y0108634D03*
X0197133Y0108398D03*
X0197133Y0107138D03*
X0197133Y0106862D03*
X0197133Y0106744D03*
X0197133Y0106626D03*
X0197133Y0106508D03*
X0197133Y0106232D03*
X0197133Y0106114D03*
X0197133Y0105996D03*
X0197133Y0105878D03*
X0197133Y0105602D03*
X0197133Y0105484D03*
X0197133Y0105366D03*
X0198117Y0103516D03*
X0199377Y0103398D03*
X0200912Y0103398D03*
X0200912Y0103516D03*
X0202172Y0103516D03*
X0200912Y0100484D03*
X0204928Y0101114D03*
X0193707Y0103634D03*
X0193707Y0105366D03*
X0193707Y0105484D03*
X0193707Y0105878D03*
X0190951Y0103634D03*
X0184888Y0101114D03*
X0184888Y0100996D03*
X0184888Y0100878D03*
X0184888Y0100602D03*
X0184888Y0100484D03*
X0195243Y0108516D03*
X0175432Y0121626D03*
X0175432Y0121744D03*
X0175432Y0122256D03*
X0175432Y0122374D03*
X0168385Y0127492D03*
X0166731Y0127374D03*
X0166731Y0126508D03*
X0164841Y0128634D03*
X0162951Y0126114D03*
X0157282Y0128516D03*
X0153385Y0126232D03*
X0151495Y0128634D03*
X0149487Y0127768D03*
X0148109Y0127768D03*
X0146967Y0127374D03*
X0146967Y0127256D03*
X0146967Y0127138D03*
X0143306Y0128634D03*
X0141416Y0127256D03*
X0141416Y0127138D03*
X0141416Y0126862D03*
X0141416Y0126744D03*
X0141416Y0126626D03*
X0140550Y0128634D03*
X0137125Y0126232D03*
X0134605Y0126232D03*
X0133227Y0128398D03*
X0131967Y0128516D03*
X0130471Y0125878D03*
X0130471Y0125484D03*
X0130471Y0125366D03*
X0131967Y0123634D03*
X0132715Y0122492D03*
X0132715Y0122374D03*
X0132715Y0122256D03*
X0132715Y0122138D03*
X0131101Y0122492D03*
X0129959Y0121232D03*
X0136377Y0123634D03*
X0138266Y0122374D03*
X0138266Y0122256D03*
X0138266Y0121744D03*
X0138266Y0121626D03*
X0144448Y0123634D03*
X0145196Y0122768D03*
X0145196Y0122492D03*
X0147479Y0122768D03*
X0147597Y0121114D03*
X0149487Y0123634D03*
X0152636Y0122768D03*
X0152755Y0121114D03*
X0155038Y0122492D03*
X0155904Y0123634D03*
X0156652Y0122492D03*
X0156652Y0122374D03*
X0156652Y0122256D03*
X0156652Y0122138D03*
X0170274Y0128634D03*
X0187794Y0143484D03*
X0186652Y0144114D03*
X0187794Y0146516D03*
X0186759Y0148366D03*
X0186759Y0148484D03*
X0186759Y0148878D03*
X0189790Y0150768D03*
X0189042Y0151634D03*
X0186861Y0154232D03*
X0185719Y0154626D03*
X0185719Y0155768D03*
X0180325Y0156634D03*
X0177806Y0156634D03*
X0175522Y0153602D03*
X0175522Y0153484D03*
X0175522Y0153366D03*
X0173176Y0151634D03*
X0167861Y0151634D03*
X0168081Y0155138D03*
X0168081Y0155256D03*
X0168081Y0155374D03*
X0168081Y0155492D03*
X0167333Y0156634D03*
X0166467Y0155492D03*
X0169971Y0156634D03*
X0161782Y0156634D03*
X0159656Y0156516D03*
X0158396Y0156516D03*
X0158396Y0156398D03*
X0153593Y0155374D03*
X0153593Y0155256D03*
X0153593Y0155138D03*
X0152727Y0156634D03*
X0147924Y0156398D03*
X0146664Y0156516D03*
X0142018Y0156634D03*
X0136585Y0156634D03*
X0134696Y0155374D03*
X0134696Y0155256D03*
X0134696Y0155138D03*
X0135719Y0154232D03*
X0136247Y0151634D03*
X0136995Y0150768D03*
X0138136Y0151516D03*
X0134121Y0151516D03*
X0134121Y0151398D03*
X0132861Y0151398D03*
X0132861Y0151516D03*
X0132861Y0151122D03*
X0132861Y0151004D03*
X0132861Y0150886D03*
X0132861Y0150768D03*
X0132861Y0150492D03*
X0132861Y0150374D03*
X0132861Y0150256D03*
X0132861Y0150138D03*
X0132861Y0149114D03*
X0132861Y0148996D03*
X0132861Y0148878D03*
X0132861Y0148602D03*
X0132861Y0148484D03*
X0133109Y0146634D03*
X0134999Y0146516D03*
X0136259Y0146398D03*
X0137636Y0144232D03*
X0141298Y0146634D03*
X0141798Y0148366D03*
X0141798Y0148484D03*
X0141798Y0148602D03*
X0143294Y0150768D03*
X0145814Y0150374D03*
X0145814Y0149508D03*
X0147467Y0150492D03*
X0149475Y0151634D03*
X0152113Y0151634D03*
X0155759Y0154232D03*
X0158396Y0153484D03*
X0160302Y0151516D03*
X0157546Y0150374D03*
X0157546Y0149508D03*
X0160302Y0148484D03*
X0160077Y0145768D03*
X0158936Y0145768D03*
X0158936Y0145492D03*
X0158188Y0146634D03*
X0156416Y0145768D03*
X0155668Y0146634D03*
X0151888Y0146634D03*
X0149999Y0144114D03*
X0143936Y0146634D03*
X0130471Y0146634D03*
X0128672Y0156634D03*
X0133829Y0156634D03*
X0161455Y0145768D03*
X0163463Y0146634D03*
X0163451Y0149114D03*
X0163333Y0150768D03*
X0165617Y0148602D03*
X0165617Y0148484D03*
X0165617Y0148366D03*
X0167125Y0145374D03*
X0167125Y0145256D03*
X0167125Y0145138D03*
X0170786Y0145768D03*
X0172164Y0145768D03*
X0174172Y0146634D03*
X0176062Y0144232D03*
X0180223Y0149232D03*
X0177703Y0150768D03*
X0178451Y0151634D03*
X0192018Y0154232D03*
X0192703Y0151516D03*
X0193963Y0151398D03*
X0195459Y0150768D03*
X0196837Y0150768D03*
X0198727Y0151634D03*
X0201522Y0151634D03*
X0202373Y0153366D03*
X0202373Y0153484D03*
X0202373Y0153602D03*
X0202373Y0153878D03*
X0202373Y0153996D03*
X0202373Y0154114D03*
X0202373Y0154232D03*
X0202373Y0154508D03*
X0202373Y0154626D03*
X0202373Y0154744D03*
X0202373Y0154862D03*
X0202373Y0155138D03*
X0202373Y0156398D03*
X0201113Y0155768D03*
X0201231Y0154114D03*
X0198829Y0155492D03*
X0198829Y0155768D03*
X0198081Y0156634D03*
X0196310Y0155374D03*
X0196310Y0155256D03*
X0196310Y0155138D03*
X0195444Y0156634D03*
X0204262Y0156516D03*
X0206900Y0156398D03*
X0206900Y0155138D03*
X0206900Y0154862D03*
X0206900Y0154744D03*
X0206900Y0154626D03*
X0206900Y0154508D03*
X0206900Y0154232D03*
X0206900Y0154114D03*
X0206900Y0153996D03*
X0206900Y0153878D03*
X0206900Y0153602D03*
X0206900Y0153484D03*
X0206900Y0153366D03*
X0208672Y0153996D03*
X0210562Y0156634D03*
X0204278Y0151634D03*
X0203412Y0150374D03*
X0203412Y0150256D03*
X0203412Y0149744D03*
X0203412Y0149626D03*
X0203778Y0146634D03*
X0204526Y0145768D03*
X0204526Y0145492D03*
X0206810Y0145768D03*
X0206928Y0144114D03*
X0202007Y0145138D03*
X0202007Y0145256D03*
X0202007Y0145374D03*
X0201140Y0146634D03*
X0195589Y0146634D03*
X0191180Y0144232D03*
D11*
X0178530Y0149626D03*
X0183924Y0151634D03*
X0185680Y0154508D03*
X0190837Y0154508D03*
X0190853Y0151634D03*
X0177845Y0154626D03*
X0173215Y0149626D03*
X0161129Y0150138D03*
X0155223Y0149508D03*
X0155707Y0144626D03*
X0158227Y0144626D03*
X0144121Y0149626D03*
X0136325Y0149626D03*
X0128711Y0154626D03*
X0128385Y0144508D03*
X0157361Y0128634D03*
X0158109Y0127138D03*
X0160392Y0126508D03*
X0174881Y0128634D03*
X0175629Y0127138D03*
X0184054Y0126626D03*
X0184959Y0121626D03*
X0179408Y0121508D03*
X0174251Y0121508D03*
X0196928Y0127138D03*
X0198818Y0127138D03*
X0203581Y0121626D03*
X0198944Y0108634D03*
X0199692Y0107138D03*
X0197054Y0108634D03*
X0195282Y0108634D03*
X0188353Y0101626D03*
X0180440Y0101626D03*
X0177290Y0101508D03*
X0171739Y0101626D03*
X0161896Y0107138D03*
X0161148Y0108634D03*
X0159377Y0106626D03*
X0158117Y0103634D03*
X0150833Y0106508D03*
X0145794Y0107138D03*
X0139219Y0106508D03*
X0136699Y0103634D03*
X0132172Y0101626D03*
X0127644Y0101508D03*
X0131424Y0106626D03*
X0134566Y0122138D03*
X0173747Y0108634D03*
X0203857Y0144626D03*
X0202294Y0156634D03*
X0206822Y0156634D03*
D12*
X0205503Y0156634D03*
X0204243Y0156634D03*
X0192156Y0156634D03*
X0191014Y0154232D03*
X0192684Y0151634D03*
X0185857Y0154232D03*
X0185255Y0146634D03*
X0183877Y0146634D03*
X0182617Y0146634D03*
X0187774Y0146634D03*
X0176199Y0146634D03*
X0170636Y0149626D03*
X0168247Y0146634D03*
X0163471Y0149232D03*
X0160322Y0151634D03*
X0172747Y0154626D03*
X0149440Y0156634D03*
X0148062Y0156634D03*
X0146684Y0156634D03*
X0132841Y0151634D03*
X0131463Y0151634D03*
X0130203Y0151634D03*
X0133365Y0128634D03*
X0134743Y0128634D03*
X0137262Y0128634D03*
X0141042Y0123634D03*
X0142420Y0123634D03*
X0161081Y0122138D03*
X0183129Y0121232D03*
X0189546Y0123634D03*
X0192066Y0123634D03*
X0193325Y0123634D03*
X0194703Y0123634D03*
X0188404Y0128634D03*
X0202656Y0128634D03*
X0204034Y0128634D03*
X0203412Y0108634D03*
X0202152Y0103634D03*
X0200892Y0103634D03*
X0199514Y0103634D03*
X0198136Y0103634D03*
X0188924Y0106232D03*
X0186286Y0103634D03*
X0184908Y0103634D03*
X0177467Y0101232D03*
X0174829Y0103634D03*
X0175696Y0108634D03*
X0176955Y0108634D03*
X0190066Y0108634D03*
X0191325Y0108634D03*
X0149239Y0103634D03*
X0147861Y0103634D03*
X0146601Y0103634D03*
X0143963Y0107138D03*
X0134514Y0106232D03*
D13*
X0134751Y0103516D03*
X0136916Y0103004D03*
X0141168Y0105366D03*
X0143451Y0108004D03*
X0145223Y0108004D03*
X0147349Y0106744D03*
X0147743Y0108516D03*
X0152782Y0108516D03*
X0152782Y0105366D03*
X0150381Y0105366D03*
X0156286Y0103516D03*
X0156680Y0105366D03*
X0158451Y0103004D03*
X0159711Y0105484D03*
X0161325Y0108004D03*
X0163727Y0108516D03*
X0168766Y0106744D03*
X0169160Y0108516D03*
X0171798Y0108516D03*
X0174081Y0108004D03*
X0171798Y0105366D03*
X0166247Y0103516D03*
X0163727Y0105366D03*
X0163491Y0100366D03*
X0169042Y0100366D03*
X0172034Y0100484D03*
X0176837Y0100366D03*
X0180381Y0103516D03*
X0185656Y0105366D03*
X0190932Y0103516D03*
X0190459Y0101862D03*
X0190577Y0101744D03*
X0188688Y0100484D03*
X0193215Y0101862D03*
X0193333Y0101744D03*
X0193727Y0103516D03*
X0196601Y0102768D03*
X0201522Y0105366D03*
X0199121Y0108004D03*
X0197388Y0108004D03*
X0195499Y0108004D03*
X0201522Y0108516D03*
X0188176Y0108634D03*
X0185656Y0108516D03*
X0187538Y0120366D03*
X0190176Y0120366D03*
X0189782Y0123398D03*
X0189034Y0125366D03*
X0187538Y0123516D03*
X0184900Y0123516D03*
X0184388Y0125484D03*
X0189310Y0127768D03*
X0191672Y0128516D03*
X0196357Y0128004D03*
X0198247Y0128004D03*
X0191672Y0125366D03*
X0198129Y0123516D03*
X0198129Y0120366D03*
X0200885Y0120366D03*
X0203916Y0120484D03*
X0206160Y0123516D03*
X0206160Y0125366D03*
X0182499Y0120366D03*
X0178955Y0120366D03*
X0176318Y0123516D03*
X0180215Y0125366D03*
X0177184Y0126744D03*
X0177577Y0128516D03*
X0175058Y0128004D03*
X0180215Y0128516D03*
X0170255Y0128516D03*
X0164861Y0128516D03*
X0162577Y0127768D03*
X0164861Y0125366D03*
X0165727Y0123516D03*
X0165215Y0121862D03*
X0165373Y0121744D03*
X0168010Y0121862D03*
X0168129Y0121744D03*
X0168522Y0123516D03*
X0170255Y0125366D03*
X0171160Y0123516D03*
X0171160Y0120366D03*
X0173798Y0120366D03*
X0162971Y0120366D03*
X0160570Y0123004D03*
X0154270Y0125366D03*
X0151987Y0123634D03*
X0146829Y0123634D03*
X0144428Y0123516D03*
X0143325Y0125366D03*
X0140530Y0125366D03*
X0139152Y0123516D03*
X0137892Y0125366D03*
X0136396Y0123516D03*
X0135373Y0125366D03*
X0133995Y0123004D03*
X0136396Y0120366D03*
X0149467Y0120366D03*
X0151121Y0126744D03*
X0151003Y0126862D03*
X0151514Y0128516D03*
X0157538Y0128004D03*
X0140530Y0128516D03*
X0137499Y0128398D03*
X0134979Y0128398D03*
X0133089Y0143366D03*
X0130097Y0144744D03*
X0129940Y0144862D03*
X0130451Y0146516D03*
X0133089Y0146516D03*
X0136621Y0148484D03*
X0141278Y0146516D03*
X0143955Y0146516D03*
X0144455Y0148484D03*
X0146711Y0146516D03*
X0146318Y0144744D03*
X0143955Y0143366D03*
X0138522Y0143366D03*
X0127932Y0143366D03*
X0136266Y0151516D03*
X0136605Y0153366D03*
X0139243Y0153366D03*
X0141999Y0153366D03*
X0144794Y0153366D03*
X0149495Y0151516D03*
X0149101Y0149744D03*
X0152133Y0148366D03*
X0151869Y0146516D03*
X0149625Y0145768D03*
X0155648Y0146516D03*
X0158168Y0146516D03*
X0156042Y0143484D03*
X0151869Y0143366D03*
X0163483Y0143366D03*
X0168877Y0143366D03*
X0169152Y0145768D03*
X0167881Y0148366D03*
X0167605Y0150138D03*
X0171030Y0148484D03*
X0173550Y0148484D03*
X0175794Y0148366D03*
X0177066Y0145768D03*
X0179467Y0146516D03*
X0178825Y0148484D03*
X0180991Y0148366D03*
X0181227Y0150768D03*
X0184140Y0151004D03*
X0185227Y0153366D03*
X0187747Y0153366D03*
X0189022Y0151516D03*
X0191070Y0151004D03*
X0190385Y0153366D03*
X0192786Y0153366D03*
X0193022Y0155768D03*
X0198062Y0156516D03*
X0200463Y0156634D03*
X0202629Y0156004D03*
X0207156Y0156004D03*
X0210306Y0155138D03*
X0210542Y0153366D03*
X0204298Y0151516D03*
X0201503Y0151516D03*
X0200991Y0149862D03*
X0201148Y0149744D03*
X0198747Y0148366D03*
X0195609Y0146516D03*
X0198129Y0145138D03*
X0198365Y0143366D03*
X0195609Y0143366D03*
X0188050Y0146004D03*
X0189416Y0148484D03*
X0198747Y0151516D03*
X0206936Y0148366D03*
X0206160Y0146634D03*
X0203798Y0146516D03*
X0180306Y0153366D03*
X0178180Y0153484D03*
X0180306Y0156516D03*
X0173140Y0153484D03*
X0169991Y0153366D03*
X0169715Y0155138D03*
X0164558Y0153366D03*
X0162723Y0151634D03*
X0161802Y0153366D03*
X0160558Y0151004D03*
X0156487Y0153366D03*
X0156133Y0156398D03*
X0150345Y0155768D03*
X0150070Y0153366D03*
X0152133Y0151516D03*
X0161802Y0156516D03*
X0163483Y0146516D03*
X0176829Y0143366D03*
X0179467Y0143366D03*
X0139243Y0156516D03*
X0129046Y0153484D03*
X0131365Y0108516D03*
X0133766Y0108634D03*
X0136129Y0108634D03*
X0141168Y0108516D03*
X0154042Y0102768D03*
X0153766Y0100366D03*
X0132507Y0100484D03*
D14*
X0136975Y0102886D03*
X0139219Y0103516D03*
X0144259Y0101744D03*
X0144888Y0101232D03*
X0144652Y0103516D03*
X0147684Y0106508D03*
X0143510Y0107256D03*
X0143510Y0107886D03*
X0138589Y0108634D03*
X0132054Y0103516D03*
X0127014Y0103634D03*
X0150203Y0108634D03*
X0156227Y0107256D03*
X0156227Y0106862D03*
X0156621Y0108516D03*
X0159259Y0108516D03*
X0163432Y0103516D03*
X0163156Y0102138D03*
X0158510Y0102256D03*
X0158510Y0102886D03*
X0156739Y0100484D03*
X0153353Y0103398D03*
X0168589Y0102256D03*
X0168707Y0102138D03*
X0168589Y0101862D03*
X0171621Y0103516D03*
X0169101Y0106508D03*
X0174140Y0107256D03*
X0174140Y0107886D03*
X0176660Y0103634D03*
X0180794Y0100484D03*
X0182959Y0103516D03*
X0183196Y0106232D03*
X0182684Y0106626D03*
X0182566Y0106744D03*
X0182959Y0108516D03*
X0188235Y0103516D03*
X0190755Y0101626D03*
X0191266Y0101232D03*
X0194022Y0101232D03*
X0195912Y0103398D03*
X0197448Y0107256D03*
X0197448Y0107886D03*
X0195558Y0107886D03*
X0203865Y0103398D03*
X0185314Y0120484D03*
X0178778Y0123634D03*
X0177518Y0126508D03*
X0177400Y0126626D03*
X0175117Y0127886D03*
X0167558Y0128516D03*
X0161888Y0128398D03*
X0159762Y0128634D03*
X0157597Y0127886D03*
X0154211Y0128516D03*
X0151810Y0126232D03*
X0151298Y0126626D03*
X0148778Y0128516D03*
X0146140Y0128516D03*
X0145904Y0126626D03*
X0142991Y0126862D03*
X0142991Y0127138D03*
X0142873Y0127374D03*
X0143385Y0128516D03*
X0149054Y0122374D03*
X0149172Y0122138D03*
X0149172Y0121862D03*
X0144881Y0120484D03*
X0155471Y0121744D03*
X0155589Y0121626D03*
X0156101Y0121232D03*
X0160629Y0122256D03*
X0160629Y0122886D03*
X0162518Y0122374D03*
X0162636Y0122138D03*
X0162636Y0121862D03*
X0163030Y0123516D03*
X0165550Y0121626D03*
X0166062Y0121232D03*
X0168306Y0121626D03*
X0168818Y0121232D03*
X0173621Y0123634D03*
X0183936Y0128516D03*
X0198306Y0127886D03*
X0200314Y0126744D03*
X0200432Y0126626D03*
X0200944Y0126232D03*
X0200707Y0128516D03*
X0205747Y0127256D03*
X0205865Y0127138D03*
X0205747Y0126862D03*
X0206101Y0128516D03*
X0203463Y0123516D03*
X0200825Y0123516D03*
X0204211Y0143484D03*
X0201455Y0144232D03*
X0200944Y0144626D03*
X0200825Y0144744D03*
X0198424Y0146516D03*
X0201325Y0149626D03*
X0201837Y0149232D03*
X0198514Y0153484D03*
X0195759Y0154232D03*
X0195247Y0154626D03*
X0195129Y0154744D03*
X0195483Y0156516D03*
X0192333Y0156398D03*
X0190207Y0156634D03*
X0187688Y0156516D03*
X0185050Y0156634D03*
X0177727Y0156516D03*
X0172688Y0156516D03*
X0170050Y0156516D03*
X0169656Y0154862D03*
X0167530Y0154232D03*
X0167018Y0154626D03*
X0166900Y0154744D03*
X0164262Y0155138D03*
X0164499Y0156516D03*
X0167940Y0151516D03*
X0167546Y0149862D03*
X0170577Y0151516D03*
X0173097Y0151516D03*
X0175381Y0150256D03*
X0175499Y0150138D03*
X0175381Y0149862D03*
X0175735Y0151516D03*
X0180538Y0151398D03*
X0176377Y0146398D03*
X0174251Y0146516D03*
X0173857Y0144744D03*
X0173975Y0144626D03*
X0174487Y0144232D03*
X0171455Y0146516D03*
X0166298Y0146516D03*
X0166062Y0144626D03*
X0160747Y0146516D03*
X0158621Y0143484D03*
X0146652Y0144508D03*
X0146534Y0144626D03*
X0149278Y0149626D03*
X0146640Y0151516D03*
X0144003Y0151516D03*
X0144341Y0154862D03*
X0144459Y0155138D03*
X0144341Y0155256D03*
X0144735Y0156516D03*
X0141940Y0156516D03*
X0141703Y0155138D03*
X0136546Y0156516D03*
X0136270Y0155138D03*
X0134144Y0154232D03*
X0133633Y0154626D03*
X0133514Y0154744D03*
X0128593Y0156516D03*
X0127755Y0146634D03*
X0130274Y0144626D03*
X0130786Y0144232D03*
X0138463Y0146516D03*
X0152412Y0154744D03*
X0152530Y0154626D03*
X0153042Y0154232D03*
X0154593Y0151634D03*
X0158373Y0151516D03*
X0160617Y0150886D03*
X0160617Y0150256D03*
X0185589Y0146398D03*
X0188109Y0145886D03*
X0188109Y0145256D03*
X0190353Y0146516D03*
X0196168Y0151516D03*
X0202688Y0155256D03*
X0202688Y0155886D03*
X0207215Y0155886D03*
X0207215Y0155256D03*
X0210247Y0154862D03*
X0210601Y0156516D03*
X0132164Y0121232D03*
X0131652Y0121626D03*
X0131534Y0121744D03*
X0129133Y0123516D03*
D15*
X0139152Y0123634D03*
X0141042Y0123516D03*
X0142302Y0123398D03*
X0146081Y0128634D03*
X0154270Y0128634D03*
X0176318Y0123634D03*
X0183247Y0127768D03*
X0177577Y0128634D03*
X0188286Y0126232D03*
X0192066Y0123516D03*
X0192066Y0123398D03*
X0193325Y0123516D03*
X0192066Y0120484D03*
X0200885Y0123634D03*
X0202774Y0122768D03*
X0205294Y0122374D03*
X0205294Y0122256D03*
X0205294Y0121744D03*
X0205294Y0121626D03*
X0201514Y0127138D03*
X0201514Y0127256D03*
X0201514Y0127374D03*
X0201514Y0127492D03*
X0182617Y0143484D03*
X0182617Y0146398D03*
X0182617Y0146516D03*
X0183877Y0146516D03*
X0179467Y0146634D03*
X0175058Y0145374D03*
X0175058Y0145256D03*
X0175058Y0145138D03*
X0168129Y0144232D03*
X0166239Y0146634D03*
X0172408Y0150768D03*
X0177038Y0155768D03*
X0187747Y0156634D03*
X0190896Y0155768D03*
X0190896Y0154626D03*
X0198365Y0146634D03*
X0196475Y0145256D03*
X0196475Y0145138D03*
X0196475Y0144862D03*
X0196475Y0144744D03*
X0196475Y0144626D03*
X0159180Y0150492D03*
X0149322Y0154232D03*
X0144062Y0151634D03*
X0141133Y0154232D03*
X0139243Y0156634D03*
X0131463Y0151516D03*
X0130203Y0151516D03*
X0130203Y0151398D03*
X0130203Y0148484D03*
X0138522Y0146634D03*
X0140412Y0145374D03*
X0140412Y0145256D03*
X0140412Y0144744D03*
X0140412Y0144626D03*
X0146711Y0146634D03*
X0127904Y0155768D03*
X0161089Y0108516D03*
X0158570Y0107768D03*
X0166759Y0105602D03*
X0166759Y0105484D03*
X0166759Y0105366D03*
X0171798Y0108634D03*
X0183766Y0107492D03*
X0183766Y0107374D03*
X0183766Y0107256D03*
X0183766Y0107138D03*
X0185656Y0108634D03*
X0188806Y0107768D03*
X0190066Y0108398D03*
X0190066Y0108516D03*
X0191325Y0108516D03*
X0190066Y0105484D03*
X0187546Y0102768D03*
X0183766Y0101232D03*
X0196995Y0101114D03*
X0147861Y0103516D03*
X0146601Y0103516D03*
X0146601Y0103398D03*
X0144711Y0103634D03*
X0146601Y0100484D03*
X0132113Y0103634D03*
X0132113Y0107492D03*
X0132113Y0107768D03*
D16*
X0131483Y0105996D03*
X0134003Y0107256D03*
X0129593Y0103634D03*
X0150381Y0105602D03*
X0153530Y0103122D03*
X0156050Y0101744D03*
X0171798Y0100878D03*
X0180617Y0100878D03*
X0185656Y0105602D03*
X0188176Y0108516D03*
X0171798Y0105602D03*
X0173798Y0120602D03*
X0182617Y0122256D03*
X0185136Y0120878D03*
X0190176Y0120602D03*
X0200885Y0120484D03*
X0200885Y0123398D03*
X0188916Y0127886D03*
X0198365Y0143484D03*
X0204034Y0143878D03*
X0198365Y0146398D03*
X0207054Y0150256D03*
X0197825Y0154744D03*
X0192786Y0153602D03*
X0187747Y0153484D03*
X0187747Y0156398D03*
X0190266Y0156516D03*
X0188786Y0149744D03*
X0185766Y0146004D03*
X0181227Y0150138D03*
X0179467Y0143602D03*
X0168759Y0145886D03*
X0162959Y0150256D03*
X0156251Y0156122D03*
X0149951Y0155886D03*
X0139243Y0155138D03*
X0138522Y0146398D03*
X0138522Y0143484D03*
X0149231Y0145886D03*
X0175148Y0156634D03*
X0154270Y0128398D03*
X0154270Y0125484D03*
X0144192Y0121744D03*
X0137892Y0125602D03*
X0135373Y0125602D03*
D17*
X0136062Y0126114D03*
X0136062Y0126232D03*
X0136062Y0126508D03*
X0135944Y0127492D03*
X0137203Y0126508D03*
X0137203Y0126114D03*
X0138581Y0126114D03*
X0138581Y0126232D03*
X0138581Y0126508D03*
X0138463Y0127492D03*
X0139723Y0127492D03*
X0139723Y0127374D03*
X0139723Y0127256D03*
X0139723Y0127138D03*
X0139723Y0126862D03*
X0139723Y0126744D03*
X0139723Y0126626D03*
X0139723Y0126508D03*
X0139841Y0126232D03*
X0139841Y0127768D03*
X0144133Y0126232D03*
X0145392Y0127256D03*
X0145392Y0127768D03*
X0148030Y0126508D03*
X0148030Y0126232D03*
X0148030Y0126114D03*
X0152322Y0127256D03*
X0152322Y0127374D03*
X0152322Y0127492D03*
X0154959Y0127768D03*
X0157361Y0128398D03*
X0157361Y0127138D03*
X0157361Y0126862D03*
X0157361Y0126744D03*
X0157361Y0126626D03*
X0157361Y0126508D03*
X0157361Y0126232D03*
X0157361Y0126114D03*
X0157361Y0125996D03*
X0157361Y0125878D03*
X0157361Y0125602D03*
X0157361Y0125484D03*
X0163030Y0126232D03*
X0165668Y0126232D03*
X0165668Y0126508D03*
X0165550Y0127492D03*
X0165550Y0127768D03*
X0166810Y0127492D03*
X0166810Y0126232D03*
X0169448Y0126232D03*
X0169448Y0126508D03*
X0173739Y0127138D03*
X0178266Y0127768D03*
X0179526Y0127768D03*
X0179526Y0127492D03*
X0179526Y0126626D03*
X0179408Y0126508D03*
X0179408Y0126232D03*
X0183306Y0126626D03*
X0183188Y0127492D03*
X0183306Y0127886D03*
X0185825Y0127768D03*
X0184448Y0125366D03*
X0188345Y0126114D03*
X0188345Y0126508D03*
X0189605Y0127374D03*
X0190865Y0127374D03*
X0190865Y0127256D03*
X0190865Y0127138D03*
X0190865Y0126862D03*
X0190865Y0126744D03*
X0190865Y0126626D03*
X0190865Y0126508D03*
X0190865Y0127492D03*
X0193896Y0127374D03*
X0194526Y0126232D03*
X0194526Y0126114D03*
X0194644Y0125996D03*
X0194644Y0125878D03*
X0194644Y0125602D03*
X0194644Y0125484D03*
X0193266Y0123398D03*
X0193266Y0123122D03*
X0193385Y0123004D03*
X0193385Y0122886D03*
X0193385Y0122768D03*
X0192007Y0122768D03*
X0192007Y0122886D03*
X0192007Y0123004D03*
X0192007Y0123122D03*
X0192007Y0122492D03*
X0192007Y0122374D03*
X0192007Y0122256D03*
X0192007Y0122138D03*
X0192007Y0121114D03*
X0192007Y0120996D03*
X0192007Y0120878D03*
X0192007Y0120602D03*
X0190865Y0121114D03*
X0190865Y0121232D03*
X0190865Y0121508D03*
X0190747Y0122492D03*
X0189487Y0121508D03*
X0189487Y0121114D03*
X0188345Y0121232D03*
X0188227Y0121114D03*
X0188345Y0121508D03*
X0188345Y0121626D03*
X0188345Y0121744D03*
X0188345Y0121862D03*
X0188345Y0122138D03*
X0188345Y0122256D03*
X0188345Y0122374D03*
X0188345Y0122492D03*
X0188227Y0122768D03*
X0179408Y0122768D03*
X0178266Y0121626D03*
X0178148Y0121508D03*
X0178148Y0121232D03*
X0178266Y0121114D03*
X0177007Y0121232D03*
X0177007Y0122768D03*
X0173109Y0121626D03*
X0173109Y0121114D03*
X0171967Y0121232D03*
X0171967Y0121508D03*
X0171849Y0122492D03*
X0171849Y0122768D03*
X0169329Y0122492D03*
X0169329Y0122374D03*
X0169329Y0122256D03*
X0164920Y0122256D03*
X0164920Y0122374D03*
X0164920Y0122492D03*
X0163660Y0122768D03*
X0163778Y0121232D03*
X0158739Y0121114D03*
X0158739Y0120996D03*
X0158739Y0120878D03*
X0157991Y0122492D03*
X0148660Y0121508D03*
X0148660Y0121232D03*
X0142361Y0122886D03*
X0142361Y0123004D03*
X0142361Y0123122D03*
X0141101Y0123122D03*
X0141101Y0123004D03*
X0141101Y0122886D03*
X0141101Y0122768D03*
X0141101Y0122492D03*
X0141101Y0122374D03*
X0141101Y0122256D03*
X0141101Y0122138D03*
X0141101Y0121114D03*
X0141101Y0120996D03*
X0141101Y0120878D03*
X0141101Y0120602D03*
X0141101Y0120484D03*
X0139841Y0121232D03*
X0139841Y0122768D03*
X0141101Y0123398D03*
X0137203Y0121508D03*
X0137203Y0121232D03*
X0129762Y0122492D03*
X0129762Y0122886D03*
X0129133Y0123634D03*
X0128503Y0122768D03*
X0128503Y0122492D03*
X0128385Y0121508D03*
X0128385Y0121232D03*
X0128385Y0121114D03*
X0130392Y0125996D03*
X0130392Y0126114D03*
X0130392Y0126232D03*
X0129644Y0127492D03*
X0133424Y0127492D03*
X0133424Y0127374D03*
X0133542Y0127256D03*
X0133542Y0127138D03*
X0133424Y0127768D03*
X0134684Y0126508D03*
X0134684Y0126114D03*
X0156219Y0143366D03*
X0154959Y0144626D03*
X0154959Y0145492D03*
X0154959Y0145768D03*
X0157479Y0145768D03*
X0157479Y0145492D03*
X0157479Y0144626D03*
X0158739Y0143366D03*
X0159999Y0144114D03*
X0159999Y0144232D03*
X0159999Y0144508D03*
X0164290Y0144508D03*
X0164290Y0144626D03*
X0164290Y0144744D03*
X0164290Y0144862D03*
X0164290Y0145138D03*
X0164290Y0145256D03*
X0164290Y0145374D03*
X0164290Y0145492D03*
X0164290Y0144232D03*
X0165550Y0145256D03*
X0165550Y0145768D03*
X0168188Y0144508D03*
X0168188Y0144114D03*
X0169448Y0145374D03*
X0170707Y0144508D03*
X0170707Y0144232D03*
X0170707Y0144114D03*
X0174999Y0145492D03*
X0177518Y0144508D03*
X0177518Y0144232D03*
X0177518Y0144114D03*
X0178778Y0144114D03*
X0180156Y0144114D03*
X0180156Y0145768D03*
X0178778Y0145768D03*
X0182558Y0145768D03*
X0182558Y0145886D03*
X0182558Y0146004D03*
X0182558Y0146122D03*
X0182558Y0145492D03*
X0182558Y0145374D03*
X0182558Y0145256D03*
X0182558Y0145138D03*
X0182558Y0144114D03*
X0182558Y0143996D03*
X0182558Y0143878D03*
X0182558Y0143602D03*
X0185196Y0144114D03*
X0185196Y0144232D03*
X0186455Y0145492D03*
X0183936Y0145768D03*
X0183936Y0145886D03*
X0183936Y0146004D03*
X0183818Y0146122D03*
X0183818Y0146398D03*
X0186837Y0148602D03*
X0189605Y0144508D03*
X0189605Y0144232D03*
X0189605Y0144114D03*
X0193266Y0143996D03*
X0193266Y0143878D03*
X0193266Y0143602D03*
X0193266Y0143484D03*
X0196416Y0144232D03*
X0196416Y0144508D03*
X0196416Y0145374D03*
X0196416Y0145492D03*
X0197676Y0145492D03*
X0197676Y0145768D03*
X0199054Y0145768D03*
X0200314Y0145492D03*
X0200314Y0145374D03*
X0196916Y0149114D03*
X0196916Y0149232D03*
X0196916Y0149508D03*
X0199554Y0149508D03*
X0199554Y0149232D03*
X0199436Y0150492D03*
X0199436Y0150768D03*
X0200696Y0150492D03*
X0200696Y0150374D03*
X0200696Y0150256D03*
X0203333Y0150138D03*
X0203333Y0149862D03*
X0205105Y0149862D03*
X0205105Y0149744D03*
X0205105Y0149626D03*
X0205105Y0149508D03*
X0205105Y0150138D03*
X0205105Y0150256D03*
X0205105Y0150374D03*
X0205105Y0150492D03*
X0204184Y0153484D03*
X0204184Y0153602D03*
X0204184Y0153878D03*
X0204184Y0153996D03*
X0204184Y0154114D03*
X0204184Y0155138D03*
X0204184Y0155256D03*
X0204184Y0155374D03*
X0204184Y0155492D03*
X0204184Y0155768D03*
X0204184Y0155886D03*
X0204184Y0156004D03*
X0204184Y0156122D03*
X0204184Y0156398D03*
X0205444Y0156398D03*
X0205444Y0156122D03*
X0205444Y0156004D03*
X0209853Y0155768D03*
X0209853Y0155492D03*
X0209735Y0154508D03*
X0209735Y0154232D03*
X0194735Y0155256D03*
X0194617Y0155374D03*
X0194617Y0155492D03*
X0194735Y0155768D03*
X0193357Y0155374D03*
X0193475Y0154508D03*
X0193475Y0154232D03*
X0193475Y0154114D03*
X0192097Y0154114D03*
X0192097Y0154508D03*
X0189696Y0154508D03*
X0189696Y0154626D03*
X0189696Y0154232D03*
X0189696Y0154114D03*
X0188436Y0155768D03*
X0184538Y0154626D03*
X0184538Y0154508D03*
X0184538Y0154232D03*
X0184538Y0154114D03*
X0179617Y0154114D03*
X0179499Y0154232D03*
X0179617Y0154508D03*
X0179617Y0154626D03*
X0179617Y0155768D03*
X0177097Y0155886D03*
X0176979Y0155492D03*
X0177097Y0154626D03*
X0178239Y0153366D03*
X0175207Y0154626D03*
X0174577Y0155768D03*
X0173318Y0155886D03*
X0172688Y0156634D03*
X0172058Y0155886D03*
X0171940Y0155768D03*
X0171940Y0155492D03*
X0172058Y0154626D03*
X0172058Y0154508D03*
X0170798Y0154232D03*
X0170798Y0154114D03*
X0170680Y0155768D03*
X0173199Y0153366D03*
X0170577Y0151634D03*
X0169948Y0150886D03*
X0169829Y0150768D03*
X0169829Y0150492D03*
X0169948Y0149626D03*
X0169948Y0149508D03*
X0168688Y0149232D03*
X0168688Y0149114D03*
X0168570Y0150768D03*
X0171207Y0150886D03*
X0172349Y0150492D03*
X0172467Y0150886D03*
X0172467Y0149626D03*
X0173609Y0148366D03*
X0174869Y0149232D03*
X0174987Y0149114D03*
X0174987Y0150492D03*
X0174987Y0150768D03*
X0171089Y0148366D03*
X0165538Y0148878D03*
X0165538Y0148996D03*
X0165538Y0149114D03*
X0164790Y0150492D03*
X0160381Y0150138D03*
X0160381Y0149862D03*
X0160381Y0149744D03*
X0160381Y0149626D03*
X0160381Y0149508D03*
X0160381Y0149232D03*
X0160381Y0149114D03*
X0160381Y0148996D03*
X0160381Y0148878D03*
X0160381Y0148602D03*
X0159121Y0149232D03*
X0159239Y0149508D03*
X0159239Y0149626D03*
X0159239Y0149744D03*
X0159239Y0149862D03*
X0159239Y0150138D03*
X0159239Y0150256D03*
X0159239Y0150374D03*
X0160381Y0151398D03*
X0162609Y0154232D03*
X0162609Y0154508D03*
X0162491Y0154626D03*
X0162491Y0155492D03*
X0162491Y0155768D03*
X0163751Y0155768D03*
X0163751Y0155492D03*
X0164499Y0156634D03*
X0163751Y0154114D03*
X0152822Y0150768D03*
X0152822Y0150492D03*
X0152822Y0149626D03*
X0152940Y0149508D03*
X0152940Y0149232D03*
X0150302Y0150256D03*
X0150302Y0150374D03*
X0150302Y0150492D03*
X0149381Y0154114D03*
X0149381Y0154508D03*
X0150640Y0155374D03*
X0151900Y0155374D03*
X0151900Y0155492D03*
X0148121Y0155492D03*
X0148121Y0155374D03*
X0148121Y0155768D03*
X0148003Y0155886D03*
X0148003Y0156004D03*
X0148003Y0156122D03*
X0146743Y0156122D03*
X0146743Y0156004D03*
X0146743Y0155886D03*
X0146743Y0155768D03*
X0146743Y0155492D03*
X0146743Y0155374D03*
X0146743Y0155256D03*
X0146743Y0155138D03*
X0146743Y0154114D03*
X0146743Y0153996D03*
X0146743Y0153878D03*
X0146743Y0153602D03*
X0146743Y0153484D03*
X0145601Y0154232D03*
X0145483Y0155768D03*
X0146743Y0156398D03*
X0141192Y0155768D03*
X0141192Y0154508D03*
X0141192Y0154114D03*
X0139932Y0155492D03*
X0139932Y0155768D03*
X0138554Y0155768D03*
X0138554Y0154626D03*
X0138554Y0154508D03*
X0138554Y0154114D03*
X0137412Y0154232D03*
X0137294Y0155768D03*
X0133003Y0155492D03*
X0133003Y0155374D03*
X0131113Y0154744D03*
X0130483Y0155768D03*
X0127963Y0155886D03*
X0127845Y0155492D03*
X0127963Y0154626D03*
X0129105Y0153366D03*
X0130144Y0151122D03*
X0130144Y0151004D03*
X0130144Y0150886D03*
X0130144Y0150768D03*
X0130144Y0150492D03*
X0130144Y0150374D03*
X0130144Y0150256D03*
X0130144Y0150138D03*
X0130144Y0149114D03*
X0130144Y0148996D03*
X0130144Y0148878D03*
X0130144Y0148602D03*
X0131522Y0150768D03*
X0131522Y0150886D03*
X0131522Y0151004D03*
X0131404Y0151122D03*
X0131404Y0151398D03*
X0128385Y0145768D03*
X0129644Y0145492D03*
X0129644Y0145374D03*
X0129644Y0145256D03*
X0127243Y0144626D03*
X0127125Y0144508D03*
X0127125Y0144232D03*
X0127243Y0144114D03*
X0132282Y0144232D03*
X0136573Y0145138D03*
X0136573Y0145256D03*
X0139211Y0145768D03*
X0140471Y0145492D03*
X0140353Y0145138D03*
X0140353Y0144862D03*
X0140471Y0144508D03*
X0140471Y0144232D03*
X0144762Y0144232D03*
X0144762Y0144508D03*
X0147400Y0145768D03*
X0148542Y0144232D03*
X0148542Y0144114D03*
X0149920Y0145374D03*
X0151180Y0145768D03*
X0151180Y0144626D03*
X0151180Y0144508D03*
X0151062Y0144232D03*
X0151180Y0144114D03*
X0145892Y0149232D03*
X0145892Y0150492D03*
X0144751Y0150492D03*
X0144751Y0150768D03*
X0143373Y0150886D03*
X0143373Y0149626D03*
X0141483Y0149626D03*
X0140971Y0150492D03*
X0140853Y0150768D03*
X0139593Y0150374D03*
X0139593Y0150256D03*
X0139593Y0150138D03*
X0201455Y0127768D03*
X0203975Y0127768D03*
X0203975Y0127886D03*
X0203975Y0128004D03*
X0203975Y0128122D03*
X0204093Y0127492D03*
X0204093Y0127374D03*
X0204093Y0127256D03*
X0205353Y0127492D03*
X0205353Y0127768D03*
X0205235Y0126232D03*
X0205353Y0126114D03*
X0202833Y0122886D03*
X0202715Y0122492D03*
X0202833Y0121626D03*
X0201573Y0122768D03*
X0198936Y0121508D03*
X0198936Y0121232D03*
X0203975Y0120366D03*
X0205353Y0121232D03*
X0205353Y0121508D03*
X0205235Y0121862D03*
X0205235Y0122138D03*
X0205353Y0122492D03*
X0198944Y0108398D03*
X0198944Y0107138D03*
X0198944Y0106862D03*
X0198944Y0106744D03*
X0198944Y0106626D03*
X0198944Y0106508D03*
X0198944Y0106232D03*
X0198944Y0106114D03*
X0198944Y0105996D03*
X0198944Y0105878D03*
X0198944Y0105602D03*
X0198944Y0105484D03*
X0200715Y0106232D03*
X0200833Y0106114D03*
X0200833Y0106508D03*
X0200833Y0106626D03*
X0200833Y0107768D03*
X0202093Y0103398D03*
X0202093Y0103122D03*
X0200833Y0103122D03*
X0200833Y0103004D03*
X0200833Y0102886D03*
X0200833Y0102768D03*
X0200833Y0102492D03*
X0200833Y0102374D03*
X0200833Y0102256D03*
X0200833Y0102138D03*
X0200833Y0101114D03*
X0200833Y0100996D03*
X0200833Y0100878D03*
X0200833Y0100602D03*
X0199573Y0102374D03*
X0199573Y0102492D03*
X0199573Y0102768D03*
X0199455Y0102886D03*
X0199455Y0103004D03*
X0199455Y0103122D03*
X0198196Y0103122D03*
X0198196Y0103004D03*
X0198196Y0102886D03*
X0198196Y0102768D03*
X0198196Y0102492D03*
X0198196Y0102374D03*
X0198196Y0102256D03*
X0198196Y0102138D03*
X0198196Y0101114D03*
X0198196Y0100996D03*
X0198196Y0100878D03*
X0198196Y0100602D03*
X0198196Y0100484D03*
X0197054Y0101232D03*
X0196936Y0102374D03*
X0198196Y0103398D03*
X0194534Y0102492D03*
X0194534Y0102374D03*
X0194534Y0102256D03*
X0190125Y0102256D03*
X0190125Y0102374D03*
X0190125Y0102492D03*
X0188747Y0100366D03*
X0187605Y0101626D03*
X0187487Y0102492D03*
X0187605Y0102886D03*
X0186345Y0102492D03*
X0186345Y0102374D03*
X0186345Y0102256D03*
X0186227Y0102768D03*
X0186227Y0102886D03*
X0186227Y0103004D03*
X0186227Y0103122D03*
X0183707Y0102768D03*
X0183707Y0101508D03*
X0183707Y0101114D03*
X0176148Y0101114D03*
X0176148Y0101232D03*
X0176148Y0101508D03*
X0176148Y0101626D03*
X0175007Y0102138D03*
X0175007Y0102256D03*
X0174888Y0102374D03*
X0174888Y0102492D03*
X0174888Y0102768D03*
X0172369Y0102768D03*
X0172369Y0102492D03*
X0169849Y0101232D03*
X0168077Y0101232D03*
X0165440Y0101232D03*
X0165440Y0101508D03*
X0165440Y0102492D03*
X0164180Y0102768D03*
X0164298Y0101232D03*
X0163038Y0106232D03*
X0162920Y0106508D03*
X0162920Y0106626D03*
X0162920Y0106744D03*
X0162920Y0106862D03*
X0162920Y0107138D03*
X0162920Y0107256D03*
X0162920Y0107374D03*
X0162920Y0107492D03*
X0163038Y0107768D03*
X0161148Y0108398D03*
X0161148Y0107138D03*
X0161148Y0106862D03*
X0161148Y0106744D03*
X0161148Y0106626D03*
X0161148Y0106508D03*
X0161148Y0106232D03*
X0161148Y0106114D03*
X0161148Y0105996D03*
X0161148Y0105878D03*
X0161148Y0105602D03*
X0161148Y0105484D03*
X0159770Y0105366D03*
X0158629Y0106626D03*
X0158510Y0107492D03*
X0158629Y0107886D03*
X0157369Y0107768D03*
X0156621Y0108634D03*
X0153471Y0107768D03*
X0153471Y0107492D03*
X0153471Y0106626D03*
X0153589Y0106508D03*
X0153589Y0106232D03*
X0149692Y0106114D03*
X0149692Y0106626D03*
X0148550Y0107256D03*
X0148550Y0107374D03*
X0148550Y0107492D03*
X0148432Y0107768D03*
X0147802Y0103398D03*
X0147802Y0103122D03*
X0147920Y0103004D03*
X0147920Y0102886D03*
X0147920Y0102768D03*
X0146542Y0102768D03*
X0146542Y0102886D03*
X0146542Y0103004D03*
X0146542Y0103122D03*
X0146542Y0102492D03*
X0146542Y0102374D03*
X0146542Y0102256D03*
X0146542Y0102138D03*
X0146542Y0101114D03*
X0146542Y0100996D03*
X0146542Y0100878D03*
X0146542Y0100602D03*
X0145400Y0102768D03*
X0140361Y0106508D03*
X0140361Y0106626D03*
X0140361Y0106744D03*
X0140361Y0106862D03*
X0140361Y0107138D03*
X0140361Y0107256D03*
X0140361Y0107374D03*
X0140361Y0107492D03*
X0138471Y0101508D03*
X0138471Y0101232D03*
X0138471Y0101114D03*
X0133944Y0101232D03*
X0133944Y0101508D03*
X0133944Y0102492D03*
X0132802Y0102492D03*
X0132802Y0102768D03*
X0131424Y0102886D03*
X0131424Y0101626D03*
X0129022Y0102492D03*
X0128904Y0102768D03*
X0127644Y0102768D03*
X0126385Y0101508D03*
X0126385Y0101232D03*
X0130794Y0106508D03*
X0132054Y0107886D03*
X0166699Y0106114D03*
X0166699Y0105996D03*
X0166699Y0105878D03*
X0169967Y0107256D03*
X0169967Y0107374D03*
X0169967Y0107492D03*
X0169849Y0107768D03*
X0171109Y0107768D03*
X0171109Y0106232D03*
X0175636Y0106114D03*
X0175636Y0105996D03*
X0175636Y0105878D03*
X0175636Y0105602D03*
X0175636Y0105484D03*
X0175636Y0107138D03*
X0175636Y0107256D03*
X0175636Y0107374D03*
X0175636Y0107492D03*
X0175636Y0107768D03*
X0175636Y0107886D03*
X0175636Y0108004D03*
X0175636Y0108122D03*
X0175636Y0108398D03*
X0176896Y0108398D03*
X0176896Y0108122D03*
X0176896Y0108004D03*
X0183707Y0107768D03*
X0184967Y0107768D03*
X0184967Y0106232D03*
X0187605Y0106232D03*
X0187605Y0106508D03*
X0190007Y0106114D03*
X0190007Y0105996D03*
X0190007Y0105878D03*
X0190007Y0105602D03*
X0190007Y0107138D03*
X0190007Y0107256D03*
X0190007Y0107374D03*
X0190007Y0107492D03*
X0190007Y0107768D03*
X0190007Y0107886D03*
X0190007Y0108004D03*
X0190007Y0108122D03*
X0191266Y0108122D03*
X0191385Y0108004D03*
X0191385Y0107886D03*
X0191385Y0107768D03*
X0191266Y0108398D03*
X0193786Y0105602D03*
D18*
X0197881Y0107138D03*
X0203550Y0103634D03*
X0204810Y0108634D03*
X0196101Y0123634D03*
X0173542Y0128634D03*
X0172164Y0128634D03*
X0152755Y0121232D03*
X0147597Y0121232D03*
X0131967Y0128634D03*
X0134999Y0146634D03*
X0136377Y0146634D03*
X0138136Y0151634D03*
X0139396Y0151634D03*
X0134239Y0151634D03*
X0155877Y0156634D03*
X0158396Y0156634D03*
X0159656Y0156634D03*
X0180341Y0151634D03*
X0194081Y0151634D03*
X0201231Y0154232D03*
X0203121Y0155138D03*
X0207648Y0155138D03*
X0206928Y0144232D03*
X0174573Y0107138D03*
X0173432Y0103634D03*
X0158944Y0102138D03*
X0153156Y0103634D03*
X0150636Y0103634D03*
X0136896Y0106232D03*
D19*
X0137979Y0106232D03*
X0137979Y0106508D03*
X0139239Y0107768D03*
X0140499Y0107768D03*
X0141995Y0107492D03*
X0141995Y0107374D03*
X0141995Y0106508D03*
X0141995Y0106232D03*
X0140499Y0106232D03*
X0139239Y0103634D03*
X0139869Y0102886D03*
X0139987Y0102768D03*
X0139869Y0102492D03*
X0139987Y0101508D03*
X0139987Y0101114D03*
X0141129Y0101114D03*
X0141129Y0101232D03*
X0141129Y0101508D03*
X0141247Y0102492D03*
X0141247Y0102768D03*
X0141877Y0103634D03*
X0142507Y0102886D03*
X0142625Y0102768D03*
X0142507Y0102492D03*
X0142625Y0101508D03*
X0142625Y0101114D03*
X0143885Y0102256D03*
X0143885Y0102374D03*
X0143885Y0102768D03*
X0148058Y0102492D03*
X0148058Y0102374D03*
X0148058Y0102256D03*
X0148058Y0102138D03*
X0150577Y0102768D03*
X0150577Y0102886D03*
X0150577Y0103004D03*
X0150577Y0103122D03*
X0150696Y0102492D03*
X0150696Y0102374D03*
X0150696Y0102256D03*
X0150814Y0102138D03*
X0153097Y0101508D03*
X0153097Y0101114D03*
X0154475Y0101114D03*
X0154475Y0101232D03*
X0154475Y0101508D03*
X0154357Y0102374D03*
X0155617Y0102492D03*
X0155617Y0102768D03*
X0155617Y0101626D03*
X0155735Y0101508D03*
X0156877Y0100366D03*
X0156995Y0102886D03*
X0160144Y0102492D03*
X0160026Y0101508D03*
X0160026Y0101232D03*
X0160026Y0101114D03*
X0161522Y0101114D03*
X0161522Y0101232D03*
X0161522Y0101508D03*
X0161404Y0102492D03*
X0161404Y0102886D03*
X0160774Y0103634D03*
X0162664Y0102768D03*
X0162664Y0101508D03*
X0162664Y0101114D03*
X0165302Y0101862D03*
X0165302Y0102138D03*
X0166955Y0102768D03*
X0167073Y0102492D03*
X0167073Y0102374D03*
X0167073Y0102256D03*
X0167073Y0102138D03*
X0167073Y0101862D03*
X0167073Y0101744D03*
X0167073Y0101626D03*
X0167073Y0101508D03*
X0166955Y0101232D03*
X0168215Y0101114D03*
X0168215Y0102492D03*
X0168215Y0102768D03*
X0168963Y0103634D03*
X0169711Y0102768D03*
X0170853Y0102492D03*
X0170971Y0102886D03*
X0170971Y0101626D03*
X0172113Y0100366D03*
X0173491Y0100484D03*
X0173491Y0100602D03*
X0173491Y0100878D03*
X0173491Y0100996D03*
X0173491Y0101114D03*
X0173491Y0102138D03*
X0173491Y0102256D03*
X0173491Y0102374D03*
X0173491Y0102492D03*
X0173491Y0102768D03*
X0173491Y0102886D03*
X0173491Y0103004D03*
X0173491Y0103122D03*
X0173491Y0103398D03*
X0174751Y0103122D03*
X0174751Y0103004D03*
X0174751Y0102886D03*
X0179672Y0102768D03*
X0179672Y0102492D03*
X0179672Y0101626D03*
X0179790Y0101508D03*
X0180932Y0100366D03*
X0182192Y0101114D03*
X0182192Y0101232D03*
X0182192Y0101508D03*
X0182310Y0102492D03*
X0182310Y0102768D03*
X0182940Y0103634D03*
X0183570Y0102886D03*
X0183570Y0102492D03*
X0181050Y0102886D03*
X0186483Y0102138D03*
X0189003Y0102492D03*
X0189003Y0102768D03*
X0191759Y0102492D03*
X0191759Y0102374D03*
X0191759Y0102256D03*
X0192900Y0102256D03*
X0192900Y0102374D03*
X0192900Y0102492D03*
X0195538Y0101232D03*
X0195538Y0101114D03*
X0199711Y0102138D03*
X0199711Y0102256D03*
X0202231Y0102768D03*
X0202231Y0102886D03*
X0202231Y0103004D03*
X0202349Y0102492D03*
X0202349Y0102374D03*
X0202349Y0102256D03*
X0202349Y0102138D03*
X0203491Y0101232D03*
X0203491Y0101114D03*
X0204987Y0101232D03*
X0204869Y0102374D03*
X0204751Y0102492D03*
X0203491Y0105484D03*
X0203491Y0105602D03*
X0203491Y0105878D03*
X0203491Y0105996D03*
X0203491Y0106114D03*
X0203491Y0107138D03*
X0203491Y0107256D03*
X0203491Y0107374D03*
X0203491Y0107492D03*
X0203491Y0107768D03*
X0203491Y0107886D03*
X0203491Y0108004D03*
X0203491Y0108122D03*
X0203491Y0108398D03*
X0204751Y0108122D03*
X0204751Y0108004D03*
X0204751Y0107886D03*
X0204869Y0107768D03*
X0204869Y0107492D03*
X0204869Y0107374D03*
X0204987Y0107256D03*
X0204987Y0107138D03*
X0202349Y0106508D03*
X0202349Y0106232D03*
X0202231Y0107492D03*
X0202231Y0107768D03*
X0195302Y0108398D03*
X0195302Y0107138D03*
X0195302Y0106862D03*
X0195302Y0106744D03*
X0195302Y0106626D03*
X0195302Y0106508D03*
X0195302Y0106232D03*
X0195302Y0106114D03*
X0195302Y0105996D03*
X0195302Y0105878D03*
X0195302Y0105602D03*
X0195302Y0105484D03*
X0193648Y0105996D03*
X0193648Y0106114D03*
X0193648Y0106232D03*
X0192900Y0107492D03*
X0192782Y0107768D03*
X0191522Y0107492D03*
X0191522Y0107374D03*
X0191522Y0107256D03*
X0191522Y0107138D03*
X0186483Y0107374D03*
X0186483Y0107492D03*
X0186483Y0106508D03*
X0186483Y0106232D03*
X0184829Y0106508D03*
X0184829Y0106626D03*
X0184829Y0106744D03*
X0184829Y0106862D03*
X0184829Y0107138D03*
X0184829Y0107256D03*
X0184829Y0107374D03*
X0184829Y0107492D03*
X0182192Y0107374D03*
X0182192Y0107256D03*
X0182192Y0107768D03*
X0179790Y0107768D03*
X0179672Y0107886D03*
X0179672Y0107492D03*
X0179790Y0106508D03*
X0179790Y0106114D03*
X0178294Y0106114D03*
X0178294Y0106232D03*
X0178294Y0106508D03*
X0178412Y0107492D03*
X0178412Y0107768D03*
X0179042Y0108634D03*
X0177034Y0107886D03*
X0177034Y0107768D03*
X0177034Y0107492D03*
X0177152Y0107374D03*
X0177152Y0107256D03*
X0177152Y0107138D03*
X0172625Y0107374D03*
X0172625Y0107492D03*
X0172625Y0106508D03*
X0172625Y0106232D03*
X0170971Y0106508D03*
X0170971Y0106626D03*
X0170971Y0106744D03*
X0170971Y0106862D03*
X0170971Y0107138D03*
X0170971Y0107256D03*
X0170971Y0107374D03*
X0170971Y0107492D03*
X0168333Y0107492D03*
X0168333Y0107374D03*
X0168333Y0107256D03*
X0166444Y0106626D03*
X0165932Y0107492D03*
X0165814Y0107768D03*
X0164554Y0107492D03*
X0164554Y0107374D03*
X0164554Y0106508D03*
X0164554Y0106232D03*
X0160026Y0107492D03*
X0160026Y0107768D03*
X0157507Y0106232D03*
X0155853Y0106114D03*
X0155735Y0106232D03*
X0155853Y0107492D03*
X0155853Y0107768D03*
X0152073Y0107768D03*
X0152073Y0107492D03*
X0152073Y0106626D03*
X0151955Y0106508D03*
X0151955Y0106232D03*
X0150814Y0107768D03*
X0149554Y0106508D03*
X0149554Y0106232D03*
X0146916Y0107256D03*
X0146916Y0107374D03*
X0146916Y0107492D03*
X0145026Y0107138D03*
X0145026Y0106862D03*
X0145026Y0106744D03*
X0145026Y0106626D03*
X0145026Y0106508D03*
X0145026Y0106232D03*
X0145026Y0106114D03*
X0145026Y0105996D03*
X0145026Y0105878D03*
X0145026Y0105602D03*
X0145026Y0105484D03*
X0145026Y0108398D03*
X0135577Y0106508D03*
X0135577Y0106232D03*
X0133176Y0106232D03*
X0133176Y0106508D03*
X0131916Y0105366D03*
X0130656Y0106626D03*
X0130656Y0107492D03*
X0130656Y0107768D03*
X0136719Y0103398D03*
X0136719Y0102138D03*
X0136719Y0101862D03*
X0136719Y0101744D03*
X0136719Y0101626D03*
X0136719Y0101508D03*
X0136719Y0101232D03*
X0136719Y0101114D03*
X0136719Y0100996D03*
X0136719Y0100878D03*
X0136719Y0100602D03*
X0136719Y0100484D03*
X0135459Y0101232D03*
X0135577Y0101508D03*
X0135577Y0101626D03*
X0135577Y0101744D03*
X0135577Y0101862D03*
X0135577Y0102138D03*
X0135577Y0102256D03*
X0135577Y0102374D03*
X0135577Y0102492D03*
X0135459Y0102768D03*
X0133806Y0102138D03*
X0133806Y0101862D03*
X0132546Y0100366D03*
X0131286Y0102492D03*
X0129790Y0101232D03*
X0129790Y0101114D03*
X0129790Y0100996D03*
X0129908Y0100602D03*
X0138609Y0102492D03*
X0138609Y0102768D03*
X0133798Y0120484D03*
X0133798Y0120602D03*
X0133798Y0120878D03*
X0133798Y0120996D03*
X0133798Y0121114D03*
X0133798Y0121232D03*
X0133798Y0121508D03*
X0133798Y0121626D03*
X0133798Y0121744D03*
X0133798Y0121862D03*
X0133798Y0122138D03*
X0133798Y0123398D03*
X0132656Y0122768D03*
X0131160Y0122768D03*
X0131160Y0122374D03*
X0131160Y0122256D03*
X0129900Y0122768D03*
X0129900Y0121508D03*
X0129900Y0121114D03*
X0135570Y0121232D03*
X0135688Y0121114D03*
X0135688Y0121508D03*
X0135688Y0121626D03*
X0135688Y0122768D03*
X0137066Y0122768D03*
X0137066Y0122492D03*
X0138207Y0122138D03*
X0138207Y0121862D03*
X0138325Y0121508D03*
X0138325Y0121232D03*
X0138325Y0122492D03*
X0139979Y0122492D03*
X0139979Y0122374D03*
X0139979Y0122256D03*
X0139979Y0122138D03*
X0139979Y0121862D03*
X0139979Y0121744D03*
X0139979Y0121626D03*
X0139979Y0121508D03*
X0142499Y0122374D03*
X0142499Y0122492D03*
X0142617Y0122256D03*
X0142617Y0122138D03*
X0142499Y0122768D03*
X0143759Y0122768D03*
X0143759Y0122492D03*
X0143759Y0121626D03*
X0143877Y0121508D03*
X0145018Y0120366D03*
X0146278Y0121232D03*
X0146278Y0121508D03*
X0145136Y0122886D03*
X0148798Y0122492D03*
X0150176Y0122768D03*
X0150294Y0121232D03*
X0151436Y0121232D03*
X0151436Y0121508D03*
X0155097Y0122256D03*
X0155097Y0122374D03*
X0155097Y0122768D03*
X0156593Y0122768D03*
X0157853Y0122768D03*
X0158483Y0121626D03*
X0162144Y0121508D03*
X0162144Y0121232D03*
X0162262Y0122492D03*
X0166554Y0122492D03*
X0166554Y0122374D03*
X0166554Y0122256D03*
X0167696Y0122256D03*
X0167696Y0122374D03*
X0167696Y0122492D03*
X0170451Y0122768D03*
X0170451Y0121626D03*
X0170451Y0121508D03*
X0170333Y0121232D03*
X0170451Y0121114D03*
X0172971Y0121232D03*
X0172971Y0121508D03*
X0174231Y0122768D03*
X0175491Y0122492D03*
X0175373Y0122138D03*
X0175373Y0121862D03*
X0175491Y0121508D03*
X0175491Y0121232D03*
X0177144Y0121508D03*
X0177144Y0121626D03*
X0177144Y0121744D03*
X0177144Y0121862D03*
X0177144Y0122138D03*
X0177144Y0122256D03*
X0177144Y0122374D03*
X0177144Y0122492D03*
X0174861Y0125484D03*
X0174861Y0125602D03*
X0174861Y0125878D03*
X0174861Y0125996D03*
X0174861Y0126114D03*
X0174861Y0126232D03*
X0174861Y0126508D03*
X0174861Y0126626D03*
X0174861Y0126744D03*
X0174861Y0126862D03*
X0174861Y0127138D03*
X0174861Y0128398D03*
X0173483Y0128122D03*
X0173483Y0128004D03*
X0173483Y0127886D03*
X0173483Y0127768D03*
X0173601Y0127492D03*
X0173601Y0127374D03*
X0173601Y0127256D03*
X0171081Y0126508D03*
X0170963Y0126626D03*
X0171081Y0126232D03*
X0170963Y0127492D03*
X0170963Y0127768D03*
X0169585Y0127768D03*
X0169585Y0127492D03*
X0169585Y0126626D03*
X0168444Y0126626D03*
X0168444Y0126744D03*
X0168444Y0126862D03*
X0168444Y0127138D03*
X0168444Y0127256D03*
X0168444Y0127374D03*
X0168444Y0126508D03*
X0168325Y0126232D03*
X0166672Y0126626D03*
X0166672Y0126744D03*
X0166672Y0126862D03*
X0166672Y0127138D03*
X0166672Y0127256D03*
X0164152Y0127768D03*
X0164152Y0126626D03*
X0164152Y0126508D03*
X0164034Y0126232D03*
X0164152Y0126114D03*
X0162892Y0127374D03*
X0161514Y0126232D03*
X0161514Y0126114D03*
X0160373Y0127768D03*
X0159113Y0126508D03*
X0159113Y0126232D03*
X0155097Y0126232D03*
X0153444Y0126114D03*
X0153444Y0126508D03*
X0153444Y0127768D03*
X0150688Y0127492D03*
X0150688Y0127374D03*
X0150688Y0127256D03*
X0149428Y0127492D03*
X0149428Y0127886D03*
X0148798Y0128634D03*
X0148168Y0127492D03*
X0146908Y0127492D03*
X0145255Y0127492D03*
X0145255Y0127374D03*
X0143995Y0127768D03*
X0142617Y0127492D03*
X0142499Y0126508D03*
X0142499Y0126232D03*
X0141357Y0126232D03*
X0141357Y0126508D03*
X0141357Y0127374D03*
X0141357Y0127492D03*
X0133286Y0127886D03*
X0133286Y0128004D03*
X0133286Y0128122D03*
X0132026Y0128122D03*
X0132026Y0128004D03*
X0132026Y0127886D03*
X0132026Y0127768D03*
X0132026Y0127492D03*
X0132026Y0127374D03*
X0132026Y0127256D03*
X0132026Y0127138D03*
X0132026Y0126114D03*
X0132026Y0125996D03*
X0132026Y0125878D03*
X0132026Y0125602D03*
X0132026Y0125484D03*
X0130530Y0125602D03*
X0129507Y0127768D03*
X0132026Y0128398D03*
X0149546Y0126508D03*
X0149546Y0126232D03*
X0149546Y0126114D03*
X0176751Y0127256D03*
X0176751Y0127374D03*
X0176751Y0127492D03*
X0178404Y0127492D03*
X0178404Y0127374D03*
X0178404Y0127256D03*
X0180924Y0127492D03*
X0180924Y0127768D03*
X0180924Y0126626D03*
X0181042Y0126508D03*
X0181042Y0126232D03*
X0184703Y0127492D03*
X0184703Y0127768D03*
X0185963Y0127492D03*
X0186711Y0126232D03*
X0186711Y0126114D03*
X0186711Y0125996D03*
X0186829Y0125602D03*
X0186829Y0122768D03*
X0186711Y0122492D03*
X0186711Y0122374D03*
X0186711Y0122256D03*
X0186711Y0122138D03*
X0186711Y0121862D03*
X0186711Y0121744D03*
X0186711Y0121626D03*
X0186711Y0121508D03*
X0186829Y0121114D03*
X0185451Y0120366D03*
X0184310Y0121508D03*
X0184192Y0121626D03*
X0184192Y0122492D03*
X0184192Y0122768D03*
X0185570Y0122886D03*
X0181790Y0121626D03*
X0181790Y0121508D03*
X0181790Y0121232D03*
X0181790Y0121114D03*
X0189743Y0126114D03*
X0189743Y0126232D03*
X0189743Y0126508D03*
X0191003Y0126114D03*
X0192381Y0126114D03*
X0192499Y0126232D03*
X0192499Y0126508D03*
X0192499Y0126626D03*
X0192499Y0126744D03*
X0192499Y0126862D03*
X0192499Y0127138D03*
X0192499Y0127256D03*
X0192499Y0127374D03*
X0192499Y0127492D03*
X0192381Y0127768D03*
X0193640Y0127768D03*
X0194270Y0126744D03*
X0194388Y0126508D03*
X0196160Y0126508D03*
X0196160Y0126626D03*
X0196160Y0126744D03*
X0196160Y0126862D03*
X0196160Y0127138D03*
X0196160Y0126232D03*
X0196160Y0126114D03*
X0196160Y0125996D03*
X0196160Y0125878D03*
X0196160Y0125602D03*
X0196160Y0125484D03*
X0198050Y0125484D03*
X0198050Y0125602D03*
X0198050Y0125878D03*
X0198050Y0125996D03*
X0198050Y0126114D03*
X0198050Y0126232D03*
X0198050Y0126508D03*
X0198050Y0126626D03*
X0198050Y0126744D03*
X0198050Y0126862D03*
X0198050Y0127138D03*
X0198050Y0128398D03*
X0196160Y0128398D03*
X0199940Y0127768D03*
X0199940Y0127374D03*
X0199940Y0127256D03*
X0204231Y0127138D03*
X0206121Y0128634D03*
X0206869Y0127768D03*
X0206987Y0126232D03*
X0206869Y0122768D03*
X0206987Y0122492D03*
X0206987Y0122374D03*
X0206987Y0122256D03*
X0206987Y0122138D03*
X0206987Y0121862D03*
X0206987Y0121744D03*
X0206987Y0121626D03*
X0206987Y0121508D03*
X0206869Y0121232D03*
X0204231Y0122492D03*
X0204231Y0122768D03*
X0201711Y0121232D03*
X0200058Y0121114D03*
X0200058Y0121508D03*
X0200058Y0122768D03*
X0198798Y0122768D03*
X0198798Y0122492D03*
X0197420Y0122768D03*
X0197420Y0121626D03*
X0197420Y0121508D03*
X0197302Y0121232D03*
X0197420Y0121114D03*
X0196278Y0122138D03*
X0196160Y0122256D03*
X0196160Y0122374D03*
X0196160Y0122492D03*
X0196042Y0122768D03*
X0196042Y0122886D03*
X0196042Y0123004D03*
X0196042Y0123122D03*
X0193522Y0122492D03*
X0193522Y0122374D03*
X0193522Y0122256D03*
X0193522Y0122138D03*
X0191003Y0127768D03*
X0187853Y0143602D03*
X0187853Y0143878D03*
X0187853Y0143996D03*
X0187853Y0144114D03*
X0187853Y0144232D03*
X0187853Y0144508D03*
X0187853Y0144626D03*
X0187853Y0144744D03*
X0187853Y0144862D03*
X0187853Y0145138D03*
X0187853Y0146398D03*
X0186593Y0145374D03*
X0186711Y0144232D03*
X0184073Y0145138D03*
X0184073Y0145256D03*
X0184073Y0145374D03*
X0184073Y0145492D03*
X0180294Y0145492D03*
X0180294Y0145374D03*
X0180294Y0145256D03*
X0180294Y0145138D03*
X0180294Y0144862D03*
X0180294Y0144744D03*
X0180294Y0144626D03*
X0180294Y0144508D03*
X0180294Y0144232D03*
X0178640Y0144508D03*
X0178640Y0144626D03*
X0178640Y0144744D03*
X0178640Y0144862D03*
X0178640Y0145138D03*
X0178640Y0145256D03*
X0178640Y0145374D03*
X0178640Y0145492D03*
X0177381Y0145374D03*
X0176121Y0144508D03*
X0176121Y0144114D03*
X0173483Y0145256D03*
X0173365Y0145374D03*
X0173365Y0145492D03*
X0173483Y0145768D03*
X0172105Y0145886D03*
X0172105Y0145492D03*
X0172223Y0144508D03*
X0172223Y0144232D03*
X0172223Y0144114D03*
X0170845Y0145492D03*
X0171475Y0146634D03*
X0169585Y0144508D03*
X0169585Y0144232D03*
X0169585Y0144114D03*
X0167066Y0145492D03*
X0165412Y0145492D03*
X0165412Y0145374D03*
X0164152Y0145768D03*
X0162774Y0145768D03*
X0162656Y0145492D03*
X0162656Y0145374D03*
X0162656Y0145256D03*
X0162656Y0145138D03*
X0162656Y0144862D03*
X0162656Y0144744D03*
X0162656Y0144626D03*
X0162656Y0144508D03*
X0162774Y0144114D03*
X0161514Y0144114D03*
X0161514Y0144232D03*
X0161514Y0144508D03*
X0161396Y0145492D03*
X0161396Y0145886D03*
X0160766Y0146634D03*
X0160136Y0145492D03*
X0158877Y0145886D03*
X0157617Y0144508D03*
X0156357Y0145492D03*
X0156357Y0145886D03*
X0155097Y0144508D03*
X0152696Y0144508D03*
X0152696Y0144232D03*
X0152577Y0145492D03*
X0152577Y0145768D03*
X0150058Y0144232D03*
X0147538Y0145256D03*
X0147538Y0145374D03*
X0147538Y0145492D03*
X0145885Y0145492D03*
X0145885Y0145374D03*
X0145885Y0145256D03*
X0144625Y0145492D03*
X0144625Y0145768D03*
X0143247Y0145768D03*
X0143247Y0144626D03*
X0143247Y0144508D03*
X0143129Y0144232D03*
X0143247Y0144114D03*
X0142105Y0144508D03*
X0142105Y0144626D03*
X0142105Y0144744D03*
X0142105Y0144862D03*
X0142105Y0145138D03*
X0142105Y0145256D03*
X0142105Y0145374D03*
X0142105Y0145492D03*
X0141987Y0145768D03*
X0141987Y0144232D03*
X0139349Y0144232D03*
X0137696Y0144114D03*
X0137696Y0144508D03*
X0137696Y0145768D03*
X0136436Y0145768D03*
X0136318Y0145886D03*
X0136318Y0146004D03*
X0136318Y0146122D03*
X0136436Y0145492D03*
X0136436Y0145374D03*
X0135058Y0145374D03*
X0135058Y0145256D03*
X0135058Y0145138D03*
X0135058Y0145492D03*
X0135058Y0145768D03*
X0135058Y0145886D03*
X0135058Y0146004D03*
X0135058Y0146122D03*
X0135058Y0146398D03*
X0133798Y0145768D03*
X0133798Y0145492D03*
X0133916Y0144508D03*
X0133916Y0144232D03*
X0135058Y0144114D03*
X0135058Y0143996D03*
X0135058Y0143878D03*
X0135058Y0143602D03*
X0135058Y0143484D03*
X0132420Y0144114D03*
X0132420Y0144508D03*
X0132420Y0144626D03*
X0132420Y0145768D03*
X0131278Y0145492D03*
X0131278Y0145374D03*
X0131278Y0145256D03*
X0136818Y0148366D03*
X0138077Y0148484D03*
X0138077Y0148602D03*
X0138077Y0148878D03*
X0138077Y0148996D03*
X0138077Y0149114D03*
X0138077Y0150138D03*
X0138077Y0150256D03*
X0138077Y0150374D03*
X0138077Y0150492D03*
X0138077Y0150768D03*
X0138077Y0150886D03*
X0138077Y0151004D03*
X0138077Y0151122D03*
X0138077Y0151398D03*
X0136936Y0150886D03*
X0136936Y0150492D03*
X0135558Y0150492D03*
X0135558Y0150768D03*
X0135558Y0149626D03*
X0135676Y0149508D03*
X0134416Y0150138D03*
X0134298Y0150256D03*
X0134298Y0150374D03*
X0134298Y0150492D03*
X0134180Y0150768D03*
X0134180Y0150886D03*
X0134180Y0151004D03*
X0134180Y0151122D03*
X0131660Y0150492D03*
X0131660Y0150374D03*
X0131660Y0150256D03*
X0131660Y0150138D03*
X0131487Y0153484D03*
X0131487Y0153602D03*
X0131487Y0153878D03*
X0131487Y0153996D03*
X0131369Y0154114D03*
X0131369Y0154232D03*
X0131251Y0154508D03*
X0130739Y0155374D03*
X0129361Y0155492D03*
X0129361Y0155768D03*
X0133140Y0155768D03*
X0133140Y0155256D03*
X0134636Y0155492D03*
X0135778Y0155768D03*
X0135778Y0154508D03*
X0135778Y0154114D03*
X0138416Y0154232D03*
X0140070Y0154232D03*
X0140070Y0154508D03*
X0142825Y0154232D03*
X0143849Y0154232D03*
X0143967Y0154114D03*
X0143967Y0155492D03*
X0143967Y0155768D03*
X0144715Y0156634D03*
X0142707Y0155768D03*
X0148259Y0155256D03*
X0148259Y0155138D03*
X0150778Y0154508D03*
X0150778Y0154232D03*
X0150778Y0154114D03*
X0152038Y0155256D03*
X0152038Y0155768D03*
X0153534Y0155492D03*
X0155818Y0154508D03*
X0155818Y0154114D03*
X0157196Y0154114D03*
X0157196Y0154232D03*
X0157196Y0154508D03*
X0157077Y0155492D03*
X0158337Y0155492D03*
X0158337Y0155374D03*
X0158337Y0155256D03*
X0158337Y0155138D03*
X0158337Y0155768D03*
X0158337Y0155886D03*
X0158337Y0156004D03*
X0158337Y0156122D03*
X0159597Y0156122D03*
X0159715Y0156004D03*
X0159715Y0155886D03*
X0159715Y0155768D03*
X0159833Y0155492D03*
X0159833Y0155374D03*
X0159833Y0155256D03*
X0159833Y0155138D03*
X0159597Y0156398D03*
X0161093Y0155768D03*
X0161093Y0155492D03*
X0161093Y0154626D03*
X0160975Y0154508D03*
X0160975Y0154232D03*
X0163613Y0154232D03*
X0165385Y0154232D03*
X0166526Y0155256D03*
X0166526Y0155374D03*
X0166526Y0155768D03*
X0165266Y0155768D03*
X0168022Y0155768D03*
X0169282Y0155768D03*
X0169282Y0155492D03*
X0169164Y0154508D03*
X0169164Y0154232D03*
X0173455Y0155492D03*
X0173455Y0155768D03*
X0174715Y0155492D03*
X0175463Y0154114D03*
X0175463Y0153996D03*
X0175463Y0153878D03*
X0175755Y0151634D03*
X0176503Y0150768D03*
X0177644Y0150492D03*
X0177762Y0150886D03*
X0177762Y0149626D03*
X0176621Y0149232D03*
X0178904Y0148366D03*
X0180282Y0149114D03*
X0180282Y0149508D03*
X0181660Y0149508D03*
X0181660Y0149232D03*
X0181660Y0149114D03*
X0181542Y0150374D03*
X0179140Y0150492D03*
X0179140Y0150768D03*
X0183944Y0151398D03*
X0183944Y0150138D03*
X0183944Y0149862D03*
X0183944Y0149744D03*
X0183944Y0149626D03*
X0183944Y0149508D03*
X0183944Y0149232D03*
X0183944Y0149114D03*
X0183944Y0148996D03*
X0183944Y0148878D03*
X0183944Y0148602D03*
X0183944Y0148484D03*
X0186699Y0148996D03*
X0186699Y0149114D03*
X0186699Y0149232D03*
X0185951Y0150492D03*
X0185833Y0150768D03*
X0188353Y0150768D03*
X0188353Y0150492D03*
X0188353Y0149626D03*
X0188471Y0149508D03*
X0189731Y0150492D03*
X0189731Y0150886D03*
X0190873Y0151398D03*
X0190873Y0150138D03*
X0190873Y0149862D03*
X0190873Y0149744D03*
X0190873Y0149626D03*
X0190873Y0149508D03*
X0190873Y0149232D03*
X0190873Y0149114D03*
X0190873Y0148996D03*
X0190873Y0148878D03*
X0190873Y0148602D03*
X0190873Y0148484D03*
X0189613Y0148366D03*
X0190373Y0146634D03*
X0191003Y0145886D03*
X0191121Y0145768D03*
X0191003Y0145492D03*
X0191121Y0144508D03*
X0191121Y0144114D03*
X0189743Y0145492D03*
X0189743Y0145768D03*
X0193129Y0144232D03*
X0194782Y0144508D03*
X0194782Y0144626D03*
X0194782Y0144744D03*
X0194782Y0144862D03*
X0194782Y0145138D03*
X0194782Y0145256D03*
X0194782Y0145374D03*
X0194782Y0145492D03*
X0194900Y0145768D03*
X0194900Y0144232D03*
X0197538Y0144232D03*
X0197538Y0144508D03*
X0199192Y0144232D03*
X0199192Y0144114D03*
X0200451Y0145256D03*
X0200451Y0145768D03*
X0201948Y0145492D03*
X0203089Y0145492D03*
X0203089Y0145768D03*
X0203089Y0144626D03*
X0203207Y0144508D03*
X0204349Y0143366D03*
X0205609Y0144232D03*
X0205609Y0144508D03*
X0204467Y0145886D03*
X0206227Y0149114D03*
X0206109Y0149232D03*
X0206109Y0149508D03*
X0206227Y0149626D03*
X0204967Y0149232D03*
X0203471Y0149232D03*
X0203471Y0149508D03*
X0203471Y0150492D03*
X0202329Y0150492D03*
X0202329Y0150374D03*
X0202329Y0150256D03*
X0204967Y0150768D03*
X0207369Y0150768D03*
X0208731Y0153484D03*
X0208731Y0153602D03*
X0208731Y0153878D03*
X0211369Y0154114D03*
X0211369Y0154232D03*
X0211251Y0155768D03*
X0205699Y0155374D03*
X0205699Y0155256D03*
X0205699Y0155138D03*
X0205581Y0155492D03*
X0205581Y0155768D03*
X0205581Y0155886D03*
X0199912Y0154508D03*
X0199912Y0154232D03*
X0198652Y0153366D03*
X0197510Y0154508D03*
X0197392Y0154626D03*
X0197392Y0155492D03*
X0197392Y0155768D03*
X0196251Y0155492D03*
X0198770Y0155886D03*
X0196148Y0151634D03*
X0196778Y0150886D03*
X0196778Y0150492D03*
X0195518Y0150492D03*
X0195400Y0149508D03*
X0195400Y0149232D03*
X0195400Y0149114D03*
X0194259Y0150138D03*
X0194259Y0150256D03*
X0194140Y0150374D03*
X0194140Y0150492D03*
X0194140Y0150768D03*
X0194022Y0150886D03*
X0194022Y0151004D03*
X0194022Y0151122D03*
X0192762Y0151122D03*
X0192762Y0151004D03*
X0192762Y0150886D03*
X0192762Y0150768D03*
X0192762Y0150492D03*
X0192762Y0150374D03*
X0192762Y0150256D03*
X0192762Y0150138D03*
X0192762Y0149114D03*
X0192762Y0148996D03*
X0192762Y0148878D03*
X0192762Y0148602D03*
X0192762Y0148484D03*
X0197920Y0149232D03*
X0198038Y0149114D03*
X0198038Y0149508D03*
X0198038Y0149626D03*
X0198038Y0150768D03*
X0192762Y0151398D03*
X0188573Y0154232D03*
X0186920Y0154114D03*
X0186920Y0154508D03*
X0186920Y0155768D03*
X0181014Y0155768D03*
X0181014Y0155492D03*
X0181133Y0154508D03*
X0181133Y0154232D03*
X0178495Y0155492D03*
X0178495Y0155768D03*
X0173865Y0150768D03*
X0173865Y0150492D03*
X0171345Y0150492D03*
X0171345Y0150768D03*
X0167172Y0150768D03*
X0167172Y0150492D03*
X0167054Y0149508D03*
X0167054Y0149232D03*
X0165282Y0149626D03*
X0164652Y0150768D03*
X0162133Y0149508D03*
X0162133Y0149232D03*
X0157605Y0149232D03*
X0157487Y0149626D03*
X0157487Y0149744D03*
X0157487Y0149862D03*
X0157487Y0150138D03*
X0157487Y0150256D03*
X0157605Y0150492D03*
X0155203Y0150768D03*
X0153944Y0149508D03*
X0153944Y0149232D03*
X0151424Y0149626D03*
X0151306Y0149508D03*
X0151306Y0149232D03*
X0151424Y0150492D03*
X0151424Y0150768D03*
X0150164Y0150768D03*
X0148668Y0150492D03*
X0148668Y0150374D03*
X0148668Y0150256D03*
X0147526Y0150256D03*
X0147526Y0150374D03*
X0147526Y0150138D03*
X0147526Y0149862D03*
X0147526Y0149744D03*
X0147526Y0149626D03*
X0147526Y0149508D03*
X0147408Y0149232D03*
X0145755Y0149626D03*
X0145755Y0149744D03*
X0145755Y0149862D03*
X0145755Y0150138D03*
X0145755Y0150256D03*
X0144495Y0148366D03*
X0143235Y0150492D03*
X0141739Y0149114D03*
X0141739Y0148996D03*
X0141739Y0148878D03*
X0139455Y0150492D03*
X0139455Y0150768D03*
X0139455Y0150886D03*
X0139337Y0151004D03*
X0139337Y0151122D03*
X0139337Y0151398D03*
X0158337Y0153602D03*
X0158337Y0153878D03*
X0158337Y0153996D03*
X0158337Y0154114D03*
X0164152Y0144114D03*
D20*
X0163463Y0143602D03*
X0168896Y0143602D03*
X0169133Y0145138D03*
X0168621Y0146122D03*
X0167861Y0148484D03*
X0170774Y0148878D03*
X0173294Y0148878D03*
X0176573Y0146122D03*
X0176692Y0145886D03*
X0177085Y0145138D03*
X0176810Y0143602D03*
X0178570Y0148878D03*
X0180971Y0148602D03*
X0180853Y0150886D03*
X0180735Y0151122D03*
X0177924Y0153878D03*
X0180325Y0155138D03*
X0185089Y0156516D03*
X0185365Y0155256D03*
X0190522Y0155256D03*
X0192530Y0156122D03*
X0192648Y0155886D03*
X0193042Y0155138D03*
X0198199Y0153996D03*
X0198318Y0153878D03*
X0200719Y0155256D03*
X0200483Y0156516D03*
X0210562Y0156398D03*
X0210562Y0153484D03*
X0206916Y0148602D03*
X0206180Y0146516D03*
X0206416Y0145256D03*
X0203896Y0143996D03*
X0203542Y0144744D03*
X0195589Y0143602D03*
X0192951Y0146634D03*
X0189160Y0148878D03*
X0189160Y0148996D03*
X0185904Y0145886D03*
X0186140Y0145138D03*
X0185904Y0143602D03*
X0198727Y0150138D03*
X0186522Y0151634D03*
X0172885Y0153878D03*
X0169971Y0153484D03*
X0167861Y0151398D03*
X0165223Y0151634D03*
X0162703Y0151516D03*
X0161782Y0153602D03*
X0161782Y0155138D03*
X0156743Y0155138D03*
X0156388Y0156004D03*
X0156507Y0153602D03*
X0154514Y0151516D03*
X0152113Y0150138D03*
X0152113Y0148602D03*
X0149093Y0146004D03*
X0151888Y0145138D03*
X0155392Y0144744D03*
X0155786Y0143996D03*
X0155786Y0143878D03*
X0157912Y0144744D03*
X0158306Y0143996D03*
X0158424Y0143878D03*
X0143936Y0145138D03*
X0144199Y0148878D03*
X0141404Y0151634D03*
X0142018Y0153484D03*
X0136585Y0153484D03*
X0136585Y0156398D03*
X0142018Y0156398D03*
X0149814Y0156122D03*
X0150325Y0155138D03*
X0150089Y0153602D03*
X0136365Y0148996D03*
X0136365Y0148878D03*
X0136010Y0149744D03*
X0128790Y0153878D03*
X0131192Y0156634D03*
X0133109Y0145138D03*
X0128070Y0145256D03*
X0127951Y0143602D03*
X0130196Y0128634D03*
X0135117Y0128122D03*
X0135235Y0128004D03*
X0135629Y0127138D03*
X0137636Y0128122D03*
X0137755Y0128004D03*
X0138148Y0127138D03*
X0140550Y0125602D03*
X0143306Y0125484D03*
X0146849Y0123516D03*
X0147085Y0122256D03*
X0149487Y0123398D03*
X0152007Y0123516D03*
X0152243Y0122256D03*
X0149487Y0120484D03*
X0144684Y0120878D03*
X0144566Y0120996D03*
X0136377Y0122138D03*
X0143306Y0128398D03*
X0158424Y0123634D03*
X0162951Y0123398D03*
X0162951Y0120484D03*
X0171140Y0122138D03*
X0173936Y0122256D03*
X0179093Y0122256D03*
X0178975Y0120602D03*
X0182361Y0123516D03*
X0184644Y0121744D03*
X0184999Y0120996D03*
X0187518Y0120602D03*
X0190432Y0122138D03*
X0190038Y0123004D03*
X0189920Y0123122D03*
X0189054Y0125602D03*
X0189290Y0127138D03*
X0188778Y0128122D03*
X0186534Y0128634D03*
X0184133Y0125878D03*
X0180235Y0125602D03*
X0180235Y0127138D03*
X0170274Y0127138D03*
X0170274Y0125602D03*
X0164841Y0127138D03*
X0162203Y0127886D03*
X0162085Y0128004D03*
X0159684Y0128516D03*
X0191692Y0125602D03*
X0194329Y0128634D03*
X0198109Y0122138D03*
X0203660Y0120878D03*
X0193471Y0108634D03*
X0188432Y0107256D03*
X0196109Y0103004D03*
X0196227Y0102886D03*
X0204062Y0103004D03*
X0204180Y0102886D03*
X0204416Y0102138D03*
X0204180Y0100602D03*
X0201542Y0107138D03*
X0188432Y0100878D03*
X0180479Y0100996D03*
X0180125Y0101744D03*
X0176975Y0102256D03*
X0176699Y0103516D03*
X0166385Y0108634D03*
X0163747Y0105602D03*
X0163471Y0103398D03*
X0163471Y0100484D03*
X0156542Y0100878D03*
X0156424Y0100996D03*
X0154022Y0102138D03*
X0153668Y0102886D03*
X0153786Y0100602D03*
X0152762Y0105602D03*
X0152762Y0107138D03*
X0150518Y0107256D03*
X0159455Y0105878D03*
X0141188Y0105602D03*
X0136385Y0107256D03*
X0136148Y0108516D03*
X0133747Y0108516D03*
X0131109Y0106744D03*
X0131621Y0105878D03*
X0126936Y0103516D03*
X0132251Y0100878D03*
X0138550Y0108516D03*
X0169971Y0156398D03*
D21*
X0165385Y0154508D03*
X0158337Y0153366D03*
X0158353Y0151634D03*
X0155203Y0149626D03*
X0155322Y0149114D03*
X0150282Y0150138D03*
X0146660Y0151634D03*
X0146723Y0153366D03*
X0145621Y0154508D03*
X0142825Y0154508D03*
X0147983Y0156516D03*
X0139337Y0151516D03*
X0138077Y0148366D03*
X0136318Y0146516D03*
X0139349Y0144508D03*
X0135058Y0143366D03*
X0131278Y0145138D03*
X0128522Y0144114D03*
X0128365Y0144626D03*
X0130125Y0148366D03*
X0131487Y0153366D03*
X0137432Y0154508D03*
X0147538Y0145138D03*
X0160361Y0148366D03*
X0163392Y0149626D03*
X0176621Y0149508D03*
X0183944Y0148366D03*
X0183944Y0151516D03*
X0185778Y0154114D03*
X0188573Y0154508D03*
X0190975Y0154114D03*
X0190873Y0151516D03*
X0194022Y0151516D03*
X0192762Y0148366D03*
X0190873Y0148366D03*
X0193247Y0143366D03*
X0187853Y0143366D03*
X0182538Y0143366D03*
X0202329Y0150138D03*
X0207369Y0149626D03*
X0207487Y0149114D03*
X0206869Y0144626D03*
X0208731Y0153366D03*
X0206841Y0156516D03*
X0205463Y0156516D03*
X0202314Y0156516D03*
X0201172Y0154626D03*
X0204203Y0153366D03*
X0196160Y0128516D03*
X0196160Y0125366D03*
X0194664Y0125366D03*
X0198050Y0125366D03*
X0201711Y0121508D03*
X0206987Y0126508D03*
X0191987Y0120366D03*
X0183050Y0121114D03*
X0179546Y0121114D03*
X0179388Y0121626D03*
X0174349Y0121114D03*
X0174231Y0121626D03*
X0174861Y0125366D03*
X0178404Y0127138D03*
X0169310Y0122138D03*
X0166554Y0122138D03*
X0163798Y0121508D03*
X0160255Y0123516D03*
X0157341Y0125366D03*
X0155097Y0126508D03*
X0152302Y0127138D03*
X0144113Y0126508D03*
X0142381Y0123516D03*
X0141121Y0120366D03*
X0147538Y0121626D03*
X0150294Y0121508D03*
X0152696Y0121626D03*
X0160491Y0126114D03*
X0160373Y0126626D03*
X0167577Y0128634D03*
X0133798Y0123516D03*
X0132026Y0125366D03*
X0133286Y0128516D03*
X0133798Y0120366D03*
X0143136Y0108516D03*
X0145026Y0108516D03*
X0148570Y0107138D03*
X0150814Y0106626D03*
X0150932Y0106114D03*
X0145026Y0105366D03*
X0139357Y0106114D03*
X0139239Y0106626D03*
X0136837Y0106626D03*
X0134436Y0106626D03*
X0127625Y0101626D03*
X0127782Y0101114D03*
X0136719Y0100366D03*
X0146522Y0100366D03*
X0158136Y0103516D03*
X0157507Y0106508D03*
X0161168Y0105366D03*
X0164318Y0101508D03*
X0169829Y0101508D03*
X0173491Y0100366D03*
X0174751Y0103516D03*
X0175656Y0105366D03*
X0176916Y0108516D03*
X0173766Y0108516D03*
X0169987Y0107138D03*
X0177388Y0101114D03*
X0189987Y0105366D03*
X0188885Y0106626D03*
X0195302Y0105366D03*
X0198963Y0105366D03*
X0199436Y0103516D03*
X0203491Y0105366D03*
X0204751Y0108516D03*
X0198963Y0108516D03*
X0197073Y0108516D03*
X0194554Y0102138D03*
X0191759Y0102138D03*
X0198176Y0100366D03*
X0200853Y0100366D03*
D22*
X0126444Y0101114D03*
X0126444Y0101626D03*
X0129081Y0102374D03*
X0129475Y0101862D03*
X0129475Y0101744D03*
X0129593Y0101626D03*
X0129593Y0101508D03*
X0131483Y0101508D03*
X0132743Y0102374D03*
X0132743Y0102886D03*
X0134003Y0102768D03*
X0134003Y0101114D03*
X0135381Y0101114D03*
X0138530Y0101626D03*
X0143963Y0102138D03*
X0152152Y0107886D03*
X0153412Y0107886D03*
X0153530Y0106114D03*
X0155932Y0106626D03*
X0157428Y0106114D03*
X0158688Y0106508D03*
X0159948Y0107374D03*
X0159948Y0107886D03*
X0163097Y0106114D03*
X0166010Y0107374D03*
X0166129Y0107256D03*
X0166129Y0107138D03*
X0166247Y0106862D03*
X0166640Y0106232D03*
X0165499Y0102768D03*
X0165499Y0101114D03*
X0164239Y0101114D03*
X0166877Y0101114D03*
X0168136Y0101508D03*
X0169790Y0101114D03*
X0171050Y0101508D03*
X0172310Y0102374D03*
X0172310Y0102886D03*
X0172546Y0106114D03*
X0171168Y0106114D03*
X0172546Y0107768D03*
X0179987Y0101232D03*
X0182388Y0102886D03*
X0183648Y0101626D03*
X0187664Y0101508D03*
X0188924Y0102374D03*
X0188924Y0102886D03*
X0190184Y0102768D03*
X0190184Y0102138D03*
X0194475Y0102768D03*
X0195617Y0101508D03*
X0196995Y0101508D03*
X0196877Y0102492D03*
X0193333Y0106744D03*
X0193333Y0106862D03*
X0193097Y0107138D03*
X0193097Y0107256D03*
X0187664Y0106626D03*
X0187664Y0106114D03*
X0186404Y0106114D03*
X0185026Y0106114D03*
X0186404Y0107768D03*
X0200892Y0107886D03*
X0200892Y0107492D03*
X0202152Y0107886D03*
X0201633Y0121114D03*
X0202892Y0121508D03*
X0204152Y0122374D03*
X0204152Y0122886D03*
X0205412Y0122768D03*
X0205412Y0121114D03*
X0200136Y0121626D03*
X0200136Y0122492D03*
X0198877Y0121626D03*
X0198877Y0121114D03*
X0194073Y0127138D03*
X0193955Y0127256D03*
X0193837Y0127492D03*
X0190924Y0126232D03*
X0189546Y0127492D03*
X0186514Y0126626D03*
X0186514Y0126508D03*
X0186396Y0126744D03*
X0186396Y0126862D03*
X0184625Y0127374D03*
X0184625Y0127886D03*
X0183365Y0126508D03*
X0180845Y0127886D03*
X0179585Y0127886D03*
X0179467Y0126114D03*
X0176829Y0127138D03*
X0176829Y0127768D03*
X0175570Y0122768D03*
X0175570Y0121114D03*
X0176948Y0121114D03*
X0171908Y0121114D03*
X0171908Y0121626D03*
X0171790Y0122886D03*
X0170530Y0122886D03*
X0170530Y0122492D03*
X0169270Y0122768D03*
X0164979Y0122768D03*
X0164979Y0122138D03*
X0163719Y0121114D03*
X0158680Y0121232D03*
X0158562Y0121508D03*
X0158168Y0122138D03*
X0158168Y0122256D03*
X0158050Y0122374D03*
X0159192Y0126114D03*
X0159192Y0126626D03*
X0162971Y0126508D03*
X0164231Y0127492D03*
X0164231Y0127886D03*
X0165491Y0127886D03*
X0165609Y0126626D03*
X0165609Y0126114D03*
X0166869Y0126114D03*
X0168247Y0126114D03*
X0169507Y0126114D03*
X0168247Y0127768D03*
X0166869Y0127768D03*
X0155018Y0126114D03*
X0153522Y0126626D03*
X0153522Y0127492D03*
X0152262Y0127768D03*
X0148089Y0126626D03*
X0146829Y0127768D03*
X0145451Y0127138D03*
X0144073Y0126114D03*
X0139900Y0126114D03*
X0138522Y0127374D03*
X0137381Y0128516D03*
X0136003Y0127374D03*
X0134861Y0128516D03*
X0130215Y0126626D03*
X0130215Y0126508D03*
X0129822Y0127138D03*
X0129822Y0127256D03*
X0129703Y0127374D03*
X0128562Y0122886D03*
X0128444Y0121626D03*
X0129822Y0121626D03*
X0137144Y0121626D03*
X0137144Y0121114D03*
X0138404Y0121114D03*
X0139782Y0121114D03*
X0138404Y0122768D03*
X0144073Y0121232D03*
X0148719Y0121114D03*
X0148719Y0122768D03*
X0133255Y0106626D03*
X0133255Y0106114D03*
X0131995Y0107374D03*
X0130735Y0107374D03*
X0130735Y0107886D03*
X0130971Y0106232D03*
X0154278Y0102492D03*
X0155932Y0101232D03*
X0184507Y0121232D03*
X0189664Y0123516D03*
X0190806Y0122374D03*
X0205294Y0126508D03*
X0205412Y0126626D03*
X0203404Y0144232D03*
X0197617Y0144114D03*
X0196357Y0144114D03*
X0196357Y0145768D03*
X0193207Y0144114D03*
X0192814Y0144862D03*
X0192696Y0145138D03*
X0192577Y0145256D03*
X0192577Y0145374D03*
X0189664Y0144626D03*
X0185255Y0144508D03*
X0178719Y0144232D03*
X0176318Y0146516D03*
X0174940Y0145768D03*
X0170766Y0144626D03*
X0169388Y0145492D03*
X0166987Y0145768D03*
X0165609Y0145138D03*
X0160058Y0144626D03*
X0158798Y0145374D03*
X0157538Y0145374D03*
X0157538Y0145886D03*
X0156278Y0145374D03*
X0155018Y0145374D03*
X0155018Y0145886D03*
X0152499Y0145886D03*
X0151239Y0145886D03*
X0151239Y0145492D03*
X0149861Y0145492D03*
X0149979Y0144508D03*
X0148601Y0144508D03*
X0145963Y0145138D03*
X0145963Y0145768D03*
X0144703Y0144626D03*
X0144703Y0144114D03*
X0140530Y0144114D03*
X0139270Y0144114D03*
X0137774Y0144626D03*
X0137774Y0145492D03*
X0140530Y0145768D03*
X0145951Y0149114D03*
X0147329Y0149114D03*
X0147329Y0150768D03*
X0145951Y0150768D03*
X0144692Y0150886D03*
X0144692Y0150374D03*
X0143432Y0149508D03*
X0141660Y0149232D03*
X0141542Y0149508D03*
X0141424Y0149744D03*
X0141030Y0150374D03*
X0139991Y0154114D03*
X0139991Y0154626D03*
X0141251Y0154626D03*
X0141251Y0155492D03*
X0139873Y0155886D03*
X0138613Y0155886D03*
X0138613Y0155492D03*
X0137353Y0154114D03*
X0131172Y0154626D03*
X0131054Y0154862D03*
X0130936Y0155138D03*
X0129282Y0155374D03*
X0129282Y0155886D03*
X0128022Y0154508D03*
X0129703Y0145768D03*
X0129703Y0145138D03*
X0145542Y0154114D03*
X0150581Y0155492D03*
X0151503Y0150886D03*
X0152762Y0150886D03*
X0152881Y0149114D03*
X0154022Y0149114D03*
X0154022Y0149626D03*
X0159062Y0149114D03*
X0159062Y0150768D03*
X0162211Y0149626D03*
X0162211Y0149114D03*
X0164849Y0150374D03*
X0164967Y0150256D03*
X0164967Y0150138D03*
X0165361Y0149508D03*
X0165479Y0149232D03*
X0162550Y0154114D03*
X0163692Y0154508D03*
X0163810Y0154626D03*
X0162432Y0155886D03*
X0161172Y0155886D03*
X0171266Y0150374D03*
X0172526Y0149508D03*
X0173786Y0150374D03*
X0173786Y0150886D03*
X0175046Y0149626D03*
X0174928Y0149508D03*
X0180479Y0151516D03*
X0179676Y0155492D03*
X0179676Y0155886D03*
X0180936Y0155886D03*
X0178416Y0155886D03*
X0178416Y0155374D03*
X0177156Y0154508D03*
X0175266Y0154508D03*
X0175148Y0154744D03*
X0175030Y0154862D03*
X0173377Y0155374D03*
X0186999Y0155492D03*
X0186999Y0154626D03*
X0188495Y0154114D03*
X0193298Y0155492D03*
X0192274Y0156516D03*
X0194794Y0155138D03*
X0197707Y0154232D03*
X0198117Y0150886D03*
X0198117Y0150492D03*
X0199377Y0150886D03*
X0199495Y0149626D03*
X0199495Y0149114D03*
X0200755Y0150138D03*
X0200755Y0150768D03*
X0196857Y0149626D03*
X0195597Y0150886D03*
X0186385Y0149862D03*
X0186385Y0149744D03*
X0186148Y0150138D03*
X0186148Y0150256D03*
X0209794Y0154114D03*
D23*
X0210601Y0153878D03*
X0201444Y0148996D03*
X0201444Y0148366D03*
X0196168Y0148996D03*
X0198424Y0143878D03*
X0201062Y0143366D03*
X0190353Y0143996D03*
X0186444Y0151004D03*
X0186444Y0151122D03*
X0186444Y0151398D03*
X0186444Y0151516D03*
X0187688Y0153878D03*
X0187688Y0153996D03*
X0187688Y0155886D03*
X0195483Y0155886D03*
X0195365Y0153366D03*
X0175735Y0150886D03*
X0175735Y0148996D03*
X0175735Y0148878D03*
X0174251Y0145886D03*
X0171455Y0143996D03*
X0166180Y0143366D03*
X0160747Y0143996D03*
X0166298Y0145886D03*
X0167940Y0148878D03*
X0165302Y0151004D03*
X0165302Y0151122D03*
X0165302Y0151398D03*
X0165302Y0151516D03*
X0164499Y0153878D03*
X0164499Y0153996D03*
X0164499Y0155886D03*
X0167136Y0153366D03*
X0170050Y0153878D03*
X0175207Y0156004D03*
X0175207Y0156122D03*
X0175207Y0156398D03*
X0175207Y0156516D03*
X0152648Y0153366D03*
X0147491Y0154862D03*
X0144735Y0153996D03*
X0144735Y0153878D03*
X0144735Y0155886D03*
X0141940Y0155886D03*
X0141940Y0153996D03*
X0141940Y0153878D03*
X0141483Y0151516D03*
X0141483Y0151398D03*
X0141483Y0151122D03*
X0141483Y0151004D03*
X0136546Y0153878D03*
X0136546Y0153996D03*
X0136546Y0155886D03*
X0133751Y0153366D03*
X0131113Y0156004D03*
X0138463Y0145886D03*
X0138463Y0143996D03*
X0138463Y0143878D03*
X0135825Y0144862D03*
X0130392Y0143996D03*
X0130392Y0143366D03*
X0130156Y0128516D03*
X0130156Y0128398D03*
X0130156Y0128122D03*
X0130156Y0128004D03*
X0132794Y0126862D03*
X0135432Y0126626D03*
X0137951Y0126626D03*
X0141849Y0121862D03*
X0146022Y0125366D03*
X0148778Y0125996D03*
X0146140Y0127886D03*
X0154211Y0127886D03*
X0154211Y0125996D03*
X0154211Y0125878D03*
X0158503Y0123516D03*
X0158503Y0123398D03*
X0158503Y0123122D03*
X0158503Y0123004D03*
X0155707Y0120366D03*
X0165668Y0120366D03*
X0165668Y0120996D03*
X0172991Y0126508D03*
X0172991Y0126626D03*
X0172991Y0126744D03*
X0172991Y0126862D03*
X0186455Y0128004D03*
X0186455Y0128122D03*
X0186455Y0128398D03*
X0186455Y0128516D03*
X0190235Y0121626D03*
X0200825Y0120996D03*
X0200825Y0120878D03*
X0200825Y0122886D03*
X0203463Y0126508D03*
X0203463Y0126626D03*
X0203463Y0126744D03*
X0203463Y0126862D03*
X0206101Y0125996D03*
X0206101Y0125878D03*
X0206101Y0127886D03*
X0200707Y0127886D03*
X0193392Y0108516D03*
X0193392Y0108398D03*
X0193392Y0108122D03*
X0193392Y0108004D03*
X0198944Y0101862D03*
X0193668Y0100996D03*
X0193668Y0100366D03*
X0190873Y0100366D03*
X0190873Y0100996D03*
X0185715Y0101508D03*
X0185715Y0101626D03*
X0185715Y0101744D03*
X0185715Y0101862D03*
X0182959Y0100996D03*
X0174259Y0101862D03*
X0182959Y0107886D03*
X0163432Y0102886D03*
X0163432Y0100996D03*
X0163432Y0100878D03*
X0156621Y0105878D03*
X0156621Y0105996D03*
X0156621Y0107886D03*
X0144652Y0102886D03*
X0144534Y0100366D03*
X0139219Y0100996D03*
X0129534Y0103004D03*
X0129534Y0103122D03*
X0129534Y0103398D03*
X0129534Y0103516D03*
X0131770Y0120366D03*
X0129133Y0120996D03*
D24*
X0131908Y0123516D03*
X0145766Y0126744D03*
X0146396Y0126232D03*
X0149546Y0123516D03*
X0155845Y0123516D03*
X0153955Y0127138D03*
X0182302Y0123634D03*
X0188601Y0128398D03*
X0200570Y0122138D03*
X0179042Y0108516D03*
X0168963Y0106626D03*
X0168963Y0103516D03*
X0160774Y0103516D03*
X0161404Y0107886D03*
X0156365Y0107138D03*
X0147546Y0106626D03*
X0141877Y0103516D03*
X0144396Y0101626D03*
X0131798Y0105484D03*
X0193530Y0101626D03*
X0198050Y0144862D03*
X0201199Y0146516D03*
X0206739Y0151634D03*
X0187432Y0155138D03*
X0178392Y0151516D03*
X0168444Y0146398D03*
X0166554Y0144232D03*
X0165924Y0144744D03*
X0148916Y0146398D03*
X0149416Y0149508D03*
X0138207Y0145138D03*
X0133888Y0156516D03*
X0149636Y0156398D03*
X0152786Y0156516D03*
X0164125Y0155256D03*
X0164125Y0154862D03*
X0167274Y0156516D03*
D25*
X0166585Y0155138D03*
X0165325Y0154114D03*
X0169223Y0154114D03*
X0172255Y0154232D03*
X0174774Y0155374D03*
X0174892Y0155256D03*
X0174892Y0155138D03*
X0175404Y0154232D03*
X0179081Y0150886D03*
X0179081Y0150374D03*
X0177822Y0149508D03*
X0176562Y0149114D03*
X0170904Y0145886D03*
X0172164Y0144626D03*
X0173542Y0145138D03*
X0168385Y0146516D03*
X0167113Y0149114D03*
X0165223Y0149744D03*
X0165105Y0149862D03*
X0170144Y0149232D03*
X0161034Y0154114D03*
X0157136Y0155374D03*
X0155995Y0156516D03*
X0153475Y0155768D03*
X0152097Y0155138D03*
X0149577Y0156516D03*
X0144026Y0154626D03*
X0143908Y0154508D03*
X0142766Y0154114D03*
X0141168Y0150256D03*
X0141168Y0150138D03*
X0141286Y0149862D03*
X0136877Y0150374D03*
X0135617Y0150374D03*
X0135617Y0150886D03*
X0133739Y0145886D03*
X0132479Y0145886D03*
X0132479Y0145492D03*
X0131219Y0145768D03*
X0133857Y0144626D03*
X0133857Y0144114D03*
X0141928Y0144114D03*
X0143306Y0145492D03*
X0143306Y0145886D03*
X0144566Y0145886D03*
X0148727Y0150138D03*
X0148727Y0150768D03*
X0151365Y0149114D03*
X0152636Y0144626D03*
X0152636Y0144114D03*
X0157794Y0144232D03*
X0160196Y0145886D03*
X0161455Y0144626D03*
X0162715Y0144232D03*
X0157664Y0149114D03*
X0157664Y0150768D03*
X0177322Y0145492D03*
X0186652Y0144508D03*
X0189802Y0145886D03*
X0191062Y0144626D03*
X0192440Y0145492D03*
X0192322Y0145768D03*
X0192951Y0144744D03*
X0192951Y0144626D03*
X0193070Y0144508D03*
X0194959Y0144114D03*
X0200510Y0145138D03*
X0201888Y0145768D03*
X0203148Y0145886D03*
X0203148Y0145374D03*
X0204408Y0145374D03*
X0205668Y0144626D03*
X0205668Y0144114D03*
X0204908Y0149114D03*
X0203530Y0149114D03*
X0203530Y0150768D03*
X0202270Y0150768D03*
X0199971Y0154114D03*
X0199971Y0154626D03*
X0198711Y0155374D03*
X0197451Y0155374D03*
X0197451Y0155886D03*
X0196192Y0155768D03*
X0195459Y0149626D03*
X0189672Y0150374D03*
X0188412Y0150374D03*
X0188412Y0150886D03*
X0186522Y0149626D03*
X0186522Y0149508D03*
X0186010Y0150374D03*
X0181483Y0150492D03*
X0181073Y0154114D03*
X0181073Y0154626D03*
X0135837Y0154626D03*
X0135837Y0155492D03*
X0134577Y0155768D03*
X0133199Y0155138D03*
X0130798Y0155256D03*
X0130680Y0155492D03*
X0148227Y0127886D03*
X0149487Y0126626D03*
X0150747Y0127138D03*
X0150747Y0127768D03*
X0142558Y0127768D03*
X0141298Y0127768D03*
X0141298Y0126114D03*
X0142558Y0126114D03*
X0143818Y0122886D03*
X0143818Y0122374D03*
X0145077Y0122374D03*
X0146337Y0121626D03*
X0146337Y0121114D03*
X0150235Y0121114D03*
X0151495Y0121114D03*
X0151495Y0121626D03*
X0155156Y0122138D03*
X0158306Y0121862D03*
X0158424Y0121744D03*
X0162203Y0121114D03*
X0162203Y0122768D03*
X0166495Y0122768D03*
X0167755Y0122768D03*
X0167755Y0122138D03*
X0171022Y0126114D03*
X0170904Y0127886D03*
X0169644Y0127886D03*
X0162833Y0127492D03*
X0161573Y0126508D03*
X0180983Y0126114D03*
X0186022Y0127374D03*
X0186140Y0127256D03*
X0186140Y0127138D03*
X0188542Y0128516D03*
X0194211Y0126862D03*
X0194329Y0126626D03*
X0197479Y0122886D03*
X0197479Y0122492D03*
X0198739Y0122886D03*
X0199999Y0127138D03*
X0206928Y0126114D03*
X0206810Y0121114D03*
X0186770Y0121232D03*
X0185510Y0122374D03*
X0184251Y0122374D03*
X0184251Y0122886D03*
X0182251Y0107138D03*
X0179731Y0106626D03*
X0178353Y0106626D03*
X0178471Y0107886D03*
X0179731Y0102886D03*
X0179731Y0102374D03*
X0180991Y0102374D03*
X0182251Y0101626D03*
X0191699Y0102768D03*
X0192959Y0102768D03*
X0192959Y0102138D03*
X0193471Y0106508D03*
X0193471Y0106626D03*
X0192959Y0107374D03*
X0202290Y0106626D03*
X0202290Y0106114D03*
X0203550Y0101508D03*
X0204928Y0101508D03*
X0168274Y0101626D03*
X0166503Y0106508D03*
X0166385Y0106744D03*
X0164495Y0106114D03*
X0164495Y0107768D03*
X0168392Y0107768D03*
X0168392Y0107138D03*
X0162723Y0102492D03*
X0162723Y0101626D03*
X0161463Y0101626D03*
X0160085Y0101626D03*
X0160203Y0102886D03*
X0156936Y0102374D03*
X0155676Y0102374D03*
X0155676Y0102886D03*
X0153274Y0103516D03*
X0152014Y0106114D03*
X0155794Y0106508D03*
X0146975Y0107138D03*
X0146975Y0107768D03*
X0141936Y0107768D03*
X0141936Y0106114D03*
X0140558Y0106114D03*
X0138038Y0106114D03*
X0138038Y0106626D03*
X0135636Y0106626D03*
X0135636Y0106114D03*
X0138668Y0102886D03*
X0139928Y0101626D03*
X0141188Y0101626D03*
X0141306Y0102886D03*
X0142566Y0101626D03*
X0129219Y0102138D03*
X0129219Y0102256D03*
X0131219Y0122138D03*
X0135747Y0122492D03*
X0135747Y0122886D03*
X0137007Y0122886D03*
X0130077Y0126744D03*
X0130077Y0126862D03*
D26*
X0135373Y0125996D03*
X0137892Y0125996D03*
X0140530Y0125996D03*
X0139152Y0122886D03*
X0139152Y0120996D03*
X0129192Y0120878D03*
X0129192Y0121744D03*
X0140530Y0127886D03*
X0162341Y0126744D03*
X0162341Y0126626D03*
X0164861Y0126744D03*
X0164861Y0125996D03*
X0164861Y0125878D03*
X0165727Y0123004D03*
X0165727Y0122886D03*
X0162971Y0122886D03*
X0162971Y0123004D03*
X0162971Y0120878D03*
X0171160Y0120878D03*
X0171160Y0120996D03*
X0171160Y0121744D03*
X0176318Y0120996D03*
X0176318Y0122886D03*
X0177459Y0125366D03*
X0180215Y0125878D03*
X0180215Y0125996D03*
X0180215Y0126744D03*
X0177577Y0127886D03*
X0177577Y0128004D03*
X0183877Y0127256D03*
X0183877Y0127138D03*
X0186396Y0127886D03*
X0189034Y0126626D03*
X0189034Y0125996D03*
X0187538Y0122886D03*
X0187538Y0120996D03*
X0190176Y0120996D03*
X0203404Y0122138D03*
X0203404Y0122256D03*
X0201522Y0106744D03*
X0201522Y0105996D03*
X0201522Y0105878D03*
X0196365Y0101744D03*
X0196365Y0101626D03*
X0193727Y0102886D03*
X0193727Y0103004D03*
X0188176Y0102256D03*
X0188176Y0102138D03*
X0185656Y0105996D03*
X0185656Y0107886D03*
X0193333Y0107886D03*
X0183018Y0101744D03*
X0183018Y0100878D03*
X0171798Y0105996D03*
X0171798Y0107886D03*
X0169160Y0107886D03*
X0169160Y0108004D03*
X0163727Y0107886D03*
X0163727Y0105996D03*
X0166247Y0102886D03*
X0166247Y0100996D03*
X0159199Y0107138D03*
X0159199Y0107256D03*
X0152782Y0106744D03*
X0152782Y0105996D03*
X0152782Y0105878D03*
X0147743Y0107886D03*
X0147743Y0108004D03*
X0134751Y0102886D03*
X0134751Y0100996D03*
X0131995Y0102138D03*
X0131995Y0102256D03*
X0129475Y0102886D03*
X0131365Y0107256D03*
X0167617Y0127886D03*
X0146593Y0143366D03*
X0149349Y0144626D03*
X0149349Y0144744D03*
X0151869Y0144744D03*
X0151869Y0143996D03*
X0151869Y0143878D03*
X0155648Y0145256D03*
X0158168Y0145256D03*
X0152133Y0148878D03*
X0152133Y0148996D03*
X0152133Y0149744D03*
X0146699Y0150886D03*
X0143944Y0150256D03*
X0143944Y0150138D03*
X0141424Y0150886D03*
X0139243Y0153878D03*
X0139243Y0153996D03*
X0139243Y0154744D03*
X0131172Y0155886D03*
X0131172Y0156516D03*
X0128534Y0155256D03*
X0128534Y0155138D03*
X0130451Y0146004D03*
X0130451Y0145886D03*
X0146711Y0145886D03*
X0146711Y0146004D03*
X0158432Y0150886D03*
X0161802Y0153878D03*
X0161802Y0153996D03*
X0161802Y0154744D03*
X0167881Y0151004D03*
X0167881Y0150886D03*
X0170518Y0150256D03*
X0170518Y0150138D03*
X0173038Y0150138D03*
X0173038Y0150256D03*
X0179467Y0145886D03*
X0179467Y0143996D03*
X0176829Y0143996D03*
X0176829Y0144626D03*
X0168877Y0144626D03*
X0168877Y0143996D03*
X0180306Y0153878D03*
X0180306Y0153996D03*
X0180306Y0154744D03*
X0177668Y0155138D03*
X0177668Y0155256D03*
X0175148Y0155886D03*
X0172629Y0155256D03*
X0172629Y0155138D03*
X0169991Y0155886D03*
X0169991Y0156004D03*
X0186385Y0150886D03*
X0192786Y0153996D03*
X0192786Y0154626D03*
X0201503Y0151004D03*
X0201503Y0150886D03*
X0198747Y0149744D03*
X0198747Y0148996D03*
X0198747Y0148878D03*
X0198365Y0146004D03*
X0198365Y0145886D03*
X0185885Y0143996D03*
X0210542Y0155886D03*
X0210542Y0156004D03*
X0150070Y0154626D03*
X0150070Y0153996D03*
D27*
X0149475Y0151122D03*
X0152113Y0151122D03*
X0152113Y0150374D03*
X0152113Y0150256D03*
X0152113Y0149862D03*
X0154633Y0149744D03*
X0154633Y0151004D03*
X0158412Y0151122D03*
X0162703Y0151122D03*
X0162703Y0151398D03*
X0162822Y0149862D03*
X0163463Y0146122D03*
X0167861Y0148602D03*
X0170381Y0149862D03*
X0170656Y0151122D03*
X0173176Y0151122D03*
X0169971Y0153602D03*
X0172491Y0154862D03*
X0172766Y0156122D03*
X0177806Y0156122D03*
X0180325Y0156122D03*
X0180325Y0155256D03*
X0178451Y0151122D03*
X0175814Y0148602D03*
X0164577Y0153602D03*
X0161782Y0154862D03*
X0161782Y0155256D03*
X0161782Y0155374D03*
X0161782Y0156122D03*
X0146719Y0151122D03*
X0144774Y0153602D03*
X0142018Y0153602D03*
X0136585Y0153602D03*
X0136247Y0151122D03*
X0128672Y0156122D03*
X0130471Y0146122D03*
X0133109Y0146122D03*
X0133109Y0145256D03*
X0141298Y0146122D03*
X0143936Y0146122D03*
X0143936Y0145256D03*
X0151888Y0145256D03*
X0151888Y0146122D03*
X0155668Y0146122D03*
X0158188Y0146122D03*
X0185089Y0156004D03*
X0185089Y0156122D03*
X0190404Y0154862D03*
X0189042Y0151122D03*
X0198081Y0156122D03*
X0200483Y0156122D03*
X0200483Y0156398D03*
X0200601Y0154862D03*
X0201522Y0151122D03*
X0204278Y0151122D03*
X0206798Y0151122D03*
X0206798Y0151004D03*
X0210562Y0153602D03*
X0198727Y0151122D03*
X0198727Y0150256D03*
X0195589Y0146122D03*
X0190432Y0146122D03*
X0190432Y0145256D03*
X0203778Y0146122D03*
X0206180Y0146122D03*
X0206180Y0146398D03*
X0206298Y0144862D03*
X0191692Y0128122D03*
X0187518Y0123122D03*
X0184881Y0123122D03*
X0182361Y0123122D03*
X0182361Y0123004D03*
X0182479Y0121862D03*
X0180235Y0126862D03*
X0180235Y0127256D03*
X0180235Y0127374D03*
X0180235Y0128122D03*
X0184014Y0128122D03*
X0173660Y0123122D03*
X0173660Y0123004D03*
X0171140Y0123122D03*
X0171140Y0122256D03*
X0168503Y0123122D03*
X0165747Y0123122D03*
X0162951Y0123122D03*
X0162951Y0120602D03*
X0152125Y0121862D03*
X0152007Y0123122D03*
X0152007Y0123398D03*
X0149487Y0123122D03*
X0146849Y0123122D03*
X0146849Y0123398D03*
X0146967Y0121862D03*
X0144448Y0123122D03*
X0143306Y0125602D03*
X0143306Y0128122D03*
X0140550Y0128122D03*
X0136377Y0123122D03*
X0136377Y0122256D03*
X0129211Y0122256D03*
X0129211Y0123122D03*
X0149487Y0120602D03*
X0159802Y0126744D03*
X0159802Y0128004D03*
X0164841Y0128122D03*
X0164841Y0127256D03*
X0167636Y0128122D03*
X0170274Y0128122D03*
X0170274Y0127374D03*
X0170274Y0127256D03*
X0170274Y0126862D03*
X0151495Y0128122D03*
X0136148Y0108398D03*
X0136148Y0108122D03*
X0136266Y0106862D03*
X0133865Y0106862D03*
X0133747Y0108122D03*
X0133747Y0108398D03*
X0131345Y0108122D03*
X0134770Y0103122D03*
X0139298Y0103122D03*
X0139298Y0102256D03*
X0141936Y0102256D03*
X0141936Y0103122D03*
X0138668Y0106744D03*
X0138668Y0108004D03*
X0141188Y0108122D03*
X0147723Y0108122D03*
X0150243Y0108122D03*
X0150243Y0108004D03*
X0152762Y0108122D03*
X0152762Y0107374D03*
X0152762Y0107256D03*
X0152762Y0106862D03*
X0156306Y0103122D03*
X0159337Y0108122D03*
X0163747Y0108122D03*
X0169140Y0108122D03*
X0171660Y0103122D03*
X0176699Y0103122D03*
X0176699Y0103004D03*
X0180361Y0103122D03*
X0182999Y0103122D03*
X0182999Y0102256D03*
X0188314Y0103122D03*
X0190951Y0103122D03*
X0193707Y0103122D03*
X0188314Y0106862D03*
X0179101Y0107256D03*
X0179101Y0108122D03*
X0169022Y0100602D03*
X0163471Y0100602D03*
X0166266Y0103122D03*
X0201542Y0107256D03*
X0201542Y0108122D03*
X0198109Y0122256D03*
X0198109Y0123122D03*
X0203542Y0123122D03*
X0206180Y0123122D03*
X0206180Y0125602D03*
D28*
X0206121Y0125484D03*
X0206121Y0123398D03*
X0203207Y0121744D03*
X0198168Y0120484D03*
X0198168Y0123398D03*
X0200688Y0128398D03*
X0206121Y0128398D03*
X0191751Y0128398D03*
X0183680Y0126744D03*
X0184940Y0123398D03*
X0184822Y0121114D03*
X0175255Y0127374D03*
X0175255Y0127492D03*
X0168562Y0123398D03*
X0165806Y0123398D03*
X0162262Y0125484D03*
X0157735Y0127374D03*
X0157735Y0127492D03*
X0162026Y0128122D03*
X0155845Y0123398D03*
X0152184Y0120484D03*
X0147026Y0120484D03*
X0144388Y0121114D03*
X0144507Y0123398D03*
X0148798Y0125484D03*
X0148798Y0128398D03*
X0151554Y0128398D03*
X0140609Y0128398D03*
X0136436Y0123398D03*
X0136436Y0120484D03*
X0131908Y0123398D03*
X0141247Y0108398D03*
X0143648Y0107492D03*
X0147664Y0108398D03*
X0141877Y0103398D03*
X0139239Y0103398D03*
X0138727Y0105484D03*
X0138845Y0107256D03*
X0136325Y0105484D03*
X0131286Y0106114D03*
X0131798Y0101744D03*
X0127270Y0102256D03*
X0139239Y0100484D03*
X0141877Y0100484D03*
X0156247Y0101114D03*
X0156365Y0103398D03*
X0159003Y0106744D03*
X0161522Y0107374D03*
X0161522Y0107492D03*
X0163806Y0108398D03*
X0169081Y0108398D03*
X0168963Y0103398D03*
X0171601Y0103398D03*
X0171365Y0101744D03*
X0168963Y0100484D03*
X0160774Y0100484D03*
X0160774Y0103398D03*
X0179042Y0105484D03*
X0180420Y0103398D03*
X0182940Y0103398D03*
X0182940Y0100484D03*
X0180302Y0101114D03*
X0187979Y0101744D03*
X0191010Y0103398D03*
X0188373Y0105484D03*
X0182940Y0108398D03*
X0179042Y0108398D03*
X0196050Y0103122D03*
X0201601Y0105484D03*
X0199318Y0107374D03*
X0199318Y0107492D03*
X0199318Y0107768D03*
X0201601Y0108398D03*
X0160766Y0122492D03*
X0160766Y0143484D03*
X0160766Y0146398D03*
X0158247Y0146398D03*
X0158353Y0148484D03*
X0160755Y0150492D03*
X0158353Y0151398D03*
X0155727Y0146398D03*
X0151948Y0146398D03*
X0149034Y0146122D03*
X0143995Y0146398D03*
X0141239Y0146398D03*
X0136188Y0149114D03*
X0133168Y0146398D03*
X0130530Y0146398D03*
X0133168Y0143484D03*
X0143995Y0143484D03*
X0151948Y0143484D03*
X0143747Y0149744D03*
X0149416Y0151398D03*
X0144715Y0153484D03*
X0144715Y0156398D03*
X0152786Y0156398D03*
X0136306Y0151398D03*
X0133888Y0156398D03*
X0128337Y0154744D03*
X0163522Y0146398D03*
X0170322Y0149744D03*
X0172841Y0149744D03*
X0175755Y0148484D03*
X0174231Y0146398D03*
X0171475Y0146398D03*
X0171475Y0143484D03*
X0175755Y0151398D03*
X0178392Y0151398D03*
X0180385Y0153484D03*
X0177471Y0154744D03*
X0180385Y0156398D03*
X0172432Y0154744D03*
X0167274Y0156398D03*
X0189101Y0151398D03*
X0190463Y0153484D03*
X0195503Y0156398D03*
X0198140Y0156398D03*
X0198022Y0154114D03*
X0200660Y0153484D03*
X0201581Y0151398D03*
X0204219Y0151398D03*
X0196148Y0151398D03*
X0196148Y0148484D03*
X0195648Y0146398D03*
X0201199Y0146398D03*
X0203837Y0146398D03*
X0203719Y0144114D03*
X0206357Y0143484D03*
X0190373Y0143484D03*
X0190373Y0146398D03*
X0188983Y0149114D03*
D29*
X0188865Y0149862D03*
X0190463Y0153602D03*
X0190463Y0155138D03*
X0190345Y0155886D03*
X0190188Y0156398D03*
X0192589Y0156004D03*
X0197904Y0154862D03*
X0200660Y0155138D03*
X0200542Y0155886D03*
X0200542Y0156004D03*
X0200660Y0153602D03*
X0196148Y0150256D03*
X0196148Y0150138D03*
X0196148Y0148602D03*
X0198786Y0148602D03*
X0204219Y0148602D03*
X0206975Y0150138D03*
X0206857Y0150886D03*
X0206739Y0151398D03*
X0206739Y0151516D03*
X0206239Y0146004D03*
X0206239Y0145886D03*
X0206357Y0145138D03*
X0206357Y0143602D03*
X0203601Y0144862D03*
X0190373Y0145138D03*
X0190373Y0143602D03*
X0178510Y0148996D03*
X0178274Y0149862D03*
X0180794Y0151004D03*
X0180385Y0153602D03*
X0177865Y0153996D03*
X0177589Y0154862D03*
X0172825Y0153996D03*
X0172959Y0149862D03*
X0173235Y0148996D03*
X0170715Y0148996D03*
X0168680Y0146004D03*
X0171475Y0145256D03*
X0171475Y0145138D03*
X0171475Y0143602D03*
X0176633Y0146004D03*
X0185306Y0153602D03*
X0185306Y0155138D03*
X0185148Y0155886D03*
X0185030Y0156398D03*
X0162762Y0151004D03*
X0162762Y0150886D03*
X0162881Y0150138D03*
X0162881Y0148602D03*
X0158353Y0148602D03*
X0154692Y0148602D03*
X0154692Y0150138D03*
X0154692Y0150886D03*
X0154573Y0151122D03*
X0154573Y0151398D03*
X0156448Y0155886D03*
X0149873Y0156004D03*
X0143865Y0149862D03*
X0144140Y0148996D03*
X0146660Y0148602D03*
X0149546Y0145138D03*
X0149310Y0143602D03*
X0151948Y0143602D03*
X0155451Y0144862D03*
X0157971Y0144862D03*
X0160766Y0145138D03*
X0160766Y0145256D03*
X0160766Y0143602D03*
X0143995Y0143602D03*
X0141239Y0143602D03*
X0133168Y0143602D03*
X0128010Y0145138D03*
X0127892Y0145886D03*
X0127735Y0146398D03*
X0127735Y0146516D03*
X0136070Y0149862D03*
X0139322Y0153602D03*
X0128731Y0153996D03*
X0128455Y0154862D03*
X0135294Y0127886D03*
X0137814Y0127886D03*
X0146908Y0123004D03*
X0146908Y0122886D03*
X0147026Y0122138D03*
X0147026Y0120602D03*
X0144270Y0121862D03*
X0139073Y0120602D03*
X0136436Y0120602D03*
X0129152Y0120602D03*
X0129152Y0122138D03*
X0148798Y0125602D03*
X0148798Y0127138D03*
X0148798Y0127256D03*
X0152066Y0123004D03*
X0152066Y0122886D03*
X0152184Y0122138D03*
X0152184Y0120602D03*
X0159861Y0125602D03*
X0159861Y0127138D03*
X0159861Y0127886D03*
X0159743Y0128122D03*
X0159743Y0128398D03*
X0162538Y0127138D03*
X0162262Y0125602D03*
X0164900Y0125602D03*
X0167577Y0125602D03*
X0173601Y0123516D03*
X0173601Y0123398D03*
X0173719Y0122886D03*
X0173877Y0122138D03*
X0176239Y0120602D03*
X0179034Y0122138D03*
X0178916Y0122886D03*
X0178759Y0123398D03*
X0178759Y0123516D03*
X0182302Y0123398D03*
X0182420Y0122886D03*
X0182538Y0122138D03*
X0182538Y0120602D03*
X0184703Y0121862D03*
X0190097Y0122886D03*
X0184073Y0125996D03*
X0183798Y0126862D03*
X0188837Y0128004D03*
X0203325Y0121862D03*
X0203601Y0120996D03*
X0206121Y0120602D03*
X0198168Y0120602D03*
X0188255Y0108004D03*
X0188255Y0107886D03*
X0188373Y0107138D03*
X0188373Y0105602D03*
X0188097Y0101862D03*
X0188373Y0100996D03*
X0182940Y0100602D03*
X0182940Y0102138D03*
X0180184Y0101862D03*
X0176916Y0102138D03*
X0176759Y0102886D03*
X0176640Y0103398D03*
X0179042Y0105602D03*
X0179042Y0107138D03*
X0171483Y0101862D03*
X0171719Y0100996D03*
X0176916Y0100602D03*
X0166207Y0100602D03*
X0160774Y0100602D03*
X0160774Y0102138D03*
X0160774Y0102256D03*
X0159396Y0105996D03*
X0159121Y0106862D03*
X0153609Y0103004D03*
X0156129Y0101862D03*
X0150459Y0107138D03*
X0150302Y0107886D03*
X0150184Y0108398D03*
X0150184Y0108516D03*
X0141877Y0102138D03*
X0141877Y0100602D03*
X0139239Y0100602D03*
X0139239Y0102138D03*
X0138727Y0105602D03*
X0138727Y0107138D03*
X0138727Y0107886D03*
X0138609Y0108122D03*
X0138609Y0108398D03*
X0136207Y0108004D03*
X0136207Y0107886D03*
X0136325Y0107138D03*
X0136325Y0105602D03*
X0133924Y0105602D03*
X0133924Y0107138D03*
X0133806Y0107886D03*
X0133806Y0108004D03*
X0131168Y0106862D03*
X0126995Y0103398D03*
X0126995Y0103122D03*
X0127152Y0102886D03*
X0127152Y0102138D03*
X0127152Y0100602D03*
X0131916Y0101862D03*
X0132192Y0100996D03*
X0134711Y0100602D03*
X0171199Y0120602D03*
X0201601Y0105602D03*
X0196562Y0102138D03*
X0196286Y0100602D03*
D30*
X0196306Y0100484D03*
X0193786Y0103398D03*
X0188235Y0103398D03*
X0195676Y0107374D03*
X0195676Y0107492D03*
X0197566Y0107492D03*
X0203983Y0103122D03*
X0185715Y0108398D03*
X0174259Y0107492D03*
X0171857Y0108398D03*
X0166188Y0103398D03*
X0158629Y0102492D03*
X0156621Y0105484D03*
X0156621Y0108398D03*
X0159259Y0108398D03*
X0145400Y0107768D03*
X0145400Y0107492D03*
X0145400Y0107374D03*
X0144652Y0103398D03*
X0137093Y0102492D03*
X0137093Y0102374D03*
X0134692Y0103398D03*
X0133944Y0105484D03*
X0132054Y0103398D03*
X0127133Y0100484D03*
X0131424Y0108398D03*
X0129133Y0120484D03*
X0134172Y0122374D03*
X0134172Y0122492D03*
X0134172Y0122768D03*
X0129133Y0123398D03*
X0139093Y0123398D03*
X0146140Y0128398D03*
X0159881Y0125484D03*
X0159999Y0127256D03*
X0164920Y0128398D03*
X0167558Y0128398D03*
X0167558Y0125484D03*
X0164920Y0125484D03*
X0171219Y0123398D03*
X0176259Y0123398D03*
X0171219Y0120484D03*
X0182558Y0120484D03*
X0187597Y0123398D03*
X0183936Y0128398D03*
X0177518Y0128398D03*
X0196534Y0127768D03*
X0196534Y0127492D03*
X0196534Y0127374D03*
X0198424Y0127374D03*
X0198424Y0127492D03*
X0203463Y0123398D03*
X0188227Y0145492D03*
X0185707Y0146122D03*
X0184318Y0150374D03*
X0184318Y0150492D03*
X0184318Y0150768D03*
X0185286Y0153484D03*
X0191247Y0150768D03*
X0191247Y0150492D03*
X0191247Y0150374D03*
X0198806Y0151398D03*
X0198806Y0148484D03*
X0202806Y0155492D03*
X0207333Y0155492D03*
X0179526Y0146398D03*
X0178136Y0149744D03*
X0173097Y0151398D03*
X0170577Y0151398D03*
X0164499Y0153484D03*
X0164499Y0156398D03*
X0172688Y0156398D03*
X0177727Y0156398D03*
X0162900Y0148484D03*
X0166298Y0146398D03*
X0158109Y0144114D03*
X0155589Y0144114D03*
X0154711Y0148484D03*
X0154829Y0150256D03*
X0146640Y0151398D03*
X0144003Y0151398D03*
X0139302Y0153484D03*
X0139302Y0156398D03*
X0128593Y0156398D03*
X0146640Y0148484D03*
X0146652Y0146398D03*
X0149290Y0143484D03*
X0176896Y0100484D03*
D31*
X0180735Y0100602D03*
X0171916Y0100602D03*
X0168530Y0101744D03*
X0168530Y0102374D03*
X0166247Y0100484D03*
X0163097Y0101862D03*
X0162979Y0101744D03*
X0163097Y0102256D03*
X0162979Y0102374D03*
X0158570Y0102374D03*
X0158570Y0102768D03*
X0156680Y0100602D03*
X0154160Y0102256D03*
X0152782Y0105484D03*
X0150381Y0105484D03*
X0150499Y0107374D03*
X0152782Y0108398D03*
X0156168Y0107374D03*
X0156168Y0106744D03*
X0159199Y0106114D03*
X0163727Y0105484D03*
X0169396Y0106232D03*
X0171798Y0105484D03*
X0174199Y0107374D03*
X0174199Y0107768D03*
X0185656Y0105484D03*
X0193727Y0101508D03*
X0188176Y0101114D03*
X0195617Y0107256D03*
X0195617Y0107768D03*
X0197507Y0107768D03*
X0197507Y0107374D03*
X0204554Y0102256D03*
X0190176Y0120484D03*
X0187538Y0120484D03*
X0185255Y0120602D03*
X0182735Y0122374D03*
X0178955Y0120484D03*
X0176318Y0120484D03*
X0173798Y0120484D03*
X0173916Y0122374D03*
X0180215Y0125484D03*
X0183877Y0126114D03*
X0180215Y0128398D03*
X0175176Y0127768D03*
X0175176Y0127256D03*
X0165727Y0121508D03*
X0162577Y0121744D03*
X0162577Y0122256D03*
X0160688Y0122374D03*
X0160688Y0122768D03*
X0160058Y0127374D03*
X0162577Y0127256D03*
X0153759Y0127374D03*
X0153759Y0126744D03*
X0146081Y0126508D03*
X0142932Y0126744D03*
X0142932Y0127256D03*
X0140530Y0125484D03*
X0137892Y0125484D03*
X0135373Y0125484D03*
X0134113Y0122886D03*
X0134113Y0122256D03*
X0139152Y0120484D03*
X0144822Y0120602D03*
X0147223Y0122374D03*
X0149113Y0122256D03*
X0149113Y0121744D03*
X0152381Y0122374D03*
X0145341Y0107886D03*
X0145341Y0107256D03*
X0143570Y0107374D03*
X0143570Y0107768D03*
X0147979Y0106232D03*
X0144593Y0101508D03*
X0137034Y0102256D03*
X0137034Y0102768D03*
X0134751Y0100484D03*
X0131995Y0101114D03*
X0134121Y0107374D03*
X0136522Y0107374D03*
X0138924Y0107374D03*
X0189034Y0125484D03*
X0189428Y0127256D03*
X0196475Y0127256D03*
X0196475Y0127886D03*
X0198365Y0127768D03*
X0198365Y0127256D03*
X0200373Y0122374D03*
X0200373Y0121744D03*
X0203404Y0121114D03*
X0204152Y0143602D03*
X0206554Y0145374D03*
X0206936Y0148484D03*
X0207054Y0150374D03*
X0201503Y0149508D03*
X0198455Y0153602D03*
X0200857Y0155374D03*
X0202747Y0155374D03*
X0202747Y0155768D03*
X0207274Y0155768D03*
X0207274Y0155374D03*
X0195424Y0154508D03*
X0192786Y0153484D03*
X0191188Y0150886D03*
X0191188Y0150256D03*
X0189416Y0148602D03*
X0188168Y0145768D03*
X0188168Y0145374D03*
X0186278Y0145256D03*
X0185885Y0143484D03*
X0179467Y0143484D03*
X0176829Y0143484D03*
X0169270Y0145256D03*
X0168877Y0143484D03*
X0166239Y0144508D03*
X0170518Y0149114D03*
X0173038Y0149114D03*
X0167487Y0149744D03*
X0167487Y0150256D03*
X0167487Y0150374D03*
X0163077Y0150374D03*
X0161802Y0153484D03*
X0156881Y0155256D03*
X0161802Y0156398D03*
X0169597Y0155374D03*
X0169597Y0155256D03*
X0169597Y0154744D03*
X0172629Y0154114D03*
X0177668Y0154114D03*
X0181345Y0150256D03*
X0184259Y0150256D03*
X0184259Y0150886D03*
X0178707Y0148602D03*
X0187235Y0154744D03*
X0187235Y0155374D03*
X0158562Y0143602D03*
X0156042Y0143602D03*
X0152133Y0148484D03*
X0149731Y0149232D03*
X0152133Y0151398D03*
X0150070Y0153484D03*
X0150463Y0155256D03*
X0144282Y0155374D03*
X0144282Y0154744D03*
X0141644Y0154862D03*
X0141644Y0155256D03*
X0136211Y0155256D03*
X0136093Y0155374D03*
X0136211Y0154862D03*
X0136093Y0154744D03*
X0128534Y0154114D03*
X0136621Y0148602D03*
X0138010Y0145374D03*
X0138010Y0144744D03*
X0143944Y0149114D03*
X0154888Y0150374D03*
X0130451Y0144508D03*
X0127932Y0143484D03*
D32*
X0130333Y0143484D03*
X0135885Y0144508D03*
X0135885Y0144626D03*
X0135885Y0144744D03*
X0138904Y0149508D03*
X0138904Y0149626D03*
X0138904Y0149744D03*
X0138904Y0149862D03*
X0133810Y0153484D03*
X0133810Y0153878D03*
X0133810Y0153996D03*
X0131172Y0156122D03*
X0131172Y0156398D03*
X0130951Y0149862D03*
X0130951Y0149744D03*
X0130951Y0149626D03*
X0130951Y0149508D03*
X0146593Y0143996D03*
X0146593Y0143484D03*
X0149337Y0148484D03*
X0149337Y0148996D03*
X0152707Y0153484D03*
X0152707Y0153878D03*
X0152707Y0153996D03*
X0147550Y0154508D03*
X0147550Y0154626D03*
X0147550Y0154744D03*
X0159164Y0154744D03*
X0159164Y0154626D03*
X0159164Y0154508D03*
X0159164Y0154862D03*
X0167196Y0153996D03*
X0167196Y0153878D03*
X0167196Y0153602D03*
X0167196Y0153484D03*
X0169991Y0153996D03*
X0167881Y0148996D03*
X0166239Y0143996D03*
X0166239Y0143878D03*
X0166239Y0143484D03*
X0174192Y0143484D03*
X0174192Y0143878D03*
X0174192Y0143996D03*
X0183365Y0144508D03*
X0183365Y0144626D03*
X0183365Y0144744D03*
X0183365Y0144862D03*
X0192932Y0146122D03*
X0192932Y0146398D03*
X0193589Y0149508D03*
X0193589Y0149626D03*
X0193589Y0149744D03*
X0195424Y0153484D03*
X0195424Y0153878D03*
X0195424Y0153996D03*
X0204991Y0154508D03*
X0204991Y0154626D03*
X0204991Y0154744D03*
X0204991Y0154862D03*
X0210542Y0153996D03*
X0201385Y0148484D03*
X0201121Y0143996D03*
X0201121Y0143878D03*
X0201121Y0143484D03*
X0198365Y0143996D03*
X0194349Y0128398D03*
X0194349Y0128122D03*
X0200648Y0125996D03*
X0200648Y0125878D03*
X0200648Y0125602D03*
X0200648Y0125484D03*
X0192814Y0121862D03*
X0192814Y0121744D03*
X0192814Y0121626D03*
X0192814Y0121508D03*
X0177459Y0125484D03*
X0177459Y0125996D03*
X0168365Y0120484D03*
X0165609Y0120484D03*
X0162971Y0120996D03*
X0155766Y0120996D03*
X0155766Y0120878D03*
X0155766Y0120602D03*
X0155766Y0120484D03*
X0149467Y0120996D03*
X0151357Y0125484D03*
X0146081Y0125484D03*
X0146081Y0125878D03*
X0146081Y0125996D03*
X0143325Y0125996D03*
X0141908Y0121744D03*
X0141908Y0121626D03*
X0141908Y0121508D03*
X0131829Y0120996D03*
X0131829Y0120878D03*
X0131829Y0120602D03*
X0131829Y0120484D03*
X0132853Y0126508D03*
X0132853Y0126626D03*
X0132853Y0126744D03*
X0147625Y0105996D03*
X0147625Y0105484D03*
X0147349Y0101862D03*
X0147349Y0101744D03*
X0147349Y0101626D03*
X0147349Y0101508D03*
X0144593Y0100996D03*
X0144593Y0100878D03*
X0144593Y0100602D03*
X0144593Y0100484D03*
X0169042Y0105484D03*
X0169042Y0105996D03*
X0174318Y0101744D03*
X0174318Y0101626D03*
X0174318Y0101508D03*
X0176444Y0106508D03*
X0176444Y0106626D03*
X0176444Y0106744D03*
X0176444Y0106862D03*
X0182900Y0105996D03*
X0182900Y0105878D03*
X0182900Y0105602D03*
X0182900Y0105484D03*
X0190814Y0106508D03*
X0190814Y0106626D03*
X0190814Y0106744D03*
X0190814Y0106862D03*
X0199003Y0101744D03*
X0199003Y0101626D03*
X0199003Y0101508D03*
X0201640Y0101508D03*
X0201640Y0101626D03*
X0201640Y0101744D03*
X0201640Y0101862D03*
X0204318Y0106508D03*
X0204318Y0106626D03*
X0204318Y0106744D03*
X0193609Y0100484D03*
X0190814Y0100484D03*
D33*
X0196227Y0100740D03*
X0196503Y0102000D03*
X0204180Y0100740D03*
X0204416Y0102000D03*
X0188314Y0107000D03*
X0180243Y0102000D03*
X0176699Y0103260D03*
X0166266Y0100740D03*
X0163747Y0105740D03*
X0156188Y0102000D03*
X0153904Y0102000D03*
X0153786Y0100740D03*
X0152762Y0105740D03*
X0152762Y0107000D03*
X0141188Y0105740D03*
X0138786Y0105740D03*
X0138786Y0107000D03*
X0136266Y0107000D03*
X0136148Y0108260D03*
X0133747Y0108260D03*
X0133865Y0107000D03*
X0131227Y0107000D03*
X0127211Y0102000D03*
X0127211Y0100740D03*
X0134770Y0100740D03*
X0144329Y0122000D03*
X0146967Y0122000D03*
X0146849Y0123260D03*
X0149487Y0123260D03*
X0152007Y0123260D03*
X0152125Y0122000D03*
X0162203Y0125740D03*
X0162951Y0123260D03*
X0170274Y0125740D03*
X0170274Y0127000D03*
X0180235Y0127000D03*
X0180235Y0125740D03*
X0182361Y0123260D03*
X0182479Y0122000D03*
X0182479Y0120740D03*
X0184762Y0122000D03*
X0187518Y0120740D03*
X0190314Y0122000D03*
X0189054Y0125740D03*
X0189172Y0127000D03*
X0191692Y0125740D03*
X0178975Y0122000D03*
X0178975Y0120740D03*
X0206180Y0120740D03*
X0195589Y0143740D03*
X0203660Y0145000D03*
X0206298Y0145000D03*
X0206180Y0146260D03*
X0206916Y0148740D03*
X0206916Y0150000D03*
X0204278Y0148740D03*
X0200601Y0155000D03*
X0200483Y0156260D03*
X0197963Y0155000D03*
X0192924Y0155000D03*
X0190404Y0155000D03*
X0190404Y0153740D03*
X0188924Y0150000D03*
X0181089Y0150000D03*
X0180971Y0148740D03*
X0186140Y0145000D03*
X0185904Y0143740D03*
X0176810Y0143740D03*
X0169014Y0145000D03*
X0168896Y0143740D03*
X0163463Y0143740D03*
X0162822Y0150000D03*
X0162703Y0151260D03*
X0161782Y0153740D03*
X0161782Y0155000D03*
X0156625Y0155000D03*
X0156507Y0153740D03*
X0152113Y0150000D03*
X0152113Y0148740D03*
X0149487Y0145000D03*
X0141298Y0143740D03*
X0136129Y0150000D03*
X0127951Y0145000D03*
X0127951Y0143740D03*
X0150089Y0153740D03*
X0150207Y0155000D03*
X0167861Y0151260D03*
X0169971Y0156260D03*
X0185089Y0156260D03*
X0210562Y0156260D03*
X0143306Y0128260D03*
X0140550Y0125740D03*
X0138030Y0127000D03*
X0135510Y0127000D03*
D34*
X0129959Y0127000D03*
X0133857Y0123260D03*
X0143936Y0121370D03*
X0150865Y0127000D03*
X0158306Y0122000D03*
X0162715Y0127630D03*
X0167873Y0122000D03*
X0173944Y0108260D03*
X0190322Y0102000D03*
X0196739Y0102630D03*
X0197251Y0108260D03*
X0195361Y0108260D03*
X0192841Y0107630D03*
X0158314Y0103260D03*
X0155794Y0101370D03*
X0145085Y0108260D03*
X0136778Y0103260D03*
X0129337Y0102000D03*
X0196219Y0128260D03*
X0198109Y0128260D03*
X0187912Y0146260D03*
X0188530Y0149370D03*
X0185892Y0150630D03*
X0184003Y0151260D03*
X0190932Y0151260D03*
X0197570Y0154370D03*
X0202491Y0156260D03*
X0207018Y0156260D03*
X0165105Y0150000D03*
X0157676Y0144370D03*
X0155156Y0144370D03*
X0148845Y0150000D03*
X0141286Y0150000D03*
X0131310Y0154370D03*
D35*
X0131404Y0151260D03*
X0131522Y0150630D03*
X0130144Y0150630D03*
X0130144Y0151260D03*
X0134042Y0151260D03*
X0137412Y0154370D03*
X0138554Y0155630D03*
X0139932Y0155630D03*
X0141192Y0155630D03*
X0141073Y0154370D03*
X0145601Y0154370D03*
X0146743Y0153740D03*
X0146743Y0155630D03*
X0146743Y0156260D03*
X0148003Y0156260D03*
X0148121Y0155630D03*
X0150302Y0150630D03*
X0152822Y0150630D03*
X0152940Y0149370D03*
X0151180Y0145630D03*
X0151062Y0144370D03*
X0148542Y0144370D03*
X0144762Y0144370D03*
X0140471Y0144370D03*
X0140353Y0145000D03*
X0140471Y0145630D03*
X0141601Y0149370D03*
X0140853Y0150630D03*
X0143491Y0149370D03*
X0144751Y0150630D03*
X0145892Y0150630D03*
X0145892Y0149370D03*
X0154959Y0145630D03*
X0157479Y0145630D03*
X0159999Y0144370D03*
X0164290Y0144370D03*
X0164290Y0145000D03*
X0164290Y0145630D03*
X0165550Y0145630D03*
X0160381Y0148740D03*
X0160381Y0149370D03*
X0160381Y0150000D03*
X0159239Y0150000D03*
X0159121Y0149370D03*
X0159121Y0150630D03*
X0162609Y0154370D03*
X0162491Y0155630D03*
X0163751Y0155630D03*
X0171940Y0155630D03*
X0174577Y0155630D03*
X0176979Y0155630D03*
X0179617Y0155630D03*
X0179499Y0154370D03*
X0174987Y0150630D03*
X0174869Y0149370D03*
X0172349Y0150630D03*
X0169829Y0150630D03*
X0165420Y0149370D03*
X0170707Y0144370D03*
X0174999Y0145630D03*
X0177518Y0144370D03*
X0182558Y0143740D03*
X0185196Y0144370D03*
X0183936Y0145630D03*
X0183818Y0146260D03*
X0182558Y0146260D03*
X0182558Y0145630D03*
X0186837Y0148740D03*
X0189605Y0144370D03*
X0192755Y0145000D03*
X0193266Y0143740D03*
X0196416Y0144370D03*
X0196534Y0145000D03*
X0196416Y0145630D03*
X0196916Y0149370D03*
X0196916Y0150630D03*
X0199436Y0150630D03*
X0200696Y0150630D03*
X0199554Y0149370D03*
X0203333Y0150000D03*
X0205105Y0150000D03*
X0205105Y0149370D03*
X0204184Y0153740D03*
X0204184Y0155630D03*
X0204184Y0156260D03*
X0205444Y0156260D03*
X0209735Y0154370D03*
X0194735Y0155630D03*
X0193475Y0154370D03*
X0190865Y0127630D03*
X0190865Y0127000D03*
X0190865Y0126370D03*
X0194644Y0125740D03*
X0195904Y0123260D03*
X0193385Y0122630D03*
X0193266Y0123260D03*
X0192007Y0123260D03*
X0192007Y0122630D03*
X0190865Y0121370D03*
X0192007Y0120740D03*
X0189487Y0121370D03*
X0188345Y0121370D03*
X0188345Y0122000D03*
X0188345Y0122630D03*
X0183188Y0127630D03*
X0179526Y0127630D03*
X0179408Y0126370D03*
X0179408Y0122630D03*
X0178148Y0121370D03*
X0177007Y0122630D03*
X0171849Y0122630D03*
X0171967Y0121370D03*
X0169329Y0122630D03*
X0164920Y0122630D03*
X0165668Y0126370D03*
X0166810Y0126370D03*
X0166810Y0127630D03*
X0165550Y0127630D03*
X0163030Y0126370D03*
X0157361Y0126370D03*
X0157361Y0125740D03*
X0157361Y0127000D03*
X0152322Y0127630D03*
X0148030Y0126370D03*
X0145392Y0127630D03*
X0139841Y0127630D03*
X0139723Y0127000D03*
X0139723Y0126370D03*
X0138581Y0126370D03*
X0137203Y0126370D03*
X0136062Y0126370D03*
X0134684Y0126370D03*
X0133424Y0127630D03*
X0130274Y0126370D03*
X0128503Y0122630D03*
X0128385Y0121370D03*
X0137203Y0121370D03*
X0139841Y0122630D03*
X0141101Y0122630D03*
X0141101Y0123260D03*
X0142361Y0123260D03*
X0141101Y0120740D03*
X0148660Y0121370D03*
X0148660Y0122630D03*
X0158621Y0121370D03*
X0169448Y0126370D03*
X0198936Y0121370D03*
X0202715Y0122630D03*
X0205235Y0122000D03*
X0205353Y0121370D03*
X0205353Y0122630D03*
X0205235Y0126370D03*
X0205353Y0127630D03*
X0204093Y0127630D03*
X0201455Y0127630D03*
X0200833Y0107630D03*
X0200715Y0106370D03*
X0198944Y0106370D03*
X0198944Y0105740D03*
X0198944Y0107000D03*
X0199455Y0103260D03*
X0199573Y0102630D03*
X0200833Y0102630D03*
X0200833Y0103260D03*
X0202093Y0103260D03*
X0198196Y0103260D03*
X0198196Y0102630D03*
X0197054Y0101370D03*
X0198196Y0100740D03*
X0200833Y0100740D03*
X0194534Y0102630D03*
X0190125Y0102630D03*
X0187487Y0102630D03*
X0186345Y0102630D03*
X0183707Y0102630D03*
X0187605Y0106370D03*
X0188865Y0107630D03*
X0190007Y0107630D03*
X0190007Y0108260D03*
X0191266Y0108260D03*
X0191385Y0107630D03*
X0190007Y0105740D03*
X0193786Y0105740D03*
X0184967Y0107630D03*
X0183707Y0107630D03*
X0176896Y0108260D03*
X0175636Y0108260D03*
X0175636Y0107630D03*
X0175636Y0105740D03*
X0171109Y0107630D03*
X0169967Y0107630D03*
X0163038Y0107630D03*
X0162920Y0107000D03*
X0162920Y0106370D03*
X0161148Y0106370D03*
X0161148Y0105740D03*
X0161148Y0107000D03*
X0158510Y0107630D03*
X0153471Y0107630D03*
X0153589Y0106370D03*
X0150440Y0103260D03*
X0147920Y0102630D03*
X0147802Y0103260D03*
X0146542Y0103260D03*
X0146542Y0102630D03*
X0145400Y0102630D03*
X0146542Y0100740D03*
X0138471Y0101370D03*
X0133944Y0101370D03*
X0133944Y0102630D03*
X0132802Y0102630D03*
X0131542Y0101370D03*
X0129652Y0101370D03*
X0127644Y0102630D03*
X0126385Y0101370D03*
X0140361Y0106370D03*
X0140361Y0107000D03*
X0142133Y0107000D03*
X0148550Y0107630D03*
X0164298Y0101370D03*
X0165440Y0101370D03*
X0165440Y0102630D03*
X0168077Y0101370D03*
X0169849Y0101370D03*
X0171109Y0101370D03*
X0172369Y0102630D03*
X0174888Y0102630D03*
X0132282Y0144370D03*
X0129644Y0145630D03*
X0128385Y0145630D03*
X0127125Y0144370D03*
X0130144Y0148740D03*
X0127845Y0155630D03*
D36*
X0128613Y0156260D03*
X0133888Y0156260D03*
X0136526Y0156260D03*
X0139322Y0156260D03*
X0139322Y0155000D03*
X0141959Y0156260D03*
X0144715Y0156260D03*
X0152786Y0156260D03*
X0154573Y0151260D03*
X0158353Y0151260D03*
X0158353Y0148740D03*
X0158247Y0146260D03*
X0160766Y0146260D03*
X0160766Y0145000D03*
X0166318Y0146260D03*
X0171475Y0146260D03*
X0171475Y0145000D03*
X0174231Y0146260D03*
X0173117Y0151260D03*
X0170597Y0151260D03*
X0175755Y0151260D03*
X0178392Y0151260D03*
X0180385Y0155000D03*
X0180385Y0156260D03*
X0177747Y0156260D03*
X0172707Y0156260D03*
X0167274Y0156260D03*
X0164518Y0156260D03*
X0149416Y0151260D03*
X0146660Y0151260D03*
X0143983Y0151260D03*
X0146660Y0148740D03*
X0146633Y0146260D03*
X0143995Y0146260D03*
X0143995Y0145000D03*
X0141239Y0146260D03*
X0138444Y0146260D03*
X0133168Y0146260D03*
X0133168Y0145000D03*
X0130530Y0146260D03*
X0127735Y0146260D03*
X0136306Y0151260D03*
X0151948Y0146260D03*
X0151948Y0145000D03*
X0155727Y0146260D03*
X0187668Y0156260D03*
X0189101Y0151260D03*
X0196148Y0151260D03*
X0196148Y0150000D03*
X0198786Y0150000D03*
X0198786Y0151260D03*
X0201581Y0151260D03*
X0204219Y0151260D03*
X0206739Y0151260D03*
X0203837Y0146260D03*
X0201199Y0146260D03*
X0195648Y0146260D03*
X0190373Y0146260D03*
X0190373Y0145000D03*
X0195503Y0156260D03*
X0198140Y0156260D03*
X0200688Y0128260D03*
X0206121Y0128260D03*
X0206121Y0123260D03*
X0203483Y0123260D03*
X0200806Y0123260D03*
X0198168Y0123260D03*
X0198168Y0122000D03*
X0184940Y0123260D03*
X0178759Y0123260D03*
X0176239Y0123260D03*
X0173601Y0123260D03*
X0171199Y0123260D03*
X0171199Y0122000D03*
X0168562Y0123260D03*
X0167577Y0125740D03*
X0164900Y0127000D03*
X0164900Y0128260D03*
X0167577Y0128260D03*
X0165806Y0123260D03*
X0159743Y0128260D03*
X0154192Y0128260D03*
X0151554Y0128260D03*
X0148798Y0128260D03*
X0148798Y0127000D03*
X0146160Y0128260D03*
X0140609Y0128260D03*
X0139073Y0123260D03*
X0136436Y0123260D03*
X0136436Y0122000D03*
X0131908Y0123260D03*
X0129152Y0123260D03*
X0129152Y0122000D03*
X0144507Y0123260D03*
X0155845Y0123260D03*
X0177499Y0128260D03*
X0183955Y0128260D03*
X0182940Y0108260D03*
X0185735Y0108260D03*
X0188255Y0103260D03*
X0191010Y0103260D03*
X0193766Y0103260D03*
X0201601Y0107000D03*
X0201601Y0108260D03*
X0182940Y0103260D03*
X0182940Y0102000D03*
X0180420Y0103260D03*
X0179042Y0107000D03*
X0179042Y0108260D03*
X0171877Y0108260D03*
X0169081Y0108260D03*
X0163806Y0108260D03*
X0159278Y0108260D03*
X0156601Y0108260D03*
X0156365Y0103260D03*
X0160774Y0103260D03*
X0160774Y0102000D03*
X0163412Y0103260D03*
X0166207Y0103260D03*
X0168963Y0103260D03*
X0171601Y0103260D03*
X0150184Y0108260D03*
X0147664Y0108260D03*
X0144633Y0103260D03*
X0141877Y0103260D03*
X0141877Y0102000D03*
X0139239Y0102000D03*
X0139239Y0103260D03*
X0134711Y0103260D03*
X0132034Y0103260D03*
X0126995Y0103260D03*
X0131404Y0108260D03*
X0138609Y0108260D03*
X0141247Y0108260D03*
D37*
X0143648Y0107630D03*
X0131680Y0105740D03*
X0132310Y0100740D03*
X0159514Y0105740D03*
X0161522Y0107630D03*
X0188491Y0100740D03*
X0199318Y0107630D03*
X0203719Y0120740D03*
X0189861Y0123260D03*
X0184192Y0125740D03*
X0188719Y0128260D03*
X0175255Y0127630D03*
X0160766Y0122630D03*
X0157735Y0127630D03*
X0137577Y0128260D03*
X0135058Y0128260D03*
X0158483Y0143740D03*
X0168562Y0146260D03*
X0170833Y0148740D03*
X0173353Y0148740D03*
X0176514Y0146260D03*
X0177983Y0153740D03*
X0172944Y0153740D03*
X0160755Y0150630D03*
X0149755Y0156260D03*
X0144259Y0148740D03*
X0128849Y0153740D03*
X0192471Y0156260D03*
D38*
X0190266Y0156260D03*
X0185227Y0155000D03*
X0185227Y0153740D03*
X0192786Y0153740D03*
X0198365Y0146260D03*
X0179467Y0143740D03*
X0176948Y0145000D03*
X0158050Y0145000D03*
X0155530Y0145000D03*
X0154770Y0148740D03*
X0154770Y0150000D03*
X0149231Y0143740D03*
X0159940Y0127000D03*
X0159940Y0125740D03*
X0162459Y0127000D03*
X0173798Y0122000D03*
X0173798Y0120740D03*
X0176318Y0120740D03*
X0190176Y0120740D03*
X0188176Y0108260D03*
X0185656Y0105740D03*
X0176837Y0102000D03*
X0176837Y0100740D03*
X0171798Y0105740D03*
X0150381Y0105740D03*
X0150381Y0107000D03*
X0139152Y0120740D03*
X0137892Y0125740D03*
X0135373Y0125740D03*
D39*
X0132794Y0126370D03*
X0132794Y0127000D03*
X0130156Y0128260D03*
X0141849Y0122000D03*
X0141849Y0121370D03*
X0158503Y0123260D03*
X0172991Y0126370D03*
X0172991Y0127000D03*
X0186455Y0128260D03*
X0203463Y0127000D03*
X0203463Y0126370D03*
X0193392Y0108260D03*
X0198944Y0102000D03*
X0198944Y0101370D03*
X0185715Y0101370D03*
X0185715Y0102000D03*
X0176385Y0106370D03*
X0176385Y0107000D03*
X0174259Y0102000D03*
X0174259Y0101370D03*
X0129534Y0103260D03*
X0135825Y0144370D03*
X0135825Y0145000D03*
X0138845Y0149370D03*
X0138845Y0150000D03*
X0141483Y0151260D03*
X0147491Y0154370D03*
X0147491Y0155000D03*
X0165302Y0151260D03*
X0175207Y0156260D03*
X0186444Y0151260D03*
X0204932Y0154370D03*
X0204932Y0155000D03*
D40*
X0189278Y0148740D03*
X0163463Y0146260D03*
X0155904Y0143740D03*
X0152113Y0151260D03*
X0161782Y0156260D03*
X0170274Y0128260D03*
X0180235Y0128260D03*
X0187518Y0123260D03*
X0191692Y0128260D03*
X0152762Y0108260D03*
D41*
X0152073Y0107630D03*
X0150814Y0107630D03*
X0151955Y0106370D03*
X0149554Y0106370D03*
X0146916Y0107630D03*
X0145026Y0107000D03*
X0145026Y0106370D03*
X0145026Y0105740D03*
X0141995Y0106370D03*
X0141995Y0107630D03*
X0140499Y0107630D03*
X0139239Y0107630D03*
X0137979Y0106370D03*
X0136837Y0107630D03*
X0135577Y0106370D03*
X0134436Y0107630D03*
X0133176Y0106370D03*
X0130656Y0107630D03*
X0131286Y0102630D03*
X0129908Y0100740D03*
X0133806Y0102000D03*
X0135459Y0102630D03*
X0135577Y0102000D03*
X0135577Y0101370D03*
X0136719Y0101370D03*
X0136719Y0100740D03*
X0136719Y0102000D03*
X0138609Y0102630D03*
X0139987Y0102630D03*
X0141247Y0102630D03*
X0141129Y0101370D03*
X0142625Y0102630D03*
X0143885Y0102630D03*
X0150696Y0102630D03*
X0154475Y0101370D03*
X0155617Y0102630D03*
X0155735Y0106370D03*
X0155853Y0107630D03*
X0157507Y0106370D03*
X0158766Y0106370D03*
X0160026Y0107630D03*
X0164554Y0107630D03*
X0164672Y0107000D03*
X0164554Y0106370D03*
X0165814Y0107630D03*
X0166562Y0106370D03*
X0168333Y0107630D03*
X0170971Y0107000D03*
X0170971Y0106370D03*
X0172625Y0106370D03*
X0172743Y0107000D03*
X0172625Y0107630D03*
X0177034Y0107630D03*
X0178412Y0107630D03*
X0178294Y0106370D03*
X0179790Y0107630D03*
X0182192Y0107630D03*
X0184829Y0107000D03*
X0184829Y0106370D03*
X0186483Y0106370D03*
X0186601Y0107000D03*
X0186483Y0107630D03*
X0186089Y0103260D03*
X0187743Y0101370D03*
X0189003Y0102630D03*
X0191759Y0102630D03*
X0192900Y0102630D03*
X0195538Y0101370D03*
X0195302Y0105740D03*
X0195302Y0106370D03*
X0195302Y0107000D03*
X0193530Y0106370D03*
X0202231Y0107630D03*
X0203491Y0107630D03*
X0203491Y0108260D03*
X0204751Y0108260D03*
X0204869Y0107630D03*
X0203491Y0105740D03*
X0202349Y0106370D03*
X0202231Y0102630D03*
X0203491Y0101370D03*
X0204987Y0101370D03*
X0182310Y0102630D03*
X0182192Y0101370D03*
X0179672Y0102630D03*
X0174751Y0103260D03*
X0173491Y0103260D03*
X0173491Y0102630D03*
X0173491Y0100740D03*
X0170853Y0102630D03*
X0168215Y0102630D03*
X0166955Y0102630D03*
X0167073Y0102000D03*
X0167073Y0101370D03*
X0165302Y0102000D03*
X0162664Y0102630D03*
X0161522Y0102630D03*
X0161522Y0101370D03*
X0162546Y0101370D03*
X0160026Y0101370D03*
X0162144Y0121370D03*
X0162144Y0122630D03*
X0157853Y0122630D03*
X0156593Y0122630D03*
X0155097Y0122630D03*
X0152696Y0122630D03*
X0151436Y0121370D03*
X0147538Y0122630D03*
X0146278Y0121370D03*
X0143759Y0122630D03*
X0142499Y0122630D03*
X0139979Y0122000D03*
X0139979Y0121370D03*
X0138325Y0121370D03*
X0138207Y0122000D03*
X0138325Y0122630D03*
X0137066Y0122630D03*
X0135688Y0122630D03*
X0135570Y0121370D03*
X0133798Y0121370D03*
X0133798Y0120740D03*
X0133798Y0122000D03*
X0132656Y0122630D03*
X0131160Y0122630D03*
X0129900Y0122630D03*
X0130530Y0125740D03*
X0132026Y0125740D03*
X0132026Y0127630D03*
X0132026Y0128260D03*
X0133286Y0128260D03*
X0141357Y0127630D03*
X0141475Y0127000D03*
X0141357Y0126370D03*
X0142499Y0126370D03*
X0142499Y0127630D03*
X0146908Y0127630D03*
X0149546Y0127630D03*
X0150688Y0127630D03*
X0149546Y0126370D03*
X0153325Y0126370D03*
X0153444Y0127630D03*
X0155097Y0126370D03*
X0159113Y0126370D03*
X0160373Y0127630D03*
X0161514Y0126370D03*
X0164034Y0126370D03*
X0164152Y0127630D03*
X0166672Y0127000D03*
X0168325Y0126370D03*
X0168444Y0127000D03*
X0168325Y0127630D03*
X0169585Y0127630D03*
X0170963Y0127630D03*
X0171081Y0126370D03*
X0173601Y0127630D03*
X0173365Y0128260D03*
X0174861Y0127000D03*
X0174861Y0126370D03*
X0174861Y0125740D03*
X0176751Y0127630D03*
X0178404Y0127630D03*
X0180924Y0127630D03*
X0181042Y0126370D03*
X0183444Y0126370D03*
X0184703Y0127630D03*
X0186593Y0126370D03*
X0186829Y0125740D03*
X0189743Y0126370D03*
X0192499Y0126370D03*
X0192499Y0127000D03*
X0192499Y0127630D03*
X0193759Y0127630D03*
X0196160Y0127000D03*
X0196160Y0126370D03*
X0196160Y0125740D03*
X0198050Y0125740D03*
X0198050Y0126370D03*
X0198050Y0127000D03*
X0199940Y0127630D03*
X0203837Y0128260D03*
X0206987Y0126370D03*
X0206869Y0122630D03*
X0206987Y0122000D03*
X0206987Y0121370D03*
X0204231Y0122630D03*
X0202971Y0121370D03*
X0201711Y0121370D03*
X0199940Y0121370D03*
X0200058Y0122630D03*
X0198798Y0122630D03*
X0197420Y0122630D03*
X0196160Y0122630D03*
X0197302Y0121370D03*
X0186711Y0121370D03*
X0186711Y0122000D03*
X0186711Y0122630D03*
X0184192Y0122630D03*
X0177144Y0122000D03*
X0177144Y0121370D03*
X0175491Y0121370D03*
X0175373Y0122000D03*
X0175491Y0122630D03*
X0174231Y0122630D03*
X0172971Y0121370D03*
X0170333Y0121370D03*
X0170451Y0122630D03*
X0167696Y0122630D03*
X0166554Y0122630D03*
X0187853Y0143740D03*
X0187853Y0144370D03*
X0187853Y0145000D03*
X0186711Y0144370D03*
X0189743Y0145630D03*
X0191121Y0145630D03*
X0192381Y0145630D03*
X0193129Y0144370D03*
X0194782Y0144370D03*
X0194782Y0145000D03*
X0194900Y0145630D03*
X0197538Y0144370D03*
X0200451Y0145630D03*
X0201948Y0145630D03*
X0203089Y0145630D03*
X0205609Y0144370D03*
X0206869Y0145630D03*
X0206109Y0149370D03*
X0204967Y0150630D03*
X0203471Y0150630D03*
X0202329Y0150630D03*
X0203471Y0149370D03*
X0207369Y0150630D03*
X0208731Y0153740D03*
X0205581Y0155630D03*
X0201172Y0155630D03*
X0199912Y0154370D03*
X0197392Y0155630D03*
X0196251Y0155630D03*
X0194022Y0151260D03*
X0194140Y0150630D03*
X0192762Y0150630D03*
X0192762Y0151260D03*
X0190873Y0150000D03*
X0190873Y0149370D03*
X0190873Y0148740D03*
X0192762Y0148740D03*
X0195400Y0149370D03*
X0197920Y0149370D03*
X0198038Y0150630D03*
X0188353Y0150630D03*
X0186581Y0149370D03*
X0183944Y0149370D03*
X0183944Y0148740D03*
X0183944Y0150000D03*
X0181660Y0149370D03*
X0179140Y0150630D03*
X0177644Y0150630D03*
X0177881Y0149370D03*
X0176621Y0149370D03*
X0173865Y0150630D03*
X0172605Y0149370D03*
X0171345Y0150630D03*
X0170085Y0149370D03*
X0167054Y0149370D03*
X0164652Y0150630D03*
X0163392Y0150630D03*
X0162133Y0149370D03*
X0157605Y0149370D03*
X0157487Y0150000D03*
X0157605Y0150630D03*
X0155203Y0150630D03*
X0153944Y0149370D03*
X0151306Y0149370D03*
X0151424Y0150630D03*
X0148668Y0150630D03*
X0147408Y0150630D03*
X0147526Y0150000D03*
X0147408Y0149370D03*
X0145755Y0150000D03*
X0143235Y0150630D03*
X0139455Y0150630D03*
X0139337Y0151260D03*
X0138077Y0151260D03*
X0138077Y0150630D03*
X0138077Y0148740D03*
X0136318Y0146260D03*
X0136436Y0145630D03*
X0137696Y0145630D03*
X0137577Y0144370D03*
X0139349Y0144370D03*
X0142105Y0144370D03*
X0142105Y0145000D03*
X0141987Y0145630D03*
X0143247Y0145630D03*
X0143129Y0144370D03*
X0144625Y0145630D03*
X0145885Y0145630D03*
X0147538Y0145630D03*
X0150058Y0144370D03*
X0152696Y0144370D03*
X0152577Y0145630D03*
X0161514Y0145630D03*
X0162656Y0145630D03*
X0162656Y0145000D03*
X0162656Y0144370D03*
X0161514Y0144370D03*
X0167066Y0145630D03*
X0169585Y0144370D03*
X0172223Y0144370D03*
X0172223Y0145630D03*
X0173483Y0145630D03*
X0178640Y0145630D03*
X0178640Y0145000D03*
X0178640Y0144370D03*
X0180294Y0144370D03*
X0180294Y0145000D03*
X0180294Y0145630D03*
X0181133Y0154370D03*
X0181014Y0155630D03*
X0178495Y0155630D03*
X0177235Y0154370D03*
X0175345Y0154370D03*
X0173455Y0155630D03*
X0172196Y0154370D03*
X0169164Y0154370D03*
X0168022Y0155630D03*
X0166526Y0155630D03*
X0165385Y0154370D03*
X0163613Y0154370D03*
X0160975Y0154370D03*
X0161093Y0155630D03*
X0159715Y0155630D03*
X0159597Y0156260D03*
X0158337Y0156260D03*
X0158337Y0155630D03*
X0157196Y0154370D03*
X0158337Y0153740D03*
X0155818Y0154370D03*
X0153534Y0155630D03*
X0152038Y0155630D03*
X0150778Y0154370D03*
X0143967Y0155630D03*
X0143849Y0154370D03*
X0142825Y0154370D03*
X0140070Y0154370D03*
X0138416Y0154370D03*
X0135660Y0154370D03*
X0135778Y0155630D03*
X0134636Y0155630D03*
X0133140Y0155630D03*
X0131487Y0153740D03*
X0130621Y0155630D03*
X0129361Y0155630D03*
X0128101Y0154370D03*
X0134298Y0150630D03*
X0135558Y0150630D03*
X0135058Y0146260D03*
X0135058Y0145630D03*
X0133798Y0145630D03*
X0133916Y0144370D03*
X0135058Y0143740D03*
X0132420Y0145630D03*
X0131278Y0145630D03*
X0186802Y0154370D03*
X0186920Y0155630D03*
X0188573Y0154370D03*
D42*
X0191247Y0150630D03*
X0188227Y0145630D03*
X0184318Y0150630D03*
X0180656Y0151260D03*
X0178648Y0148740D03*
X0198396Y0153740D03*
X0202806Y0155630D03*
X0207333Y0155630D03*
X0204093Y0143740D03*
X0198424Y0127630D03*
X0196534Y0127630D03*
X0185196Y0120740D03*
X0195676Y0107630D03*
X0197566Y0107630D03*
X0180676Y0100740D03*
X0171857Y0100740D03*
X0174259Y0107630D03*
X0158629Y0102630D03*
X0156621Y0100740D03*
X0153471Y0103260D03*
X0145400Y0107630D03*
X0137093Y0102630D03*
X0144762Y0120740D03*
X0134172Y0122630D03*
X0156192Y0156260D03*
D43*
X0159164Y0155000D03*
X0159164Y0154370D03*
X0167196Y0153740D03*
X0183365Y0145000D03*
X0183365Y0144370D03*
X0192932Y0146260D03*
X0194349Y0128260D03*
X0200648Y0125740D03*
X0192814Y0122000D03*
X0192814Y0121370D03*
X0190814Y0107000D03*
X0190814Y0106370D03*
X0182900Y0105740D03*
X0201640Y0102000D03*
X0201640Y0101370D03*
X0155766Y0120740D03*
X0131829Y0120740D03*
X0147349Y0102000D03*
X0147349Y0101370D03*
X0144593Y0100740D03*
X0130951Y0149370D03*
X0130951Y0150000D03*
X0131172Y0156260D03*
D44*
X0133888Y0156122D03*
X0133888Y0156004D03*
X0133888Y0154114D03*
X0136526Y0156004D03*
X0136526Y0156122D03*
X0141959Y0156122D03*
X0141959Y0156004D03*
X0144715Y0156004D03*
X0144715Y0156122D03*
X0150148Y0154862D03*
X0150148Y0154744D03*
X0152786Y0154114D03*
X0152786Y0156004D03*
X0152786Y0156122D03*
X0156448Y0153878D03*
X0156566Y0154744D03*
X0156566Y0154862D03*
X0158967Y0154232D03*
X0158353Y0151004D03*
X0162762Y0149744D03*
X0162762Y0148996D03*
X0163522Y0146004D03*
X0163522Y0143878D03*
X0160766Y0143878D03*
X0160766Y0144744D03*
X0160766Y0144862D03*
X0160766Y0145374D03*
X0160766Y0146004D03*
X0160766Y0146122D03*
X0158247Y0146004D03*
X0155727Y0146004D03*
X0151948Y0146004D03*
X0151948Y0145374D03*
X0151948Y0144862D03*
X0149428Y0144862D03*
X0143995Y0144862D03*
X0143995Y0145374D03*
X0143995Y0146004D03*
X0141239Y0146004D03*
X0141239Y0143878D03*
X0135688Y0144232D03*
X0133168Y0144862D03*
X0133168Y0145374D03*
X0133168Y0146004D03*
X0130530Y0144114D03*
X0133550Y0149232D03*
X0136188Y0150138D03*
X0136306Y0151004D03*
X0138707Y0149232D03*
X0149534Y0149114D03*
X0158353Y0148996D03*
X0158353Y0148878D03*
X0167274Y0154114D03*
X0167274Y0156004D03*
X0167274Y0156122D03*
X0175755Y0151122D03*
X0175755Y0151004D03*
X0178392Y0151004D03*
X0181030Y0149862D03*
X0181030Y0149744D03*
X0180912Y0148878D03*
X0176751Y0143878D03*
X0174231Y0144114D03*
X0174231Y0146004D03*
X0174231Y0146122D03*
X0171475Y0146122D03*
X0171475Y0146004D03*
X0171475Y0145374D03*
X0171475Y0144862D03*
X0171475Y0144744D03*
X0171475Y0143878D03*
X0168955Y0144744D03*
X0168955Y0144862D03*
X0185963Y0143878D03*
X0186081Y0144862D03*
X0190373Y0144862D03*
X0190373Y0145374D03*
X0190373Y0146004D03*
X0188983Y0150138D03*
X0189101Y0151004D03*
X0190463Y0153878D03*
X0195503Y0154114D03*
X0195503Y0156004D03*
X0195503Y0156122D03*
X0198140Y0156004D03*
X0198022Y0155138D03*
X0200542Y0154744D03*
X0200542Y0153996D03*
X0200660Y0153878D03*
X0204219Y0151004D03*
X0206857Y0149862D03*
X0206857Y0149744D03*
X0206857Y0148996D03*
X0206857Y0148878D03*
X0204219Y0148878D03*
X0201581Y0149114D03*
X0201199Y0146122D03*
X0201199Y0146004D03*
X0201199Y0144114D03*
X0203719Y0145138D03*
X0203837Y0146004D03*
X0206239Y0144744D03*
X0206239Y0143996D03*
X0206357Y0143878D03*
X0195648Y0143878D03*
X0195648Y0146004D03*
X0196148Y0148878D03*
X0196148Y0149744D03*
X0196148Y0149862D03*
X0196148Y0150374D03*
X0196148Y0151004D03*
X0196148Y0151122D03*
X0193392Y0149232D03*
X0180385Y0154862D03*
X0180385Y0155374D03*
X0180385Y0156004D03*
X0210621Y0156122D03*
X0206121Y0128122D03*
X0206121Y0128004D03*
X0200688Y0128004D03*
X0200688Y0128122D03*
X0200688Y0126114D03*
X0198168Y0123004D03*
X0198168Y0122374D03*
X0198168Y0121862D03*
X0195412Y0121232D03*
X0191751Y0125878D03*
X0189113Y0126744D03*
X0189113Y0126862D03*
X0191751Y0128004D03*
X0184940Y0123004D03*
X0184822Y0122138D03*
X0182420Y0121744D03*
X0182420Y0120996D03*
X0172853Y0126232D03*
X0170333Y0128004D03*
X0162262Y0125996D03*
X0162262Y0125878D03*
X0165806Y0121114D03*
X0168562Y0121114D03*
X0155845Y0121114D03*
X0155845Y0123004D03*
X0155845Y0123122D03*
X0152066Y0121744D03*
X0152066Y0120996D03*
X0152184Y0120878D03*
X0147026Y0120878D03*
X0146908Y0120996D03*
X0146908Y0121744D03*
X0144388Y0122138D03*
X0144507Y0123004D03*
X0140609Y0125878D03*
X0136436Y0123004D03*
X0136436Y0122374D03*
X0136436Y0121862D03*
X0131908Y0121114D03*
X0131908Y0123004D03*
X0131908Y0123122D03*
X0132656Y0126232D03*
X0140609Y0128004D03*
X0148798Y0128004D03*
X0148798Y0128122D03*
X0148798Y0127374D03*
X0148798Y0126862D03*
X0148798Y0126744D03*
X0148798Y0125878D03*
X0151554Y0126114D03*
X0180294Y0128004D03*
X0206121Y0123004D03*
X0206121Y0120878D03*
X0201601Y0108004D03*
X0201601Y0107374D03*
X0201601Y0106862D03*
X0204121Y0106232D03*
X0204357Y0101862D03*
X0204239Y0100878D03*
X0191010Y0101114D03*
X0182940Y0101862D03*
X0182940Y0102374D03*
X0182940Y0103004D03*
X0180420Y0103004D03*
X0180302Y0102138D03*
X0174121Y0101232D03*
X0171601Y0103004D03*
X0168963Y0103004D03*
X0168963Y0103122D03*
X0163412Y0103122D03*
X0163412Y0103004D03*
X0160774Y0103004D03*
X0160774Y0103122D03*
X0160774Y0102374D03*
X0160774Y0101862D03*
X0160774Y0101744D03*
X0160774Y0100878D03*
X0156247Y0102138D03*
X0156365Y0103004D03*
X0153845Y0101862D03*
X0153845Y0101744D03*
X0153727Y0100878D03*
X0149948Y0101232D03*
X0141877Y0101862D03*
X0141877Y0102374D03*
X0141877Y0103004D03*
X0139239Y0103004D03*
X0139239Y0102374D03*
X0139239Y0101862D03*
X0138727Y0105878D03*
X0138727Y0105996D03*
X0138727Y0106862D03*
X0136207Y0106744D03*
X0136207Y0105996D03*
X0136325Y0105878D03*
X0133806Y0105996D03*
X0133806Y0106744D03*
X0131286Y0107138D03*
X0141247Y0108004D03*
X0141247Y0105878D03*
X0163806Y0105878D03*
X0163806Y0108004D03*
X0179042Y0108004D03*
X0179042Y0107374D03*
X0179042Y0106862D03*
X0182940Y0106114D03*
X0182940Y0108004D03*
X0182940Y0108122D03*
X0188373Y0105878D03*
D45*
X0188353Y0105366D03*
X0188747Y0107492D03*
X0182448Y0106862D03*
X0177290Y0102492D03*
X0171227Y0101232D03*
X0170991Y0102374D03*
X0166188Y0100366D03*
X0158392Y0103122D03*
X0158629Y0107374D03*
X0161266Y0108122D03*
X0168589Y0106862D03*
X0182959Y0100366D03*
X0187605Y0102374D03*
X0195794Y0103516D03*
X0196306Y0100366D03*
X0203747Y0103516D03*
X0204495Y0102768D03*
X0199062Y0108122D03*
X0206101Y0120366D03*
X0202833Y0122374D03*
X0200196Y0126862D03*
X0198188Y0128122D03*
X0196298Y0128122D03*
X0183306Y0127374D03*
X0177007Y0126862D03*
X0174999Y0128122D03*
X0167558Y0125366D03*
X0162282Y0125366D03*
X0159881Y0125366D03*
X0160510Y0123122D03*
X0162282Y0121626D03*
X0155353Y0121862D03*
X0152558Y0122492D03*
X0152203Y0120366D03*
X0148778Y0121626D03*
X0147400Y0122492D03*
X0148778Y0125366D03*
X0145629Y0126862D03*
X0133936Y0123122D03*
X0131416Y0121862D03*
X0129133Y0120366D03*
X0139093Y0120366D03*
X0157479Y0128122D03*
X0161770Y0128516D03*
X0176259Y0120366D03*
X0179290Y0122492D03*
X0147172Y0106862D03*
X0145164Y0108122D03*
X0143392Y0108122D03*
X0139101Y0107492D03*
X0136699Y0107492D03*
X0136345Y0105366D03*
X0133944Y0105366D03*
X0131424Y0102374D03*
X0131660Y0101232D03*
X0134692Y0100366D03*
X0139219Y0100366D03*
X0144140Y0101862D03*
X0127526Y0102492D03*
X0127133Y0100366D03*
X0141219Y0143366D03*
X0146140Y0144862D03*
X0148778Y0146516D03*
X0146640Y0148366D03*
X0148924Y0149862D03*
X0143609Y0149232D03*
X0143373Y0150374D03*
X0135814Y0149232D03*
X0133396Y0154862D03*
X0127963Y0155374D03*
X0128266Y0145492D03*
X0149290Y0143366D03*
X0154711Y0148366D03*
X0158373Y0148366D03*
X0162900Y0148366D03*
X0160499Y0151122D03*
X0156822Y0155768D03*
X0152294Y0154862D03*
X0166782Y0154862D03*
X0169302Y0154626D03*
X0172058Y0155374D03*
X0177097Y0155374D03*
X0178018Y0149232D03*
X0172467Y0150374D03*
X0169948Y0150374D03*
X0167192Y0149626D03*
X0165786Y0144862D03*
X0160747Y0143366D03*
X0171455Y0143366D03*
X0173739Y0144862D03*
X0185944Y0143366D03*
X0190353Y0143366D03*
X0186219Y0145768D03*
X0188609Y0149232D03*
X0196168Y0148366D03*
X0197676Y0144626D03*
X0200707Y0144862D03*
X0206377Y0143366D03*
X0206731Y0145492D03*
X0207231Y0150492D03*
X0209853Y0154626D03*
X0207097Y0156122D03*
X0201034Y0155492D03*
X0190837Y0155492D03*
X0185680Y0155492D03*
D46*
X0184062Y0151122D03*
X0177762Y0150374D03*
X0177353Y0154232D03*
X0172723Y0149232D03*
X0163274Y0150492D03*
X0155085Y0150492D03*
X0155215Y0144232D03*
X0128219Y0154232D03*
X0135688Y0127768D03*
X0138207Y0127768D03*
X0142617Y0126626D03*
X0147026Y0120366D03*
X0160255Y0127492D03*
X0174113Y0122492D03*
X0182932Y0122492D03*
X0190491Y0122768D03*
X0183562Y0126232D03*
X0203089Y0121232D03*
X0197310Y0108122D03*
X0195420Y0108122D03*
X0187861Y0101232D03*
X0179042Y0105366D03*
X0174003Y0108122D03*
X0160774Y0100366D03*
X0158885Y0106232D03*
X0150696Y0107492D03*
X0141877Y0100366D03*
X0136837Y0103122D03*
X0138727Y0105366D03*
X0134318Y0107492D03*
X0204239Y0100366D03*
X0187971Y0146122D03*
X0185451Y0146516D03*
X0190991Y0151122D03*
X0194991Y0154862D03*
X0200660Y0153366D03*
X0202550Y0156122D03*
X0204219Y0148366D03*
D47*
X0198365Y0143602D03*
X0187747Y0153602D03*
X0185227Y0154862D03*
X0190266Y0156004D03*
X0190266Y0156122D03*
X0179467Y0146122D03*
X0146711Y0146122D03*
X0144062Y0151122D03*
X0139243Y0155256D03*
X0139243Y0156122D03*
X0127814Y0146122D03*
X0127814Y0146004D03*
X0138522Y0143602D03*
X0154270Y0125602D03*
X0139152Y0123122D03*
X0171798Y0108122D03*
X0176837Y0101862D03*
X0185656Y0108122D03*
X0188176Y0108122D03*
X0188176Y0108398D03*
X0200885Y0120602D03*
X0178837Y0123004D03*
X0178837Y0123122D03*
X0176318Y0123122D03*
X0177577Y0128122D03*
X0156680Y0105602D03*
X0132113Y0103122D03*
X0127073Y0103004D03*
X0127073Y0101744D03*
D48*
X0127133Y0101862D03*
X0127133Y0100996D03*
X0127133Y0100878D03*
X0132054Y0103004D03*
X0134692Y0103004D03*
X0133944Y0105878D03*
X0131424Y0108004D03*
X0134692Y0100878D03*
X0144652Y0101114D03*
X0147172Y0101232D03*
X0144652Y0103004D03*
X0144652Y0103122D03*
X0147802Y0106114D03*
X0150322Y0105996D03*
X0150322Y0105878D03*
X0150322Y0106744D03*
X0150322Y0106862D03*
X0152841Y0108004D03*
X0156621Y0108004D03*
X0156621Y0108122D03*
X0159259Y0108004D03*
X0166188Y0103004D03*
X0169219Y0106114D03*
X0171857Y0105878D03*
X0171857Y0108004D03*
X0176266Y0106232D03*
X0176778Y0101744D03*
X0176778Y0100996D03*
X0176896Y0100878D03*
X0185597Y0101232D03*
X0188235Y0103004D03*
X0188235Y0105996D03*
X0188235Y0106744D03*
X0190636Y0106232D03*
X0185715Y0105878D03*
X0185715Y0108004D03*
X0196424Y0101862D03*
X0196306Y0100996D03*
X0196306Y0100878D03*
X0193786Y0101114D03*
X0198825Y0101232D03*
X0201463Y0101232D03*
X0166188Y0100878D03*
X0173739Y0120878D03*
X0173739Y0120996D03*
X0173739Y0121744D03*
X0173739Y0121862D03*
X0171219Y0121862D03*
X0171219Y0122374D03*
X0171219Y0123004D03*
X0167558Y0125878D03*
X0167558Y0125996D03*
X0164920Y0126862D03*
X0164920Y0127374D03*
X0164920Y0128004D03*
X0167558Y0128004D03*
X0162400Y0126862D03*
X0159881Y0126862D03*
X0159881Y0125996D03*
X0159881Y0125878D03*
X0154211Y0128004D03*
X0154211Y0128122D03*
X0146140Y0128122D03*
X0146140Y0128004D03*
X0146140Y0126114D03*
X0139093Y0123004D03*
X0139093Y0120878D03*
X0141731Y0121232D03*
X0137833Y0125878D03*
X0137951Y0126744D03*
X0137951Y0126862D03*
X0135432Y0126862D03*
X0135432Y0126744D03*
X0135314Y0125878D03*
X0129133Y0123004D03*
X0129133Y0122374D03*
X0129133Y0121862D03*
X0127873Y0143878D03*
X0127873Y0143996D03*
X0127873Y0144744D03*
X0127873Y0144862D03*
X0130774Y0149232D03*
X0138463Y0146122D03*
X0138463Y0146004D03*
X0144003Y0151004D03*
X0146640Y0151004D03*
X0147373Y0154232D03*
X0150010Y0153878D03*
X0152192Y0151004D03*
X0154711Y0149862D03*
X0154711Y0148996D03*
X0154711Y0148878D03*
X0155589Y0145138D03*
X0158109Y0145138D03*
X0162900Y0148878D03*
X0166298Y0146122D03*
X0166298Y0146004D03*
X0166298Y0144114D03*
X0168818Y0143878D03*
X0176888Y0144744D03*
X0176888Y0144862D03*
X0179526Y0143878D03*
X0179526Y0146004D03*
X0183188Y0144232D03*
X0173097Y0151004D03*
X0170577Y0151004D03*
X0167940Y0151122D03*
X0170050Y0156122D03*
X0172688Y0156004D03*
X0177727Y0156004D03*
X0185168Y0154744D03*
X0185168Y0153996D03*
X0185286Y0153878D03*
X0187688Y0156004D03*
X0187688Y0156122D03*
X0190325Y0154744D03*
X0190325Y0153996D03*
X0192727Y0153878D03*
X0192845Y0154744D03*
X0192845Y0154862D03*
X0198806Y0151004D03*
X0198806Y0150374D03*
X0198806Y0149862D03*
X0198424Y0146122D03*
X0204814Y0154232D03*
X0164499Y0156004D03*
X0164499Y0156122D03*
X0161861Y0156004D03*
X0146640Y0148996D03*
X0146640Y0148878D03*
X0146770Y0144114D03*
X0149290Y0143996D03*
X0149290Y0143878D03*
X0139302Y0154862D03*
X0139302Y0155374D03*
X0139302Y0156004D03*
X0128593Y0156004D03*
X0177636Y0126114D03*
X0183936Y0128004D03*
X0188975Y0125878D03*
X0187597Y0123004D03*
X0187597Y0120878D03*
X0190117Y0120878D03*
X0190235Y0121744D03*
X0190235Y0121862D03*
X0192636Y0121232D03*
X0200825Y0123004D03*
X0200825Y0123122D03*
X0203463Y0123004D03*
X0203345Y0126232D03*
X0182558Y0120878D03*
X0178896Y0120878D03*
X0178896Y0120996D03*
X0178896Y0121744D03*
X0178896Y0121862D03*
X0176259Y0120878D03*
X0176259Y0123004D03*
D49*
X0168444Y0120996D03*
X0168444Y0120366D03*
X0155845Y0122886D03*
X0151436Y0125366D03*
X0151436Y0125996D03*
X0131908Y0122886D03*
X0166444Y0108516D03*
X0166444Y0108398D03*
X0166444Y0108122D03*
X0166444Y0108004D03*
X0168963Y0102886D03*
X0168963Y0100996D03*
X0168963Y0100878D03*
X0160774Y0100996D03*
X0150066Y0101508D03*
X0150066Y0101626D03*
X0150066Y0101744D03*
X0150066Y0101862D03*
X0141877Y0100996D03*
X0179042Y0105996D03*
X0182822Y0105366D03*
X0204239Y0106862D03*
X0195530Y0121508D03*
X0195530Y0121626D03*
X0195530Y0121744D03*
X0195530Y0121862D03*
X0200570Y0125366D03*
X0194270Y0128004D03*
X0174113Y0143366D03*
X0193010Y0146004D03*
X0193510Y0149862D03*
X0201199Y0145886D03*
X0167274Y0155886D03*
X0156566Y0154626D03*
X0152786Y0155886D03*
X0133888Y0155886D03*
X0133668Y0149862D03*
X0133668Y0149744D03*
X0133668Y0149626D03*
X0133668Y0149508D03*
D50*
X0132861Y0148740D03*
X0132861Y0150630D03*
X0132861Y0151260D03*
X0136995Y0150630D03*
X0141798Y0148740D03*
X0145404Y0155630D03*
X0156416Y0145630D03*
X0158936Y0145630D03*
X0160077Y0145630D03*
X0165617Y0148740D03*
X0167113Y0150630D03*
X0168766Y0149370D03*
X0170786Y0145630D03*
X0176062Y0144370D03*
X0176444Y0150630D03*
X0180223Y0149370D03*
X0175522Y0153740D03*
X0170877Y0154370D03*
X0169223Y0155630D03*
X0165207Y0155630D03*
X0184459Y0154370D03*
X0185719Y0155630D03*
X0192018Y0154370D03*
X0189790Y0150630D03*
X0195459Y0150630D03*
X0197597Y0145630D03*
X0199133Y0145630D03*
X0199251Y0144370D03*
X0204526Y0145630D03*
X0202373Y0153740D03*
X0202373Y0154370D03*
X0202373Y0155000D03*
X0198829Y0155630D03*
X0206900Y0155000D03*
X0206900Y0154370D03*
X0206900Y0153740D03*
X0211428Y0154370D03*
X0211310Y0155630D03*
X0191180Y0144370D03*
X0202636Y0128260D03*
X0202636Y0127630D03*
X0202636Y0125740D03*
X0206810Y0127630D03*
X0194723Y0123260D03*
X0194723Y0122630D03*
X0194723Y0120740D03*
X0185629Y0122630D03*
X0182991Y0122630D03*
X0181731Y0121370D03*
X0172164Y0125740D03*
X0172164Y0127630D03*
X0172164Y0128260D03*
X0163857Y0121370D03*
X0160314Y0121370D03*
X0160314Y0120740D03*
X0160314Y0122000D03*
X0158818Y0120740D03*
X0150353Y0121370D03*
X0145196Y0122630D03*
X0148109Y0127630D03*
X0129959Y0121370D03*
X0143196Y0107000D03*
X0143196Y0106370D03*
X0143196Y0105740D03*
X0149259Y0103260D03*
X0149259Y0102630D03*
X0149259Y0100740D03*
X0142684Y0101370D03*
X0140046Y0101370D03*
X0153038Y0101370D03*
X0157054Y0102630D03*
X0158196Y0102000D03*
X0158196Y0101370D03*
X0158196Y0100740D03*
X0160085Y0102630D03*
X0169652Y0102630D03*
X0173825Y0105740D03*
X0173825Y0106370D03*
X0173825Y0107000D03*
X0179849Y0106370D03*
X0181109Y0102630D03*
X0184888Y0102630D03*
X0184888Y0103260D03*
X0184888Y0100740D03*
X0177329Y0102630D03*
X0176070Y0101370D03*
X0197133Y0105740D03*
X0197133Y0106370D03*
X0197133Y0107000D03*
D51*
X0183766Y0101370D03*
X0166759Y0105740D03*
X0157310Y0107630D03*
X0132113Y0107630D03*
X0144192Y0126370D03*
X0168129Y0144370D03*
X0168629Y0150630D03*
X0170739Y0155630D03*
X0189636Y0154370D03*
X0190896Y0155630D03*
X0209794Y0155630D03*
X0188286Y0126370D03*
X0149322Y0154370D03*
D52*
X0150522Y0155630D03*
X0169329Y0145630D03*
X0165668Y0145000D03*
X0173621Y0145000D03*
X0181404Y0150630D03*
X0193239Y0155630D03*
X0194853Y0155000D03*
X0189487Y0127630D03*
X0200077Y0127000D03*
X0182329Y0107000D03*
X0154219Y0102630D03*
X0144022Y0102000D03*
X0145510Y0127000D03*
D53*
X0143995Y0127630D03*
X0150176Y0122630D03*
X0154979Y0127630D03*
X0163640Y0122630D03*
X0201593Y0122630D03*
X0164160Y0102630D03*
X0139231Y0145630D03*
X0137274Y0155630D03*
X0142707Y0155630D03*
X0188455Y0155630D03*
D54*
X0186266Y0150000D03*
X0186396Y0145630D03*
X0200873Y0150000D03*
X0203286Y0144370D03*
X0175030Y0155000D03*
X0160440Y0151260D03*
X0156999Y0155630D03*
X0149743Y0145630D03*
X0146081Y0145000D03*
X0135755Y0149370D03*
X0129822Y0145000D03*
X0130936Y0155000D03*
X0157420Y0128260D03*
X0160451Y0123260D03*
X0165097Y0122000D03*
X0176948Y0127000D03*
X0174940Y0128260D03*
X0185885Y0127630D03*
X0186278Y0127000D03*
X0190688Y0122630D03*
X0184388Y0121370D03*
X0194073Y0127000D03*
X0194467Y0126370D03*
X0199003Y0108260D03*
X0193215Y0107000D03*
X0193097Y0102000D03*
X0204672Y0102630D03*
X0179869Y0101370D03*
X0168530Y0107000D03*
X0166247Y0107000D03*
X0161207Y0108260D03*
X0147113Y0107000D03*
X0143333Y0108260D03*
X0130853Y0106370D03*
X0128963Y0102630D03*
X0129585Y0127630D03*
X0135885Y0127630D03*
X0138404Y0127630D03*
D55*
X0143995Y0127492D03*
X0148798Y0125248D03*
X0150176Y0122492D03*
X0162262Y0125248D03*
X0161633Y0128634D03*
X0136436Y0120248D03*
X0139357Y0106232D03*
X0138727Y0105248D03*
X0139239Y0100248D03*
X0141877Y0100248D03*
X0153727Y0100248D03*
X0160774Y0100248D03*
X0168963Y0100248D03*
X0179042Y0105248D03*
X0182940Y0100248D03*
X0201601Y0105248D03*
X0204239Y0100248D03*
X0206121Y0120248D03*
X0206121Y0125248D03*
X0198168Y0120248D03*
X0190373Y0143248D03*
X0185963Y0143248D03*
X0180912Y0148248D03*
X0175755Y0148248D03*
X0176751Y0143248D03*
X0171475Y0143248D03*
X0160766Y0143248D03*
X0158353Y0148248D03*
X0151948Y0143248D03*
X0143995Y0143248D03*
X0141239Y0143248D03*
X0133168Y0143248D03*
X0144715Y0153248D03*
X0180385Y0153248D03*
X0196148Y0148248D03*
X0204219Y0148248D03*
X0206857Y0148248D03*
X0207487Y0149232D03*
X0210621Y0153248D03*
X0211251Y0155492D03*
D56*
X0188377Y0155492D03*
X0187747Y0153248D03*
X0185227Y0153248D03*
X0179467Y0143248D03*
X0154900Y0127492D03*
X0154270Y0125248D03*
X0137892Y0125248D03*
X0135373Y0125248D03*
X0138522Y0143248D03*
X0139152Y0145492D03*
X0190176Y0120248D03*
X0200885Y0120248D03*
X0201514Y0122492D03*
X0185656Y0105248D03*
X0176837Y0100248D03*
X0171798Y0105248D03*
X0157310Y0107492D03*
D57*
X0156621Y0105248D03*
X0150951Y0106232D03*
X0150322Y0105248D03*
X0166188Y0100248D03*
X0195676Y0103634D03*
X0196306Y0100248D03*
X0178896Y0120248D03*
X0179526Y0121232D03*
X0176259Y0120248D03*
X0174369Y0121232D03*
X0173739Y0120248D03*
X0171219Y0120248D03*
X0163660Y0122492D03*
X0164920Y0125248D03*
X0167558Y0125248D03*
X0160510Y0126232D03*
X0159881Y0125248D03*
X0139093Y0120248D03*
X0129133Y0120248D03*
X0127762Y0101232D03*
X0127133Y0100248D03*
X0134692Y0100248D03*
X0188975Y0125248D03*
X0198424Y0143248D03*
X0199054Y0145492D03*
X0198806Y0148248D03*
X0192727Y0153248D03*
X0170680Y0155492D03*
X0170050Y0153248D03*
X0164499Y0153248D03*
X0168570Y0150492D03*
X0167940Y0148248D03*
X0168818Y0143248D03*
X0155341Y0149232D03*
X0154711Y0148248D03*
X0148660Y0146634D03*
X0146640Y0148248D03*
X0149290Y0143248D03*
X0150010Y0153248D03*
X0139302Y0153248D03*
X0128503Y0144232D03*
X0127873Y0143248D03*
D58*
X0132861Y0148366D03*
X0136585Y0153248D03*
X0137215Y0155492D03*
X0142018Y0153248D03*
X0142648Y0155492D03*
X0145404Y0155492D03*
X0152113Y0148248D03*
X0156507Y0153248D03*
X0161782Y0153248D03*
X0165207Y0155492D03*
X0170877Y0154508D03*
X0168766Y0149508D03*
X0162822Y0148248D03*
X0163463Y0143248D03*
X0176444Y0150492D03*
X0190404Y0153248D03*
X0200601Y0153248D03*
X0208672Y0154114D03*
X0211428Y0154508D03*
X0199251Y0144508D03*
X0195589Y0143248D03*
X0206298Y0143248D03*
X0206810Y0127492D03*
X0202636Y0125366D03*
X0194723Y0120366D03*
X0191692Y0125248D03*
X0187518Y0120248D03*
X0182479Y0120248D03*
X0180235Y0125248D03*
X0172164Y0125366D03*
X0170274Y0125248D03*
X0162951Y0120248D03*
X0152125Y0120248D03*
X0149487Y0120248D03*
X0146967Y0120248D03*
X0143306Y0125248D03*
X0140550Y0125248D03*
X0141188Y0105248D03*
X0136266Y0105248D03*
X0133865Y0105248D03*
X0149259Y0100366D03*
X0152762Y0105248D03*
X0163747Y0105248D03*
X0164101Y0102492D03*
X0163471Y0100248D03*
X0169652Y0102492D03*
X0184888Y0100366D03*
X0188314Y0105248D03*
D59*
X0188550Y0107374D03*
X0182881Y0106508D03*
X0177093Y0102374D03*
X0171542Y0101114D03*
X0161463Y0107256D03*
X0161463Y0107768D03*
X0159573Y0105602D03*
X0153786Y0100484D03*
X0141188Y0105484D03*
X0131739Y0105602D03*
X0127329Y0102374D03*
X0132369Y0100602D03*
X0131849Y0121508D03*
X0135747Y0127256D03*
X0138266Y0127256D03*
X0151495Y0126508D03*
X0153896Y0126862D03*
X0153896Y0127256D03*
X0157676Y0127256D03*
X0157676Y0127768D03*
X0155786Y0121508D03*
X0168503Y0121508D03*
X0170274Y0125484D03*
X0170274Y0128398D03*
X0177833Y0126232D03*
X0184251Y0125602D03*
X0179093Y0122374D03*
X0190550Y0122256D03*
X0191692Y0125484D03*
X0200629Y0126508D03*
X0205668Y0126744D03*
X0205668Y0127374D03*
X0200510Y0122256D03*
X0200510Y0121862D03*
X0203778Y0120602D03*
X0206180Y0120484D03*
X0199259Y0107886D03*
X0199259Y0107256D03*
X0196621Y0102256D03*
X0190951Y0101508D03*
X0188550Y0100602D03*
X0204180Y0100484D03*
X0195589Y0143484D03*
X0197991Y0144744D03*
X0197991Y0145256D03*
X0197991Y0145374D03*
X0201140Y0144508D03*
X0204278Y0148484D03*
X0210168Y0154744D03*
X0210168Y0155256D03*
X0210168Y0155374D03*
X0193160Y0155256D03*
X0190640Y0155374D03*
X0187373Y0155256D03*
X0187373Y0154862D03*
X0185483Y0155374D03*
X0178042Y0153602D03*
X0175302Y0150374D03*
X0175302Y0149744D03*
X0173412Y0148602D03*
X0170892Y0148602D03*
X0174172Y0144508D03*
X0177203Y0145256D03*
X0178333Y0149114D03*
X0180971Y0148484D03*
X0173003Y0153602D03*
X0167215Y0154508D03*
X0164066Y0154744D03*
X0164066Y0155374D03*
X0156507Y0153484D03*
X0152727Y0154508D03*
X0160696Y0150768D03*
X0160696Y0150374D03*
X0149605Y0145256D03*
X0146967Y0144232D03*
X0144318Y0148602D03*
X0138148Y0145256D03*
X0138148Y0144862D03*
X0141298Y0143484D03*
X0128070Y0145374D03*
X0128908Y0153602D03*
X0133829Y0154508D03*
X0141507Y0154744D03*
X0141507Y0155374D03*
X0163463Y0143484D03*
D60*
X0163463Y0143996D03*
X0163463Y0145886D03*
X0165223Y0150886D03*
X0156507Y0153996D03*
X0149475Y0151004D03*
X0149475Y0150886D03*
X0149357Y0148366D03*
X0143936Y0144744D03*
X0143936Y0143996D03*
X0143936Y0143878D03*
X0141298Y0143996D03*
X0141298Y0145886D03*
X0136247Y0150256D03*
X0133109Y0144744D03*
X0133109Y0143996D03*
X0133109Y0143878D03*
X0130077Y0127886D03*
X0136377Y0121744D03*
X0136377Y0120996D03*
X0136377Y0120878D03*
X0144448Y0122256D03*
X0149487Y0122886D03*
X0149487Y0123004D03*
X0149487Y0120878D03*
X0143306Y0125878D03*
X0143306Y0127886D03*
X0143306Y0128004D03*
X0151495Y0128004D03*
X0151495Y0127886D03*
X0158424Y0122886D03*
X0168503Y0122886D03*
X0168503Y0123004D03*
X0170274Y0125878D03*
X0170274Y0125996D03*
X0170274Y0126744D03*
X0184881Y0122256D03*
X0191692Y0125996D03*
X0191692Y0127886D03*
X0194329Y0127886D03*
X0194329Y0128516D03*
X0198109Y0121744D03*
X0198109Y0120996D03*
X0198109Y0120878D03*
X0206180Y0120996D03*
X0206180Y0122886D03*
X0179101Y0106744D03*
X0179101Y0105878D03*
X0180361Y0102256D03*
X0171542Y0102256D03*
X0171542Y0102138D03*
X0169022Y0105366D03*
X0166385Y0107886D03*
X0156306Y0102256D03*
X0153786Y0101626D03*
X0153786Y0100996D03*
X0147605Y0105366D03*
X0141188Y0105996D03*
X0141188Y0107886D03*
X0141936Y0101744D03*
X0141936Y0100878D03*
X0139298Y0100878D03*
X0139298Y0101744D03*
X0190951Y0102886D03*
X0190951Y0103004D03*
X0204180Y0100996D03*
X0204298Y0101626D03*
X0204298Y0101744D03*
X0195589Y0143996D03*
X0195589Y0145886D03*
X0192951Y0145886D03*
X0192951Y0146516D03*
X0190432Y0144744D03*
X0190432Y0143878D03*
X0186022Y0144626D03*
X0186022Y0144744D03*
X0180971Y0148996D03*
X0180971Y0149626D03*
X0178333Y0150138D03*
X0178333Y0150256D03*
X0189042Y0150256D03*
X0198081Y0155256D03*
X0204278Y0150886D03*
X0204278Y0148996D03*
X0203778Y0145256D03*
D61*
X0198129Y0145000D03*
X0210306Y0155000D03*
X0169715Y0155000D03*
X0167605Y0150000D03*
X0143050Y0127000D03*
X0149231Y0122000D03*
X0162696Y0122000D03*
D62*
X0153955Y0127000D03*
X0138207Y0145000D03*
X0187432Y0155000D03*
X0200570Y0122000D03*
X0156365Y0107000D03*
D63*
X0156621Y0105740D03*
X0159140Y0107000D03*
X0133944Y0105740D03*
X0129133Y0120740D03*
X0154211Y0125740D03*
X0164920Y0125740D03*
X0171219Y0120740D03*
X0183818Y0127000D03*
X0200825Y0120740D03*
X0203345Y0122000D03*
X0188117Y0102000D03*
X0138463Y0143740D03*
X0139302Y0153740D03*
X0128475Y0155000D03*
X0162900Y0148740D03*
X0164499Y0153740D03*
X0170459Y0150000D03*
X0172979Y0150000D03*
X0172570Y0155000D03*
X0177609Y0155000D03*
X0187688Y0153740D03*
X0198806Y0148740D03*
D64*
X0200570Y0145000D03*
X0177262Y0145630D03*
X0166644Y0155000D03*
X0152156Y0155000D03*
X0133259Y0155000D03*
X0131278Y0122000D03*
X0155215Y0122000D03*
D65*
X0155983Y0121370D03*
X0132046Y0121370D03*
X0144770Y0101370D03*
X0163156Y0102000D03*
X0168707Y0102000D03*
X0183077Y0106370D03*
X0200825Y0126370D03*
X0205865Y0127000D03*
X0175499Y0150000D03*
X0167412Y0154370D03*
X0164262Y0155000D03*
X0144459Y0155000D03*
X0141703Y0155000D03*
X0136270Y0155000D03*
D66*
X0184692Y0150138D03*
X0189101Y0149626D03*
X0191621Y0150138D03*
X0188601Y0145138D03*
X0207369Y0149508D03*
X0198140Y0154626D03*
X0198050Y0128634D03*
X0196160Y0128634D03*
X0182932Y0121508D03*
X0160255Y0123634D03*
X0144507Y0121626D03*
X0133798Y0123634D03*
X0143136Y0108634D03*
X0145026Y0108634D03*
X0137467Y0102138D03*
X0156365Y0101626D03*
X0196050Y0107138D03*
D67*
X0195991Y0103260D03*
X0191070Y0101370D03*
X0165865Y0121370D03*
X0130589Y0144370D03*
X0133948Y0154370D03*
X0148975Y0146260D03*
X0152845Y0154370D03*
X0195562Y0154370D03*
X0201640Y0149370D03*
X0201259Y0144370D03*
D68*
X0198365Y0143740D03*
X0210542Y0153740D03*
X0169991Y0153740D03*
X0167881Y0148740D03*
X0162971Y0120740D03*
D69*
X0152184Y0120740D03*
X0147026Y0120740D03*
X0148798Y0125740D03*
X0136436Y0120740D03*
X0136325Y0105740D03*
X0131916Y0102000D03*
X0139239Y0100740D03*
X0141877Y0100740D03*
X0160774Y0100740D03*
X0163412Y0100740D03*
X0168963Y0100740D03*
X0171483Y0102000D03*
X0179042Y0105740D03*
X0182940Y0100740D03*
X0188373Y0105740D03*
X0201601Y0105740D03*
X0198168Y0120740D03*
X0206121Y0125740D03*
X0206357Y0143740D03*
X0196148Y0148740D03*
X0200660Y0153740D03*
X0190373Y0143740D03*
X0178274Y0150000D03*
X0175755Y0148740D03*
X0171475Y0143740D03*
X0160766Y0143740D03*
X0151948Y0143740D03*
X0143995Y0143740D03*
X0133168Y0143740D03*
X0143865Y0150000D03*
X0144715Y0153740D03*
X0141959Y0153740D03*
X0136526Y0153740D03*
X0180385Y0153740D03*
D70*
X0195365Y0153740D03*
X0201444Y0148740D03*
X0201062Y0143740D03*
X0177518Y0125740D03*
X0165668Y0120740D03*
X0146022Y0125740D03*
X0146652Y0143740D03*
X0130392Y0143740D03*
X0133751Y0153740D03*
X0152648Y0153740D03*
X0166180Y0143740D03*
X0169101Y0105740D03*
X0147684Y0105740D03*
X0190873Y0100740D03*
X0193668Y0100740D03*
D71*
X0193668Y0100602D03*
X0193668Y0100878D03*
X0190873Y0100878D03*
X0190873Y0100602D03*
X0169101Y0105602D03*
X0169101Y0105878D03*
X0147684Y0105878D03*
X0147684Y0105602D03*
X0165668Y0120602D03*
X0165668Y0120878D03*
X0177518Y0125602D03*
X0177518Y0125878D03*
X0146022Y0125602D03*
X0146652Y0143602D03*
X0146652Y0143878D03*
X0152648Y0153602D03*
X0133751Y0153602D03*
X0130392Y0143878D03*
X0130392Y0143602D03*
X0166180Y0143602D03*
X0195365Y0153602D03*
X0201444Y0148878D03*
X0201444Y0148602D03*
X0201062Y0143602D03*
D72*
X0193510Y0149370D03*
X0193510Y0150000D03*
X0195530Y0122000D03*
X0195530Y0121370D03*
X0204239Y0107000D03*
X0204239Y0106370D03*
X0166444Y0108260D03*
X0150066Y0102000D03*
X0150066Y0101370D03*
X0133668Y0149370D03*
X0133668Y0150000D03*
D73*
X0146829Y0144370D03*
X0149613Y0149370D03*
X0166357Y0144370D03*
X0174310Y0144370D03*
X0185648Y0146260D03*
X0161948Y0128260D03*
X0151633Y0126370D03*
X0146199Y0126370D03*
X0168640Y0121370D03*
X0177696Y0126370D03*
X0169278Y0106370D03*
X0147861Y0106370D03*
X0193845Y0101370D03*
X0203924Y0103260D03*
D74*
X0168444Y0120602D03*
X0168444Y0120878D03*
X0151436Y0125602D03*
X0151436Y0125878D03*
X0174113Y0143602D03*
X0149416Y0148602D03*
X0149416Y0148878D03*
D75*
X0149416Y0148740D03*
X0174113Y0143740D03*
X0151436Y0125740D03*
X0168444Y0120740D03*
D76*
X0179467Y0146260D03*
X0136503Y0148740D03*
D77*
X0143306Y0125740D03*
X0149487Y0120740D03*
M02*
