G75*
%MOIN*%
%OFA0B0*%
%FSLAX25Y25*%
%IPPOS*%
%LPD*%
%AMOC8*
5,1,8,0,0,1.08239X$1,22.5*
%
%ADD10R,0.04724X0.03150*%
%ADD11R,0.03150X0.04724*%
%ADD12R,0.06000X0.06000*%
%ADD13C,0.02000*%
%ADD14C,0.00800*%
D10*
X0148333Y0121457D03*
X0148333Y0128543D03*
X0188333Y0128543D03*
X0188333Y0121457D03*
D11*
X0171877Y0135000D03*
X0164790Y0135000D03*
D12*
X0126333Y0130000D03*
X0126333Y0120000D03*
X0210333Y0120000D03*
X0210333Y0130000D03*
D13*
X0203333Y0130000D01*
X0201877Y0128543D01*
X0188333Y0128543D01*
X0188333Y0133000D01*
X0186333Y0135000D01*
X0171877Y0135000D01*
X0164790Y0135000D02*
X0150333Y0135000D01*
X0148333Y0133000D01*
X0148333Y0128543D01*
X0134790Y0128543D01*
X0133333Y0130000D01*
X0126333Y0130000D01*
X0128333Y0122000D02*
X0126333Y0120000D01*
X0147790Y0122000D02*
X0147835Y0121998D01*
X0147879Y0121993D01*
X0147923Y0121983D01*
X0147966Y0121971D01*
X0148008Y0121954D01*
X0148048Y0121935D01*
X0148087Y0121912D01*
X0148124Y0121886D01*
X0148158Y0121856D01*
X0148189Y0121825D01*
X0148219Y0121791D01*
X0148245Y0121754D01*
X0148268Y0121715D01*
X0148287Y0121675D01*
X0148304Y0121633D01*
X0148316Y0121590D01*
X0148326Y0121546D01*
X0148331Y0121502D01*
X0148333Y0121457D01*
X0147790Y0128000D02*
X0147835Y0128002D01*
X0147879Y0128007D01*
X0147923Y0128017D01*
X0147966Y0128029D01*
X0148008Y0128046D01*
X0148048Y0128065D01*
X0148087Y0128088D01*
X0148124Y0128114D01*
X0148158Y0128144D01*
X0148189Y0128175D01*
X0148219Y0128209D01*
X0148245Y0128246D01*
X0148268Y0128285D01*
X0148287Y0128325D01*
X0148304Y0128367D01*
X0148316Y0128410D01*
X0148326Y0128454D01*
X0148331Y0128498D01*
X0148333Y0128543D01*
X0208877Y0121457D02*
X0210333Y0120000D01*
D14*
X0132954Y0076998D02*
X0132411Y0076800D01*
X0204256Y0076800D01*
X0203713Y0076998D01*
X0203713Y0076998D01*
X0201255Y0079060D01*
X0199650Y0081840D01*
X0199650Y0081840D01*
X0199093Y0085000D01*
X0199093Y0085000D01*
X0199650Y0088160D01*
X0199650Y0088160D01*
X0201255Y0090940D01*
X0201255Y0090940D01*
X0203713Y0093002D01*
X0203713Y0093002D01*
X0206729Y0094100D01*
X0209938Y0094100D01*
X0212954Y0093002D01*
X0212954Y0093002D01*
X0215412Y0090940D01*
X0215412Y0090940D01*
X0216533Y0088997D01*
X0216533Y0161003D01*
X0215412Y0159060D01*
X0215412Y0159060D01*
X0215412Y0159060D01*
X0212954Y0156998D01*
X0212954Y0156998D01*
X0209938Y0155900D01*
X0206729Y0155900D01*
X0203713Y0156998D01*
X0203713Y0156998D01*
X0201255Y0159060D01*
X0201255Y0159060D01*
X0199650Y0161840D01*
X0199650Y0161840D01*
X0199093Y0165000D01*
X0199093Y0165000D01*
X0199650Y0168160D01*
X0199650Y0168160D01*
X0201255Y0170940D01*
X0201255Y0170940D01*
X0203713Y0173002D01*
X0203713Y0173002D01*
X0204256Y0173200D01*
X0132411Y0173200D01*
X0132954Y0173002D01*
X0132954Y0173002D01*
X0135412Y0170940D01*
X0135412Y0170940D01*
X0137016Y0168160D01*
X0137016Y0168160D01*
X0137574Y0165000D01*
X0137574Y0165000D01*
X0137016Y0161840D01*
X0137016Y0161840D01*
X0135412Y0159060D01*
X0135412Y0159060D01*
X0135412Y0159060D01*
X0132954Y0156998D01*
X0132954Y0156998D01*
X0129938Y0155900D01*
X0127588Y0155900D01*
X0126729Y0155900D01*
X0123713Y0156998D01*
X0123713Y0156998D01*
X0121255Y0159060D01*
X0121255Y0159060D01*
X0120133Y0161003D01*
X0120133Y0088997D01*
X0121255Y0090940D01*
X0121255Y0090940D01*
X0123713Y0093002D01*
X0123713Y0093002D01*
X0126729Y0094100D01*
X0129938Y0094100D01*
X0132954Y0093002D01*
X0132954Y0093002D01*
X0135412Y0090940D01*
X0135412Y0090940D01*
X0137016Y0088160D01*
X0137574Y0085000D01*
X0137016Y0081840D01*
X0135412Y0079060D01*
X0135412Y0079060D01*
X0135412Y0079060D01*
X0132954Y0076998D01*
X0132954Y0076998D01*
X0133428Y0077396D02*
X0203239Y0077396D01*
X0202287Y0078194D02*
X0134379Y0078194D01*
X0135331Y0078993D02*
X0201336Y0078993D01*
X0200833Y0079791D02*
X0135834Y0079791D01*
X0136295Y0080590D02*
X0200372Y0080590D01*
X0199911Y0081388D02*
X0136756Y0081388D01*
X0137078Y0082187D02*
X0199589Y0082187D01*
X0199448Y0082985D02*
X0137218Y0082985D01*
X0137359Y0083784D02*
X0199307Y0083784D01*
X0199167Y0084582D02*
X0137500Y0084582D01*
X0137507Y0085381D02*
X0199160Y0085381D01*
X0199301Y0086179D02*
X0137366Y0086179D01*
X0137225Y0086978D02*
X0199442Y0086978D01*
X0199582Y0087776D02*
X0137084Y0087776D01*
X0136777Y0088575D02*
X0199889Y0088575D01*
X0200350Y0089373D02*
X0136316Y0089373D01*
X0135855Y0090172D02*
X0200811Y0090172D01*
X0201255Y0090940D02*
X0201255Y0090940D01*
X0201291Y0090970D02*
X0135375Y0090970D01*
X0134424Y0091769D02*
X0202243Y0091769D01*
X0203195Y0092567D02*
X0133472Y0092567D01*
X0131955Y0093366D02*
X0204711Y0093366D01*
X0211955Y0093366D02*
X0216533Y0093366D01*
X0216533Y0094164D02*
X0120133Y0094164D01*
X0120133Y0093366D02*
X0124711Y0093366D01*
X0123195Y0092567D02*
X0120133Y0092567D01*
X0120133Y0091769D02*
X0122243Y0091769D01*
X0121291Y0090970D02*
X0120133Y0090970D01*
X0120133Y0090172D02*
X0120811Y0090172D01*
X0121255Y0090940D02*
X0121255Y0090940D01*
X0120350Y0089373D02*
X0120133Y0089373D01*
X0120133Y0094963D02*
X0216533Y0094963D01*
X0216533Y0095761D02*
X0120133Y0095761D01*
X0120133Y0096560D02*
X0216533Y0096560D01*
X0216533Y0097358D02*
X0120133Y0097358D01*
X0120133Y0098157D02*
X0216533Y0098157D01*
X0216533Y0098955D02*
X0120133Y0098955D01*
X0120133Y0099754D02*
X0216533Y0099754D01*
X0216533Y0100552D02*
X0120133Y0100552D01*
X0120133Y0101351D02*
X0216533Y0101351D01*
X0216533Y0102149D02*
X0120133Y0102149D01*
X0120133Y0102948D02*
X0216533Y0102948D01*
X0216533Y0103746D02*
X0120133Y0103746D01*
X0120133Y0104545D02*
X0216533Y0104545D01*
X0216533Y0105343D02*
X0120133Y0105343D01*
X0120133Y0106142D02*
X0216533Y0106142D01*
X0216533Y0106940D02*
X0120133Y0106940D01*
X0120133Y0107739D02*
X0216533Y0107739D01*
X0216533Y0108537D02*
X0120133Y0108537D01*
X0120133Y0109336D02*
X0216533Y0109336D01*
X0216533Y0110134D02*
X0120133Y0110134D01*
X0120133Y0110933D02*
X0216533Y0110933D01*
X0216533Y0111732D02*
X0120133Y0111732D01*
X0120133Y0112530D02*
X0216533Y0112530D01*
X0216533Y0113329D02*
X0120133Y0113329D01*
X0120133Y0114127D02*
X0216533Y0114127D01*
X0216533Y0114926D02*
X0120133Y0114926D01*
X0120133Y0115724D02*
X0122743Y0115724D01*
X0122793Y0115695D02*
X0123149Y0115600D01*
X0125933Y0115600D01*
X0125933Y0119600D01*
X0121933Y0119600D01*
X0121933Y0116816D01*
X0122029Y0116460D01*
X0122213Y0116140D01*
X0122474Y0115880D01*
X0122793Y0115695D01*
X0122012Y0116523D02*
X0120133Y0116523D01*
X0120133Y0117321D02*
X0121933Y0117321D01*
X0121933Y0118120D02*
X0120133Y0118120D01*
X0120133Y0118918D02*
X0121933Y0118918D01*
X0121933Y0120400D02*
X0121933Y0123184D01*
X0122029Y0123540D01*
X0122213Y0123860D01*
X0122474Y0124120D01*
X0122793Y0124305D01*
X0123149Y0124400D01*
X0125933Y0124400D01*
X0125933Y0120400D01*
X0125933Y0119600D01*
X0126733Y0119600D01*
X0126733Y0115600D01*
X0129518Y0115600D01*
X0129874Y0115695D01*
X0130193Y0115880D01*
X0130454Y0116140D01*
X0130638Y0116460D01*
X0130733Y0116816D01*
X0130733Y0119600D01*
X0126733Y0119600D01*
X0126733Y0120400D01*
X0125933Y0120400D01*
X0121933Y0120400D01*
X0121933Y0120515D02*
X0120133Y0120515D01*
X0120133Y0119717D02*
X0125933Y0119717D01*
X0125933Y0120515D02*
X0126733Y0120515D01*
X0126733Y0120400D02*
X0126733Y0124400D01*
X0129518Y0124400D01*
X0129874Y0124305D01*
X0130193Y0124120D01*
X0130454Y0123860D01*
X0130638Y0123540D01*
X0130733Y0123184D01*
X0130733Y0120400D01*
X0126733Y0120400D01*
X0126733Y0119717D02*
X0144571Y0119717D01*
X0144571Y0119698D02*
X0144667Y0119341D01*
X0144851Y0119022D01*
X0145112Y0118762D01*
X0145431Y0118577D01*
X0145787Y0118482D01*
X0147946Y0118482D01*
X0147946Y0121069D01*
X0148721Y0121069D01*
X0148721Y0118482D01*
X0150880Y0118482D01*
X0151236Y0118577D01*
X0151555Y0118762D01*
X0151816Y0119022D01*
X0152000Y0119341D01*
X0152096Y0119698D01*
X0152096Y0121069D01*
X0148721Y0121069D01*
X0148721Y0121844D01*
X0152096Y0121844D01*
X0152096Y0123216D01*
X0152000Y0123572D01*
X0151816Y0123891D01*
X0151555Y0124152D01*
X0151236Y0124336D01*
X0150880Y0124431D01*
X0148721Y0124431D01*
X0148721Y0121844D01*
X0147946Y0121844D01*
X0147946Y0121069D01*
X0144571Y0121069D01*
X0144571Y0119698D01*
X0144571Y0120515D02*
X0130733Y0120515D01*
X0130733Y0121314D02*
X0147946Y0121314D01*
X0147946Y0121844D02*
X0144571Y0121844D01*
X0144571Y0123216D01*
X0144667Y0123572D01*
X0144851Y0123891D01*
X0145112Y0124152D01*
X0145431Y0124336D01*
X0145787Y0124431D01*
X0147946Y0124431D01*
X0147946Y0121844D01*
X0147946Y0122112D02*
X0148721Y0122112D01*
X0148721Y0121314D02*
X0187946Y0121314D01*
X0187946Y0121069D02*
X0184571Y0121069D01*
X0184571Y0119698D01*
X0184667Y0119341D01*
X0184851Y0119022D01*
X0185112Y0118762D01*
X0185431Y0118577D01*
X0185787Y0118482D01*
X0187946Y0118482D01*
X0187946Y0121069D01*
X0188721Y0121069D01*
X0188721Y0118482D01*
X0190880Y0118482D01*
X0191236Y0118577D01*
X0191555Y0118762D01*
X0191816Y0119022D01*
X0192000Y0119341D01*
X0192096Y0119698D01*
X0192096Y0121069D01*
X0188721Y0121069D01*
X0188721Y0121844D01*
X0192096Y0121844D01*
X0192096Y0123216D01*
X0192000Y0123572D01*
X0191816Y0123891D01*
X0191555Y0124152D01*
X0191236Y0124336D01*
X0190880Y0124431D01*
X0188721Y0124431D01*
X0188721Y0121844D01*
X0187946Y0121844D01*
X0187946Y0121069D01*
X0187946Y0120515D02*
X0188721Y0120515D01*
X0188721Y0119717D02*
X0187946Y0119717D01*
X0187946Y0118918D02*
X0188721Y0118918D01*
X0191712Y0118918D02*
X0205933Y0118918D01*
X0205933Y0119600D02*
X0205933Y0116816D01*
X0206029Y0116460D01*
X0206213Y0116140D01*
X0206474Y0115880D01*
X0206793Y0115695D01*
X0207149Y0115600D01*
X0209933Y0115600D01*
X0209933Y0119600D01*
X0205933Y0119600D01*
X0205933Y0120400D02*
X0209933Y0120400D01*
X0209933Y0119600D01*
X0210733Y0119600D01*
X0210733Y0115600D01*
X0213518Y0115600D01*
X0213874Y0115695D01*
X0214193Y0115880D01*
X0214454Y0116140D01*
X0214638Y0116460D01*
X0214733Y0116816D01*
X0214733Y0119600D01*
X0210733Y0119600D01*
X0210733Y0120400D01*
X0209933Y0120400D01*
X0209933Y0124400D01*
X0207149Y0124400D01*
X0206793Y0124305D01*
X0206474Y0124120D01*
X0206213Y0123860D01*
X0206029Y0123540D01*
X0205933Y0123184D01*
X0205933Y0120400D01*
X0205933Y0120515D02*
X0192096Y0120515D01*
X0192096Y0119717D02*
X0209933Y0119717D01*
X0209933Y0120515D02*
X0210733Y0120515D01*
X0210733Y0120400D02*
X0210733Y0124400D01*
X0213518Y0124400D01*
X0213874Y0124305D01*
X0214193Y0124120D01*
X0214454Y0123860D01*
X0214638Y0123540D01*
X0214733Y0123184D01*
X0214733Y0120400D01*
X0210733Y0120400D01*
X0210733Y0119717D02*
X0216533Y0119717D01*
X0216533Y0120515D02*
X0214733Y0120515D01*
X0214733Y0121314D02*
X0216533Y0121314D01*
X0216533Y0122112D02*
X0214733Y0122112D01*
X0214733Y0122911D02*
X0216533Y0122911D01*
X0216533Y0123709D02*
X0214540Y0123709D01*
X0213913Y0125600D02*
X0214733Y0126420D01*
X0214733Y0133580D01*
X0213913Y0134400D01*
X0206753Y0134400D01*
X0205933Y0133580D01*
X0205933Y0132400D01*
X0202856Y0132400D01*
X0201974Y0132035D01*
X0201299Y0131359D01*
X0200883Y0130943D01*
X0191850Y0130943D01*
X0191275Y0131518D01*
X0190733Y0131518D01*
X0190733Y0133477D01*
X0190368Y0134359D01*
X0188368Y0136359D01*
X0187693Y0137035D01*
X0186811Y0137400D01*
X0174851Y0137400D01*
X0174851Y0137942D01*
X0174031Y0138762D01*
X0169722Y0138762D01*
X0168902Y0137942D01*
X0168902Y0132058D01*
X0169722Y0131238D01*
X0174031Y0131238D01*
X0174851Y0132058D01*
X0174851Y0132600D01*
X0185339Y0132600D01*
X0185933Y0132006D01*
X0185933Y0131518D01*
X0185391Y0131518D01*
X0184571Y0130698D01*
X0184571Y0126389D01*
X0185391Y0125569D01*
X0191275Y0125569D01*
X0191850Y0126143D01*
X0202354Y0126143D01*
X0203236Y0126509D01*
X0204327Y0127600D01*
X0205933Y0127600D01*
X0205933Y0126420D01*
X0206753Y0125600D01*
X0213913Y0125600D01*
X0214418Y0126105D02*
X0216533Y0126105D01*
X0216533Y0126903D02*
X0214733Y0126903D01*
X0214733Y0127702D02*
X0216533Y0127702D01*
X0216533Y0128500D02*
X0214733Y0128500D01*
X0214733Y0129299D02*
X0216533Y0129299D01*
X0216533Y0130097D02*
X0214733Y0130097D01*
X0214733Y0130896D02*
X0216533Y0130896D01*
X0216533Y0131694D02*
X0214733Y0131694D01*
X0214733Y0132493D02*
X0216533Y0132493D01*
X0216533Y0133291D02*
X0214733Y0133291D01*
X0214223Y0134090D02*
X0216533Y0134090D01*
X0216533Y0134888D02*
X0189839Y0134888D01*
X0190480Y0134090D02*
X0206443Y0134090D01*
X0205933Y0133291D02*
X0190733Y0133291D01*
X0190733Y0132493D02*
X0205933Y0132493D01*
X0201634Y0131694D02*
X0190733Y0131694D01*
X0185933Y0131694D02*
X0174488Y0131694D01*
X0174851Y0132493D02*
X0185446Y0132493D01*
X0184769Y0130896D02*
X0151898Y0130896D01*
X0152096Y0130698D02*
X0151275Y0131518D01*
X0150733Y0131518D01*
X0150733Y0132006D01*
X0151327Y0132600D01*
X0161815Y0132600D01*
X0161815Y0132058D01*
X0162635Y0131238D01*
X0166945Y0131238D01*
X0167765Y0132058D01*
X0167765Y0137942D01*
X0166945Y0138762D01*
X0162635Y0138762D01*
X0161815Y0137942D01*
X0161815Y0137400D01*
X0149856Y0137400D01*
X0148974Y0137035D01*
X0148299Y0136359D01*
X0146299Y0134359D01*
X0145933Y0133477D01*
X0145933Y0131518D01*
X0145391Y0131518D01*
X0144816Y0130943D01*
X0135784Y0130943D01*
X0135368Y0131359D01*
X0134693Y0132035D01*
X0133811Y0132400D01*
X0130733Y0132400D01*
X0130733Y0133580D01*
X0129913Y0134400D01*
X0122753Y0134400D01*
X0121933Y0133580D01*
X0121933Y0126420D01*
X0122753Y0125600D01*
X0129913Y0125600D01*
X0130733Y0126420D01*
X0130733Y0127600D01*
X0132339Y0127600D01*
X0133431Y0126509D01*
X0134313Y0126143D01*
X0144816Y0126143D01*
X0145391Y0125569D01*
X0151275Y0125569D01*
X0152096Y0126389D01*
X0152096Y0130698D01*
X0152096Y0130097D02*
X0184571Y0130097D01*
X0184571Y0129299D02*
X0152096Y0129299D01*
X0152096Y0128500D02*
X0184571Y0128500D01*
X0184571Y0127702D02*
X0152096Y0127702D01*
X0152096Y0126903D02*
X0184571Y0126903D01*
X0184855Y0126105D02*
X0151812Y0126105D01*
X0151921Y0123709D02*
X0184746Y0123709D01*
X0184667Y0123572D02*
X0184571Y0123216D01*
X0184571Y0121844D01*
X0187946Y0121844D01*
X0187946Y0124431D01*
X0185787Y0124431D01*
X0185431Y0124336D01*
X0185112Y0124152D01*
X0184851Y0123891D01*
X0184667Y0123572D01*
X0184571Y0122911D02*
X0152096Y0122911D01*
X0152096Y0122112D02*
X0184571Y0122112D01*
X0184571Y0120515D02*
X0152096Y0120515D01*
X0152096Y0119717D02*
X0184571Y0119717D01*
X0184955Y0118918D02*
X0151712Y0118918D01*
X0148721Y0118918D02*
X0147946Y0118918D01*
X0147946Y0119717D02*
X0148721Y0119717D01*
X0148721Y0120515D02*
X0147946Y0120515D01*
X0144955Y0118918D02*
X0130733Y0118918D01*
X0130733Y0118120D02*
X0205933Y0118120D01*
X0205933Y0117321D02*
X0130733Y0117321D01*
X0130655Y0116523D02*
X0206012Y0116523D01*
X0206743Y0115724D02*
X0129923Y0115724D01*
X0126733Y0115724D02*
X0125933Y0115724D01*
X0125933Y0116523D02*
X0126733Y0116523D01*
X0126733Y0117321D02*
X0125933Y0117321D01*
X0125933Y0118120D02*
X0126733Y0118120D01*
X0126733Y0118918D02*
X0125933Y0118918D01*
X0125933Y0121314D02*
X0126733Y0121314D01*
X0126733Y0122112D02*
X0125933Y0122112D01*
X0125933Y0122911D02*
X0126733Y0122911D01*
X0126733Y0123709D02*
X0125933Y0123709D01*
X0122126Y0123709D02*
X0120133Y0123709D01*
X0120133Y0122911D02*
X0121933Y0122911D01*
X0121933Y0122112D02*
X0120133Y0122112D01*
X0120133Y0121314D02*
X0121933Y0121314D01*
X0120133Y0124508D02*
X0216533Y0124508D01*
X0216533Y0125306D02*
X0120133Y0125306D01*
X0120133Y0126105D02*
X0122249Y0126105D01*
X0121933Y0126903D02*
X0120133Y0126903D01*
X0120133Y0127702D02*
X0121933Y0127702D01*
X0121933Y0128500D02*
X0120133Y0128500D01*
X0120133Y0129299D02*
X0121933Y0129299D01*
X0121933Y0130097D02*
X0120133Y0130097D01*
X0120133Y0130896D02*
X0121933Y0130896D01*
X0121933Y0131694D02*
X0120133Y0131694D01*
X0120133Y0132493D02*
X0121933Y0132493D01*
X0121933Y0133291D02*
X0120133Y0133291D01*
X0120133Y0134090D02*
X0122443Y0134090D01*
X0120133Y0134888D02*
X0146828Y0134888D01*
X0146187Y0134090D02*
X0130223Y0134090D01*
X0130733Y0133291D02*
X0145933Y0133291D01*
X0145933Y0132493D02*
X0130733Y0132493D01*
X0135033Y0131694D02*
X0145933Y0131694D01*
X0147626Y0135687D02*
X0120133Y0135687D01*
X0120133Y0136485D02*
X0148425Y0136485D01*
X0149576Y0137284D02*
X0120133Y0137284D01*
X0120133Y0138082D02*
X0161956Y0138082D01*
X0167625Y0138082D02*
X0169042Y0138082D01*
X0168902Y0137284D02*
X0167765Y0137284D01*
X0167765Y0136485D02*
X0168902Y0136485D01*
X0168902Y0135687D02*
X0167765Y0135687D01*
X0167765Y0134888D02*
X0168902Y0134888D01*
X0168902Y0134090D02*
X0167765Y0134090D01*
X0167765Y0133291D02*
X0168902Y0133291D01*
X0168902Y0132493D02*
X0167765Y0132493D01*
X0167401Y0131694D02*
X0169265Y0131694D01*
X0162179Y0131694D02*
X0150733Y0131694D01*
X0151220Y0132493D02*
X0161815Y0132493D01*
X0174711Y0138082D02*
X0216533Y0138082D01*
X0216533Y0137284D02*
X0187091Y0137284D01*
X0188242Y0136485D02*
X0216533Y0136485D01*
X0216533Y0135687D02*
X0189041Y0135687D01*
X0201299Y0131359D02*
X0201299Y0131359D01*
X0203631Y0126903D02*
X0205933Y0126903D01*
X0206249Y0126105D02*
X0191812Y0126105D01*
X0191921Y0123709D02*
X0206126Y0123709D01*
X0205933Y0122911D02*
X0192096Y0122911D01*
X0192096Y0122112D02*
X0205933Y0122112D01*
X0205933Y0121314D02*
X0188721Y0121314D01*
X0188721Y0122112D02*
X0187946Y0122112D01*
X0187946Y0122911D02*
X0188721Y0122911D01*
X0188721Y0123709D02*
X0187946Y0123709D01*
X0209933Y0123709D02*
X0210733Y0123709D01*
X0210733Y0122911D02*
X0209933Y0122911D01*
X0209933Y0122112D02*
X0210733Y0122112D01*
X0210733Y0121314D02*
X0209933Y0121314D01*
X0209933Y0118918D02*
X0210733Y0118918D01*
X0210733Y0118120D02*
X0209933Y0118120D01*
X0209933Y0117321D02*
X0210733Y0117321D01*
X0210733Y0116523D02*
X0209933Y0116523D01*
X0209933Y0115724D02*
X0210733Y0115724D01*
X0213923Y0115724D02*
X0216533Y0115724D01*
X0216533Y0116523D02*
X0214655Y0116523D01*
X0214733Y0117321D02*
X0216533Y0117321D01*
X0216533Y0118120D02*
X0214733Y0118120D01*
X0214733Y0118918D02*
X0216533Y0118918D01*
X0216533Y0138881D02*
X0120133Y0138881D01*
X0120133Y0139679D02*
X0216533Y0139679D01*
X0216533Y0140478D02*
X0120133Y0140478D01*
X0120133Y0141276D02*
X0216533Y0141276D01*
X0216533Y0142075D02*
X0120133Y0142075D01*
X0120133Y0142873D02*
X0216533Y0142873D01*
X0216533Y0143672D02*
X0120133Y0143672D01*
X0120133Y0144470D02*
X0216533Y0144470D01*
X0216533Y0145269D02*
X0120133Y0145269D01*
X0120133Y0146068D02*
X0216533Y0146068D01*
X0216533Y0146866D02*
X0120133Y0146866D01*
X0120133Y0147665D02*
X0216533Y0147665D01*
X0216533Y0148463D02*
X0120133Y0148463D01*
X0120133Y0149262D02*
X0216533Y0149262D01*
X0216533Y0150060D02*
X0120133Y0150060D01*
X0120133Y0150859D02*
X0216533Y0150859D01*
X0216533Y0151657D02*
X0120133Y0151657D01*
X0120133Y0152456D02*
X0216533Y0152456D01*
X0216533Y0153254D02*
X0120133Y0153254D01*
X0120133Y0154053D02*
X0216533Y0154053D01*
X0216533Y0154851D02*
X0120133Y0154851D01*
X0120133Y0155650D02*
X0216533Y0155650D01*
X0216533Y0156448D02*
X0211444Y0156448D01*
X0213250Y0157247D02*
X0216533Y0157247D01*
X0216533Y0158045D02*
X0214202Y0158045D01*
X0215154Y0158844D02*
X0216533Y0158844D01*
X0216533Y0159642D02*
X0215748Y0159642D01*
X0216209Y0160441D02*
X0216533Y0160441D01*
X0205223Y0156448D02*
X0131444Y0156448D01*
X0133250Y0157247D02*
X0203416Y0157247D01*
X0202465Y0158045D02*
X0134202Y0158045D01*
X0135154Y0158844D02*
X0201513Y0158844D01*
X0200919Y0159642D02*
X0135748Y0159642D01*
X0136209Y0160441D02*
X0200458Y0160441D01*
X0199997Y0161239D02*
X0136670Y0161239D01*
X0137051Y0162038D02*
X0199615Y0162038D01*
X0199474Y0162836D02*
X0137192Y0162836D01*
X0137333Y0163635D02*
X0199334Y0163635D01*
X0199193Y0164433D02*
X0137474Y0164433D01*
X0137533Y0165232D02*
X0199134Y0165232D01*
X0199275Y0166030D02*
X0137392Y0166030D01*
X0137251Y0166829D02*
X0199415Y0166829D01*
X0199556Y0167627D02*
X0137110Y0167627D01*
X0136863Y0168426D02*
X0199803Y0168426D01*
X0200264Y0169224D02*
X0136402Y0169224D01*
X0135941Y0170023D02*
X0200726Y0170023D01*
X0201187Y0170821D02*
X0135480Y0170821D01*
X0134601Y0171620D02*
X0202066Y0171620D01*
X0201255Y0170940D02*
X0201255Y0170940D01*
X0203017Y0172418D02*
X0133650Y0172418D01*
X0120458Y0160441D02*
X0120133Y0160441D01*
X0120133Y0159642D02*
X0120919Y0159642D01*
X0121513Y0158844D02*
X0120133Y0158844D01*
X0120133Y0158045D02*
X0122465Y0158045D01*
X0123416Y0157247D02*
X0120133Y0157247D01*
X0120133Y0156448D02*
X0125223Y0156448D01*
X0130733Y0126903D02*
X0133036Y0126903D01*
X0130418Y0126105D02*
X0144855Y0126105D01*
X0144746Y0123709D02*
X0130540Y0123709D01*
X0130733Y0122911D02*
X0144571Y0122911D01*
X0144571Y0122112D02*
X0130733Y0122112D01*
X0147946Y0122911D02*
X0148721Y0122911D01*
X0148721Y0123709D02*
X0147946Y0123709D01*
X0213472Y0092567D02*
X0216533Y0092567D01*
X0216533Y0091769D02*
X0214424Y0091769D01*
X0215375Y0090970D02*
X0216533Y0090970D01*
X0216533Y0090172D02*
X0215855Y0090172D01*
X0216316Y0089373D02*
X0216533Y0089373D01*
M02*
