G75*
%MOIN*%
%OFA0B0*%
%FSLAX25Y25*%
%IPPOS*%
%LPD*%
%AMOC8*
5,1,8,0,0,1.08239X$1,22.5*
%
%ADD10C,0.00039*%
%ADD11C,0.00300*%
%ADD12R,0.23780X0.00157*%
%ADD13R,0.24724X0.00157*%
%ADD14R,0.25354X0.00157*%
%ADD15R,0.25984X0.00157*%
%ADD16R,0.26299X0.00157*%
%ADD17R,0.26614X0.00157*%
%ADD18R,0.06299X0.00157*%
%ADD19R,0.06929X0.00157*%
%ADD20R,0.00945X0.00157*%
%ADD21R,0.11181X0.00157*%
%ADD22R,0.06614X0.00157*%
%ADD23R,0.00630X0.00157*%
%ADD24R,0.02992X0.00157*%
%ADD25R,0.01260X0.00157*%
%ADD26R,0.00472X0.00157*%
%ADD27R,0.11339X0.00157*%
%ADD28R,0.02835X0.00157*%
%ADD29R,0.00315X0.00157*%
%ADD30R,0.01102X0.00157*%
%ADD31R,0.09449X0.00157*%
%ADD32R,0.03150X0.00157*%
%ADD33R,0.00787X0.00157*%
%ADD34R,0.09606X0.00157*%
%ADD35R,0.03307X0.00157*%
%ADD36R,0.04252X0.00157*%
%ADD37R,0.01732X0.00157*%
%ADD38R,0.01890X0.00157*%
%ADD39R,0.03937X0.00157*%
%ADD40R,0.03465X0.00157*%
%ADD41R,0.02520X0.00157*%
%ADD42R,0.00157X0.00157*%
%ADD43R,0.04409X0.00157*%
%ADD44R,0.04567X0.00157*%
%ADD45R,0.01575X0.00157*%
%ADD46R,0.02205X0.00157*%
%ADD47R,0.04094X0.00157*%
%ADD48R,0.02677X0.00157*%
%ADD49R,0.26929X0.00157*%
%ADD50R,0.07717X0.00157*%
%ADD51R,0.08661X0.00157*%
%ADD52R,0.09291X0.00157*%
%ADD53R,0.09921X0.00157*%
%ADD54R,0.10236X0.00157*%
%ADD55R,0.10551X0.00157*%
%ADD56R,0.10866X0.00157*%
%ADD57R,0.06142X0.00157*%
%ADD58R,0.03780X0.00157*%
%ADD59R,0.01417X0.00157*%
%ADD60R,0.03622X0.00157*%
%ADD61R,0.02047X0.00157*%
%ADD62R,0.08976X0.00157*%
%ADD63R,0.11496X0.00157*%
%ADD64R,0.11811X0.00157*%
%ADD65R,0.12126X0.00157*%
%ADD66R,0.07087X0.00157*%
%ADD67R,0.08031X0.00157*%
%ADD68R,0.02362X0.00157*%
%ADD69R,0.15276X0.00157*%
%ADD70R,0.11024X0.00157*%
%ADD71R,0.12441X0.00157*%
%ADD72R,0.06457X0.00157*%
%ADD73R,0.05512X0.00157*%
%ADD74R,0.05354X0.00157*%
%ADD75R,0.06772X0.00157*%
%ADD76R,0.16535X0.00157*%
%ADD77R,0.10709X0.00157*%
%ADD78R,0.07244X0.00157*%
%ADD79C,0.00800*%
D10*
X0150333Y0160018D02*
X0177967Y0160018D01*
X0186333Y0160018D01*
X0186333Y0164515D01*
X0183314Y0164515D01*
X0184631Y0162584D01*
X0183381Y0162584D01*
X0182298Y0164240D01*
X0181207Y0162584D01*
X0180001Y0162584D01*
X0181326Y0164515D01*
X0178291Y0164515D01*
X0178291Y0160943D01*
X0177967Y0160943D01*
X0177967Y0160018D01*
X0177967Y0160943D01*
X0151259Y0160943D01*
X0151259Y0169057D01*
X0178291Y0169057D01*
X0178291Y0164515D01*
X0181326Y0164515D01*
X0181686Y0165040D01*
X0180073Y0167412D01*
X0181315Y0167412D01*
X0182330Y0165846D01*
X0183353Y0167412D01*
X0184559Y0167412D01*
X0182946Y0165054D01*
X0183314Y0164515D01*
X0186333Y0164515D01*
X0186333Y0169982D01*
X0178291Y0169982D01*
X0150333Y0169982D01*
X0150333Y0160018D01*
X0150333Y0160044D02*
X0177967Y0160044D01*
X0186333Y0160044D01*
X0186333Y0160082D02*
X0177967Y0160082D01*
X0150333Y0160082D01*
X0150333Y0160120D02*
X0177967Y0160120D01*
X0186333Y0160120D01*
X0186333Y0160157D02*
X0177967Y0160157D01*
X0150333Y0160157D01*
X0150333Y0160195D02*
X0177967Y0160195D01*
X0186333Y0160195D01*
X0186333Y0160233D02*
X0177967Y0160233D01*
X0150333Y0160233D01*
X0150333Y0160271D02*
X0177967Y0160271D01*
X0186333Y0160271D01*
X0186333Y0160309D02*
X0177967Y0160309D01*
X0150333Y0160309D01*
X0150333Y0160347D02*
X0177967Y0160347D01*
X0186333Y0160347D01*
X0186333Y0160385D02*
X0177967Y0160385D01*
X0150333Y0160385D01*
X0150333Y0160423D02*
X0177967Y0160423D01*
X0186333Y0160423D01*
X0186333Y0160460D02*
X0177967Y0160460D01*
X0150333Y0160460D01*
X0150333Y0160498D02*
X0177967Y0160498D01*
X0186333Y0160498D01*
X0186333Y0160536D02*
X0177967Y0160536D01*
X0150333Y0160536D01*
X0150333Y0160574D02*
X0177967Y0160574D01*
X0186333Y0160574D01*
X0186333Y0160612D02*
X0177967Y0160612D01*
X0150333Y0160612D01*
X0150333Y0160650D02*
X0177967Y0160650D01*
X0186333Y0160650D01*
X0186333Y0160688D02*
X0177967Y0160688D01*
X0150333Y0160688D01*
X0150333Y0160726D02*
X0177967Y0160726D01*
X0186333Y0160726D01*
X0186333Y0160763D02*
X0177967Y0160763D01*
X0150333Y0160763D01*
X0150333Y0160801D02*
X0177967Y0160801D01*
X0186333Y0160801D01*
X0186333Y0160839D02*
X0177967Y0160839D01*
X0150333Y0160839D01*
X0150333Y0160877D02*
X0177967Y0160877D01*
X0186333Y0160877D01*
X0186333Y0160915D02*
X0177967Y0160915D01*
X0150333Y0160915D01*
X0150333Y0160953D02*
X0151259Y0160953D01*
X0151259Y0160991D02*
X0150333Y0160991D01*
X0150333Y0161029D02*
X0151259Y0161029D01*
X0151259Y0161067D02*
X0150333Y0161067D01*
X0150333Y0161104D02*
X0151259Y0161104D01*
X0151259Y0161142D02*
X0150333Y0161142D01*
X0150333Y0161180D02*
X0151259Y0161180D01*
X0151259Y0161218D02*
X0150333Y0161218D01*
X0150333Y0161256D02*
X0151259Y0161256D01*
X0151259Y0161294D02*
X0150333Y0161294D01*
X0150333Y0161332D02*
X0151259Y0161332D01*
X0151259Y0161370D02*
X0150333Y0161370D01*
X0150333Y0161407D02*
X0151259Y0161407D01*
X0151259Y0161445D02*
X0150333Y0161445D01*
X0150333Y0161483D02*
X0151259Y0161483D01*
X0151259Y0161521D02*
X0150333Y0161521D01*
X0150333Y0161559D02*
X0151259Y0161559D01*
X0151259Y0161597D02*
X0150333Y0161597D01*
X0150333Y0161635D02*
X0151259Y0161635D01*
X0151259Y0161673D02*
X0150333Y0161673D01*
X0150333Y0161711D02*
X0151259Y0161711D01*
X0151259Y0161748D02*
X0150333Y0161748D01*
X0150333Y0161786D02*
X0151259Y0161786D01*
X0151259Y0161824D02*
X0150333Y0161824D01*
X0150333Y0161862D02*
X0151259Y0161862D01*
X0151259Y0161900D02*
X0150333Y0161900D01*
X0150333Y0161938D02*
X0151259Y0161938D01*
X0151259Y0161976D02*
X0150333Y0161976D01*
X0150333Y0162014D02*
X0151259Y0162014D01*
X0151259Y0162051D02*
X0150333Y0162051D01*
X0150333Y0162089D02*
X0151259Y0162089D01*
X0151259Y0162127D02*
X0150333Y0162127D01*
X0150333Y0162165D02*
X0151259Y0162165D01*
X0151259Y0162203D02*
X0150333Y0162203D01*
X0150333Y0162241D02*
X0151259Y0162241D01*
X0151259Y0162279D02*
X0150333Y0162279D01*
X0150333Y0162317D02*
X0151259Y0162317D01*
X0151259Y0162355D02*
X0150333Y0162355D01*
X0150333Y0162392D02*
X0151259Y0162392D01*
X0151259Y0162430D02*
X0150333Y0162430D01*
X0150333Y0162468D02*
X0151259Y0162468D01*
X0151259Y0162506D02*
X0150333Y0162506D01*
X0150333Y0162544D02*
X0151259Y0162544D01*
X0151259Y0162582D02*
X0150333Y0162582D01*
X0150333Y0162620D02*
X0151259Y0162620D01*
X0151259Y0162658D02*
X0150333Y0162658D01*
X0150333Y0162695D02*
X0151259Y0162695D01*
X0151259Y0162733D02*
X0150333Y0162733D01*
X0150333Y0162771D02*
X0151259Y0162771D01*
X0151259Y0162809D02*
X0150333Y0162809D01*
X0150333Y0162847D02*
X0151259Y0162847D01*
X0151259Y0162885D02*
X0150333Y0162885D01*
X0150333Y0162923D02*
X0151259Y0162923D01*
X0151259Y0162961D02*
X0150333Y0162961D01*
X0150333Y0162998D02*
X0151259Y0162998D01*
X0151259Y0163036D02*
X0150333Y0163036D01*
X0150333Y0163074D02*
X0151259Y0163074D01*
X0151259Y0163112D02*
X0150333Y0163112D01*
X0150333Y0163150D02*
X0151259Y0163150D01*
X0151259Y0163188D02*
X0150333Y0163188D01*
X0150333Y0163226D02*
X0151259Y0163226D01*
X0151259Y0163264D02*
X0150333Y0163264D01*
X0150333Y0163302D02*
X0151259Y0163302D01*
X0151259Y0163339D02*
X0150333Y0163339D01*
X0150333Y0163377D02*
X0151259Y0163377D01*
X0151259Y0163415D02*
X0150333Y0163415D01*
X0150333Y0163453D02*
X0151259Y0163453D01*
X0151259Y0163491D02*
X0150333Y0163491D01*
X0150333Y0163529D02*
X0151259Y0163529D01*
X0151259Y0163567D02*
X0150333Y0163567D01*
X0150333Y0163605D02*
X0151259Y0163605D01*
X0151259Y0163642D02*
X0150333Y0163642D01*
X0150333Y0163680D02*
X0151259Y0163680D01*
X0151259Y0163718D02*
X0150333Y0163718D01*
X0150333Y0163756D02*
X0151259Y0163756D01*
X0151259Y0163794D02*
X0150333Y0163794D01*
X0150333Y0163832D02*
X0151259Y0163832D01*
X0151259Y0163870D02*
X0150333Y0163870D01*
X0150333Y0163908D02*
X0151259Y0163908D01*
X0151259Y0163946D02*
X0150333Y0163946D01*
X0150333Y0163983D02*
X0151259Y0163983D01*
X0151259Y0164021D02*
X0150333Y0164021D01*
X0150333Y0164059D02*
X0151259Y0164059D01*
X0151259Y0164097D02*
X0150333Y0164097D01*
X0150333Y0164135D02*
X0151259Y0164135D01*
X0151259Y0164173D02*
X0150333Y0164173D01*
X0150333Y0164211D02*
X0151259Y0164211D01*
X0151259Y0164249D02*
X0150333Y0164249D01*
X0150333Y0164286D02*
X0151259Y0164286D01*
X0151259Y0164324D02*
X0150333Y0164324D01*
X0150333Y0164362D02*
X0151259Y0164362D01*
X0151259Y0164400D02*
X0150333Y0164400D01*
X0150333Y0164438D02*
X0151259Y0164438D01*
X0151259Y0164476D02*
X0150333Y0164476D01*
X0150333Y0164514D02*
X0151259Y0164514D01*
X0151259Y0164552D02*
X0150333Y0164552D01*
X0150333Y0164590D02*
X0151259Y0164590D01*
X0151259Y0164627D02*
X0150333Y0164627D01*
X0150333Y0164665D02*
X0151259Y0164665D01*
X0151259Y0164703D02*
X0150333Y0164703D01*
X0150333Y0164741D02*
X0151259Y0164741D01*
X0151259Y0164779D02*
X0150333Y0164779D01*
X0150333Y0164817D02*
X0151259Y0164817D01*
X0151259Y0164855D02*
X0150333Y0164855D01*
X0150333Y0164893D02*
X0151259Y0164893D01*
X0151259Y0164930D02*
X0150333Y0164930D01*
X0150333Y0164968D02*
X0151259Y0164968D01*
X0151259Y0165006D02*
X0150333Y0165006D01*
X0150333Y0165044D02*
X0151259Y0165044D01*
X0151259Y0165082D02*
X0150333Y0165082D01*
X0150333Y0165120D02*
X0151259Y0165120D01*
X0151259Y0165158D02*
X0150333Y0165158D01*
X0150333Y0165196D02*
X0151259Y0165196D01*
X0151259Y0165233D02*
X0150333Y0165233D01*
X0150333Y0165271D02*
X0151259Y0165271D01*
X0151259Y0165309D02*
X0150333Y0165309D01*
X0150333Y0165347D02*
X0151259Y0165347D01*
X0151259Y0165385D02*
X0150333Y0165385D01*
X0150333Y0165423D02*
X0151259Y0165423D01*
X0151259Y0165461D02*
X0150333Y0165461D01*
X0150333Y0165499D02*
X0151259Y0165499D01*
X0151259Y0165537D02*
X0150333Y0165537D01*
X0150333Y0165574D02*
X0151259Y0165574D01*
X0151259Y0165612D02*
X0150333Y0165612D01*
X0150333Y0165650D02*
X0151259Y0165650D01*
X0151259Y0165688D02*
X0150333Y0165688D01*
X0150333Y0165726D02*
X0151259Y0165726D01*
X0151259Y0165764D02*
X0150333Y0165764D01*
X0150333Y0165802D02*
X0151259Y0165802D01*
X0151259Y0165840D02*
X0150333Y0165840D01*
X0150333Y0165877D02*
X0151259Y0165877D01*
X0151259Y0165915D02*
X0150333Y0165915D01*
X0150333Y0165953D02*
X0151259Y0165953D01*
X0151259Y0165991D02*
X0150333Y0165991D01*
X0150333Y0166029D02*
X0151259Y0166029D01*
X0151259Y0166067D02*
X0150333Y0166067D01*
X0150333Y0166105D02*
X0151259Y0166105D01*
X0151259Y0166143D02*
X0150333Y0166143D01*
X0150333Y0166181D02*
X0151259Y0166181D01*
X0151259Y0166218D02*
X0150333Y0166218D01*
X0150333Y0166256D02*
X0151259Y0166256D01*
X0151259Y0166294D02*
X0150333Y0166294D01*
X0150333Y0166332D02*
X0151259Y0166332D01*
X0151259Y0166370D02*
X0150333Y0166370D01*
X0150333Y0166408D02*
X0151259Y0166408D01*
X0151259Y0166446D02*
X0150333Y0166446D01*
X0150333Y0166484D02*
X0151259Y0166484D01*
X0151259Y0166521D02*
X0150333Y0166521D01*
X0150333Y0166559D02*
X0151259Y0166559D01*
X0151259Y0166597D02*
X0150333Y0166597D01*
X0150333Y0166635D02*
X0151259Y0166635D01*
X0151259Y0166673D02*
X0150333Y0166673D01*
X0150333Y0166711D02*
X0151259Y0166711D01*
X0151259Y0166749D02*
X0150333Y0166749D01*
X0150333Y0166787D02*
X0151259Y0166787D01*
X0151259Y0166825D02*
X0150333Y0166825D01*
X0150333Y0166862D02*
X0151259Y0166862D01*
X0151259Y0166900D02*
X0150333Y0166900D01*
X0150333Y0166938D02*
X0151259Y0166938D01*
X0151259Y0166976D02*
X0150333Y0166976D01*
X0150333Y0167014D02*
X0151259Y0167014D01*
X0151259Y0167052D02*
X0150333Y0167052D01*
X0150333Y0167090D02*
X0151259Y0167090D01*
X0151259Y0167128D02*
X0150333Y0167128D01*
X0150333Y0167165D02*
X0151259Y0167165D01*
X0151259Y0167203D02*
X0150333Y0167203D01*
X0150333Y0167241D02*
X0151259Y0167241D01*
X0151259Y0167279D02*
X0150333Y0167279D01*
X0150333Y0167317D02*
X0151259Y0167317D01*
X0151259Y0167355D02*
X0150333Y0167355D01*
X0150333Y0167393D02*
X0151259Y0167393D01*
X0151259Y0167431D02*
X0150333Y0167431D01*
X0150333Y0167468D02*
X0151259Y0167468D01*
X0151259Y0167506D02*
X0150333Y0167506D01*
X0150333Y0167544D02*
X0151259Y0167544D01*
X0151259Y0167582D02*
X0150333Y0167582D01*
X0150333Y0167620D02*
X0151259Y0167620D01*
X0151259Y0167658D02*
X0150333Y0167658D01*
X0150333Y0167696D02*
X0151259Y0167696D01*
X0151259Y0167734D02*
X0150333Y0167734D01*
X0150333Y0167772D02*
X0151259Y0167772D01*
X0151259Y0167809D02*
X0150333Y0167809D01*
X0150333Y0167847D02*
X0151259Y0167847D01*
X0151259Y0167885D02*
X0150333Y0167885D01*
X0150333Y0167923D02*
X0151259Y0167923D01*
X0151259Y0167961D02*
X0150333Y0167961D01*
X0150333Y0167999D02*
X0151259Y0167999D01*
X0151259Y0168037D02*
X0150333Y0168037D01*
X0150333Y0168075D02*
X0151259Y0168075D01*
X0151259Y0168112D02*
X0150333Y0168112D01*
X0150333Y0168150D02*
X0151259Y0168150D01*
X0151259Y0168188D02*
X0150333Y0168188D01*
X0150333Y0168226D02*
X0151259Y0168226D01*
X0151259Y0168264D02*
X0150333Y0168264D01*
X0150333Y0168302D02*
X0151259Y0168302D01*
X0151259Y0168340D02*
X0150333Y0168340D01*
X0150333Y0168378D02*
X0151259Y0168378D01*
X0151259Y0168416D02*
X0150333Y0168416D01*
X0150333Y0168453D02*
X0151259Y0168453D01*
X0151259Y0168491D02*
X0150333Y0168491D01*
X0150333Y0168529D02*
X0151259Y0168529D01*
X0151259Y0168567D02*
X0150333Y0168567D01*
X0150333Y0168605D02*
X0151259Y0168605D01*
X0151259Y0168643D02*
X0150333Y0168643D01*
X0150333Y0168681D02*
X0151259Y0168681D01*
X0151259Y0168719D02*
X0150333Y0168719D01*
X0150333Y0168756D02*
X0151259Y0168756D01*
X0151259Y0168794D02*
X0150333Y0168794D01*
X0150333Y0168832D02*
X0151259Y0168832D01*
X0151259Y0168870D02*
X0150333Y0168870D01*
X0150333Y0168908D02*
X0151259Y0168908D01*
X0151259Y0168946D02*
X0150333Y0168946D01*
X0150333Y0168984D02*
X0151259Y0168984D01*
X0151259Y0169022D02*
X0150333Y0169022D01*
X0150333Y0169060D02*
X0186333Y0169060D01*
X0186333Y0169097D02*
X0150333Y0169097D01*
X0150333Y0169135D02*
X0186333Y0169135D01*
X0186333Y0169173D02*
X0150333Y0169173D01*
X0150333Y0169211D02*
X0186333Y0169211D01*
X0186333Y0169249D02*
X0150333Y0169249D01*
X0150333Y0169287D02*
X0186333Y0169287D01*
X0186333Y0169325D02*
X0150333Y0169325D01*
X0150333Y0169363D02*
X0186333Y0169363D01*
X0186333Y0169400D02*
X0150333Y0169400D01*
X0150333Y0169438D02*
X0186333Y0169438D01*
X0186333Y0169476D02*
X0150333Y0169476D01*
X0150333Y0169514D02*
X0186333Y0169514D01*
X0186333Y0169552D02*
X0150333Y0169552D01*
X0150333Y0169590D02*
X0186333Y0169590D01*
X0186333Y0169628D02*
X0150333Y0169628D01*
X0150333Y0169666D02*
X0186333Y0169666D01*
X0186333Y0169703D02*
X0150333Y0169703D01*
X0150333Y0169741D02*
X0186333Y0169741D01*
X0186333Y0169779D02*
X0150333Y0169779D01*
X0150333Y0169817D02*
X0186333Y0169817D01*
X0186333Y0169855D02*
X0150333Y0169855D01*
X0150333Y0169893D02*
X0186333Y0169893D01*
X0186333Y0169931D02*
X0150333Y0169931D01*
X0150333Y0169969D02*
X0186333Y0169969D01*
X0186333Y0169022D02*
X0178291Y0169022D01*
X0178291Y0168984D02*
X0186333Y0168984D01*
X0186333Y0168946D02*
X0178291Y0168946D01*
X0178291Y0168908D02*
X0186333Y0168908D01*
X0186333Y0168870D02*
X0178291Y0168870D01*
X0178291Y0168832D02*
X0186333Y0168832D01*
X0186333Y0168794D02*
X0178291Y0168794D01*
X0178291Y0168756D02*
X0186333Y0168756D01*
X0186333Y0168719D02*
X0178291Y0168719D01*
X0178291Y0168681D02*
X0186333Y0168681D01*
X0186333Y0168643D02*
X0178291Y0168643D01*
X0178291Y0168605D02*
X0186333Y0168605D01*
X0186333Y0168567D02*
X0178291Y0168567D01*
X0178291Y0168529D02*
X0186333Y0168529D01*
X0186333Y0168491D02*
X0178291Y0168491D01*
X0178291Y0168453D02*
X0186333Y0168453D01*
X0186333Y0168416D02*
X0178291Y0168416D01*
X0178291Y0168378D02*
X0186333Y0168378D01*
X0186333Y0168340D02*
X0178291Y0168340D01*
X0178291Y0168302D02*
X0186333Y0168302D01*
X0186333Y0168264D02*
X0178291Y0168264D01*
X0178291Y0168226D02*
X0186333Y0168226D01*
X0186333Y0168188D02*
X0178291Y0168188D01*
X0178291Y0168150D02*
X0186333Y0168150D01*
X0186333Y0168112D02*
X0178291Y0168112D01*
X0178291Y0168075D02*
X0186333Y0168075D01*
X0186333Y0168037D02*
X0178291Y0168037D01*
X0178291Y0167999D02*
X0186333Y0167999D01*
X0186333Y0167961D02*
X0178291Y0167961D01*
X0178291Y0167923D02*
X0186333Y0167923D01*
X0186333Y0167885D02*
X0178291Y0167885D01*
X0178291Y0167847D02*
X0186333Y0167847D01*
X0186333Y0167809D02*
X0178291Y0167809D01*
X0178291Y0167772D02*
X0186333Y0167772D01*
X0186333Y0167734D02*
X0178291Y0167734D01*
X0178291Y0167696D02*
X0186333Y0167696D01*
X0186333Y0167658D02*
X0178291Y0167658D01*
X0178291Y0167620D02*
X0186333Y0167620D01*
X0186333Y0167582D02*
X0178291Y0167582D01*
X0178291Y0167544D02*
X0186333Y0167544D01*
X0186333Y0167506D02*
X0178291Y0167506D01*
X0178291Y0167468D02*
X0186333Y0167468D01*
X0186333Y0167431D02*
X0178291Y0167431D01*
X0178291Y0167393D02*
X0180086Y0167393D01*
X0180112Y0167355D02*
X0178291Y0167355D01*
X0178291Y0167317D02*
X0180138Y0167317D01*
X0180163Y0167279D02*
X0178291Y0167279D01*
X0178291Y0167241D02*
X0180189Y0167241D01*
X0180215Y0167203D02*
X0178291Y0167203D01*
X0178291Y0167165D02*
X0180241Y0167165D01*
X0180266Y0167128D02*
X0178291Y0167128D01*
X0178291Y0167090D02*
X0180292Y0167090D01*
X0180318Y0167052D02*
X0178291Y0167052D01*
X0178291Y0167014D02*
X0180344Y0167014D01*
X0180369Y0166976D02*
X0178291Y0166976D01*
X0178291Y0166938D02*
X0180395Y0166938D01*
X0180421Y0166900D02*
X0178291Y0166900D01*
X0178291Y0166862D02*
X0180447Y0166862D01*
X0180472Y0166825D02*
X0178291Y0166825D01*
X0178291Y0166787D02*
X0180498Y0166787D01*
X0180524Y0166749D02*
X0178291Y0166749D01*
X0178291Y0166711D02*
X0180550Y0166711D01*
X0180575Y0166673D02*
X0178291Y0166673D01*
X0178291Y0166635D02*
X0180601Y0166635D01*
X0180627Y0166597D02*
X0178291Y0166597D01*
X0178291Y0166559D02*
X0180653Y0166559D01*
X0180678Y0166521D02*
X0178291Y0166521D01*
X0178291Y0166484D02*
X0180704Y0166484D01*
X0180730Y0166446D02*
X0178291Y0166446D01*
X0178291Y0166408D02*
X0180756Y0166408D01*
X0180781Y0166370D02*
X0178291Y0166370D01*
X0178291Y0166332D02*
X0180807Y0166332D01*
X0180833Y0166294D02*
X0178291Y0166294D01*
X0178291Y0166256D02*
X0180859Y0166256D01*
X0180884Y0166218D02*
X0178291Y0166218D01*
X0178291Y0166181D02*
X0180910Y0166181D01*
X0180936Y0166143D02*
X0178291Y0166143D01*
X0178291Y0166105D02*
X0180962Y0166105D01*
X0180987Y0166067D02*
X0178291Y0166067D01*
X0178291Y0166029D02*
X0181013Y0166029D01*
X0181039Y0165991D02*
X0178291Y0165991D01*
X0178291Y0165953D02*
X0181065Y0165953D01*
X0181090Y0165915D02*
X0178291Y0165915D01*
X0178291Y0165877D02*
X0181116Y0165877D01*
X0181142Y0165840D02*
X0178291Y0165840D01*
X0178291Y0165802D02*
X0181168Y0165802D01*
X0181193Y0165764D02*
X0178291Y0165764D01*
X0178291Y0165726D02*
X0181219Y0165726D01*
X0181245Y0165688D02*
X0178291Y0165688D01*
X0178291Y0165650D02*
X0181271Y0165650D01*
X0181296Y0165612D02*
X0178291Y0165612D01*
X0178291Y0165574D02*
X0181322Y0165574D01*
X0181348Y0165537D02*
X0178291Y0165537D01*
X0178291Y0165499D02*
X0181374Y0165499D01*
X0181399Y0165461D02*
X0178291Y0165461D01*
X0178291Y0165423D02*
X0181425Y0165423D01*
X0181451Y0165385D02*
X0178291Y0165385D01*
X0178291Y0165347D02*
X0181477Y0165347D01*
X0181502Y0165309D02*
X0178291Y0165309D01*
X0178291Y0165271D02*
X0181528Y0165271D01*
X0181554Y0165233D02*
X0178291Y0165233D01*
X0178291Y0165196D02*
X0181580Y0165196D01*
X0181605Y0165158D02*
X0178291Y0165158D01*
X0178291Y0165120D02*
X0181631Y0165120D01*
X0181657Y0165082D02*
X0178291Y0165082D01*
X0178291Y0165044D02*
X0181683Y0165044D01*
X0181663Y0165006D02*
X0178291Y0165006D01*
X0178291Y0164968D02*
X0181637Y0164968D01*
X0181611Y0164930D02*
X0178291Y0164930D01*
X0178291Y0164893D02*
X0181585Y0164893D01*
X0181559Y0164855D02*
X0178291Y0164855D01*
X0178291Y0164817D02*
X0181533Y0164817D01*
X0181507Y0164779D02*
X0178291Y0164779D01*
X0178291Y0164741D02*
X0181481Y0164741D01*
X0181455Y0164703D02*
X0178291Y0164703D01*
X0178291Y0164665D02*
X0181429Y0164665D01*
X0181403Y0164627D02*
X0178291Y0164627D01*
X0178291Y0164590D02*
X0181377Y0164590D01*
X0181351Y0164552D02*
X0178291Y0164552D01*
X0178291Y0164514D02*
X0181325Y0164514D01*
X0181299Y0164476D02*
X0178291Y0164476D01*
X0178291Y0164438D02*
X0181273Y0164438D01*
X0181247Y0164400D02*
X0178291Y0164400D01*
X0178291Y0164362D02*
X0181221Y0164362D01*
X0181195Y0164324D02*
X0178291Y0164324D01*
X0178291Y0164286D02*
X0181169Y0164286D01*
X0181143Y0164249D02*
X0178291Y0164249D01*
X0178291Y0164211D02*
X0181117Y0164211D01*
X0181091Y0164173D02*
X0178291Y0164173D01*
X0178291Y0164135D02*
X0181065Y0164135D01*
X0181039Y0164097D02*
X0178291Y0164097D01*
X0178291Y0164059D02*
X0181013Y0164059D01*
X0180987Y0164021D02*
X0178291Y0164021D01*
X0178291Y0163983D02*
X0180961Y0163983D01*
X0180935Y0163946D02*
X0178291Y0163946D01*
X0178291Y0163908D02*
X0180909Y0163908D01*
X0180883Y0163870D02*
X0178291Y0163870D01*
X0178291Y0163832D02*
X0180857Y0163832D01*
X0180831Y0163794D02*
X0178291Y0163794D01*
X0178291Y0163756D02*
X0180805Y0163756D01*
X0180779Y0163718D02*
X0178291Y0163718D01*
X0178291Y0163680D02*
X0180753Y0163680D01*
X0180727Y0163642D02*
X0178291Y0163642D01*
X0178291Y0163605D02*
X0180701Y0163605D01*
X0180675Y0163567D02*
X0178291Y0163567D01*
X0178291Y0163529D02*
X0180649Y0163529D01*
X0180623Y0163491D02*
X0178291Y0163491D01*
X0178291Y0163453D02*
X0180597Y0163453D01*
X0180571Y0163415D02*
X0178291Y0163415D01*
X0178291Y0163377D02*
X0180545Y0163377D01*
X0180519Y0163339D02*
X0178291Y0163339D01*
X0178291Y0163302D02*
X0180493Y0163302D01*
X0180467Y0163264D02*
X0178291Y0163264D01*
X0178291Y0163226D02*
X0180441Y0163226D01*
X0180415Y0163188D02*
X0178291Y0163188D01*
X0178291Y0163150D02*
X0180389Y0163150D01*
X0180363Y0163112D02*
X0178291Y0163112D01*
X0178291Y0163074D02*
X0180337Y0163074D01*
X0180311Y0163036D02*
X0178291Y0163036D01*
X0178291Y0162998D02*
X0180285Y0162998D01*
X0180259Y0162961D02*
X0178291Y0162961D01*
X0178291Y0162923D02*
X0180233Y0162923D01*
X0180207Y0162885D02*
X0178291Y0162885D01*
X0178291Y0162847D02*
X0180181Y0162847D01*
X0180155Y0162809D02*
X0178291Y0162809D01*
X0178291Y0162771D02*
X0180129Y0162771D01*
X0180103Y0162733D02*
X0178291Y0162733D01*
X0178291Y0162695D02*
X0180077Y0162695D01*
X0180051Y0162658D02*
X0178291Y0162658D01*
X0178291Y0162620D02*
X0180025Y0162620D01*
X0181230Y0162620D02*
X0183358Y0162620D01*
X0183333Y0162658D02*
X0181255Y0162658D01*
X0181280Y0162695D02*
X0183309Y0162695D01*
X0183284Y0162733D02*
X0181305Y0162733D01*
X0181330Y0162771D02*
X0183259Y0162771D01*
X0183234Y0162809D02*
X0181355Y0162809D01*
X0181380Y0162847D02*
X0183210Y0162847D01*
X0183185Y0162885D02*
X0181405Y0162885D01*
X0181430Y0162923D02*
X0183160Y0162923D01*
X0183135Y0162961D02*
X0181455Y0162961D01*
X0181480Y0162998D02*
X0183110Y0162998D01*
X0183086Y0163036D02*
X0181505Y0163036D01*
X0181530Y0163074D02*
X0183061Y0163074D01*
X0183036Y0163112D02*
X0181555Y0163112D01*
X0181580Y0163150D02*
X0183011Y0163150D01*
X0182986Y0163188D02*
X0181604Y0163188D01*
X0181629Y0163226D02*
X0182962Y0163226D01*
X0182937Y0163264D02*
X0181654Y0163264D01*
X0181679Y0163302D02*
X0182912Y0163302D01*
X0182887Y0163339D02*
X0181704Y0163339D01*
X0181729Y0163377D02*
X0182862Y0163377D01*
X0182838Y0163415D02*
X0181754Y0163415D01*
X0181779Y0163453D02*
X0182813Y0163453D01*
X0182788Y0163491D02*
X0181804Y0163491D01*
X0181829Y0163529D02*
X0182763Y0163529D01*
X0182739Y0163567D02*
X0181854Y0163567D01*
X0181879Y0163605D02*
X0182714Y0163605D01*
X0182689Y0163642D02*
X0181904Y0163642D01*
X0181929Y0163680D02*
X0182664Y0163680D01*
X0182639Y0163718D02*
X0181954Y0163718D01*
X0181979Y0163756D02*
X0182615Y0163756D01*
X0182590Y0163794D02*
X0182004Y0163794D01*
X0182029Y0163832D02*
X0182565Y0163832D01*
X0182540Y0163870D02*
X0182054Y0163870D01*
X0182079Y0163908D02*
X0182515Y0163908D01*
X0182491Y0163946D02*
X0182103Y0163946D01*
X0182128Y0163983D02*
X0182466Y0163983D01*
X0182441Y0164021D02*
X0182153Y0164021D01*
X0182178Y0164059D02*
X0182416Y0164059D01*
X0182392Y0164097D02*
X0182203Y0164097D01*
X0182228Y0164135D02*
X0182367Y0164135D01*
X0182342Y0164173D02*
X0182253Y0164173D01*
X0182278Y0164211D02*
X0182317Y0164211D01*
X0183133Y0164779D02*
X0186333Y0164779D01*
X0186333Y0164817D02*
X0183108Y0164817D01*
X0183082Y0164855D02*
X0186333Y0164855D01*
X0186333Y0164893D02*
X0183056Y0164893D01*
X0183030Y0164930D02*
X0186333Y0164930D01*
X0186333Y0164968D02*
X0183004Y0164968D01*
X0182978Y0165006D02*
X0186333Y0165006D01*
X0186333Y0165044D02*
X0182952Y0165044D01*
X0182965Y0165082D02*
X0186333Y0165082D01*
X0186333Y0165120D02*
X0182991Y0165120D01*
X0183017Y0165158D02*
X0186333Y0165158D01*
X0186333Y0165196D02*
X0183043Y0165196D01*
X0183069Y0165233D02*
X0186333Y0165233D01*
X0186333Y0165271D02*
X0183094Y0165271D01*
X0183120Y0165309D02*
X0186333Y0165309D01*
X0186333Y0165347D02*
X0183146Y0165347D01*
X0183172Y0165385D02*
X0186333Y0165385D01*
X0186333Y0165423D02*
X0183198Y0165423D01*
X0183224Y0165461D02*
X0186333Y0165461D01*
X0186333Y0165499D02*
X0183250Y0165499D01*
X0183276Y0165537D02*
X0186333Y0165537D01*
X0186333Y0165574D02*
X0183302Y0165574D01*
X0183328Y0165612D02*
X0186333Y0165612D01*
X0186333Y0165650D02*
X0183354Y0165650D01*
X0183379Y0165688D02*
X0186333Y0165688D01*
X0186333Y0165726D02*
X0183405Y0165726D01*
X0183431Y0165764D02*
X0186333Y0165764D01*
X0186333Y0165802D02*
X0183457Y0165802D01*
X0183483Y0165840D02*
X0186333Y0165840D01*
X0186333Y0165877D02*
X0183509Y0165877D01*
X0183535Y0165915D02*
X0186333Y0165915D01*
X0186333Y0165953D02*
X0183561Y0165953D01*
X0183587Y0165991D02*
X0186333Y0165991D01*
X0186333Y0166029D02*
X0183613Y0166029D01*
X0183639Y0166067D02*
X0186333Y0166067D01*
X0186333Y0166105D02*
X0183664Y0166105D01*
X0183690Y0166143D02*
X0186333Y0166143D01*
X0186333Y0166181D02*
X0183716Y0166181D01*
X0183742Y0166218D02*
X0186333Y0166218D01*
X0186333Y0166256D02*
X0183768Y0166256D01*
X0183794Y0166294D02*
X0186333Y0166294D01*
X0186333Y0166332D02*
X0183820Y0166332D01*
X0183846Y0166370D02*
X0186333Y0166370D01*
X0186333Y0166408D02*
X0183872Y0166408D01*
X0183898Y0166446D02*
X0186333Y0166446D01*
X0186333Y0166484D02*
X0183924Y0166484D01*
X0183949Y0166521D02*
X0186333Y0166521D01*
X0186333Y0166559D02*
X0183975Y0166559D01*
X0184001Y0166597D02*
X0186333Y0166597D01*
X0186333Y0166635D02*
X0184027Y0166635D01*
X0184053Y0166673D02*
X0186333Y0166673D01*
X0186333Y0166711D02*
X0184079Y0166711D01*
X0184105Y0166749D02*
X0186333Y0166749D01*
X0186333Y0166787D02*
X0184131Y0166787D01*
X0184157Y0166825D02*
X0186333Y0166825D01*
X0186333Y0166862D02*
X0184183Y0166862D01*
X0184209Y0166900D02*
X0186333Y0166900D01*
X0186333Y0166938D02*
X0184234Y0166938D01*
X0184260Y0166976D02*
X0186333Y0166976D01*
X0186333Y0167014D02*
X0184286Y0167014D01*
X0184312Y0167052D02*
X0186333Y0167052D01*
X0186333Y0167090D02*
X0184338Y0167090D01*
X0184364Y0167128D02*
X0186333Y0167128D01*
X0186333Y0167165D02*
X0184390Y0167165D01*
X0184416Y0167203D02*
X0186333Y0167203D01*
X0186333Y0167241D02*
X0184442Y0167241D01*
X0184468Y0167279D02*
X0186333Y0167279D01*
X0186333Y0167317D02*
X0184494Y0167317D01*
X0184519Y0167355D02*
X0186333Y0167355D01*
X0186333Y0167393D02*
X0184545Y0167393D01*
X0183340Y0167393D02*
X0181327Y0167393D01*
X0181352Y0167355D02*
X0183315Y0167355D01*
X0183290Y0167317D02*
X0181377Y0167317D01*
X0181401Y0167279D02*
X0183266Y0167279D01*
X0183241Y0167241D02*
X0181426Y0167241D01*
X0181450Y0167203D02*
X0183216Y0167203D01*
X0183192Y0167165D02*
X0181475Y0167165D01*
X0181499Y0167128D02*
X0183167Y0167128D01*
X0183142Y0167090D02*
X0181524Y0167090D01*
X0181548Y0167052D02*
X0183117Y0167052D01*
X0183093Y0167014D02*
X0181573Y0167014D01*
X0181598Y0166976D02*
X0183068Y0166976D01*
X0183043Y0166938D02*
X0181622Y0166938D01*
X0181647Y0166900D02*
X0183018Y0166900D01*
X0182994Y0166862D02*
X0181671Y0166862D01*
X0181696Y0166825D02*
X0182969Y0166825D01*
X0182944Y0166787D02*
X0181720Y0166787D01*
X0181745Y0166749D02*
X0182920Y0166749D01*
X0182895Y0166711D02*
X0181769Y0166711D01*
X0181794Y0166673D02*
X0182870Y0166673D01*
X0182845Y0166635D02*
X0181819Y0166635D01*
X0181843Y0166597D02*
X0182821Y0166597D01*
X0182796Y0166559D02*
X0181868Y0166559D01*
X0181892Y0166521D02*
X0182771Y0166521D01*
X0182746Y0166484D02*
X0181917Y0166484D01*
X0181941Y0166446D02*
X0182722Y0166446D01*
X0182697Y0166408D02*
X0181966Y0166408D01*
X0181990Y0166370D02*
X0182672Y0166370D01*
X0182647Y0166332D02*
X0182015Y0166332D01*
X0182040Y0166294D02*
X0182623Y0166294D01*
X0182598Y0166256D02*
X0182064Y0166256D01*
X0182089Y0166218D02*
X0182573Y0166218D01*
X0182549Y0166181D02*
X0182113Y0166181D01*
X0182138Y0166143D02*
X0182524Y0166143D01*
X0182499Y0166105D02*
X0182162Y0166105D01*
X0182187Y0166067D02*
X0182474Y0166067D01*
X0182450Y0166029D02*
X0182211Y0166029D01*
X0182236Y0165991D02*
X0182425Y0165991D01*
X0182400Y0165953D02*
X0182261Y0165953D01*
X0182285Y0165915D02*
X0182375Y0165915D01*
X0182351Y0165877D02*
X0182310Y0165877D01*
X0183159Y0164741D02*
X0186333Y0164741D01*
X0186333Y0164703D02*
X0183185Y0164703D01*
X0183211Y0164665D02*
X0186333Y0164665D01*
X0186333Y0164627D02*
X0183237Y0164627D01*
X0183263Y0164590D02*
X0186333Y0164590D01*
X0186333Y0164552D02*
X0183289Y0164552D01*
X0183314Y0164514D02*
X0186333Y0164514D01*
X0186333Y0164476D02*
X0183340Y0164476D01*
X0183366Y0164438D02*
X0186333Y0164438D01*
X0186333Y0164400D02*
X0183392Y0164400D01*
X0183418Y0164362D02*
X0186333Y0164362D01*
X0186333Y0164324D02*
X0183444Y0164324D01*
X0183469Y0164286D02*
X0186333Y0164286D01*
X0186333Y0164249D02*
X0183495Y0164249D01*
X0183521Y0164211D02*
X0186333Y0164211D01*
X0186333Y0164173D02*
X0183547Y0164173D01*
X0183573Y0164135D02*
X0186333Y0164135D01*
X0186333Y0164097D02*
X0183599Y0164097D01*
X0183625Y0164059D02*
X0186333Y0164059D01*
X0186333Y0164021D02*
X0183650Y0164021D01*
X0183676Y0163983D02*
X0186333Y0163983D01*
X0186333Y0163946D02*
X0183702Y0163946D01*
X0183728Y0163908D02*
X0186333Y0163908D01*
X0186333Y0163870D02*
X0183754Y0163870D01*
X0183780Y0163832D02*
X0186333Y0163832D01*
X0186333Y0163794D02*
X0183805Y0163794D01*
X0183831Y0163756D02*
X0186333Y0163756D01*
X0186333Y0163718D02*
X0183857Y0163718D01*
X0183883Y0163680D02*
X0186333Y0163680D01*
X0186333Y0163642D02*
X0183909Y0163642D01*
X0183935Y0163605D02*
X0186333Y0163605D01*
X0186333Y0163567D02*
X0183960Y0163567D01*
X0183986Y0163529D02*
X0186333Y0163529D01*
X0186333Y0163491D02*
X0184012Y0163491D01*
X0184038Y0163453D02*
X0186333Y0163453D01*
X0186333Y0163415D02*
X0184064Y0163415D01*
X0184090Y0163377D02*
X0186333Y0163377D01*
X0186333Y0163339D02*
X0184115Y0163339D01*
X0184141Y0163302D02*
X0186333Y0163302D01*
X0186333Y0163264D02*
X0184167Y0163264D01*
X0184193Y0163226D02*
X0186333Y0163226D01*
X0186333Y0163188D02*
X0184219Y0163188D01*
X0184245Y0163150D02*
X0186333Y0163150D01*
X0186333Y0163112D02*
X0184271Y0163112D01*
X0184296Y0163074D02*
X0186333Y0163074D01*
X0186333Y0163036D02*
X0184322Y0163036D01*
X0184348Y0162998D02*
X0186333Y0162998D01*
X0186333Y0162961D02*
X0184374Y0162961D01*
X0184400Y0162923D02*
X0186333Y0162923D01*
X0186333Y0162885D02*
X0184426Y0162885D01*
X0184451Y0162847D02*
X0186333Y0162847D01*
X0186333Y0162809D02*
X0184477Y0162809D01*
X0184503Y0162771D02*
X0186333Y0162771D01*
X0186333Y0162733D02*
X0184529Y0162733D01*
X0184555Y0162695D02*
X0186333Y0162695D01*
X0186333Y0162658D02*
X0184581Y0162658D01*
X0184606Y0162620D02*
X0186333Y0162620D01*
X0186333Y0162582D02*
X0178291Y0162582D01*
X0178291Y0162544D02*
X0186333Y0162544D01*
X0186333Y0162506D02*
X0178291Y0162506D01*
X0178291Y0162468D02*
X0186333Y0162468D01*
X0186333Y0162430D02*
X0178291Y0162430D01*
X0178291Y0162392D02*
X0186333Y0162392D01*
X0186333Y0162355D02*
X0178291Y0162355D01*
X0178291Y0162317D02*
X0186333Y0162317D01*
X0186333Y0162279D02*
X0178291Y0162279D01*
X0178291Y0162241D02*
X0186333Y0162241D01*
X0186333Y0162203D02*
X0178291Y0162203D01*
X0178291Y0162165D02*
X0186333Y0162165D01*
X0186333Y0162127D02*
X0178291Y0162127D01*
X0178291Y0162089D02*
X0186333Y0162089D01*
X0186333Y0162051D02*
X0178291Y0162051D01*
X0178291Y0162014D02*
X0186333Y0162014D01*
X0186333Y0161976D02*
X0178291Y0161976D01*
X0178291Y0161938D02*
X0186333Y0161938D01*
X0186333Y0161900D02*
X0178291Y0161900D01*
X0178291Y0161862D02*
X0186333Y0161862D01*
X0186333Y0161824D02*
X0178291Y0161824D01*
X0178291Y0161786D02*
X0186333Y0161786D01*
X0186333Y0161748D02*
X0178291Y0161748D01*
X0178291Y0161711D02*
X0186333Y0161711D01*
X0186333Y0161673D02*
X0178291Y0161673D01*
X0178291Y0161635D02*
X0186333Y0161635D01*
X0186333Y0161597D02*
X0178291Y0161597D01*
X0178291Y0161559D02*
X0186333Y0161559D01*
X0186333Y0161521D02*
X0178291Y0161521D01*
X0178291Y0161483D02*
X0186333Y0161483D01*
X0186333Y0161445D02*
X0178291Y0161445D01*
X0178291Y0161407D02*
X0186333Y0161407D01*
X0186333Y0161370D02*
X0178291Y0161370D01*
X0178291Y0161332D02*
X0186333Y0161332D01*
X0186333Y0161294D02*
X0178291Y0161294D01*
X0178291Y0161256D02*
X0186333Y0161256D01*
X0186333Y0161218D02*
X0178291Y0161218D01*
X0178291Y0161180D02*
X0186333Y0161180D01*
X0186333Y0161142D02*
X0178291Y0161142D01*
X0178291Y0161104D02*
X0186333Y0161104D01*
X0186333Y0161067D02*
X0178291Y0161067D01*
X0178291Y0161029D02*
X0186333Y0161029D01*
X0186333Y0160991D02*
X0178291Y0160991D01*
X0178291Y0160953D02*
X0186333Y0160953D01*
X0176937Y0162584D02*
X0174882Y0165364D01*
X0175669Y0166184D01*
X0174425Y0166184D01*
X0175566Y0167412D01*
X0176847Y0167412D01*
X0175669Y0166184D01*
X0174425Y0166184D01*
X0173607Y0165302D01*
X0173607Y0166184D01*
X0172545Y0166184D01*
X0172545Y0167412D01*
X0173607Y0167412D01*
X0173607Y0166184D01*
X0172545Y0166184D01*
X0172545Y0162584D01*
X0173607Y0162584D01*
X0173607Y0164060D01*
X0174165Y0164640D01*
X0175663Y0162584D01*
X0176937Y0162584D01*
X0176911Y0162620D02*
X0175637Y0162620D01*
X0175610Y0162658D02*
X0176883Y0162658D01*
X0176855Y0162695D02*
X0175582Y0162695D01*
X0175554Y0162733D02*
X0176827Y0162733D01*
X0176799Y0162771D02*
X0175527Y0162771D01*
X0175499Y0162809D02*
X0176771Y0162809D01*
X0176743Y0162847D02*
X0175472Y0162847D01*
X0175444Y0162885D02*
X0176715Y0162885D01*
X0176687Y0162923D02*
X0175416Y0162923D01*
X0175389Y0162961D02*
X0176659Y0162961D01*
X0176631Y0162998D02*
X0175361Y0162998D01*
X0175334Y0163036D02*
X0176603Y0163036D01*
X0176575Y0163074D02*
X0175306Y0163074D01*
X0175278Y0163112D02*
X0176547Y0163112D01*
X0176519Y0163150D02*
X0175251Y0163150D01*
X0175223Y0163188D02*
X0176491Y0163188D01*
X0176463Y0163226D02*
X0175196Y0163226D01*
X0175168Y0163264D02*
X0176435Y0163264D01*
X0176407Y0163302D02*
X0175140Y0163302D01*
X0175113Y0163339D02*
X0176379Y0163339D01*
X0176351Y0163377D02*
X0175085Y0163377D01*
X0175058Y0163415D02*
X0176323Y0163415D01*
X0176295Y0163453D02*
X0175030Y0163453D01*
X0175002Y0163491D02*
X0176267Y0163491D01*
X0176239Y0163529D02*
X0174975Y0163529D01*
X0174947Y0163567D02*
X0176211Y0163567D01*
X0176183Y0163605D02*
X0174920Y0163605D01*
X0174892Y0163642D02*
X0176155Y0163642D01*
X0176127Y0163680D02*
X0174864Y0163680D01*
X0174837Y0163718D02*
X0176099Y0163718D01*
X0176071Y0163756D02*
X0174809Y0163756D01*
X0174782Y0163794D02*
X0176043Y0163794D01*
X0176015Y0163832D02*
X0174754Y0163832D01*
X0174726Y0163870D02*
X0175987Y0163870D01*
X0175959Y0163908D02*
X0174699Y0163908D01*
X0174671Y0163946D02*
X0175931Y0163946D01*
X0175903Y0163983D02*
X0174644Y0163983D01*
X0174616Y0164021D02*
X0175875Y0164021D01*
X0175847Y0164059D02*
X0174588Y0164059D01*
X0174561Y0164097D02*
X0175819Y0164097D01*
X0175791Y0164135D02*
X0174533Y0164135D01*
X0174506Y0164173D02*
X0175762Y0164173D01*
X0175734Y0164211D02*
X0174478Y0164211D01*
X0174450Y0164249D02*
X0175706Y0164249D01*
X0175678Y0164286D02*
X0174423Y0164286D01*
X0174395Y0164324D02*
X0175650Y0164324D01*
X0175622Y0164362D02*
X0174368Y0164362D01*
X0174340Y0164400D02*
X0175594Y0164400D01*
X0175566Y0164438D02*
X0174312Y0164438D01*
X0174285Y0164476D02*
X0175538Y0164476D01*
X0175510Y0164514D02*
X0174257Y0164514D01*
X0174230Y0164552D02*
X0175482Y0164552D01*
X0175454Y0164590D02*
X0174202Y0164590D01*
X0174175Y0164627D02*
X0175426Y0164627D01*
X0175398Y0164665D02*
X0172545Y0164665D01*
X0172545Y0164627D02*
X0174153Y0164627D01*
X0174117Y0164590D02*
X0172545Y0164590D01*
X0172545Y0164552D02*
X0174080Y0164552D01*
X0174044Y0164514D02*
X0172545Y0164514D01*
X0172545Y0164476D02*
X0174007Y0164476D01*
X0173971Y0164438D02*
X0172545Y0164438D01*
X0172545Y0164400D02*
X0173934Y0164400D01*
X0173898Y0164362D02*
X0172545Y0164362D01*
X0172545Y0164324D02*
X0173861Y0164324D01*
X0173825Y0164286D02*
X0172545Y0164286D01*
X0172545Y0164249D02*
X0173788Y0164249D01*
X0173752Y0164211D02*
X0172545Y0164211D01*
X0172545Y0164173D02*
X0173716Y0164173D01*
X0173679Y0164135D02*
X0172545Y0164135D01*
X0172545Y0164097D02*
X0173643Y0164097D01*
X0173607Y0164059D02*
X0172545Y0164059D01*
X0172545Y0164021D02*
X0173607Y0164021D01*
X0173607Y0163983D02*
X0172545Y0163983D01*
X0172545Y0163946D02*
X0173607Y0163946D01*
X0173607Y0163908D02*
X0172545Y0163908D01*
X0172545Y0163870D02*
X0173607Y0163870D01*
X0173607Y0163832D02*
X0172545Y0163832D01*
X0172545Y0163794D02*
X0173607Y0163794D01*
X0173607Y0163756D02*
X0172545Y0163756D01*
X0172545Y0163718D02*
X0173607Y0163718D01*
X0173607Y0163680D02*
X0172545Y0163680D01*
X0172545Y0163642D02*
X0173607Y0163642D01*
X0173607Y0163605D02*
X0172545Y0163605D01*
X0172545Y0163567D02*
X0173607Y0163567D01*
X0173607Y0163529D02*
X0172545Y0163529D01*
X0172545Y0163491D02*
X0173607Y0163491D01*
X0173607Y0163453D02*
X0172545Y0163453D01*
X0172545Y0163415D02*
X0173607Y0163415D01*
X0173607Y0163377D02*
X0172545Y0163377D01*
X0172545Y0163339D02*
X0173607Y0163339D01*
X0173607Y0163302D02*
X0172545Y0163302D01*
X0172545Y0163264D02*
X0173607Y0163264D01*
X0173607Y0163226D02*
X0172545Y0163226D01*
X0172545Y0163188D02*
X0173607Y0163188D01*
X0173607Y0163150D02*
X0172545Y0163150D01*
X0172545Y0163112D02*
X0173607Y0163112D01*
X0173607Y0163074D02*
X0172545Y0163074D01*
X0172545Y0163036D02*
X0173607Y0163036D01*
X0173607Y0162998D02*
X0172545Y0162998D01*
X0172545Y0162961D02*
X0173607Y0162961D01*
X0173607Y0162923D02*
X0172545Y0162923D01*
X0172545Y0162885D02*
X0173607Y0162885D01*
X0173607Y0162847D02*
X0172545Y0162847D01*
X0172545Y0162809D02*
X0173607Y0162809D01*
X0173607Y0162771D02*
X0172545Y0162771D01*
X0172545Y0162733D02*
X0173607Y0162733D01*
X0173607Y0162695D02*
X0172545Y0162695D01*
X0172545Y0162658D02*
X0173607Y0162658D01*
X0173607Y0162620D02*
X0172545Y0162620D01*
X0171728Y0162584D02*
X0170547Y0164309D01*
X0170966Y0164530D01*
X0171296Y0164849D01*
X0171512Y0165272D01*
X0171584Y0165803D01*
X0171584Y0165817D01*
X0171555Y0166172D01*
X0171551Y0166184D01*
X0170363Y0166184D01*
X0170288Y0166282D01*
X0170024Y0166411D01*
X0169673Y0166454D01*
X0168618Y0166454D01*
X0168618Y0166184D01*
X0167556Y0166184D01*
X0167556Y0167412D01*
X0169763Y0167412D01*
X0170170Y0167386D01*
X0170530Y0167307D01*
X0170841Y0167175D01*
X0171105Y0166991D01*
X0171315Y0166759D01*
X0171465Y0166486D01*
X0171551Y0166184D01*
X0170363Y0166184D01*
X0170453Y0166066D01*
X0170508Y0165763D01*
X0170508Y0165752D01*
X0170456Y0165474D01*
X0170299Y0165256D01*
X0170043Y0165116D01*
X0169694Y0165068D01*
X0168618Y0165068D01*
X0168618Y0166184D01*
X0167556Y0166184D01*
X0167556Y0162584D01*
X0168618Y0162584D01*
X0168618Y0164129D01*
X0169453Y0164129D01*
X0170486Y0162584D01*
X0171728Y0162584D01*
X0171704Y0162620D02*
X0170463Y0162620D01*
X0170437Y0162658D02*
X0171678Y0162658D01*
X0171652Y0162695D02*
X0170412Y0162695D01*
X0170387Y0162733D02*
X0171626Y0162733D01*
X0171600Y0162771D02*
X0170361Y0162771D01*
X0170336Y0162809D02*
X0171574Y0162809D01*
X0171548Y0162847D02*
X0170310Y0162847D01*
X0170285Y0162885D02*
X0171522Y0162885D01*
X0171496Y0162923D02*
X0170260Y0162923D01*
X0170234Y0162961D02*
X0171471Y0162961D01*
X0171445Y0162998D02*
X0170209Y0162998D01*
X0170184Y0163036D02*
X0171419Y0163036D01*
X0171393Y0163074D02*
X0170158Y0163074D01*
X0170133Y0163112D02*
X0171367Y0163112D01*
X0171341Y0163150D02*
X0170108Y0163150D01*
X0170082Y0163188D02*
X0171315Y0163188D01*
X0171289Y0163226D02*
X0170057Y0163226D01*
X0170032Y0163264D02*
X0171263Y0163264D01*
X0171237Y0163302D02*
X0170006Y0163302D01*
X0169981Y0163339D02*
X0171211Y0163339D01*
X0171185Y0163377D02*
X0169956Y0163377D01*
X0169930Y0163415D02*
X0171159Y0163415D01*
X0171133Y0163453D02*
X0169905Y0163453D01*
X0169880Y0163491D02*
X0171107Y0163491D01*
X0171081Y0163529D02*
X0169854Y0163529D01*
X0169829Y0163567D02*
X0171055Y0163567D01*
X0171030Y0163605D02*
X0169804Y0163605D01*
X0169778Y0163642D02*
X0171004Y0163642D01*
X0170978Y0163680D02*
X0169753Y0163680D01*
X0169728Y0163718D02*
X0170952Y0163718D01*
X0170926Y0163756D02*
X0169702Y0163756D01*
X0169677Y0163794D02*
X0170900Y0163794D01*
X0170874Y0163832D02*
X0169652Y0163832D01*
X0169626Y0163870D02*
X0170848Y0163870D01*
X0170822Y0163908D02*
X0169601Y0163908D01*
X0169576Y0163946D02*
X0170796Y0163946D01*
X0170770Y0163983D02*
X0169550Y0163983D01*
X0169525Y0164021D02*
X0170744Y0164021D01*
X0170718Y0164059D02*
X0169500Y0164059D01*
X0169474Y0164097D02*
X0170692Y0164097D01*
X0170666Y0164135D02*
X0167556Y0164135D01*
X0167556Y0164173D02*
X0170640Y0164173D01*
X0170615Y0164211D02*
X0167556Y0164211D01*
X0167556Y0164249D02*
X0170589Y0164249D01*
X0170563Y0164286D02*
X0167556Y0164286D01*
X0167556Y0164324D02*
X0170577Y0164324D01*
X0170648Y0164362D02*
X0167556Y0164362D01*
X0167556Y0164400D02*
X0170720Y0164400D01*
X0170791Y0164438D02*
X0167556Y0164438D01*
X0167556Y0164476D02*
X0170863Y0164476D01*
X0170935Y0164514D02*
X0167556Y0164514D01*
X0167556Y0164552D02*
X0170988Y0164552D01*
X0171027Y0164590D02*
X0167556Y0164590D01*
X0167556Y0164627D02*
X0171067Y0164627D01*
X0171106Y0164665D02*
X0167556Y0164665D01*
X0167556Y0164703D02*
X0171145Y0164703D01*
X0171184Y0164741D02*
X0167556Y0164741D01*
X0167556Y0164779D02*
X0171224Y0164779D01*
X0171263Y0164817D02*
X0167556Y0164817D01*
X0167556Y0164855D02*
X0171299Y0164855D01*
X0171318Y0164893D02*
X0167556Y0164893D01*
X0167556Y0164930D02*
X0171338Y0164930D01*
X0171357Y0164968D02*
X0167556Y0164968D01*
X0167556Y0165006D02*
X0171376Y0165006D01*
X0171396Y0165044D02*
X0167556Y0165044D01*
X0167556Y0165082D02*
X0168618Y0165082D01*
X0168618Y0165120D02*
X0167556Y0165120D01*
X0167556Y0165158D02*
X0168618Y0165158D01*
X0168618Y0165196D02*
X0167556Y0165196D01*
X0167556Y0165233D02*
X0168618Y0165233D01*
X0168618Y0165271D02*
X0167556Y0165271D01*
X0167556Y0165309D02*
X0168618Y0165309D01*
X0168618Y0165347D02*
X0167556Y0165347D01*
X0167556Y0165385D02*
X0168618Y0165385D01*
X0168618Y0165423D02*
X0167556Y0165423D01*
X0167556Y0165461D02*
X0168618Y0165461D01*
X0168618Y0165499D02*
X0167556Y0165499D01*
X0167556Y0165537D02*
X0168618Y0165537D01*
X0168618Y0165574D02*
X0167556Y0165574D01*
X0167556Y0165612D02*
X0168618Y0165612D01*
X0168618Y0165650D02*
X0167556Y0165650D01*
X0167556Y0165688D02*
X0168618Y0165688D01*
X0168618Y0165726D02*
X0167556Y0165726D01*
X0167556Y0165764D02*
X0168618Y0165764D01*
X0168618Y0165802D02*
X0167556Y0165802D01*
X0167556Y0165840D02*
X0168618Y0165840D01*
X0168618Y0165877D02*
X0167556Y0165877D01*
X0167556Y0165915D02*
X0168618Y0165915D01*
X0168618Y0165953D02*
X0167556Y0165953D01*
X0167556Y0165991D02*
X0168618Y0165991D01*
X0168618Y0166029D02*
X0167556Y0166029D01*
X0167556Y0166067D02*
X0168618Y0166067D01*
X0168618Y0166105D02*
X0167556Y0166105D01*
X0167556Y0166143D02*
X0168618Y0166143D01*
X0168618Y0166181D02*
X0167556Y0166181D01*
X0167556Y0166218D02*
X0168618Y0166218D01*
X0168618Y0166256D02*
X0167556Y0166256D01*
X0167556Y0166294D02*
X0168618Y0166294D01*
X0168618Y0166332D02*
X0167556Y0166332D01*
X0167556Y0166370D02*
X0168618Y0166370D01*
X0168618Y0166408D02*
X0167556Y0166408D01*
X0167556Y0166446D02*
X0168618Y0166446D01*
X0167556Y0166484D02*
X0171466Y0166484D01*
X0171476Y0166446D02*
X0169743Y0166446D01*
X0170031Y0166408D02*
X0171487Y0166408D01*
X0171498Y0166370D02*
X0170108Y0166370D01*
X0170185Y0166332D02*
X0171509Y0166332D01*
X0171520Y0166294D02*
X0170262Y0166294D01*
X0170307Y0166256D02*
X0171530Y0166256D01*
X0171541Y0166218D02*
X0170336Y0166218D01*
X0170365Y0166181D02*
X0171552Y0166181D01*
X0171557Y0166143D02*
X0170394Y0166143D01*
X0170423Y0166105D02*
X0171560Y0166105D01*
X0171563Y0166067D02*
X0170452Y0166067D01*
X0170460Y0166029D02*
X0171566Y0166029D01*
X0171570Y0165991D02*
X0170467Y0165991D01*
X0170474Y0165953D02*
X0171573Y0165953D01*
X0171576Y0165915D02*
X0170480Y0165915D01*
X0170487Y0165877D02*
X0171579Y0165877D01*
X0171582Y0165840D02*
X0170494Y0165840D01*
X0170501Y0165802D02*
X0171584Y0165802D01*
X0171579Y0165764D02*
X0170508Y0165764D01*
X0170503Y0165726D02*
X0171574Y0165726D01*
X0171568Y0165688D02*
X0170496Y0165688D01*
X0170489Y0165650D02*
X0171563Y0165650D01*
X0171558Y0165612D02*
X0170482Y0165612D01*
X0170475Y0165574D02*
X0171553Y0165574D01*
X0171548Y0165537D02*
X0170468Y0165537D01*
X0170461Y0165499D02*
X0171543Y0165499D01*
X0171538Y0165461D02*
X0170446Y0165461D01*
X0170419Y0165423D02*
X0171532Y0165423D01*
X0171527Y0165385D02*
X0170392Y0165385D01*
X0170365Y0165347D02*
X0171522Y0165347D01*
X0171517Y0165309D02*
X0170337Y0165309D01*
X0170310Y0165271D02*
X0171512Y0165271D01*
X0171492Y0165233D02*
X0170258Y0165233D01*
X0170189Y0165196D02*
X0171473Y0165196D01*
X0171454Y0165158D02*
X0170119Y0165158D01*
X0170050Y0165120D02*
X0171434Y0165120D01*
X0171415Y0165082D02*
X0169793Y0165082D01*
X0168618Y0164097D02*
X0167556Y0164097D01*
X0167556Y0164059D02*
X0168618Y0164059D01*
X0168618Y0164021D02*
X0167556Y0164021D01*
X0167556Y0163983D02*
X0168618Y0163983D01*
X0168618Y0163946D02*
X0167556Y0163946D01*
X0167556Y0163908D02*
X0168618Y0163908D01*
X0168618Y0163870D02*
X0167556Y0163870D01*
X0167556Y0163832D02*
X0168618Y0163832D01*
X0168618Y0163794D02*
X0167556Y0163794D01*
X0167556Y0163756D02*
X0168618Y0163756D01*
X0168618Y0163718D02*
X0167556Y0163718D01*
X0167556Y0163680D02*
X0168618Y0163680D01*
X0168618Y0163642D02*
X0167556Y0163642D01*
X0167556Y0163605D02*
X0168618Y0163605D01*
X0168618Y0163567D02*
X0167556Y0163567D01*
X0167556Y0163529D02*
X0168618Y0163529D01*
X0168618Y0163491D02*
X0167556Y0163491D01*
X0167556Y0163453D02*
X0168618Y0163453D01*
X0168618Y0163415D02*
X0167556Y0163415D01*
X0167556Y0163377D02*
X0168618Y0163377D01*
X0168618Y0163339D02*
X0167556Y0163339D01*
X0167556Y0163302D02*
X0168618Y0163302D01*
X0168618Y0163264D02*
X0167556Y0163264D01*
X0167556Y0163226D02*
X0168618Y0163226D01*
X0168618Y0163188D02*
X0167556Y0163188D01*
X0167556Y0163150D02*
X0168618Y0163150D01*
X0168618Y0163112D02*
X0167556Y0163112D01*
X0167556Y0163074D02*
X0168618Y0163074D01*
X0168618Y0163036D02*
X0167556Y0163036D01*
X0167556Y0162998D02*
X0168618Y0162998D01*
X0168618Y0162961D02*
X0167556Y0162961D01*
X0167556Y0162923D02*
X0168618Y0162923D01*
X0168618Y0162885D02*
X0167556Y0162885D01*
X0167556Y0162847D02*
X0168618Y0162847D01*
X0168618Y0162809D02*
X0167556Y0162809D01*
X0167556Y0162771D02*
X0168618Y0162771D01*
X0168618Y0162733D02*
X0167556Y0162733D01*
X0167556Y0162695D02*
X0168618Y0162695D01*
X0168618Y0162658D02*
X0167556Y0162658D01*
X0167556Y0162620D02*
X0168618Y0162620D01*
X0166811Y0162584D02*
X0165279Y0166184D01*
X0163223Y0166184D01*
X0163761Y0167448D01*
X0164741Y0167448D01*
X0165279Y0166184D01*
X0163223Y0166184D01*
X0161691Y0162584D01*
X0162775Y0162584D01*
X0164237Y0166170D01*
X0165698Y0162584D01*
X0166811Y0162584D01*
X0166796Y0162620D02*
X0165684Y0162620D01*
X0165668Y0162658D02*
X0166779Y0162658D01*
X0166763Y0162695D02*
X0165653Y0162695D01*
X0165637Y0162733D02*
X0166747Y0162733D01*
X0166731Y0162771D02*
X0165622Y0162771D01*
X0165607Y0162809D02*
X0166715Y0162809D01*
X0166699Y0162847D02*
X0165591Y0162847D01*
X0165576Y0162885D02*
X0166683Y0162885D01*
X0166667Y0162923D02*
X0165560Y0162923D01*
X0165545Y0162961D02*
X0166650Y0162961D01*
X0166634Y0162998D02*
X0165529Y0162998D01*
X0165514Y0163036D02*
X0166618Y0163036D01*
X0166602Y0163074D02*
X0165498Y0163074D01*
X0165483Y0163112D02*
X0166586Y0163112D01*
X0166570Y0163150D02*
X0165468Y0163150D01*
X0165452Y0163188D02*
X0166554Y0163188D01*
X0166538Y0163226D02*
X0165437Y0163226D01*
X0165421Y0163264D02*
X0166521Y0163264D01*
X0166505Y0163302D02*
X0165406Y0163302D01*
X0165390Y0163339D02*
X0166489Y0163339D01*
X0166473Y0163377D02*
X0165375Y0163377D01*
X0165359Y0163415D02*
X0166457Y0163415D01*
X0166441Y0163453D02*
X0165344Y0163453D01*
X0165329Y0163491D02*
X0166425Y0163491D01*
X0166409Y0163529D02*
X0165313Y0163529D01*
X0165298Y0163567D02*
X0166392Y0163567D01*
X0166376Y0163605D02*
X0165282Y0163605D01*
X0165267Y0163642D02*
X0166360Y0163642D01*
X0166344Y0163680D02*
X0165251Y0163680D01*
X0165236Y0163718D02*
X0166328Y0163718D01*
X0166312Y0163756D02*
X0165220Y0163756D01*
X0165205Y0163794D02*
X0166296Y0163794D01*
X0166280Y0163832D02*
X0165190Y0163832D01*
X0165174Y0163870D02*
X0166263Y0163870D01*
X0166247Y0163908D02*
X0165159Y0163908D01*
X0165143Y0163946D02*
X0166231Y0163946D01*
X0166215Y0163983D02*
X0165128Y0163983D01*
X0165112Y0164021D02*
X0166199Y0164021D01*
X0166183Y0164059D02*
X0165097Y0164059D01*
X0165082Y0164097D02*
X0166167Y0164097D01*
X0166151Y0164135D02*
X0165066Y0164135D01*
X0165051Y0164173D02*
X0166134Y0164173D01*
X0166118Y0164211D02*
X0165035Y0164211D01*
X0165020Y0164249D02*
X0166102Y0164249D01*
X0166086Y0164286D02*
X0165004Y0164286D01*
X0164989Y0164324D02*
X0166070Y0164324D01*
X0166054Y0164362D02*
X0164973Y0164362D01*
X0164958Y0164400D02*
X0166038Y0164400D01*
X0166022Y0164438D02*
X0164943Y0164438D01*
X0164927Y0164476D02*
X0166005Y0164476D01*
X0165989Y0164514D02*
X0164912Y0164514D01*
X0164896Y0164552D02*
X0165973Y0164552D01*
X0165957Y0164590D02*
X0164881Y0164590D01*
X0164865Y0164627D02*
X0165941Y0164627D01*
X0165925Y0164665D02*
X0164850Y0164665D01*
X0164834Y0164703D02*
X0165909Y0164703D01*
X0165893Y0164741D02*
X0164819Y0164741D01*
X0164804Y0164779D02*
X0165876Y0164779D01*
X0165860Y0164817D02*
X0164788Y0164817D01*
X0164773Y0164855D02*
X0165844Y0164855D01*
X0165828Y0164893D02*
X0164757Y0164893D01*
X0164742Y0164930D02*
X0165812Y0164930D01*
X0165796Y0164968D02*
X0164726Y0164968D01*
X0164711Y0165006D02*
X0165780Y0165006D01*
X0165764Y0165044D02*
X0164695Y0165044D01*
X0164680Y0165082D02*
X0165747Y0165082D01*
X0165731Y0165120D02*
X0164665Y0165120D01*
X0164649Y0165158D02*
X0165715Y0165158D01*
X0165699Y0165196D02*
X0164634Y0165196D01*
X0164618Y0165233D02*
X0165683Y0165233D01*
X0165667Y0165271D02*
X0164603Y0165271D01*
X0164587Y0165309D02*
X0165651Y0165309D01*
X0165635Y0165347D02*
X0164572Y0165347D01*
X0164557Y0165385D02*
X0165618Y0165385D01*
X0165602Y0165423D02*
X0164541Y0165423D01*
X0164526Y0165461D02*
X0165586Y0165461D01*
X0165570Y0165499D02*
X0164510Y0165499D01*
X0164495Y0165537D02*
X0165554Y0165537D01*
X0165538Y0165574D02*
X0164479Y0165574D01*
X0164464Y0165612D02*
X0165522Y0165612D01*
X0165506Y0165650D02*
X0164448Y0165650D01*
X0164433Y0165688D02*
X0165489Y0165688D01*
X0165473Y0165726D02*
X0164418Y0165726D01*
X0164402Y0165764D02*
X0165457Y0165764D01*
X0165441Y0165802D02*
X0164387Y0165802D01*
X0164371Y0165840D02*
X0165425Y0165840D01*
X0165409Y0165877D02*
X0164356Y0165877D01*
X0164340Y0165915D02*
X0165393Y0165915D01*
X0165377Y0165953D02*
X0164325Y0165953D01*
X0164309Y0165991D02*
X0165360Y0165991D01*
X0165344Y0166029D02*
X0164294Y0166029D01*
X0164279Y0166067D02*
X0165328Y0166067D01*
X0165312Y0166105D02*
X0164263Y0166105D01*
X0164248Y0166143D02*
X0165296Y0166143D01*
X0165280Y0166181D02*
X0163222Y0166181D01*
X0163238Y0166218D02*
X0165264Y0166218D01*
X0165248Y0166256D02*
X0163254Y0166256D01*
X0163270Y0166294D02*
X0165231Y0166294D01*
X0165215Y0166332D02*
X0163286Y0166332D01*
X0163302Y0166370D02*
X0165199Y0166370D01*
X0165183Y0166408D02*
X0163318Y0166408D01*
X0163335Y0166446D02*
X0165167Y0166446D01*
X0165151Y0166484D02*
X0163351Y0166484D01*
X0163367Y0166521D02*
X0165135Y0166521D01*
X0165119Y0166559D02*
X0163383Y0166559D01*
X0163399Y0166597D02*
X0165103Y0166597D01*
X0165086Y0166635D02*
X0163415Y0166635D01*
X0163431Y0166673D02*
X0165070Y0166673D01*
X0165054Y0166711D02*
X0163447Y0166711D01*
X0163464Y0166749D02*
X0165038Y0166749D01*
X0165022Y0166787D02*
X0163480Y0166787D01*
X0163496Y0166825D02*
X0165006Y0166825D01*
X0164990Y0166862D02*
X0163512Y0166862D01*
X0163528Y0166900D02*
X0164974Y0166900D01*
X0164957Y0166938D02*
X0163544Y0166938D01*
X0163560Y0166976D02*
X0164941Y0166976D01*
X0164925Y0167014D02*
X0163577Y0167014D01*
X0163593Y0167052D02*
X0164909Y0167052D01*
X0164893Y0167090D02*
X0163609Y0167090D01*
X0163625Y0167128D02*
X0164877Y0167128D01*
X0164861Y0167165D02*
X0163641Y0167165D01*
X0163657Y0167203D02*
X0164845Y0167203D01*
X0164829Y0167241D02*
X0163673Y0167241D01*
X0163689Y0167279D02*
X0164812Y0167279D01*
X0164796Y0167317D02*
X0163706Y0167317D01*
X0163722Y0167355D02*
X0164780Y0167355D01*
X0164764Y0167393D02*
X0163738Y0167393D01*
X0163754Y0167431D02*
X0164748Y0167431D01*
X0164225Y0166143D02*
X0163206Y0166143D01*
X0163189Y0166105D02*
X0164210Y0166105D01*
X0164194Y0166067D02*
X0163173Y0166067D01*
X0163157Y0166029D02*
X0164179Y0166029D01*
X0164164Y0165991D02*
X0163141Y0165991D01*
X0163125Y0165953D02*
X0164148Y0165953D01*
X0164133Y0165915D02*
X0163109Y0165915D01*
X0163093Y0165877D02*
X0164117Y0165877D01*
X0164102Y0165840D02*
X0163077Y0165840D01*
X0163060Y0165802D02*
X0164086Y0165802D01*
X0164071Y0165764D02*
X0163044Y0165764D01*
X0163028Y0165726D02*
X0164056Y0165726D01*
X0164040Y0165688D02*
X0163012Y0165688D01*
X0162996Y0165650D02*
X0164025Y0165650D01*
X0164009Y0165612D02*
X0162980Y0165612D01*
X0162964Y0165574D02*
X0163994Y0165574D01*
X0163978Y0165537D02*
X0162948Y0165537D01*
X0162931Y0165499D02*
X0163963Y0165499D01*
X0163947Y0165461D02*
X0162915Y0165461D01*
X0162899Y0165423D02*
X0163932Y0165423D01*
X0163917Y0165385D02*
X0162883Y0165385D01*
X0162867Y0165347D02*
X0163901Y0165347D01*
X0163886Y0165309D02*
X0162851Y0165309D01*
X0162835Y0165271D02*
X0163870Y0165271D01*
X0163855Y0165233D02*
X0162819Y0165233D01*
X0162803Y0165196D02*
X0163839Y0165196D01*
X0163824Y0165158D02*
X0162786Y0165158D01*
X0162770Y0165120D02*
X0163808Y0165120D01*
X0163793Y0165082D02*
X0162754Y0165082D01*
X0162738Y0165044D02*
X0163778Y0165044D01*
X0163762Y0165006D02*
X0162722Y0165006D01*
X0162706Y0164968D02*
X0163747Y0164968D01*
X0163731Y0164930D02*
X0162690Y0164930D01*
X0162674Y0164893D02*
X0163716Y0164893D01*
X0163700Y0164855D02*
X0162657Y0164855D01*
X0162641Y0164817D02*
X0163685Y0164817D01*
X0163669Y0164779D02*
X0162625Y0164779D01*
X0162609Y0164741D02*
X0163654Y0164741D01*
X0163639Y0164703D02*
X0162593Y0164703D01*
X0162577Y0164665D02*
X0163623Y0164665D01*
X0163608Y0164627D02*
X0162561Y0164627D01*
X0162545Y0164590D02*
X0163592Y0164590D01*
X0163577Y0164552D02*
X0162528Y0164552D01*
X0162512Y0164514D02*
X0163561Y0164514D01*
X0163546Y0164476D02*
X0162496Y0164476D01*
X0162480Y0164438D02*
X0163530Y0164438D01*
X0163515Y0164400D02*
X0162464Y0164400D01*
X0162448Y0164362D02*
X0163500Y0164362D01*
X0163484Y0164324D02*
X0162432Y0164324D01*
X0162416Y0164286D02*
X0163469Y0164286D01*
X0163453Y0164249D02*
X0162400Y0164249D01*
X0162383Y0164211D02*
X0163438Y0164211D01*
X0163422Y0164173D02*
X0162367Y0164173D01*
X0162351Y0164135D02*
X0163407Y0164135D01*
X0163392Y0164097D02*
X0162335Y0164097D01*
X0162319Y0164059D02*
X0163376Y0164059D01*
X0163361Y0164021D02*
X0162303Y0164021D01*
X0162287Y0163983D02*
X0163345Y0163983D01*
X0163330Y0163946D02*
X0162271Y0163946D01*
X0162254Y0163908D02*
X0163314Y0163908D01*
X0163299Y0163870D02*
X0162238Y0163870D01*
X0162222Y0163832D02*
X0163283Y0163832D01*
X0163268Y0163794D02*
X0162206Y0163794D01*
X0162190Y0163756D02*
X0163253Y0163756D01*
X0163237Y0163718D02*
X0162174Y0163718D01*
X0162158Y0163680D02*
X0163222Y0163680D01*
X0163206Y0163642D02*
X0162142Y0163642D01*
X0162125Y0163605D02*
X0163191Y0163605D01*
X0163175Y0163567D02*
X0162109Y0163567D01*
X0162093Y0163529D02*
X0163160Y0163529D01*
X0163144Y0163491D02*
X0162077Y0163491D01*
X0162061Y0163453D02*
X0163129Y0163453D01*
X0163114Y0163415D02*
X0162045Y0163415D01*
X0162029Y0163377D02*
X0163098Y0163377D01*
X0163083Y0163339D02*
X0162013Y0163339D01*
X0161997Y0163302D02*
X0163067Y0163302D01*
X0163052Y0163264D02*
X0161980Y0163264D01*
X0161964Y0163226D02*
X0163036Y0163226D01*
X0163021Y0163188D02*
X0161948Y0163188D01*
X0161932Y0163150D02*
X0163005Y0163150D01*
X0162990Y0163112D02*
X0161916Y0163112D01*
X0161900Y0163074D02*
X0162975Y0163074D01*
X0162959Y0163036D02*
X0161884Y0163036D01*
X0161868Y0162998D02*
X0162944Y0162998D01*
X0162928Y0162961D02*
X0161851Y0162961D01*
X0161835Y0162923D02*
X0162913Y0162923D01*
X0162897Y0162885D02*
X0161819Y0162885D01*
X0161803Y0162847D02*
X0162882Y0162847D01*
X0162867Y0162809D02*
X0161787Y0162809D01*
X0161771Y0162771D02*
X0162851Y0162771D01*
X0162836Y0162733D02*
X0161755Y0162733D01*
X0161739Y0162695D02*
X0162820Y0162695D01*
X0162805Y0162658D02*
X0161722Y0162658D01*
X0161706Y0162620D02*
X0162789Y0162620D01*
X0160831Y0164552D02*
X0157497Y0164552D01*
X0157497Y0164590D02*
X0160869Y0164590D01*
X0160906Y0164627D02*
X0157497Y0164627D01*
X0157497Y0164665D02*
X0160943Y0164665D01*
X0160981Y0164703D02*
X0157497Y0164703D01*
X0157497Y0164741D02*
X0161006Y0164741D01*
X0160985Y0164708D02*
X0161166Y0165000D01*
X0161279Y0165343D01*
X0161317Y0165738D01*
X0161321Y0165731D01*
X0161321Y0165745D01*
X0161289Y0166102D01*
X0161265Y0166184D01*
X0160077Y0166184D01*
X0160014Y0166267D01*
X0159742Y0166408D01*
X0161200Y0166408D01*
X0161195Y0166426D02*
X0161039Y0166712D01*
X0160827Y0166955D01*
X0160563Y0167150D01*
X0160248Y0167297D01*
X0159883Y0167388D01*
X0159470Y0167419D01*
X0157497Y0167419D01*
X0157497Y0166184D01*
X0158563Y0166184D01*
X0158563Y0166454D01*
X0159384Y0166454D01*
X0159742Y0166408D01*
X0159815Y0166370D02*
X0161211Y0166370D01*
X0161222Y0166332D02*
X0159888Y0166332D01*
X0159962Y0166294D02*
X0161233Y0166294D01*
X0161244Y0166256D02*
X0160022Y0166256D01*
X0160051Y0166218D02*
X0161255Y0166218D01*
X0161265Y0166184D02*
X0161195Y0166426D01*
X0161184Y0166446D02*
X0159451Y0166446D01*
X0160077Y0166184D02*
X0160187Y0166038D01*
X0160244Y0165724D01*
X0160244Y0165709D01*
X0160190Y0165424D01*
X0160025Y0165187D01*
X0159759Y0165030D01*
X0159405Y0164978D01*
X0158563Y0164978D01*
X0158563Y0166184D01*
X0157497Y0166184D01*
X0157497Y0162592D01*
X0158559Y0162592D01*
X0158559Y0164039D01*
X0159366Y0164039D01*
X0159759Y0164066D01*
X0160129Y0164147D01*
X0160461Y0164281D01*
X0160748Y0164467D01*
X0160985Y0164708D01*
X0161029Y0164779D02*
X0157497Y0164779D01*
X0157497Y0164817D02*
X0161053Y0164817D01*
X0161076Y0164855D02*
X0157497Y0164855D01*
X0157497Y0164893D02*
X0161099Y0164893D01*
X0161123Y0164930D02*
X0157497Y0164930D01*
X0157497Y0164968D02*
X0161146Y0164968D01*
X0161168Y0165006D02*
X0159596Y0165006D01*
X0159783Y0165044D02*
X0161180Y0165044D01*
X0161193Y0165082D02*
X0159847Y0165082D01*
X0159911Y0165120D02*
X0161205Y0165120D01*
X0161218Y0165158D02*
X0159975Y0165158D01*
X0160030Y0165196D02*
X0161230Y0165196D01*
X0161243Y0165233D02*
X0160057Y0165233D01*
X0160083Y0165271D02*
X0161255Y0165271D01*
X0161268Y0165309D02*
X0160110Y0165309D01*
X0160136Y0165347D02*
X0161279Y0165347D01*
X0161283Y0165385D02*
X0160163Y0165385D01*
X0160189Y0165423D02*
X0161287Y0165423D01*
X0161290Y0165461D02*
X0160197Y0165461D01*
X0160204Y0165499D02*
X0161294Y0165499D01*
X0161298Y0165537D02*
X0160211Y0165537D01*
X0160218Y0165574D02*
X0161301Y0165574D01*
X0161305Y0165612D02*
X0160226Y0165612D01*
X0160233Y0165650D02*
X0161308Y0165650D01*
X0161312Y0165688D02*
X0160240Y0165688D01*
X0160244Y0165726D02*
X0161316Y0165726D01*
X0161319Y0165764D02*
X0160237Y0165764D01*
X0160230Y0165802D02*
X0161315Y0165802D01*
X0161312Y0165840D02*
X0160223Y0165840D01*
X0160216Y0165877D02*
X0161309Y0165877D01*
X0161305Y0165915D02*
X0160209Y0165915D01*
X0160202Y0165953D02*
X0161302Y0165953D01*
X0161298Y0165991D02*
X0160196Y0165991D01*
X0160189Y0166029D02*
X0161295Y0166029D01*
X0161292Y0166067D02*
X0160165Y0166067D01*
X0160137Y0166105D02*
X0161288Y0166105D01*
X0161277Y0166143D02*
X0160108Y0166143D01*
X0160079Y0166181D02*
X0161266Y0166181D01*
X0161265Y0166184D02*
X0160077Y0166184D01*
X0160696Y0167052D02*
X0157497Y0167052D01*
X0157497Y0167090D02*
X0160645Y0167090D01*
X0160594Y0167128D02*
X0157497Y0167128D01*
X0157497Y0167165D02*
X0160530Y0167165D01*
X0160449Y0167203D02*
X0157497Y0167203D01*
X0157497Y0167241D02*
X0160367Y0167241D01*
X0160286Y0167279D02*
X0157497Y0167279D01*
X0157497Y0167317D02*
X0160167Y0167317D01*
X0160015Y0167355D02*
X0157497Y0167355D01*
X0157497Y0167393D02*
X0159816Y0167393D01*
X0160747Y0167014D02*
X0157497Y0167014D01*
X0157497Y0166976D02*
X0160799Y0166976D01*
X0160842Y0166938D02*
X0157497Y0166938D01*
X0157497Y0166900D02*
X0160875Y0166900D01*
X0160908Y0166862D02*
X0157497Y0166862D01*
X0157497Y0166825D02*
X0160941Y0166825D01*
X0160974Y0166787D02*
X0157497Y0166787D01*
X0157497Y0166749D02*
X0161007Y0166749D01*
X0161040Y0166711D02*
X0157497Y0166711D01*
X0157497Y0166673D02*
X0161060Y0166673D01*
X0161081Y0166635D02*
X0157497Y0166635D01*
X0157497Y0166597D02*
X0161101Y0166597D01*
X0161122Y0166559D02*
X0157497Y0166559D01*
X0157497Y0166521D02*
X0161143Y0166521D01*
X0161163Y0166484D02*
X0157497Y0166484D01*
X0157497Y0166446D02*
X0158563Y0166446D01*
X0158563Y0166408D02*
X0157497Y0166408D01*
X0157497Y0166370D02*
X0158563Y0166370D01*
X0158563Y0166332D02*
X0157497Y0166332D01*
X0157497Y0166294D02*
X0158563Y0166294D01*
X0158563Y0166256D02*
X0157497Y0166256D01*
X0157497Y0166218D02*
X0158563Y0166218D01*
X0158563Y0166181D02*
X0157497Y0166181D01*
X0157497Y0166143D02*
X0158563Y0166143D01*
X0158563Y0166105D02*
X0157497Y0166105D01*
X0157497Y0166067D02*
X0158563Y0166067D01*
X0158563Y0166029D02*
X0157497Y0166029D01*
X0157497Y0165991D02*
X0158563Y0165991D01*
X0158563Y0165953D02*
X0157497Y0165953D01*
X0157497Y0165915D02*
X0158563Y0165915D01*
X0158563Y0165877D02*
X0157497Y0165877D01*
X0157497Y0165840D02*
X0158563Y0165840D01*
X0158563Y0165802D02*
X0157497Y0165802D01*
X0157497Y0165764D02*
X0158563Y0165764D01*
X0158563Y0165726D02*
X0157497Y0165726D01*
X0157497Y0165688D02*
X0158563Y0165688D01*
X0158563Y0165650D02*
X0157497Y0165650D01*
X0157497Y0165612D02*
X0158563Y0165612D01*
X0158563Y0165574D02*
X0157497Y0165574D01*
X0157497Y0165537D02*
X0158563Y0165537D01*
X0158563Y0165499D02*
X0157497Y0165499D01*
X0157497Y0165461D02*
X0158563Y0165461D01*
X0158563Y0165423D02*
X0157497Y0165423D01*
X0157497Y0165385D02*
X0158563Y0165385D01*
X0158563Y0165347D02*
X0157497Y0165347D01*
X0157497Y0165309D02*
X0158563Y0165309D01*
X0158563Y0165271D02*
X0157497Y0165271D01*
X0157497Y0165233D02*
X0158563Y0165233D01*
X0158563Y0165196D02*
X0157497Y0165196D01*
X0157497Y0165158D02*
X0158563Y0165158D01*
X0158563Y0165120D02*
X0157497Y0165120D01*
X0157497Y0165082D02*
X0158563Y0165082D01*
X0158563Y0165044D02*
X0157497Y0165044D01*
X0157497Y0165006D02*
X0158563Y0165006D01*
X0158559Y0164021D02*
X0157497Y0164021D01*
X0157497Y0163983D02*
X0158559Y0163983D01*
X0158559Y0163946D02*
X0157497Y0163946D01*
X0157497Y0163908D02*
X0158559Y0163908D01*
X0158559Y0163870D02*
X0157497Y0163870D01*
X0157497Y0163832D02*
X0158559Y0163832D01*
X0158559Y0163794D02*
X0157497Y0163794D01*
X0157497Y0163756D02*
X0158559Y0163756D01*
X0158559Y0163718D02*
X0157497Y0163718D01*
X0157497Y0163680D02*
X0158559Y0163680D01*
X0158559Y0163642D02*
X0157497Y0163642D01*
X0157497Y0163605D02*
X0158559Y0163605D01*
X0158559Y0163567D02*
X0157497Y0163567D01*
X0157497Y0163529D02*
X0158559Y0163529D01*
X0158559Y0163491D02*
X0157497Y0163491D01*
X0157497Y0163453D02*
X0158559Y0163453D01*
X0158559Y0163415D02*
X0157497Y0163415D01*
X0157497Y0163377D02*
X0158559Y0163377D01*
X0158559Y0163339D02*
X0157497Y0163339D01*
X0157497Y0163302D02*
X0158559Y0163302D01*
X0158559Y0163264D02*
X0157497Y0163264D01*
X0157497Y0163226D02*
X0158559Y0163226D01*
X0158559Y0163188D02*
X0157497Y0163188D01*
X0157497Y0163150D02*
X0158559Y0163150D01*
X0158559Y0163112D02*
X0157497Y0163112D01*
X0157497Y0163074D02*
X0158559Y0163074D01*
X0158559Y0163036D02*
X0157497Y0163036D01*
X0157497Y0162998D02*
X0158559Y0162998D01*
X0158559Y0162961D02*
X0157497Y0162961D01*
X0157497Y0162923D02*
X0158559Y0162923D01*
X0158559Y0162885D02*
X0157497Y0162885D01*
X0157497Y0162847D02*
X0158559Y0162847D01*
X0158559Y0162809D02*
X0157497Y0162809D01*
X0157497Y0162771D02*
X0158559Y0162771D01*
X0158559Y0162733D02*
X0157497Y0162733D01*
X0157497Y0162695D02*
X0158559Y0162695D01*
X0158559Y0162658D02*
X0157497Y0162658D01*
X0157497Y0162620D02*
X0158559Y0162620D01*
X0157497Y0164059D02*
X0159660Y0164059D01*
X0159901Y0164097D02*
X0157497Y0164097D01*
X0157497Y0164135D02*
X0160075Y0164135D01*
X0160193Y0164173D02*
X0157497Y0164173D01*
X0157497Y0164211D02*
X0160287Y0164211D01*
X0160381Y0164249D02*
X0157497Y0164249D01*
X0157497Y0164286D02*
X0160469Y0164286D01*
X0160528Y0164324D02*
X0157497Y0164324D01*
X0157497Y0164362D02*
X0160586Y0164362D01*
X0160645Y0164400D02*
X0157497Y0164400D01*
X0157497Y0164438D02*
X0160703Y0164438D01*
X0160757Y0164476D02*
X0157497Y0164476D01*
X0157497Y0164514D02*
X0160794Y0164514D01*
X0156564Y0164173D02*
X0155417Y0164173D01*
X0155381Y0164211D02*
X0156560Y0164211D01*
X0156557Y0164249D02*
X0155342Y0164249D01*
X0155345Y0164248D02*
X0155489Y0164100D01*
X0155528Y0163916D01*
X0155528Y0163902D01*
X0155482Y0163710D01*
X0155345Y0163567D01*
X0155125Y0163476D01*
X0154830Y0163445D01*
X0154432Y0163485D01*
X0154067Y0163603D01*
X0153722Y0163789D01*
X0153386Y0164032D01*
X0152760Y0163279D01*
X0153218Y0162936D01*
X0153725Y0162696D01*
X0154261Y0162553D01*
X0154808Y0162505D01*
X0155184Y0162530D01*
X0155525Y0162606D01*
X0155825Y0162728D01*
X0156083Y0162894D01*
X0156290Y0163106D01*
X0156446Y0163362D01*
X0156543Y0163662D01*
X0156576Y0163999D01*
X0156576Y0164028D01*
X0156551Y0164323D01*
X0156475Y0164572D01*
X0156350Y0164784D01*
X0156176Y0164968D01*
X0155694Y0165256D01*
X0155039Y0165472D01*
X0154524Y0165616D01*
X0154203Y0165745D01*
X0154041Y0165900D01*
X0153998Y0166105D01*
X0153998Y0166120D01*
X0154013Y0166184D01*
X0152962Y0166184D01*
X0152947Y0166022D01*
X0152947Y0166008D01*
X0152976Y0165679D01*
X0153062Y0165407D01*
X0153199Y0165185D01*
X0153383Y0165004D01*
X0153887Y0164730D01*
X0154553Y0164528D01*
X0155046Y0164384D01*
X0155345Y0164248D01*
X0155260Y0164286D02*
X0156554Y0164286D01*
X0156550Y0164324D02*
X0155177Y0164324D01*
X0155094Y0164362D02*
X0156539Y0164362D01*
X0156527Y0164400D02*
X0154992Y0164400D01*
X0154862Y0164438D02*
X0156516Y0164438D01*
X0156504Y0164476D02*
X0154732Y0164476D01*
X0154603Y0164514D02*
X0156493Y0164514D01*
X0156481Y0164552D02*
X0154476Y0164552D01*
X0154351Y0164590D02*
X0156464Y0164590D01*
X0156442Y0164627D02*
X0154226Y0164627D01*
X0154100Y0164665D02*
X0156420Y0164665D01*
X0156398Y0164703D02*
X0153975Y0164703D01*
X0153866Y0164741D02*
X0156375Y0164741D01*
X0156353Y0164779D02*
X0153796Y0164779D01*
X0153727Y0164817D02*
X0156319Y0164817D01*
X0156283Y0164855D02*
X0153657Y0164855D01*
X0153587Y0164893D02*
X0156247Y0164893D01*
X0156211Y0164930D02*
X0153517Y0164930D01*
X0153448Y0164968D02*
X0156175Y0164968D01*
X0156111Y0165006D02*
X0153380Y0165006D01*
X0153342Y0165044D02*
X0156048Y0165044D01*
X0155985Y0165082D02*
X0153303Y0165082D01*
X0153265Y0165120D02*
X0155921Y0165120D01*
X0155858Y0165158D02*
X0153227Y0165158D01*
X0153193Y0165196D02*
X0155794Y0165196D01*
X0155731Y0165233D02*
X0153169Y0165233D01*
X0153146Y0165271D02*
X0155646Y0165271D01*
X0155531Y0165309D02*
X0153122Y0165309D01*
X0153099Y0165347D02*
X0155416Y0165347D01*
X0155301Y0165385D02*
X0153076Y0165385D01*
X0153057Y0165423D02*
X0155186Y0165423D01*
X0155071Y0165461D02*
X0153045Y0165461D01*
X0153033Y0165499D02*
X0154942Y0165499D01*
X0154806Y0165537D02*
X0153021Y0165537D01*
X0153009Y0165574D02*
X0154671Y0165574D01*
X0154536Y0165612D02*
X0152997Y0165612D01*
X0152985Y0165650D02*
X0154438Y0165650D01*
X0154345Y0165688D02*
X0152975Y0165688D01*
X0152972Y0165726D02*
X0154251Y0165726D01*
X0154184Y0165764D02*
X0152969Y0165764D01*
X0152965Y0165802D02*
X0154144Y0165802D01*
X0154105Y0165840D02*
X0152962Y0165840D01*
X0152959Y0165877D02*
X0154065Y0165877D01*
X0154038Y0165915D02*
X0152955Y0165915D01*
X0152952Y0165953D02*
X0154030Y0165953D01*
X0154022Y0165991D02*
X0152948Y0165991D01*
X0152948Y0166029D02*
X0154014Y0166029D01*
X0154006Y0166067D02*
X0152951Y0166067D01*
X0152955Y0166105D02*
X0153998Y0166105D01*
X0154003Y0166143D02*
X0152958Y0166143D01*
X0152962Y0166181D02*
X0154012Y0166181D01*
X0154013Y0166184D02*
X0154037Y0166284D01*
X0154153Y0166418D01*
X0154347Y0166509D01*
X0154617Y0166541D01*
X0154927Y0166509D01*
X0155237Y0166415D01*
X0155656Y0166184D01*
X0155870Y0166066D01*
X0155951Y0166184D01*
X0155656Y0166184D01*
X0155951Y0166184D01*
X0156421Y0166865D01*
X0156030Y0167127D01*
X0155604Y0167318D01*
X0155138Y0167437D01*
X0154628Y0167477D01*
X0154272Y0167450D01*
X0153948Y0167372D01*
X0153660Y0167246D01*
X0153415Y0167077D01*
X0153218Y0166866D01*
X0153069Y0166620D01*
X0152977Y0166339D01*
X0152962Y0166184D01*
X0154013Y0166184D01*
X0154021Y0166218D02*
X0152965Y0166218D01*
X0152969Y0166256D02*
X0154030Y0166256D01*
X0154045Y0166294D02*
X0152973Y0166294D01*
X0152976Y0166332D02*
X0154078Y0166332D01*
X0154111Y0166370D02*
X0152987Y0166370D01*
X0153000Y0166408D02*
X0154144Y0166408D01*
X0154211Y0166446D02*
X0153012Y0166446D01*
X0153025Y0166484D02*
X0154292Y0166484D01*
X0154452Y0166521D02*
X0153037Y0166521D01*
X0153049Y0166559D02*
X0156210Y0166559D01*
X0156184Y0166521D02*
X0154804Y0166521D01*
X0155010Y0166484D02*
X0156158Y0166484D01*
X0156132Y0166446D02*
X0155135Y0166446D01*
X0155249Y0166408D02*
X0156106Y0166408D01*
X0156080Y0166370D02*
X0155318Y0166370D01*
X0155387Y0166332D02*
X0156054Y0166332D01*
X0156028Y0166294D02*
X0155455Y0166294D01*
X0155524Y0166256D02*
X0156001Y0166256D01*
X0155975Y0166218D02*
X0155593Y0166218D01*
X0155662Y0166181D02*
X0155949Y0166181D01*
X0155923Y0166143D02*
X0155730Y0166143D01*
X0155799Y0166105D02*
X0155897Y0166105D01*
X0155871Y0166067D02*
X0155868Y0166067D01*
X0156236Y0166597D02*
X0153062Y0166597D01*
X0153078Y0166635D02*
X0156263Y0166635D01*
X0156289Y0166673D02*
X0153101Y0166673D01*
X0153124Y0166711D02*
X0156315Y0166711D01*
X0156341Y0166749D02*
X0153147Y0166749D01*
X0153170Y0166787D02*
X0156367Y0166787D01*
X0156393Y0166825D02*
X0153193Y0166825D01*
X0153216Y0166862D02*
X0156419Y0166862D01*
X0156368Y0166900D02*
X0153250Y0166900D01*
X0153285Y0166938D02*
X0156311Y0166938D01*
X0156255Y0166976D02*
X0153320Y0166976D01*
X0153356Y0167014D02*
X0156198Y0167014D01*
X0156142Y0167052D02*
X0153391Y0167052D01*
X0153433Y0167090D02*
X0156085Y0167090D01*
X0156028Y0167128D02*
X0153488Y0167128D01*
X0153543Y0167165D02*
X0155944Y0167165D01*
X0155860Y0167203D02*
X0153597Y0167203D01*
X0153652Y0167241D02*
X0155775Y0167241D01*
X0155691Y0167279D02*
X0153734Y0167279D01*
X0153821Y0167317D02*
X0155607Y0167317D01*
X0155460Y0167355D02*
X0153908Y0167355D01*
X0154032Y0167393D02*
X0155311Y0167393D01*
X0155162Y0167431D02*
X0154190Y0167431D01*
X0154516Y0167468D02*
X0154734Y0167468D01*
X0155454Y0164135D02*
X0156567Y0164135D01*
X0156570Y0164097D02*
X0155489Y0164097D01*
X0155497Y0164059D02*
X0156573Y0164059D01*
X0156576Y0164021D02*
X0155505Y0164021D01*
X0155514Y0163983D02*
X0156574Y0163983D01*
X0156571Y0163946D02*
X0155522Y0163946D01*
X0155528Y0163908D02*
X0156567Y0163908D01*
X0156563Y0163870D02*
X0155520Y0163870D01*
X0155511Y0163832D02*
X0156560Y0163832D01*
X0156556Y0163794D02*
X0155502Y0163794D01*
X0155493Y0163756D02*
X0156552Y0163756D01*
X0156549Y0163718D02*
X0155484Y0163718D01*
X0155453Y0163680D02*
X0156545Y0163680D01*
X0156537Y0163642D02*
X0155417Y0163642D01*
X0155380Y0163605D02*
X0156525Y0163605D01*
X0156513Y0163567D02*
X0155343Y0163567D01*
X0155252Y0163529D02*
X0156500Y0163529D01*
X0156488Y0163491D02*
X0155160Y0163491D01*
X0154907Y0163453D02*
X0156476Y0163453D01*
X0156463Y0163415D02*
X0152873Y0163415D01*
X0152841Y0163377D02*
X0156451Y0163377D01*
X0156432Y0163339D02*
X0152810Y0163339D01*
X0152778Y0163302D02*
X0156409Y0163302D01*
X0156386Y0163264D02*
X0152780Y0163264D01*
X0152831Y0163226D02*
X0156363Y0163226D01*
X0156340Y0163188D02*
X0152882Y0163188D01*
X0152932Y0163150D02*
X0156317Y0163150D01*
X0156294Y0163112D02*
X0152983Y0163112D01*
X0153034Y0163074D02*
X0156259Y0163074D01*
X0156222Y0163036D02*
X0153084Y0163036D01*
X0153135Y0162998D02*
X0156185Y0162998D01*
X0156148Y0162961D02*
X0153185Y0162961D01*
X0153247Y0162923D02*
X0156111Y0162923D01*
X0156068Y0162885D02*
X0153326Y0162885D01*
X0153406Y0162847D02*
X0156009Y0162847D01*
X0155950Y0162809D02*
X0153486Y0162809D01*
X0153566Y0162771D02*
X0155891Y0162771D01*
X0155833Y0162733D02*
X0153646Y0162733D01*
X0153727Y0162695D02*
X0155744Y0162695D01*
X0155651Y0162658D02*
X0153869Y0162658D01*
X0154011Y0162620D02*
X0155558Y0162620D01*
X0155416Y0162582D02*
X0154154Y0162582D01*
X0154367Y0162544D02*
X0155246Y0162544D01*
X0154821Y0162506D02*
X0154799Y0162506D01*
X0154747Y0163453D02*
X0152904Y0163453D01*
X0152936Y0163491D02*
X0154413Y0163491D01*
X0154296Y0163529D02*
X0152968Y0163529D01*
X0152999Y0163567D02*
X0154179Y0163567D01*
X0154064Y0163605D02*
X0153031Y0163605D01*
X0153062Y0163642D02*
X0153994Y0163642D01*
X0153924Y0163680D02*
X0153094Y0163680D01*
X0153125Y0163718D02*
X0153854Y0163718D01*
X0153783Y0163756D02*
X0153157Y0163756D01*
X0153188Y0163794D02*
X0153715Y0163794D01*
X0153663Y0163832D02*
X0153220Y0163832D01*
X0153251Y0163870D02*
X0153610Y0163870D01*
X0153558Y0163908D02*
X0153283Y0163908D01*
X0153314Y0163946D02*
X0153505Y0163946D01*
X0153453Y0163983D02*
X0153346Y0163983D01*
X0153378Y0164021D02*
X0153400Y0164021D01*
X0167556Y0166521D02*
X0171446Y0166521D01*
X0171425Y0166559D02*
X0167556Y0166559D01*
X0167556Y0166597D02*
X0171404Y0166597D01*
X0171383Y0166635D02*
X0167556Y0166635D01*
X0167556Y0166673D02*
X0171363Y0166673D01*
X0171342Y0166711D02*
X0167556Y0166711D01*
X0167556Y0166749D02*
X0171321Y0166749D01*
X0171290Y0166787D02*
X0167556Y0166787D01*
X0167556Y0166825D02*
X0171256Y0166825D01*
X0171222Y0166862D02*
X0167556Y0166862D01*
X0167556Y0166900D02*
X0171187Y0166900D01*
X0171153Y0166938D02*
X0167556Y0166938D01*
X0167556Y0166976D02*
X0171119Y0166976D01*
X0171072Y0167014D02*
X0167556Y0167014D01*
X0167556Y0167052D02*
X0171018Y0167052D01*
X0170964Y0167090D02*
X0167556Y0167090D01*
X0167556Y0167128D02*
X0170910Y0167128D01*
X0170855Y0167165D02*
X0167556Y0167165D01*
X0167556Y0167203D02*
X0170775Y0167203D01*
X0170685Y0167241D02*
X0167556Y0167241D01*
X0167556Y0167279D02*
X0170595Y0167279D01*
X0170483Y0167317D02*
X0167556Y0167317D01*
X0167556Y0167355D02*
X0170310Y0167355D01*
X0170060Y0167393D02*
X0167556Y0167393D01*
X0172545Y0167393D02*
X0173607Y0167393D01*
X0173607Y0167355D02*
X0172545Y0167355D01*
X0172545Y0167317D02*
X0173607Y0167317D01*
X0173607Y0167279D02*
X0172545Y0167279D01*
X0172545Y0167241D02*
X0173607Y0167241D01*
X0173607Y0167203D02*
X0172545Y0167203D01*
X0172545Y0167165D02*
X0173607Y0167165D01*
X0173607Y0167128D02*
X0172545Y0167128D01*
X0172545Y0167090D02*
X0173607Y0167090D01*
X0173607Y0167052D02*
X0172545Y0167052D01*
X0172545Y0167014D02*
X0173607Y0167014D01*
X0173607Y0166976D02*
X0172545Y0166976D01*
X0172545Y0166938D02*
X0173607Y0166938D01*
X0173607Y0166900D02*
X0172545Y0166900D01*
X0172545Y0166862D02*
X0173607Y0166862D01*
X0173607Y0166825D02*
X0172545Y0166825D01*
X0172545Y0166787D02*
X0173607Y0166787D01*
X0173607Y0166749D02*
X0172545Y0166749D01*
X0172545Y0166711D02*
X0173607Y0166711D01*
X0173607Y0166673D02*
X0172545Y0166673D01*
X0172545Y0166635D02*
X0173607Y0166635D01*
X0173607Y0166597D02*
X0172545Y0166597D01*
X0172545Y0166559D02*
X0173607Y0166559D01*
X0173607Y0166521D02*
X0172545Y0166521D01*
X0172545Y0166484D02*
X0173607Y0166484D01*
X0173607Y0166446D02*
X0172545Y0166446D01*
X0172545Y0166408D02*
X0173607Y0166408D01*
X0173607Y0166370D02*
X0172545Y0166370D01*
X0172545Y0166332D02*
X0173607Y0166332D01*
X0173607Y0166294D02*
X0172545Y0166294D01*
X0172545Y0166256D02*
X0173607Y0166256D01*
X0173607Y0166218D02*
X0172545Y0166218D01*
X0172545Y0166181D02*
X0173607Y0166181D01*
X0173607Y0166143D02*
X0172545Y0166143D01*
X0172545Y0166105D02*
X0173607Y0166105D01*
X0173607Y0166067D02*
X0172545Y0166067D01*
X0172545Y0166029D02*
X0173607Y0166029D01*
X0173607Y0165991D02*
X0172545Y0165991D01*
X0172545Y0165953D02*
X0173607Y0165953D01*
X0173607Y0165915D02*
X0172545Y0165915D01*
X0172545Y0165877D02*
X0173607Y0165877D01*
X0173607Y0165840D02*
X0172545Y0165840D01*
X0172545Y0165802D02*
X0173607Y0165802D01*
X0173607Y0165764D02*
X0172545Y0165764D01*
X0172545Y0165726D02*
X0173607Y0165726D01*
X0173607Y0165688D02*
X0172545Y0165688D01*
X0172545Y0165650D02*
X0173607Y0165650D01*
X0173607Y0165612D02*
X0172545Y0165612D01*
X0172545Y0165574D02*
X0173607Y0165574D01*
X0173607Y0165537D02*
X0172545Y0165537D01*
X0172545Y0165499D02*
X0173607Y0165499D01*
X0173607Y0165461D02*
X0172545Y0165461D01*
X0172545Y0165423D02*
X0173607Y0165423D01*
X0173607Y0165385D02*
X0172545Y0165385D01*
X0172545Y0165347D02*
X0173607Y0165347D01*
X0173607Y0165309D02*
X0172545Y0165309D01*
X0172545Y0165271D02*
X0174950Y0165271D01*
X0174978Y0165233D02*
X0172545Y0165233D01*
X0172545Y0165196D02*
X0175006Y0165196D01*
X0175034Y0165158D02*
X0172545Y0165158D01*
X0172545Y0165120D02*
X0175062Y0165120D01*
X0175090Y0165082D02*
X0172545Y0165082D01*
X0172545Y0165044D02*
X0175118Y0165044D01*
X0175146Y0165006D02*
X0172545Y0165006D01*
X0172545Y0164968D02*
X0175174Y0164968D01*
X0175202Y0164930D02*
X0172545Y0164930D01*
X0172545Y0164893D02*
X0175230Y0164893D01*
X0175258Y0164855D02*
X0172545Y0164855D01*
X0172545Y0164817D02*
X0175286Y0164817D01*
X0175314Y0164779D02*
X0172545Y0164779D01*
X0172545Y0164741D02*
X0175342Y0164741D01*
X0175370Y0164703D02*
X0172545Y0164703D01*
X0173614Y0165309D02*
X0174922Y0165309D01*
X0174894Y0165347D02*
X0173649Y0165347D01*
X0173684Y0165385D02*
X0174902Y0165385D01*
X0174939Y0165423D02*
X0173719Y0165423D01*
X0173754Y0165461D02*
X0174975Y0165461D01*
X0175011Y0165499D02*
X0173790Y0165499D01*
X0173825Y0165537D02*
X0175048Y0165537D01*
X0175084Y0165574D02*
X0173860Y0165574D01*
X0173895Y0165612D02*
X0175120Y0165612D01*
X0175157Y0165650D02*
X0173930Y0165650D01*
X0173965Y0165688D02*
X0175193Y0165688D01*
X0175229Y0165726D02*
X0174001Y0165726D01*
X0174036Y0165764D02*
X0175266Y0165764D01*
X0175302Y0165802D02*
X0174071Y0165802D01*
X0174106Y0165840D02*
X0175338Y0165840D01*
X0175375Y0165877D02*
X0174141Y0165877D01*
X0174176Y0165915D02*
X0175411Y0165915D01*
X0175447Y0165953D02*
X0174211Y0165953D01*
X0174247Y0165991D02*
X0175484Y0165991D01*
X0175520Y0166029D02*
X0174282Y0166029D01*
X0174317Y0166067D02*
X0175557Y0166067D01*
X0175593Y0166105D02*
X0174352Y0166105D01*
X0174387Y0166143D02*
X0175629Y0166143D01*
X0175666Y0166181D02*
X0174422Y0166181D01*
X0174458Y0166218D02*
X0175702Y0166218D01*
X0175738Y0166256D02*
X0174493Y0166256D01*
X0174528Y0166294D02*
X0175775Y0166294D01*
X0175811Y0166332D02*
X0174563Y0166332D01*
X0174598Y0166370D02*
X0175847Y0166370D01*
X0175884Y0166408D02*
X0174633Y0166408D01*
X0174669Y0166446D02*
X0175920Y0166446D01*
X0175956Y0166484D02*
X0174704Y0166484D01*
X0174739Y0166521D02*
X0175993Y0166521D01*
X0176029Y0166559D02*
X0174774Y0166559D01*
X0174809Y0166597D02*
X0176065Y0166597D01*
X0176102Y0166635D02*
X0174844Y0166635D01*
X0174880Y0166673D02*
X0176138Y0166673D01*
X0176174Y0166711D02*
X0174915Y0166711D01*
X0174950Y0166749D02*
X0176211Y0166749D01*
X0176247Y0166787D02*
X0174985Y0166787D01*
X0175020Y0166825D02*
X0176284Y0166825D01*
X0176320Y0166862D02*
X0175055Y0166862D01*
X0175091Y0166900D02*
X0176356Y0166900D01*
X0176393Y0166938D02*
X0175126Y0166938D01*
X0175161Y0166976D02*
X0176429Y0166976D01*
X0176465Y0167014D02*
X0175196Y0167014D01*
X0175231Y0167052D02*
X0176502Y0167052D01*
X0176538Y0167090D02*
X0175266Y0167090D01*
X0175302Y0167128D02*
X0176574Y0167128D01*
X0176611Y0167165D02*
X0175337Y0167165D01*
X0175372Y0167203D02*
X0176647Y0167203D01*
X0176683Y0167241D02*
X0175407Y0167241D01*
X0175442Y0167279D02*
X0176720Y0167279D01*
X0176756Y0167317D02*
X0175478Y0167317D01*
X0175513Y0167355D02*
X0176792Y0167355D01*
X0176829Y0167393D02*
X0175548Y0167393D01*
D11*
X0160577Y0078940D02*
X0162273Y0077244D01*
X0164748Y0079261D01*
X0165744Y0078748D01*
X0167156Y0082158D01*
X0166624Y0082442D01*
X0166158Y0082825D01*
X0165776Y0083291D01*
X0165491Y0083823D01*
X0165316Y0084400D01*
X0165257Y0085000D01*
X0165322Y0085628D01*
X0165514Y0086230D01*
X0165825Y0086780D01*
X0166241Y0087255D01*
X0166746Y0087635D01*
X0167317Y0087903D01*
X0167932Y0088050D01*
X0168563Y0088067D01*
X0169185Y0087956D01*
X0169770Y0087720D01*
X0170296Y0087369D01*
X0170738Y0086918D01*
X0171079Y0086386D01*
X0171304Y0085796D01*
X0171404Y0085173D01*
X0171375Y0084542D01*
X0171217Y0083930D01*
X0170938Y0083364D01*
X0170549Y0082866D01*
X0170066Y0082459D01*
X0169510Y0082158D01*
X0170923Y0078748D01*
X0171919Y0079261D01*
X0174393Y0077244D01*
X0176089Y0078940D01*
X0174072Y0081414D01*
X0174585Y0082411D01*
X0174927Y0083478D01*
X0178103Y0083800D01*
X0178103Y0086200D01*
X0174927Y0086522D01*
X0174585Y0087589D01*
X0174072Y0088586D01*
X0176089Y0091060D01*
X0174393Y0092756D01*
X0171919Y0090739D01*
X0170923Y0091252D01*
X0169855Y0091593D01*
X0169533Y0094769D01*
X0167134Y0094769D01*
X0166811Y0091593D01*
X0165744Y0091252D01*
X0164748Y0090739D01*
X0162273Y0092756D01*
X0160577Y0091060D01*
X0162595Y0088586D01*
X0162082Y0087589D01*
X0161740Y0086522D01*
X0158564Y0086200D01*
X0158564Y0083800D01*
X0161740Y0083478D01*
X0162082Y0082411D01*
X0162595Y0081414D01*
X0160577Y0078940D01*
X0160637Y0078881D02*
X0164281Y0078881D01*
X0164647Y0079179D02*
X0160772Y0079179D01*
X0161016Y0079478D02*
X0166046Y0079478D01*
X0166169Y0079776D02*
X0161259Y0079776D01*
X0161503Y0080075D02*
X0166293Y0080075D01*
X0166417Y0080373D02*
X0161746Y0080373D01*
X0161989Y0080672D02*
X0166540Y0080672D01*
X0166664Y0080970D02*
X0162233Y0080970D01*
X0162476Y0081269D02*
X0166788Y0081269D01*
X0166911Y0081567D02*
X0162516Y0081567D01*
X0162362Y0081866D02*
X0167035Y0081866D01*
X0167145Y0082164D02*
X0162208Y0082164D01*
X0162065Y0082463D02*
X0166600Y0082463D01*
X0166236Y0082761D02*
X0161969Y0082761D01*
X0161874Y0083060D02*
X0165966Y0083060D01*
X0165740Y0083358D02*
X0161778Y0083358D01*
X0159978Y0083657D02*
X0165580Y0083657D01*
X0165451Y0083955D02*
X0158564Y0083955D01*
X0158564Y0084254D02*
X0165361Y0084254D01*
X0165301Y0084552D02*
X0158564Y0084552D01*
X0158564Y0084851D02*
X0165272Y0084851D01*
X0165273Y0085149D02*
X0158564Y0085149D01*
X0158564Y0085448D02*
X0165304Y0085448D01*
X0165360Y0085746D02*
X0158564Y0085746D01*
X0158564Y0086045D02*
X0165455Y0086045D01*
X0165578Y0086343D02*
X0159981Y0086343D01*
X0161778Y0086642D02*
X0165747Y0086642D01*
X0165965Y0086940D02*
X0161874Y0086940D01*
X0161969Y0087239D02*
X0166227Y0087239D01*
X0166617Y0087537D02*
X0162065Y0087537D01*
X0162209Y0087836D02*
X0167174Y0087836D01*
X0169482Y0087836D02*
X0174458Y0087836D01*
X0174602Y0087537D02*
X0170043Y0087537D01*
X0170423Y0087239D02*
X0174697Y0087239D01*
X0174793Y0086940D02*
X0170716Y0086940D01*
X0170915Y0086642D02*
X0174888Y0086642D01*
X0174304Y0088134D02*
X0162362Y0088134D01*
X0162516Y0088433D02*
X0174151Y0088433D01*
X0174191Y0088732D02*
X0162476Y0088732D01*
X0162233Y0089030D02*
X0174434Y0089030D01*
X0174678Y0089329D02*
X0161989Y0089329D01*
X0161746Y0089627D02*
X0174921Y0089627D01*
X0175164Y0089926D02*
X0161502Y0089926D01*
X0161259Y0090224D02*
X0175408Y0090224D01*
X0175651Y0090523D02*
X0161016Y0090523D01*
X0160772Y0090821D02*
X0164646Y0090821D01*
X0164908Y0090821D02*
X0171759Y0090821D01*
X0172020Y0090821D02*
X0175895Y0090821D01*
X0176029Y0091120D02*
X0172386Y0091120D01*
X0172753Y0091418D02*
X0175731Y0091418D01*
X0175432Y0091717D02*
X0173119Y0091717D01*
X0173485Y0092015D02*
X0175134Y0092015D01*
X0174835Y0092314D02*
X0173851Y0092314D01*
X0174217Y0092612D02*
X0174537Y0092612D01*
X0171179Y0091120D02*
X0165487Y0091120D01*
X0166264Y0091418D02*
X0170403Y0091418D01*
X0169843Y0091717D02*
X0166824Y0091717D01*
X0166854Y0092015D02*
X0169813Y0092015D01*
X0169782Y0092314D02*
X0166884Y0092314D01*
X0166915Y0092612D02*
X0169752Y0092612D01*
X0169722Y0092911D02*
X0166945Y0092911D01*
X0166975Y0093209D02*
X0169691Y0093209D01*
X0169661Y0093508D02*
X0167006Y0093508D01*
X0167036Y0093806D02*
X0169631Y0093806D01*
X0169600Y0094105D02*
X0167066Y0094105D01*
X0167097Y0094403D02*
X0169570Y0094403D01*
X0169540Y0094702D02*
X0167127Y0094702D01*
X0164280Y0091120D02*
X0160637Y0091120D01*
X0160936Y0091418D02*
X0163914Y0091418D01*
X0163548Y0091717D02*
X0161234Y0091717D01*
X0161533Y0092015D02*
X0163182Y0092015D01*
X0162816Y0092314D02*
X0161831Y0092314D01*
X0162130Y0092612D02*
X0162450Y0092612D01*
X0171095Y0086343D02*
X0176686Y0086343D01*
X0178103Y0086045D02*
X0171209Y0086045D01*
X0171312Y0085746D02*
X0178103Y0085746D01*
X0178103Y0085448D02*
X0171360Y0085448D01*
X0171403Y0085149D02*
X0178103Y0085149D01*
X0178103Y0084851D02*
X0171389Y0084851D01*
X0171375Y0084552D02*
X0178103Y0084552D01*
X0178103Y0084254D02*
X0171301Y0084254D01*
X0171224Y0083955D02*
X0178103Y0083955D01*
X0176689Y0083657D02*
X0171082Y0083657D01*
X0170934Y0083358D02*
X0174888Y0083358D01*
X0174793Y0083060D02*
X0170700Y0083060D01*
X0170425Y0082761D02*
X0174697Y0082761D01*
X0174602Y0082463D02*
X0170071Y0082463D01*
X0169522Y0082164D02*
X0174458Y0082164D01*
X0174304Y0081866D02*
X0169632Y0081866D01*
X0169755Y0081567D02*
X0174151Y0081567D01*
X0174191Y0081269D02*
X0169879Y0081269D01*
X0170003Y0080970D02*
X0174434Y0080970D01*
X0174677Y0080672D02*
X0170126Y0080672D01*
X0170250Y0080373D02*
X0174921Y0080373D01*
X0175164Y0080075D02*
X0170374Y0080075D01*
X0170497Y0079776D02*
X0175408Y0079776D01*
X0175651Y0079478D02*
X0170621Y0079478D01*
X0170745Y0079179D02*
X0171760Y0079179D01*
X0172020Y0079179D02*
X0175894Y0079179D01*
X0176030Y0078881D02*
X0172386Y0078881D01*
X0172752Y0078582D02*
X0175731Y0078582D01*
X0175433Y0078284D02*
X0173118Y0078284D01*
X0173484Y0077985D02*
X0175134Y0077985D01*
X0174836Y0077687D02*
X0173850Y0077687D01*
X0174217Y0077388D02*
X0174537Y0077388D01*
X0171180Y0078881D02*
X0170868Y0078881D01*
X0165922Y0079179D02*
X0164907Y0079179D01*
X0165486Y0078881D02*
X0165798Y0078881D01*
X0163914Y0078582D02*
X0160935Y0078582D01*
X0161234Y0078284D02*
X0163548Y0078284D01*
X0163182Y0077985D02*
X0161532Y0077985D01*
X0161831Y0077687D02*
X0162816Y0077687D01*
X0162450Y0077388D02*
X0162129Y0077388D01*
D12*
X0168058Y0151850D03*
X0168058Y0158150D03*
D13*
X0168058Y0157992D03*
X0168058Y0152008D03*
D14*
X0168058Y0152165D03*
X0168058Y0157835D03*
D15*
X0168058Y0157677D03*
X0168058Y0152323D03*
D16*
X0168058Y0152480D03*
X0168058Y0157520D03*
D17*
X0168058Y0157362D03*
X0168058Y0152638D03*
D18*
X0157743Y0157205D03*
X0157585Y0157047D03*
D19*
X0164829Y0157205D03*
X0208672Y0141575D03*
X0208672Y0141417D03*
D20*
X0207885Y0140630D03*
X0206467Y0139685D03*
X0206467Y0139055D03*
X0208199Y0138425D03*
X0211822Y0138425D03*
X0211822Y0138583D03*
X0211822Y0138740D03*
X0205365Y0140787D03*
X0204420Y0139055D03*
X0204420Y0138898D03*
X0179810Y0125315D03*
X0178235Y0124055D03*
X0159550Y0126417D03*
X0130357Y0139528D03*
X0126892Y0139843D03*
X0126892Y0140000D03*
X0158688Y0155945D03*
X0160262Y0156732D03*
X0160262Y0154370D03*
X0167664Y0154685D03*
X0167664Y0154843D03*
X0167664Y0155000D03*
X0167664Y0155157D03*
X0169239Y0157205D03*
X0170971Y0156575D03*
X0170971Y0156417D03*
X0170971Y0156260D03*
X0170971Y0156102D03*
X0170971Y0155945D03*
X0170971Y0154843D03*
X0170971Y0154685D03*
X0170971Y0154528D03*
X0170971Y0154370D03*
X0170971Y0154213D03*
X0170971Y0154055D03*
X0170971Y0153898D03*
X0171444Y0153110D03*
X0173018Y0153898D03*
X0173018Y0154055D03*
X0173018Y0154213D03*
X0173018Y0154370D03*
X0173018Y0154528D03*
X0173018Y0154685D03*
X0173018Y0154843D03*
X0173648Y0153110D03*
X0175223Y0153740D03*
X0175066Y0154685D03*
X0176483Y0152953D03*
X0203373Y0110157D03*
X0203373Y0110000D03*
X0203373Y0109843D03*
X0203373Y0109685D03*
X0205735Y0108110D03*
X0207625Y0108898D03*
X0208255Y0110787D03*
X0208255Y0110945D03*
X0211719Y0110945D03*
X0132719Y0110945D03*
X0129255Y0110945D03*
X0129255Y0110787D03*
X0128625Y0108898D03*
X0126735Y0108110D03*
X0124373Y0109685D03*
X0124373Y0109843D03*
X0124373Y0110000D03*
X0124373Y0110157D03*
D21*
X0177999Y0122323D03*
X0177999Y0127677D03*
X0176089Y0157047D03*
X0175932Y0157205D03*
D22*
X0164829Y0157047D03*
X0130357Y0141260D03*
X0130357Y0141102D03*
D23*
X0128625Y0140787D03*
X0127207Y0140787D03*
X0127050Y0140472D03*
X0128625Y0138110D03*
X0128625Y0137953D03*
X0159077Y0125787D03*
X0159235Y0125945D03*
X0159392Y0126102D03*
X0178077Y0125945D03*
X0178235Y0123898D03*
X0205735Y0111575D03*
X0205735Y0111417D03*
X0205735Y0111260D03*
X0205735Y0111102D03*
X0205735Y0110315D03*
X0207467Y0109370D03*
X0208412Y0110472D03*
X0209987Y0111890D03*
X0211562Y0108898D03*
X0209987Y0108110D03*
X0205735Y0108268D03*
X0210247Y0137953D03*
X0208199Y0138740D03*
X0208042Y0140157D03*
X0208042Y0140315D03*
X0206467Y0139843D03*
X0206467Y0138898D03*
X0204577Y0139528D03*
X0204577Y0139685D03*
X0204735Y0140000D03*
X0204892Y0140315D03*
X0205050Y0140472D03*
X0211507Y0140787D03*
X0176483Y0153110D03*
X0176483Y0153583D03*
X0176483Y0155472D03*
X0173648Y0155472D03*
X0173333Y0153740D03*
X0173491Y0153425D03*
X0171286Y0153425D03*
X0171286Y0153583D03*
X0171286Y0153740D03*
X0169396Y0153268D03*
X0169396Y0153110D03*
X0169239Y0155787D03*
X0169239Y0156417D03*
X0169239Y0157047D03*
X0170814Y0155787D03*
X0164199Y0154528D03*
X0161995Y0154528D03*
X0160420Y0154685D03*
X0160420Y0156417D03*
X0130987Y0111890D03*
X0129412Y0110472D03*
X0128467Y0109370D03*
X0126735Y0110315D03*
X0126735Y0111102D03*
X0126735Y0111260D03*
X0126735Y0111417D03*
X0126735Y0111575D03*
X0126735Y0108268D03*
X0130987Y0108110D03*
X0132562Y0108898D03*
D24*
X0135003Y0111890D03*
X0125554Y0110630D03*
X0125554Y0110472D03*
X0122719Y0111890D03*
X0162778Y0123110D03*
X0162936Y0123425D03*
X0162936Y0123583D03*
X0162936Y0126417D03*
X0162936Y0126575D03*
X0162778Y0126890D03*
X0177054Y0125157D03*
X0183038Y0123583D03*
X0183038Y0123425D03*
X0201719Y0111890D03*
X0204554Y0110630D03*
X0204554Y0110472D03*
X0214003Y0111890D03*
X0200719Y0138898D03*
X0200719Y0139055D03*
X0172306Y0140425D03*
X0172306Y0140583D03*
X0172306Y0143417D03*
X0172306Y0143575D03*
X0164117Y0143575D03*
X0164117Y0143417D03*
X0164117Y0140583D03*
X0164117Y0140425D03*
X0163176Y0153110D03*
X0163018Y0155787D03*
X0163018Y0156417D03*
X0163176Y0156890D03*
X0155774Y0156890D03*
X0155774Y0156732D03*
X0155774Y0153268D03*
X0155774Y0153110D03*
X0155932Y0152953D03*
X0122719Y0139055D03*
X0122719Y0138898D03*
D25*
X0126735Y0139213D03*
X0126735Y0139370D03*
X0130357Y0137953D03*
X0159707Y0123740D03*
X0159707Y0123583D03*
X0159707Y0123425D03*
X0159707Y0123268D03*
X0177920Y0122953D03*
X0204003Y0109055D03*
X0205577Y0107953D03*
X0207782Y0108425D03*
X0207782Y0108583D03*
X0208097Y0111260D03*
X0205577Y0111890D03*
X0211877Y0110630D03*
X0211877Y0109213D03*
X0211979Y0138110D03*
X0208199Y0138268D03*
X0204420Y0138583D03*
X0204420Y0138740D03*
X0203160Y0140630D03*
X0176325Y0155787D03*
X0173806Y0155787D03*
X0173648Y0152953D03*
X0171601Y0152953D03*
X0160105Y0156890D03*
X0158845Y0155630D03*
X0158845Y0155472D03*
X0169235Y0140425D03*
X0169235Y0140268D03*
X0169235Y0140110D03*
X0126577Y0111890D03*
X0129097Y0111260D03*
X0128782Y0108583D03*
X0128782Y0108425D03*
X0126577Y0107953D03*
X0125003Y0109055D03*
X0132877Y0109213D03*
X0132877Y0110630D03*
D26*
X0130908Y0110630D03*
X0130908Y0110787D03*
X0130908Y0110945D03*
X0130908Y0111102D03*
X0130908Y0111260D03*
X0130908Y0111417D03*
X0130908Y0111575D03*
X0130908Y0111732D03*
X0130908Y0110472D03*
X0130908Y0110315D03*
X0130908Y0110157D03*
X0130908Y0110000D03*
X0130908Y0109843D03*
X0130908Y0109685D03*
X0130908Y0109528D03*
X0130908Y0109370D03*
X0130908Y0109213D03*
X0130908Y0109055D03*
X0130908Y0108898D03*
X0130908Y0108740D03*
X0130908Y0108583D03*
X0130908Y0108425D03*
X0130908Y0108268D03*
X0128388Y0109528D03*
X0129491Y0110157D03*
X0129491Y0110315D03*
X0126814Y0110157D03*
X0126814Y0110000D03*
X0126814Y0109843D03*
X0126814Y0109685D03*
X0126814Y0109528D03*
X0126814Y0109370D03*
X0126814Y0109213D03*
X0126814Y0109055D03*
X0126814Y0108898D03*
X0126814Y0108740D03*
X0126814Y0108583D03*
X0126814Y0108425D03*
X0178156Y0123268D03*
X0178156Y0123740D03*
X0178156Y0126102D03*
X0178314Y0126260D03*
X0178314Y0126417D03*
X0203081Y0139685D03*
X0203081Y0139843D03*
X0204656Y0139843D03*
X0204814Y0140157D03*
X0208121Y0140000D03*
X0208121Y0139843D03*
X0208121Y0139685D03*
X0208121Y0139055D03*
X0208121Y0138898D03*
X0176562Y0153268D03*
X0176562Y0153425D03*
X0176562Y0154213D03*
X0176562Y0154370D03*
X0176562Y0155000D03*
X0176562Y0155157D03*
X0176562Y0155315D03*
X0177822Y0155787D03*
X0173570Y0155315D03*
X0173412Y0153583D03*
X0170735Y0155000D03*
X0170735Y0155157D03*
X0170735Y0155315D03*
X0170735Y0155472D03*
X0170735Y0155630D03*
X0169318Y0155630D03*
X0169318Y0155472D03*
X0169318Y0155315D03*
X0169318Y0155157D03*
X0169318Y0155000D03*
X0169318Y0154843D03*
X0169318Y0154685D03*
X0169318Y0154528D03*
X0169318Y0154370D03*
X0169318Y0154213D03*
X0169318Y0154055D03*
X0169318Y0153898D03*
X0169318Y0153740D03*
X0169318Y0153583D03*
X0169318Y0153425D03*
X0164278Y0153740D03*
X0161916Y0153740D03*
X0161916Y0154370D03*
X0160499Y0154843D03*
X0160499Y0155000D03*
X0167900Y0156890D03*
X0169318Y0156890D03*
X0169318Y0156732D03*
X0169318Y0156575D03*
X0129963Y0140787D03*
X0128546Y0140630D03*
X0128546Y0140472D03*
X0128546Y0140315D03*
X0128546Y0140157D03*
X0128546Y0140000D03*
X0128546Y0139843D03*
X0128546Y0139685D03*
X0128546Y0139528D03*
X0128546Y0139370D03*
X0128546Y0139213D03*
X0128546Y0139055D03*
X0128546Y0138898D03*
X0128546Y0138740D03*
X0128546Y0138583D03*
X0128546Y0138425D03*
X0128546Y0138268D03*
X0125081Y0139685D03*
X0125081Y0139843D03*
X0205814Y0110157D03*
X0205814Y0110000D03*
X0205814Y0109843D03*
X0205814Y0109685D03*
X0205814Y0109528D03*
X0205814Y0109370D03*
X0205814Y0109213D03*
X0205814Y0109055D03*
X0205814Y0108898D03*
X0205814Y0108740D03*
X0205814Y0108583D03*
X0205814Y0108425D03*
X0207388Y0109528D03*
X0208491Y0110157D03*
X0208491Y0110315D03*
X0209908Y0110315D03*
X0209908Y0110472D03*
X0209908Y0110630D03*
X0209908Y0110787D03*
X0209908Y0110945D03*
X0209908Y0111102D03*
X0209908Y0111260D03*
X0209908Y0111417D03*
X0209908Y0111575D03*
X0209908Y0111732D03*
X0209908Y0110157D03*
X0209908Y0110000D03*
X0209908Y0109843D03*
X0209908Y0109685D03*
X0209908Y0109528D03*
X0209908Y0109370D03*
X0209908Y0109213D03*
X0209908Y0109055D03*
X0209908Y0108898D03*
X0209908Y0108740D03*
X0209908Y0108583D03*
X0209908Y0108425D03*
X0209908Y0108268D03*
D27*
X0176168Y0156890D03*
D28*
X0163097Y0156732D03*
X0163097Y0156575D03*
X0163097Y0155630D03*
X0163097Y0155472D03*
X0163097Y0155315D03*
X0163097Y0155157D03*
X0163097Y0155000D03*
X0163097Y0154843D03*
X0163097Y0154685D03*
X0163097Y0153583D03*
X0163097Y0153425D03*
X0163097Y0153268D03*
X0164196Y0143890D03*
X0164196Y0143732D03*
X0167975Y0143417D03*
X0172227Y0143732D03*
X0172227Y0143890D03*
X0172227Y0140268D03*
X0172227Y0140110D03*
X0172070Y0139953D03*
X0164353Y0139953D03*
X0164196Y0140110D03*
X0164196Y0140268D03*
X0162857Y0126732D03*
X0158133Y0125472D03*
X0158133Y0125315D03*
X0162699Y0122953D03*
X0162857Y0123268D03*
X0176975Y0125315D03*
X0176975Y0125472D03*
X0182802Y0122953D03*
X0182959Y0123110D03*
X0182959Y0123268D03*
X0204633Y0110787D03*
X0201640Y0108110D03*
X0214081Y0108110D03*
X0200640Y0139213D03*
X0200640Y0139370D03*
X0132247Y0140787D03*
X0122640Y0139370D03*
X0122640Y0139213D03*
X0125633Y0110787D03*
X0122640Y0108110D03*
X0135081Y0108110D03*
D29*
X0129570Y0110000D03*
X0128310Y0109843D03*
X0128310Y0109685D03*
X0178235Y0123425D03*
X0178235Y0123583D03*
X0207310Y0109843D03*
X0207310Y0109685D03*
X0208570Y0110000D03*
X0209774Y0138898D03*
X0208199Y0139213D03*
X0208199Y0139370D03*
X0208199Y0139528D03*
X0211507Y0140000D03*
X0211507Y0140157D03*
X0211507Y0140315D03*
X0211507Y0140472D03*
X0211507Y0140630D03*
X0176640Y0154528D03*
X0176640Y0154685D03*
X0176640Y0154843D03*
X0175066Y0155000D03*
X0173491Y0155000D03*
X0173491Y0155157D03*
X0167979Y0156417D03*
X0167979Y0156575D03*
X0167979Y0156732D03*
X0164357Y0154370D03*
X0164357Y0154213D03*
X0164357Y0154055D03*
X0164357Y0153898D03*
X0161837Y0153898D03*
X0161837Y0154055D03*
X0161837Y0154213D03*
X0160577Y0155157D03*
X0160577Y0155315D03*
X0160577Y0155472D03*
X0160577Y0155630D03*
X0160577Y0155787D03*
X0130357Y0139843D03*
X0127365Y0141417D03*
X0127207Y0141890D03*
D30*
X0126814Y0139685D03*
X0126814Y0139528D03*
X0125081Y0140315D03*
X0125081Y0140472D03*
X0130278Y0139370D03*
X0130278Y0139213D03*
X0130278Y0139055D03*
X0130278Y0138898D03*
X0130278Y0138740D03*
X0130278Y0138583D03*
X0130278Y0138425D03*
X0130278Y0138268D03*
X0130278Y0138110D03*
X0157739Y0125945D03*
X0159629Y0126575D03*
X0176581Y0125945D03*
X0178314Y0126732D03*
X0179888Y0125787D03*
X0179888Y0125630D03*
X0179888Y0125472D03*
X0179731Y0125157D03*
X0203451Y0110315D03*
X0204081Y0110945D03*
X0208176Y0111102D03*
X0207703Y0108740D03*
X0211798Y0109055D03*
X0211798Y0110787D03*
X0211900Y0138268D03*
X0209853Y0139213D03*
X0209853Y0139370D03*
X0209853Y0139528D03*
X0209853Y0139685D03*
X0209853Y0139843D03*
X0209853Y0140000D03*
X0209853Y0140157D03*
X0209853Y0140315D03*
X0209853Y0140472D03*
X0209853Y0140630D03*
X0206388Y0139528D03*
X0206388Y0139370D03*
X0206388Y0139213D03*
X0203081Y0140315D03*
X0203081Y0140472D03*
X0171050Y0156732D03*
X0167585Y0155315D03*
X0167585Y0154528D03*
X0169475Y0152953D03*
X0160184Y0154213D03*
X0158766Y0155157D03*
X0158766Y0155315D03*
X0158766Y0155787D03*
X0132798Y0110787D03*
X0132798Y0109055D03*
X0128703Y0108740D03*
X0129176Y0111102D03*
X0125081Y0110945D03*
X0124451Y0110315D03*
D31*
X0177270Y0156417D03*
X0177113Y0156732D03*
D32*
X0163097Y0152953D03*
X0155696Y0153425D03*
X0155696Y0153583D03*
X0155696Y0156417D03*
X0155696Y0156575D03*
X0164038Y0143260D03*
X0164038Y0143102D03*
X0164038Y0142945D03*
X0164038Y0141055D03*
X0164038Y0140898D03*
X0164038Y0140740D03*
X0168290Y0140740D03*
X0168133Y0143575D03*
X0172385Y0143260D03*
X0172385Y0143102D03*
X0172385Y0142945D03*
X0172385Y0141055D03*
X0172385Y0140898D03*
X0172385Y0140740D03*
X0163014Y0126260D03*
X0163014Y0126102D03*
X0163014Y0125945D03*
X0163014Y0124055D03*
X0163014Y0123898D03*
X0163014Y0123740D03*
X0177290Y0124213D03*
X0183117Y0123740D03*
X0200798Y0138583D03*
X0200798Y0138740D03*
X0201798Y0107953D03*
X0122798Y0107953D03*
X0122798Y0138583D03*
X0122798Y0138740D03*
D33*
X0125081Y0140000D03*
X0125081Y0140157D03*
X0126971Y0140157D03*
X0126971Y0140315D03*
X0127129Y0140630D03*
X0130278Y0139685D03*
X0159471Y0126260D03*
X0157739Y0123898D03*
X0176581Y0123898D03*
X0177999Y0123110D03*
X0177999Y0125787D03*
X0178314Y0126575D03*
X0179888Y0125945D03*
X0203081Y0140000D03*
X0203081Y0140157D03*
X0204499Y0139370D03*
X0204499Y0139213D03*
X0205129Y0140630D03*
X0207963Y0140472D03*
X0208121Y0138583D03*
X0209853Y0139055D03*
X0211743Y0139055D03*
X0211743Y0138898D03*
X0211743Y0139213D03*
X0211743Y0139370D03*
X0211743Y0139528D03*
X0211743Y0139685D03*
X0211743Y0139843D03*
X0176404Y0153740D03*
X0176404Y0154055D03*
X0176404Y0155630D03*
X0174987Y0154843D03*
X0173727Y0155630D03*
X0173570Y0153268D03*
X0171365Y0153268D03*
X0160341Y0154528D03*
X0160341Y0156575D03*
X0129333Y0110630D03*
X0128546Y0109213D03*
X0128546Y0109055D03*
X0130908Y0107953D03*
X0126656Y0110945D03*
X0126656Y0111732D03*
X0125081Y0108898D03*
X0204081Y0108898D03*
X0205656Y0110945D03*
X0205656Y0111732D03*
X0208333Y0110630D03*
X0207546Y0109213D03*
X0207546Y0109055D03*
X0209908Y0107953D03*
D34*
X0168211Y0139480D03*
X0168211Y0144520D03*
X0177349Y0155945D03*
X0177349Y0156102D03*
X0177349Y0156260D03*
X0177192Y0156575D03*
D35*
X0180656Y0155630D03*
X0180656Y0155472D03*
X0180656Y0155315D03*
X0180656Y0155157D03*
X0172463Y0142787D03*
X0172463Y0142630D03*
X0172463Y0142472D03*
X0172463Y0142315D03*
X0172463Y0142157D03*
X0172463Y0142000D03*
X0172463Y0141843D03*
X0172463Y0141685D03*
X0172463Y0141528D03*
X0172463Y0141370D03*
X0172463Y0141213D03*
X0168211Y0141213D03*
X0168211Y0141370D03*
X0168211Y0141528D03*
X0168211Y0141685D03*
X0168211Y0141843D03*
X0168211Y0142000D03*
X0168211Y0142157D03*
X0168211Y0141055D03*
X0168211Y0140898D03*
X0168211Y0143732D03*
X0163959Y0142787D03*
X0163959Y0142630D03*
X0163959Y0142472D03*
X0163959Y0142315D03*
X0163959Y0142157D03*
X0163959Y0142000D03*
X0163959Y0141843D03*
X0163959Y0141685D03*
X0163959Y0141528D03*
X0163959Y0141370D03*
X0163959Y0141213D03*
X0155617Y0153740D03*
X0155617Y0153898D03*
X0155617Y0154055D03*
X0155617Y0155945D03*
X0155617Y0156102D03*
X0155617Y0156260D03*
X0122877Y0138425D03*
X0122877Y0138268D03*
X0154117Y0125945D03*
X0153959Y0125472D03*
X0153959Y0125315D03*
X0153959Y0125157D03*
X0153959Y0125000D03*
X0153959Y0124843D03*
X0153959Y0124685D03*
X0153959Y0124528D03*
X0153959Y0124370D03*
X0154117Y0124055D03*
X0163093Y0124213D03*
X0163093Y0124370D03*
X0163093Y0124528D03*
X0163093Y0124685D03*
X0163093Y0124843D03*
X0163093Y0125000D03*
X0163093Y0125157D03*
X0163093Y0125315D03*
X0163093Y0125472D03*
X0163093Y0125630D03*
X0163093Y0125787D03*
X0172802Y0125315D03*
X0172802Y0125157D03*
X0172802Y0125000D03*
X0172802Y0124843D03*
X0172802Y0124685D03*
X0183038Y0125945D03*
X0200877Y0138268D03*
X0200877Y0138425D03*
X0201877Y0112047D03*
X0213845Y0107953D03*
X0134845Y0107953D03*
X0122877Y0112047D03*
D36*
X0173747Y0126890D03*
X0177684Y0124843D03*
X0182566Y0124055D03*
X0182723Y0124213D03*
X0179869Y0153425D03*
X0179869Y0153583D03*
X0162388Y0155945D03*
X0162388Y0156102D03*
X0162388Y0156260D03*
D37*
X0168688Y0156260D03*
X0200089Y0141732D03*
X0200089Y0141575D03*
X0200089Y0141417D03*
X0203081Y0141102D03*
X0204499Y0138268D03*
X0212058Y0137953D03*
X0214892Y0140000D03*
X0214892Y0140157D03*
X0214892Y0140315D03*
X0214892Y0140472D03*
X0214892Y0140630D03*
X0178314Y0126890D03*
X0159629Y0123110D03*
X0135633Y0110630D03*
X0135633Y0110472D03*
X0135633Y0110315D03*
X0135633Y0110157D03*
X0135633Y0110000D03*
X0135633Y0109843D03*
X0135633Y0109685D03*
X0135633Y0109528D03*
X0135633Y0109370D03*
X0128861Y0108110D03*
X0122089Y0109528D03*
X0122089Y0109685D03*
X0122089Y0109843D03*
X0122089Y0110000D03*
X0122089Y0110157D03*
X0122089Y0110315D03*
X0122089Y0110472D03*
X0126499Y0138268D03*
X0126499Y0138425D03*
X0125081Y0141102D03*
X0125081Y0141260D03*
X0122089Y0141417D03*
X0122089Y0141575D03*
X0122089Y0141732D03*
X0201089Y0110472D03*
X0201089Y0110315D03*
X0201089Y0110157D03*
X0201089Y0110000D03*
X0201089Y0109843D03*
X0201089Y0109685D03*
X0201089Y0109528D03*
X0207861Y0108110D03*
X0214633Y0109370D03*
X0214633Y0109528D03*
X0214633Y0109685D03*
X0214633Y0109843D03*
X0214633Y0110000D03*
X0214633Y0110157D03*
X0214633Y0110315D03*
X0214633Y0110472D03*
X0214633Y0110630D03*
D38*
X0214554Y0110787D03*
X0214554Y0110945D03*
X0214554Y0109213D03*
X0214554Y0109055D03*
X0207940Y0107953D03*
X0201168Y0109055D03*
X0201168Y0109213D03*
X0201168Y0109370D03*
X0201168Y0110630D03*
X0201168Y0110787D03*
X0201168Y0110945D03*
X0207940Y0111890D03*
X0214814Y0138110D03*
X0214814Y0138268D03*
X0214814Y0138425D03*
X0214814Y0138583D03*
X0214814Y0140787D03*
X0203160Y0141260D03*
X0200168Y0141260D03*
X0200168Y0141102D03*
X0200168Y0141890D03*
X0168609Y0156102D03*
X0132719Y0139843D03*
X0132719Y0139685D03*
X0132719Y0139528D03*
X0132719Y0139370D03*
X0132719Y0139213D03*
X0132719Y0139055D03*
X0132719Y0138898D03*
X0132719Y0138740D03*
X0132719Y0138583D03*
X0132719Y0138425D03*
X0132719Y0138268D03*
X0132719Y0138110D03*
X0122168Y0141102D03*
X0122168Y0141260D03*
X0122168Y0141890D03*
X0159550Y0126890D03*
X0128940Y0111890D03*
X0135554Y0110945D03*
X0135554Y0110787D03*
X0135554Y0109213D03*
X0135554Y0109055D03*
X0128940Y0107953D03*
X0122168Y0109055D03*
X0122168Y0109213D03*
X0122168Y0109370D03*
X0122168Y0110630D03*
X0122168Y0110787D03*
X0122168Y0110945D03*
D39*
X0154747Y0123110D03*
X0173589Y0123110D03*
X0173589Y0126732D03*
X0182251Y0127047D03*
X0182881Y0124528D03*
X0125554Y0142047D03*
X0167585Y0155945D03*
D40*
X0180577Y0155787D03*
X0180577Y0155000D03*
X0168290Y0143890D03*
X0155538Y0154213D03*
X0155538Y0154370D03*
X0155538Y0154528D03*
X0155538Y0154685D03*
X0155538Y0154843D03*
X0155538Y0155000D03*
X0155538Y0155157D03*
X0155538Y0155315D03*
X0155538Y0155472D03*
X0155538Y0155630D03*
X0155538Y0155787D03*
X0122955Y0138110D03*
X0154038Y0125787D03*
X0154038Y0125630D03*
X0154196Y0126102D03*
X0154038Y0124213D03*
X0154196Y0123898D03*
X0154196Y0123740D03*
X0154353Y0123583D03*
X0158605Y0124213D03*
X0172881Y0124213D03*
X0172881Y0124370D03*
X0172881Y0124528D03*
X0173038Y0124055D03*
X0173038Y0123898D03*
X0173196Y0123583D03*
X0172881Y0125472D03*
X0172881Y0125630D03*
X0172881Y0125787D03*
X0173038Y0125945D03*
X0173038Y0126102D03*
X0177290Y0124370D03*
X0182644Y0126732D03*
X0182802Y0126575D03*
X0182802Y0126417D03*
X0182959Y0126260D03*
X0182959Y0126102D03*
X0183117Y0125787D03*
X0183117Y0125630D03*
X0183117Y0125472D03*
X0183117Y0125315D03*
X0183117Y0125157D03*
X0200955Y0138110D03*
D41*
X0200483Y0139843D03*
X0200483Y0140000D03*
X0204577Y0137953D03*
X0214499Y0138898D03*
X0214499Y0139055D03*
X0214499Y0139213D03*
X0214499Y0139370D03*
X0214499Y0139528D03*
X0214499Y0139685D03*
X0214499Y0139843D03*
X0214499Y0140945D03*
X0214499Y0141102D03*
X0214499Y0141260D03*
X0214499Y0141417D03*
X0178235Y0127047D03*
X0158133Y0125630D03*
X0135239Y0111575D03*
X0135239Y0108268D03*
X0122483Y0108268D03*
X0122483Y0111575D03*
X0122483Y0139843D03*
X0122483Y0140000D03*
X0132404Y0140630D03*
X0159475Y0153110D03*
X0159475Y0153268D03*
X0159475Y0153425D03*
X0159475Y0153583D03*
X0159475Y0153740D03*
X0159475Y0153898D03*
X0166877Y0153898D03*
X0166877Y0154055D03*
X0166877Y0154213D03*
X0166877Y0154370D03*
X0166877Y0153740D03*
X0166877Y0153583D03*
X0166877Y0153425D03*
X0166877Y0153268D03*
X0166877Y0155472D03*
X0166877Y0155630D03*
X0166877Y0155787D03*
X0167818Y0143102D03*
X0167818Y0142315D03*
X0201483Y0111575D03*
X0201483Y0108268D03*
X0214239Y0108268D03*
X0214239Y0111575D03*
D42*
X0208648Y0109843D03*
X0207231Y0110000D03*
X0210325Y0138110D03*
X0203081Y0139370D03*
X0203081Y0139528D03*
X0177822Y0155630D03*
X0169786Y0142315D03*
X0129806Y0140630D03*
X0127286Y0141575D03*
X0127286Y0141732D03*
X0125081Y0139528D03*
X0125081Y0139370D03*
X0128231Y0110000D03*
X0129648Y0109843D03*
D43*
X0179948Y0153740D03*
X0179948Y0153898D03*
X0179948Y0154055D03*
X0180105Y0154843D03*
D44*
X0180026Y0154685D03*
X0180026Y0154528D03*
X0180026Y0154370D03*
X0180026Y0154213D03*
X0174062Y0127047D03*
X0177841Y0125000D03*
X0182408Y0123898D03*
X0155219Y0127047D03*
D45*
X0159550Y0124055D03*
X0176660Y0125787D03*
X0204420Y0138425D03*
X0208199Y0138110D03*
X0203160Y0140945D03*
X0159948Y0154055D03*
X0126577Y0138740D03*
X0126577Y0138583D03*
X0125003Y0140945D03*
X0128940Y0111732D03*
X0133034Y0110315D03*
X0133034Y0110157D03*
X0133034Y0110000D03*
X0133034Y0109843D03*
X0133034Y0109685D03*
X0124845Y0109528D03*
X0124845Y0109370D03*
X0203845Y0109370D03*
X0203845Y0109528D03*
X0207940Y0111732D03*
X0212034Y0110315D03*
X0212034Y0110157D03*
X0212034Y0110000D03*
X0212034Y0109843D03*
X0212034Y0109685D03*
D46*
X0214396Y0108583D03*
X0214396Y0111260D03*
X0201325Y0111260D03*
X0201325Y0111417D03*
X0201325Y0108583D03*
X0208199Y0137953D03*
X0200325Y0140472D03*
X0200325Y0140630D03*
X0175696Y0153898D03*
X0132562Y0140315D03*
X0126420Y0137953D03*
X0122325Y0140472D03*
X0122325Y0140630D03*
X0122325Y0142047D03*
X0122325Y0111417D03*
X0122325Y0111260D03*
X0122325Y0108583D03*
X0135396Y0108583D03*
X0135396Y0111260D03*
D47*
X0154983Y0122953D03*
X0154825Y0126890D03*
X0173825Y0122953D03*
X0177605Y0124685D03*
X0182802Y0124370D03*
X0179633Y0152953D03*
X0179790Y0153110D03*
X0179790Y0153268D03*
D48*
X0166798Y0153110D03*
X0166798Y0152953D03*
X0159396Y0152953D03*
X0167896Y0143260D03*
X0200562Y0139685D03*
X0200562Y0139528D03*
X0214420Y0141575D03*
X0214420Y0141732D03*
X0177054Y0125630D03*
X0201562Y0111732D03*
X0214160Y0111732D03*
X0135160Y0111732D03*
X0122562Y0111732D03*
X0122562Y0139528D03*
X0122562Y0139685D03*
D49*
X0168058Y0152795D03*
D50*
X0158526Y0128150D03*
X0158526Y0121850D03*
D51*
X0158526Y0122008D03*
X0158526Y0127992D03*
X0168211Y0139165D03*
X0168211Y0144835D03*
D52*
X0168211Y0144677D03*
X0168211Y0139323D03*
X0158526Y0127835D03*
X0158526Y0122165D03*
D53*
X0158526Y0122323D03*
X0158526Y0127677D03*
X0177999Y0127992D03*
X0177999Y0122008D03*
X0168211Y0139638D03*
X0168211Y0144362D03*
D54*
X0168211Y0144205D03*
X0168211Y0139795D03*
X0158526Y0127520D03*
X0158526Y0122480D03*
D55*
X0158526Y0122638D03*
X0158526Y0127362D03*
X0177999Y0127835D03*
X0177999Y0122165D03*
X0168211Y0144047D03*
D56*
X0158526Y0127205D03*
X0158526Y0122795D03*
D57*
X0161046Y0127047D03*
D58*
X0158448Y0125157D03*
X0158448Y0125000D03*
X0158448Y0124843D03*
X0158448Y0124685D03*
X0154668Y0126732D03*
X0154510Y0126575D03*
X0173353Y0126575D03*
X0173510Y0123268D03*
X0177448Y0124528D03*
X0182959Y0124685D03*
X0182487Y0126890D03*
D59*
X0176581Y0124055D03*
X0159629Y0123898D03*
X0157739Y0124055D03*
X0157739Y0125787D03*
X0159629Y0126732D03*
X0169156Y0139953D03*
X0169156Y0140583D03*
X0203081Y0140787D03*
X0207806Y0140787D03*
X0209853Y0140787D03*
X0208018Y0111575D03*
X0208018Y0111417D03*
X0211955Y0110472D03*
X0211955Y0109528D03*
X0211955Y0109370D03*
X0207861Y0108268D03*
X0203924Y0109213D03*
X0132955Y0109370D03*
X0132955Y0109528D03*
X0132955Y0110472D03*
X0129018Y0111417D03*
X0129018Y0111575D03*
X0128861Y0108268D03*
X0124924Y0109213D03*
X0126656Y0138898D03*
X0126656Y0139055D03*
X0125081Y0140630D03*
X0125081Y0140787D03*
D60*
X0123034Y0137953D03*
X0154274Y0126260D03*
X0154432Y0126417D03*
X0158526Y0124528D03*
X0158526Y0124370D03*
X0154589Y0123268D03*
X0154432Y0123425D03*
X0173117Y0123740D03*
X0173274Y0123425D03*
X0173117Y0126260D03*
X0173274Y0126417D03*
X0183038Y0125000D03*
X0183038Y0124843D03*
X0201034Y0137953D03*
D61*
X0204499Y0138110D03*
X0203081Y0141417D03*
X0203081Y0141575D03*
X0200247Y0140945D03*
X0200247Y0140787D03*
X0214735Y0138740D03*
X0214735Y0137953D03*
X0214475Y0111102D03*
X0214475Y0108898D03*
X0214475Y0108740D03*
X0201247Y0108740D03*
X0201247Y0108898D03*
X0201247Y0111102D03*
X0159471Y0122953D03*
X0135475Y0111102D03*
X0135475Y0108898D03*
X0135475Y0108740D03*
X0122247Y0108740D03*
X0122247Y0108898D03*
X0122247Y0111102D03*
X0126499Y0138110D03*
X0125081Y0141417D03*
X0125081Y0141575D03*
X0122247Y0140945D03*
X0122247Y0140787D03*
X0132640Y0140157D03*
X0132640Y0140000D03*
X0132640Y0137953D03*
D62*
X0177999Y0128150D03*
X0177999Y0121850D03*
D63*
X0177999Y0122480D03*
X0177999Y0127520D03*
D64*
X0177999Y0127362D03*
X0177999Y0122638D03*
D65*
X0177999Y0122795D03*
X0177999Y0127205D03*
D66*
X0168211Y0138850D03*
X0168211Y0145150D03*
X0208593Y0141260D03*
X0208593Y0141102D03*
X0208751Y0141732D03*
D67*
X0168211Y0139008D03*
X0168211Y0144992D03*
D68*
X0167739Y0142945D03*
X0167739Y0142787D03*
X0167739Y0142630D03*
X0167739Y0142472D03*
X0200404Y0140315D03*
X0200404Y0140157D03*
X0203081Y0141732D03*
X0203081Y0141890D03*
X0214318Y0111417D03*
X0214318Y0108425D03*
X0201404Y0108425D03*
X0135318Y0108425D03*
X0135318Y0111417D03*
X0122404Y0108425D03*
X0122404Y0140157D03*
X0122404Y0140315D03*
X0125081Y0141732D03*
X0125081Y0141890D03*
X0132483Y0140472D03*
D69*
X0128861Y0113150D03*
X0128861Y0112992D03*
X0128861Y0112835D03*
X0128861Y0112677D03*
X0128861Y0112520D03*
X0128861Y0112362D03*
X0128861Y0112205D03*
X0128861Y0107795D03*
X0128861Y0107638D03*
X0128861Y0107480D03*
X0128861Y0107323D03*
X0128861Y0107165D03*
X0128861Y0107008D03*
X0128861Y0106850D03*
X0207861Y0106850D03*
X0207861Y0107008D03*
X0207861Y0107165D03*
X0207861Y0107323D03*
X0207861Y0107480D03*
X0207861Y0107638D03*
X0207861Y0107795D03*
X0207861Y0112205D03*
X0207861Y0112362D03*
X0207861Y0112520D03*
X0207861Y0112677D03*
X0207861Y0112835D03*
X0207861Y0112992D03*
X0207861Y0113150D03*
D70*
X0209987Y0112047D03*
X0130987Y0112047D03*
D71*
X0127444Y0136850D03*
X0127444Y0137008D03*
X0127444Y0137165D03*
X0127444Y0137323D03*
X0127444Y0137480D03*
X0127444Y0137638D03*
X0127444Y0137795D03*
X0127444Y0142362D03*
X0127444Y0142520D03*
X0127444Y0142677D03*
X0127444Y0142835D03*
X0127444Y0142992D03*
X0127444Y0143150D03*
D72*
X0124451Y0142205D03*
D73*
X0130908Y0142205D03*
D74*
X0130987Y0142047D03*
X0130987Y0141890D03*
X0130987Y0141732D03*
X0130987Y0141575D03*
X0130987Y0141417D03*
D75*
X0130278Y0140945D03*
D76*
X0207491Y0142047D03*
X0207491Y0142205D03*
X0207491Y0142362D03*
X0207491Y0142520D03*
X0207491Y0142677D03*
X0207491Y0142835D03*
X0207491Y0142992D03*
X0207491Y0143150D03*
X0207491Y0137795D03*
X0207491Y0137638D03*
X0207491Y0137480D03*
X0207491Y0137323D03*
X0207491Y0137165D03*
X0207491Y0137008D03*
X0207491Y0136850D03*
D77*
X0210404Y0141890D03*
D78*
X0208514Y0140945D03*
D79*
X0197538Y0135906D02*
X0220176Y0135906D01*
X0220176Y0114252D01*
X0197538Y0114252D01*
X0197538Y0135906D01*
X0220176Y0135906D02*
X0223129Y0135906D01*
X0223129Y0114252D01*
X0220176Y0114252D01*
X0139129Y0114094D02*
X0116491Y0114094D01*
X0116491Y0135748D01*
X0139129Y0135748D01*
X0139129Y0114094D01*
X0116491Y0114094D02*
X0113538Y0114094D01*
X0113538Y0135748D01*
X0116491Y0135748D01*
M02*
